<svg xmlns="http://www.w3.org/2000/svg" xmlns:xlink="http://www.w3.org/1999/xlink" viewBox="0 0 297 266" width="184" height="168"><defs><clipPath id="a"><path d="M37.42,14.42A21.74,21.74,0,0,0,15.68,36.16v203.1A21.74,21.74,0,0,0,37.42,261H167.07c67.81,0,123.29-55.48,123.29-123.29S234.88,14.42,167.07,14.42Z" fill="none"/></clipPath><clipPath id="b"><rect x="-1602.97" y="-221.41" width="1920" height="1080" fill="none"/></clipPath></defs><path d="M37.42,261H167.07c67.81,0,123.29-55.48,123.29-123.29S234.88,14.42,167.07,14.42H37.42A21.74,21.74,0,0,0,15.68,36.16v203.1A21.74,21.74,0,0,0,37.42,261" fill="#76a780"/><g clip-path="url(#a)"><g clip-path="url(#b)"><path d="M28.09,146.36a108.19,108.19,0,0,1,11.72,1.4,53.62,53.62,0,0,0,18.47-.15c5.66-1.13,36.16-1.22,42.42-1.71,7.41-.57-5.47,17.79-6.1,23.82S93.76,180.17,68,180.77c-3.06.07-10.38-2.37-17.95-2.82s-20.63-1.2-26-2.36S10,176,6.6,175.2s-6.29.1-6.58-3.58,0-15.87-.58-20.22S.6,144,3.5,144.3s20,1.52,24.59,2.06" fill="#c97840"/><path d="M28.09,146.36a108.19,108.19,0,0,1,11.72,1.4,53.62,53.62,0,0,0,18.47-.15c5.66-1.13,36.16-1.22,42.42-1.71,7.41-.57-5.47,17.79-6.1,23.82S93.76,180.17,68,180.77c-3.06.07-10.38-2.37-17.95-2.82s-20.64-1.2-26-2.36S10,176,6.6,175.2s-6.29.1-6.58-3.58,0-15.87-.58-20.22S.6,144,3.5,144.3,23.46,145.82,28.09,146.36Z" fill="none" stroke="#231f20" stroke-miterlimit="10" stroke-width="1.04"/><path d="M85.63,111.28s6.64,22.08,6.48,31.87,1.16,36.69-1.66,47.15-2.88,11.18-1.33,11.78,4.42,1.79,5.38.47,2.86-8.84,4.06-22,3.22-24,1.91-35.73-5.86-26-8.13-32.5-6.71-1.06-6.71-1.06" fill="#76a780"/><path d="M85.63,111.28s6.64,22.08,6.48,31.87,1.16,36.69-1.66,47.15-2.88,11.18-1.33,11.78,4.42,1.79,5.38.47,2.86-8.84,4.06-22,3.22-24,1.91-35.73-5.86-26-8.13-32.5S85.63,111.28,85.63,111.28Z" fill="none" stroke="#231f20" stroke-miterlimit="10" stroke-width="1.04"/><path d="M88.81,162c-6.19-.5-5.77-10,.83-9.48a32.94,32.94,0,0,0,6.62-.14,4.8,4.8,0,0,0,4-2.81,4.63,4.63,0,0,0,.39-1.81l.07-1.85s5.15-.75,9.21,4.43a14.42,14.42,0,0,1,2.94,7.51c.47,4.67.82,13.84-2.91,18.53-5.15,6.46-18,6.33-23.06,3.3-3.73-2.26-1.39-7.78.52-7.78.52,0-.2-.09-.66-.32-.22-.11-.47-.26-.77-.45-1.5-1-2.53-2.05-1.86-5A5.45,5.45,0,0,1,90.4,162a37.29,37.29,0,0,0,10.33-.47" fill="#c97840"/><path d="M88.81,162c-6.19-.5-5.77-10,.83-9.48a32.94,32.94,0,0,0,6.62-.14,4.8,4.8,0,0,0,4-2.81,4.63,4.63,0,0,0,.39-1.81l.07-1.85s5.15-.75,9.21,4.43a14.42,14.42,0,0,1,2.94,7.51c.47,4.67.82,13.84-2.91,18.53-5.15,6.46-18,6.33-23.06,3.3-3.73-2.26-1.39-7.78.52-7.78.52,0-.2-.09-.66-.32-.22-.11-.47-.26-.77-.45-1.5-1-2.53-2.05-1.86-5A5.45,5.45,0,0,1,90.4,162a37.29,37.29,0,0,0,10.33-.47" fill="none" stroke="#231f20" stroke-linecap="round" stroke-miterlimit="10" stroke-width="1.04"/><path d="M102.53,171.21a33.91,33.91,0,0,1-8.48,1,55,55,0,0,1-6.49-.39" fill="#c97840"/><path d="M102.53,171.21a33.91,33.91,0,0,1-8.48,1,55,55,0,0,1-6.49-.39" fill="none" stroke="#231f20" stroke-linecap="round" stroke-miterlimit="10" stroke-width="1.04"/><path d="M82,85.2s-5.23-16-1.33-23.18c4.38-8.11,7.63-1.3,9.5,3.3s-.38,19.38-.38,19.38" fill="#db5b54"/><path d="M82,85.2s-5.23-16-1.33-23.18c4.38-8.11,7.63-1.3,9.5,3.3s-.38,19.38-.38,19.38" fill="none" stroke="#231f20" stroke-miterlimit="10" stroke-width="1.04"/><path d="M74,112s-11,10.07-19.2,9.61c-9.2-.53-4.42-6.37-1-10s16-6.81,16-6.81" fill="#db5b54"/><path d="M74,112s-11,10.07-19.2,9.61c-9.2-.53-4.42-6.37-1-10s16-6.81,16-6.81" fill="none" stroke="#231f20" stroke-miterlimit="10" stroke-width="1.04"/><path d="M84.86,72.15a20.31,20.31,0,0,0-.26,4c.16,1.34,1.06,8,1.05,8.26" fill="none" stroke="#231f20" stroke-linecap="round" stroke-miterlimit="10" stroke-width="1.04"/><path d="M58.35,115.84a28.8,28.8,0,0,0,4.85-2.2c1.82-1.15,8.2-5.39,8.2-5.39" fill="none" stroke="#231f20" stroke-linecap="round" stroke-miterlimit="10" stroke-width="1.04"/><path d="M69.75,104.8s-15.15,2.76-22-1.8c-7.66-5.13-1.74-9.18,3-10.6s19.47,3.4,19.47,3.4" fill="#db5b54"/><path d="M69.75,104.8s-15.15,2.76-22-1.8c-7.66-5.13-1.74-9.18,3-10.6s19.47,3.4,19.47,3.4" fill="none" stroke="#231f20" stroke-miterlimit="10" stroke-width="1.04"/><path d="M53.83,99.86s4.29-.28,6.44-.34,9.18.55,9.18.55" fill="none" stroke="#231f20" stroke-linecap="round" stroke-miterlimit="10" stroke-width="1.04"/><path d="M102.3,103.43s17.34,2.42,22.27,9c5.55,7.35-2,7.48-6.95,7.26s-19.88-7.1-19.88-7.1" fill="#db5b54"/><path d="M102.3,103.43s17.34,2.42,22.27,9c5.55,7.35-2,7.48-6.95,7.26s-19.88-7.1-19.88-7.1" fill="none" stroke="#231f20" stroke-miterlimit="10" stroke-width="1.04"/><path d="M112.53,113.25a28.75,28.75,0,0,0-4.81-2.28c-2-.65-6.79-2.29-6.79-2.29" fill="#f1f1f2"/><path d="M112.53,113.25a28.75,28.75,0,0,0-4.81-2.28c-2-.65-6.79-2.29-6.79-2.29" fill="none" stroke="#231f20" stroke-linecap="round" stroke-miterlimit="10" stroke-width="1.04"/><path d="M96.24,111.16s14.7,11,15.62,19.13c1,9.16-5.88,7.25-10,4.54s-11.95-19.34-11.95-19.34" fill="#db5b54"/><path d="M96.24,111.16s14.7,11,15.62,19.13c1,9.16-5.88,7.25-10,4.54s-11.95-19.34-11.95-19.34" fill="none" stroke="#231f20" stroke-miterlimit="10" stroke-width="1.04"/><path d="M104.59,127.89s-3-3.1-4.42-4.7a31.48,31.48,0,0,1-3.24-5.14" fill="none" stroke="#231f20" stroke-linecap="round" stroke-miterlimit="10" stroke-width="1.04"/><path d="M101.76,93.68s15.12-5.32,22.6-2c8.4,3.78,3.24,8.76-1.21,11s-20.85.76-20.85.76" fill="#db5b54"/><path d="M101.76,93.68s15.12-5.32,22.6-2c8.4,3.78,3.24,8.76-1.21,11s-20.85.76-20.85.76" fill="none" stroke="#231f20" stroke-miterlimit="10" stroke-width="1.04"/><path d="M118.93,95.83s-4.18,1-6.29,1.41S103,98.43,103,98.43" fill="none" stroke="#231f20" stroke-linecap="round" stroke-miterlimit="10" stroke-width="1.04"/><path d="M89.74,84.7s1.8-15.59,8-20.51c7-5.52,9.63.23,10,4.51.56,7.12-10.22,19.09-10.22,19.09" fill="#db5b54"/><path d="M89.74,84.7s1.8-15.59,8-20.51c7-5.52,9.63.23,10,4.51.56,7.12-10.22,19.09-10.22,19.09" fill="none" stroke="#231f20" stroke-miterlimit="10" stroke-width="1.04"/><path d="M99.49,69.88s-.74,3.68-1.19,5.51-3.58,9.91-3.58,9.91" fill="none" stroke="#231f20" stroke-linecap="round" stroke-miterlimit="10" stroke-width="1.04"/><path d="M74,112s-8.85,6.51-9.8,11.48-.72,8,.57,9.24,5.77.39,7.63-1.62,7.77-9.16,9.09-15.85" fill="#db5b54"/><path d="M74,112s-8.85,6.51-9.8,11.48-.72,8,.57,9.24,5.77.39,7.63-1.62,7.77-9.16,9.09-15.85" fill="none" stroke="#231f20" stroke-miterlimit="10" stroke-width="1.04"/><path d="M69.2,125.12S71,122.75,72,121.61s4.76-6.36,5.13-7" fill="#f1f1f2"/><path d="M69.2,125.12S71,122.75,72,121.61s4.76-6.36,5.13-7" fill="none" stroke="#231f20" stroke-linecap="round" stroke-miterlimit="10" stroke-width="1.04"/><path d="M74.69,89.1s-8.17-9.33-13.21-9.78-8,.08-9.14,1.48.2,5.78,2.38,7.44S64.2,94.93,71,95.58" fill="#db5b54"/><path d="M74.69,89.1s-8.17-9.33-13.21-9.78-8,.08-9.14,1.48.2,5.78,2.38,7.44S64.2,94.93,71,95.58" fill="none" stroke="#231f20" stroke-miterlimit="10" stroke-width="1.04"/><path d="M60.37,84.51S62.9,86.1,64.13,87s7.34,4.84,8,5.14" fill="#f1f1f2"/><path d="M60.37,84.51S62.9,86.1,64.13,87s7.34,4.84,8,5.14" fill="none" stroke="#231f20" stroke-linecap="round" stroke-miterlimit="10" stroke-width="1.04"/><path d="M74.69,89.1s-9.87-9-11.35-16.26.61-12.13,6.09-8.52,8.66,5.74,9.67,10.75,2.57,10.61,2.57,10.61" fill="#db5b54"/><path d="M74.69,89.1s-9.87-9-11.35-16.26.61-12.13,6.09-8.52,8.66,5.74,9.67,10.75,2.57,10.61,2.57,10.61" fill="none" stroke="#231f20" stroke-miterlimit="10" stroke-width="1.04"/><path d="M77.81,86.66a53.1,53.1,0,0,0-3.41-6.84c-1.26-1.75-4.08-5.89-4.08-5.89" fill="none" stroke="#231f20" stroke-linecap="round" stroke-miterlimit="10" stroke-width="1.04"/><path d="M97.93,87.53s9.43-11.15,16.63-12.89,12.14.18,8.73,5.79-5.43,8.85-10.41,10-11.12,3.22-11.12,3.22" fill="#db5b54"/><path d="M97.93,87.53s9.43-11.15,16.63-12.89,12.14.18,8.73,5.79-5.43,8.85-10.41,10-11.12,3.22-11.12,3.22" fill="none" stroke="#231f20" stroke-miterlimit="10" stroke-width="1.04"/><path d="M100.75,90.68s5.53-3.42,7.22-4.74,5.75-4.29,5.75-4.29" fill="#f1f1f2"/><path d="M100.75,90.68s5.53-3.42,7.22-4.74,5.75-4.29,5.75-4.29" fill="none" stroke="#231f20" stroke-linecap="round" stroke-miterlimit="10" stroke-width="1.04"/><path d="M90.52,115.36s2.37,13.49-.75,20.21-7.71,9.39-10,3.22S76.26,129,78.43,124.4a56,56,0,0,0,3.27-9" fill="#db5b54"/><path d="M90.52,115.36s2.37,13.49-.75,20.21-7.71,9.39-10,3.22S76.26,129,78.43,124.4a56,56,0,0,0,3.27-9" fill="none" stroke="#231f20" stroke-miterlimit="10" stroke-width="1.04"/><path d="M85.84,115.56a28.71,28.71,0,0,0-.79,5.26c0,2.15-.23,7.16-.23,7.16" fill="#f1f1f2"/><path d="M85.84,115.56a28.71,28.71,0,0,0-.79,5.26c0,2.15-.23,7.16-.23,7.16" fill="none" stroke="#231f20" stroke-linecap="round" stroke-miterlimit="10" stroke-width="1.04"/><path d="M84.65,116.12S79.86,116,77.9,115s-5.56-4.94-7-7.39-1.46-3.38-1.63-6.24,1.94-7.44,2.88-9.24c2.24-4.27,5.94-5.85,9.82-6.89a20.57,20.57,0,0,1,9.81-.66c4.09.53,6.12,2.37,8.12,5s2.94,5.5,3.1,10.14-2.2,10.24-5.24,12.92a25,25,0,0,1-7.48,3.88c-2.11.55-5.61-.34-5.61-.34" fill="#f6df53"/><path d="M84.65,116.12S79.86,116,77.9,115s-5.56-4.94-7-7.39-1.46-3.38-1.63-6.24,1.94-7.44,2.88-9.24c2.24-4.27,5.94-5.85,9.82-6.89a20.57,20.57,0,0,1,9.81-.66c4.09.53,6.12,2.37,8.12,5s2.94,5.5,3.1,10.14-2.2,10.24-5.24,12.92a25,25,0,0,1-7.48,3.88C88.15,117,84.65,116.12,84.65,116.12Z" fill="none" stroke="#231f20" stroke-miterlimit="10" stroke-width="1.04"/><path d="M91.61,94.49a1,1,0,0,0-.93.6c-.25.67-.48,1.81.7,1.68a1.08,1.08,0,0,0,1-1.46c-.08-.37-.38-.83-.77-.82" fill="#231f20"/><path d="M78.56,95.84a.92.92,0,0,0-.93.6c-.26.66-.48,1.8.7,1.68a1.09,1.09,0,0,0,1-1.46c-.09-.37-.39-.84-.77-.82" fill="#231f20"/><path d="M76,94.87a3,3,0,0,1,1.58-.93,3.83,3.83,0,0,1,2,.06" fill="#f6df53"/><path d="M76,94.87a3,3,0,0,1,1.58-.93,3.83,3.83,0,0,1,2,.06" fill="none" stroke="#231f20" stroke-linecap="round" stroke-miterlimit="10" stroke-width="1.04"/><path d="M89.33,93.47a2.93,2.93,0,0,1,1.58-.93,3.9,3.9,0,0,1,2,0" fill="#f6df53"/><path d="M89.33,93.47a2.93,2.93,0,0,1,1.58-.93,3.9,3.9,0,0,1,2,0" fill="none" stroke="#231f20" stroke-linecap="round" stroke-miterlimit="10" stroke-width="1.04"/><path d="M84.61,98a7.25,7.25,0,0,1,1.19,3.16c.2,1.81-1.08,2.39-.82,3.28s1.27,1,2.14.39" fill="#f6df53"/><path d="M84.61,98a7.25,7.25,0,0,1,1.19,3.16c.2,1.81-1.08,2.39-.82,3.28s1.27,1,2.14.39" fill="none" stroke="#231f20" stroke-linecap="round" stroke-miterlimit="10" stroke-width="1.04"/><path d="M81.28,109.7a8.89,8.89,0,0,0,10,0" fill="#f6df53"/><path d="M81.28,109.7a8.89,8.89,0,0,0,10,0" fill="none" stroke="#231f20" stroke-linecap="round" stroke-miterlimit="10" stroke-width="1.04"/></g></g><path d="M138.06,231.53c-.69,0-1-.27-1-.81v-.17a3.14,3.14,0,0,1,.85-1.55,3.34,3.34,0,0,0,.86-2.11V206a3.32,3.32,0,0,0-.86-2.11,3.18,3.18,0,0,1-.85-1.55v-.18c0-.53.34-.8,1-.8h9.28c.68,0,1,.27,1,.8v.18a3.08,3.08,0,0,1-.92,1.55,3.19,3.19,0,0,0-.91,2.11l-.05,8.68h11.2l0-8.68a3.33,3.33,0,0,0-.83-2.11,3.18,3.18,0,0,1-.83-1.55v-.18c0-.53.33-.8,1-.8h9.28c.68,0,1,.27,1,.8v.18c0,.33-.32.85-1,1.55a3.12,3.12,0,0,0-1,2.11v20.94a3.14,3.14,0,0,0,1,2.11c.64.7,1,1.21,1,1.55v.17c0,.54-.35.81-1,.81H157c-.65,0-1-.27-1-.81v-.17a3.14,3.14,0,0,1,.83-1.55,3.35,3.35,0,0,0,.83-2.11l0-8.94H146.53l-.05,8.94a3.21,3.21,0,0,0,.94,2.11c.62.7.94,1.21.94,1.55v.17q0,.81-1,.81Z"/><path d="M191.17,223.61a4.31,4.31,0,0,0,.79,1.52,1.82,1.82,0,0,0,.86.64,3.12,3.12,0,0,1,.73.3.83.83,0,0,1,.41.57q.25,1.38-4.47,2.28a6.93,6.93,0,0,1-3,.08,2.16,2.16,0,0,1-1.48-1.32c-.79,1.65-2.42,2.72-4.9,3.19a9.53,9.53,0,0,1-6-.55A5.64,5.64,0,0,1,171,226a5.75,5.75,0,0,1,1.28-5.12,8.63,8.63,0,0,1,5-2.72,8.36,8.36,0,0,1,4.43.24l0-.12a28.55,28.55,0,0,0-2-5.42,2,2,0,0,0-2.31-1.08,1.81,1.81,0,0,0-1.38,1.17,6.45,6.45,0,0,0-.49,2.09,4.94,4.94,0,0,1-.66,2.12,2.57,2.57,0,0,1-1.84,1.26,3.07,3.07,0,0,1-2.26-.36,2.59,2.59,0,0,1-1.19-1.81,4,4,0,0,1,1.73-4.12,13.26,13.26,0,0,1,5.71-2.36,10.65,10.65,0,0,1,7.35,1,9.38,9.38,0,0,1,4.42,5.55Zm-9.12,4.69a1.88,1.88,0,0,0,1.4-1.22,3.84,3.84,0,0,0,.2-2.21l-.53-1.89q-1.08-3.39-3.25-3a1.88,1.88,0,0,0-1.4,1.07,3.38,3.38,0,0,0-.2,2.18,9.88,9.88,0,0,0,1.49,3.82A2.28,2.28,0,0,0,182.05,228.3Z"/><path d="M208.67,197.74c.58-.3,1-.22,1.25.26l.08.15c.18.35.07,1-.33,2a5.73,5.73,0,0,0-.51,2.52l1.93,15.56a1.46,1.46,0,0,1-.8,1.67L207,221.69a1.7,1.7,0,0,1-1.88-.28l-12.53-10a8.35,8.35,0,0,0-2-1.08,3.26,3.26,0,0,1-1.67-1.12l-.07-.15c-.25-.48-.09-.87.49-1.17l8.68-4.54c.55-.28,1-.18,1.22.33l.08.15a1.88,1.88,0,0,1,.12,1.06,4.44,4.44,0,0,0,0,1.17,3.35,3.35,0,0,0,.95,1.42l7.7,6.84-1.2-9a4,4,0,0,0-1-2.26,4.53,4.53,0,0,0-1.5-.71,1.71,1.71,0,0,1-1.05-.58l-.08-.15c-.26-.51-.1-.91.48-1.21Z"/><path d="M230.47,195.64a1,1,0,0,1,.57-.91.77.77,0,0,1,1,.27q1.4,1.6,1.17,4.85a8.72,8.72,0,0,1-3,5.84,10.18,10.18,0,0,1-7.56,3,10.64,10.64,0,0,1-7.48-3.67,10.06,10.06,0,0,1-2.92-7.63,10.3,10.3,0,0,1,3.36-7.21,9.06,9.06,0,0,1,5.61-2.8,5.18,5.18,0,0,1,4.32,1.49,2.8,2.8,0,0,1,.59,3.06l-2.91,9.28a5.47,5.47,0,0,0,5.43-1.31,6,6,0,0,0,1.45-2.09A4.33,4.33,0,0,0,230.47,195.64Zm-14-3.39a2.35,2.35,0,0,0-.63,2.34,6,6,0,0,0,1.61,2.87,14.18,14.18,0,0,0,3.53,2.82l1.25-4.45a2.49,2.49,0,0,0-.68-2.34,6.87,6.87,0,0,0-2.49-1.63A2.29,2.29,0,0,0,216.48,192.25Z"/><path d="M249.4,168.09a4.09,4.09,0,0,0,1.68.28,1.83,1.83,0,0,0,1-.3,3.09,3.09,0,0,1,.67-.41.84.84,0,0,1,.71,0q1.26.62-.85,4.94a6.9,6.9,0,0,1-1.7,2.42,2.2,2.2,0,0,1-1.95.4q1.29,2.43-.38,5.83a9.55,9.55,0,0,1-4,4.5,5.65,5.65,0,0,1-5.31-.1,5.71,5.71,0,0,1-3.33-4.09,8.53,8.53,0,0,1,.84-5.65,8.26,8.26,0,0,1,2.83-3.4l-.11-.06a28.55,28.55,0,0,0-5.55-1.64,2,2,0,0,0-2.24,1.2,1.81,1.81,0,0,0,.11,1.81,6.18,6.18,0,0,0,1.38,1.64,4.85,4.85,0,0,1,1.3,1.8,2.51,2.51,0,0,1-.09,2.23,3,3,0,0,1-1.63,1.59,2.53,2.53,0,0,1-2.16-.13,4,4,0,0,1-2.27-3.85,13.3,13.3,0,0,1,1.52-6,10.7,10.7,0,0,1,5.18-5.32,9.41,9.41,0,0,1,7.09-.21Zm-1.71,10.11a1.86,1.86,0,0,0-.14-1.84,3.8,3.8,0,0,0-1.65-1.49l-1.83-.7c-2.24-.78-3.69-.51-4.33.82a1.89,1.89,0,0,0,0,1.76,3.4,3.4,0,0,0,1.64,1.46,9.59,9.59,0,0,0,3.94,1.09A2.26,2.26,0,0,0,247.69,178.2Z"/><path d="M228.83,124.24c0-.68.28-1,.82-1h.17c.34,0,.85.34,1.54,1a3.11,3.11,0,0,0,2.09,1l23.58.38a1.75,1.75,0,0,1,2,2l0,2.43a2.82,2.82,0,0,1-1.44,2.19L237.1,147.07l16.9.27a3.16,3.16,0,0,0,2.14-1c.72-.66,1.25-1,1.59-1h.17c.54,0,.81.37.8,1.08l-.09,5.45c0,.68-.29,1-.83,1h-.17a3.21,3.21,0,0,1-1.56-.88,3.39,3.39,0,0,0-2.11-.89l-20.86-.34a3.43,3.43,0,0,0-2.14.82,3.21,3.21,0,0,1-1.59.83h-.17c-.54,0-.81-.35-.8-1l.11-6.34a2.8,2.8,0,0,1,1.4-2.28l19.46-13.52-16-.26a3.17,3.17,0,0,0-2.12.9c-.71.61-1.23.92-1.57.91h-.17c-.54,0-.81-.35-.8-1Z"/><path d="M233.28,118.52a5.13,5.13,0,0,1-.23,3.73,4.08,4.08,0,0,1-5.87,1.63,5.14,5.14,0,0,1-2.11-3.09,5,5,0,0,1,.24-3.68,4.08,4.08,0,0,1,5.87-1.63A5.09,5.09,0,0,1,233.28,118.52Zm23.33-1.72q.27,1-.51,1.2l-.16,0a3.26,3.26,0,0,1-1.75-.4,3.39,3.39,0,0,0-2.28-.26l-7.79,2.16a3.38,3.38,0,0,0-1.85,1.39c-.52.73-.9,1.13-1.15,1.2l-.16,0c-.33.09-.73-.14-1.21-.69L235,116.15a1.57,1.57,0,0,1-.45-1.33,1.05,1.05,0,0,1,.81-.76l14.52-4a3.2,3.2,0,0,0,1.8-1.49q.76-1.22,1.26-1.35l.17,0c.51-.15.87.13,1.06.81Z"/><path d="M248,93.09a10.69,10.69,0,0,1,.88,8.53,10.41,10.41,0,0,1-5.21,6.24,9.93,9.93,0,0,1-8.27.77,12.08,12.08,0,0,1-7.6-11.93,5.33,5.33,0,0,1,2.83-4.46,2.38,2.38,0,0,1,1.93-.17,3.16,3.16,0,0,1,1.7,1.78,3.7,3.7,0,0,1,.14,2.74A6.68,6.68,0,0,1,233.1,99a8.15,8.15,0,0,0-1.38,2.17,2.33,2.33,0,0,0,0,2.09,2.57,2.57,0,0,0,2.24,1.25,6.33,6.33,0,0,0,3.36-.83,10.81,10.81,0,0,0,5.05-4.78,6,6,0,0,0-.12-5.63,5.7,5.7,0,0,0-4.38-3,.94.94,0,0,1-.79-.74.74.74,0,0,1,.46-.91,6.93,6.93,0,0,1,5.65-.22A9.25,9.25,0,0,1,248,93.09Z"/><path d="M223.64,72.74a1,1,0,0,1-.91-.58.77.77,0,0,1,.28-1q1.63-1.38,4.87-1.12a8.75,8.75,0,0,1,5.81,3,10.18,10.18,0,0,1,2.93,7.6,10.59,10.59,0,0,1-3.74,7.43A10,10,0,0,1,225.23,91a10.29,10.29,0,0,1-7.18-3.43,9.11,9.11,0,0,1-2.75-5.63,5.23,5.23,0,0,1,1.54-4.31A2.79,2.79,0,0,1,219.9,77l9.25,3a5.46,5.46,0,0,0-1.25-5.45,5.9,5.9,0,0,0-2.08-1.47A4.22,4.22,0,0,0,223.64,72.74Zm-3.54,14a2.38,2.38,0,0,0,2.34.65,6.09,6.09,0,0,0,2.89-1.58,14.07,14.07,0,0,0,2.85-3.5L223.75,81a2.52,2.52,0,0,0-2.35.66,6.66,6.66,0,0,0-1.65,2.48A2.27,2.27,0,0,0,220.1,86.69Z"/><path d="M202.06,51.1a14.67,14.67,0,0,1,8.08,8.19,14.82,14.82,0,0,1-.27,11.88q-2.77,6.45-8.29,8.81a15.29,15.29,0,0,1-19.71-8.6,15.47,15.47,0,0,1,.38-12.09,14.85,14.85,0,0,1,8.34-8.47A14.58,14.58,0,0,1,202.06,51.1Zm-3.29,2.07a4.26,4.26,0,0,0-3.92.08,7,7,0,0,0-2.94,3.6A26.72,26.72,0,0,0,190,64.73a24.72,24.72,0,0,0,.48,8.33c.63,2.55,1.68,4.15,3.17,4.78a4.19,4.19,0,0,0,3.86-.1,7.39,7.39,0,0,0,3-3.73,27.49,27.49,0,0,0,2-8.19,22.53,22.53,0,0,0-.54-8.08C201.33,55.33,200.26,53.8,198.77,53.17Z"/><path d="M157.16,48.17a4.22,4.22,0,0,0-.73-2.13,3.28,3.28,0,0,1-.67-1.62v-.17q0-.81,1-.78l8.51.3c.68,0,1,.31,1,.85v.17a3.22,3.22,0,0,1-.86,1.54,3.11,3.11,0,0,0-.8,2.11l.16,7.63a12.28,12.28,0,0,0,.67,4.49,2.22,2.22,0,0,0,2.06,1.4,2.29,2.29,0,0,0,2.1-1,5.5,5.5,0,0,0,.81-3l.33-9.28a3.26,3.26,0,0,0-.86-2.16c-.6-.73-.9-1.26-.88-1.61v-.17c0-.53.37-.79,1.05-.77l9.19.33q1,0,1,.84v.17c0,.34-.34.85-1,1.54a3.29,3.29,0,0,0-1,2.1L178,57.3a2.23,2.23,0,0,0,.5,1.53,9.46,9.46,0,0,0,1.09,1.1,1.25,1.25,0,0,1,.54,1V61c0,.36-.37.71-1.06,1L173,64.79a1.2,1.2,0,0,1-1.22,0,1.25,1.25,0,0,1-.36-1.06l.07-2c-1.27,2.09-3.33,3.08-6.2,3a7.91,7.91,0,0,1-5.41-2.28q-2.24-2.16-2.4-6.86Z"/><path d="M137.59,50.62a1,1,0,0,1-1.05.27A.76.76,0,0,1,136,50a6.53,6.53,0,0,1,2.47-4.34,8.7,8.7,0,0,1,6.17-2.22,10.2,10.2,0,0,1,7.58,3,10.63,10.63,0,0,1,2.94,7.79,10,10,0,0,1-3.09,7.56,10.29,10.29,0,0,1-7.38,3,9.09,9.09,0,0,1-6-1.79,5.23,5.23,0,0,1-2.12-4,2.79,2.79,0,0,1,1.66-2.64l8.47-4.77a5.47,5.47,0,0,0-4.86-2.77,5.87,5.87,0,0,0-2.49.54A4.33,4.33,0,0,0,137.59,50.62Zm7.87,12a2.37,2.37,0,0,0,2.07-1.27,6,6,0,0,0,.79-3.2,14.34,14.34,0,0,0-.64-4.47l-4,2.39a2.48,2.48,0,0,0-1.11,2.17,6.7,6.7,0,0,0,.7,2.89A2.27,2.27,0,0,0,145.46,62.66Z"/></svg>