<svg xmlns="http://www.w3.org/2000/svg" viewBox="0 0 330 474.03" width="214" height="308"><path d="M224,22.22,326.06,390.87a24.39,24.39,0,0,1-16.95,29.94L136,468.76a24.39,24.39,0,0,1-29.93-17L3.94,83.16a24.39,24.39,0,0,1,17-29.94L194,5.27a24.4,24.4,0,0,1,29.93,17" fill="#f0bec8"/><path d="M53.63,98.75q-1,.27-1.2-.51l0-.16a3.12,3.12,0,0,1,.41-1.73,3.39,3.39,0,0,0,.26-2.26L47.46,73.91a3.34,3.34,0,0,0-1.39-1.81c-.73-.52-1.14-.94-1.23-1.27l-.05-.16c-.14-.52.11-.87.77-1l10.22-2.83c4-1.1,7.36-1.19,10.17-.26s4.69,3,5.61,6.36a9.68,9.68,0,0,1-1.15,8.29,13,13,0,0,1-7.77,5.13l-3.4.94L60.55,92A3.14,3.14,0,0,0,62,93.79c.8.5,1.25.91,1.34,1.24l0,.17c.15.52-.11.87-.77,1Zm6.7-14.89,1.52-.42A3.48,3.48,0,0,0,64.38,81a7.41,7.41,0,0,0-.06-4.27A11,11,0,0,0,60.94,71q-2.32-1.93-4.38-1.37l-.57.16c-1,.27-1.3,1.06-.94,2.38L57.9,82.41A1.76,1.76,0,0,0,60.33,83.86Z"/><path d="M93.85,80.63a1,1,0,0,1,.93-.55.77.77,0,0,1,.74.7c.33,1.39-.08,3-1.22,4.85a8.67,8.67,0,0,1-5.36,3.78,10.21,10.21,0,0,1-8.1-.85,10.65,10.65,0,0,1-4.91-6.72,10.08,10.08,0,0,1,1-8.11,10.3,10.3,0,0,1,6.33-4.82,9.06,9.06,0,0,1,6.26.12,5.2,5.2,0,0,1,3.13,3.33,2.78,2.78,0,0,1-.89,3L84.83,82.2a5.44,5.44,0,0,0,5.41,1.37,5.77,5.77,0,0,0,2.26-1.18A4.35,4.35,0,0,0,93.85,80.63ZM83,71.12a2.36,2.36,0,0,0-1.65,1.78,6,6,0,0,0,.09,3.29,14.39,14.39,0,0,0,1.81,4.14L86.47,77A2.47,2.47,0,0,0,87,74.58,6.79,6.79,0,0,0,85.51,72,2.28,2.28,0,0,0,83,71.12Z"/><path d="M117.3,76.3a4.16,4.16,0,0,0,.91,1.45,1.94,1.94,0,0,0,.9.57,2.62,2.62,0,0,1,.75.23.8.8,0,0,1,.46.54q.38,1.35-4.26,2.63a7,7,0,0,1-2.94.33,2.25,2.25,0,0,1-1.59-1.19q-1,2.56-4.62,3.57a9.46,9.46,0,0,1-6-.05,5.62,5.62,0,0,1-3.44-4,5.72,5.72,0,0,1,.86-5.2A8.61,8.61,0,0,1,103.08,72a8.19,8.19,0,0,1,4.43-.12l0-.12A29,29,0,0,0,105,66.53a2,2,0,0,0-2.39-.88,1.8,1.8,0,0,0-1.28,1.28,6.57,6.57,0,0,0-.32,2.12,5,5,0,0,1-.48,2.17,2.52,2.52,0,0,1-1.73,1.4,3.05,3.05,0,0,1-2.28-.16,2.59,2.59,0,0,1-1.33-1.71A4,4,0,0,1,96.6,66.5a13.43,13.43,0,0,1,5.49-2.82,10.6,10.6,0,0,1,7.41.36,9.33,9.33,0,0,1,4.86,5.17Zm-8.71,5.42a1.86,1.86,0,0,0,1.29-1.33,3.81,3.81,0,0,0,0-2.22l-.69-1.84c-.9-2.2-2.07-3.1-3.49-2.7a1.86,1.86,0,0,0-1.3,1.18,3.39,3.39,0,0,0,0,2.19,9.76,9.76,0,0,0,1.79,3.67A2.3,2.3,0,0,0,108.59,81.72Z"/><path d="M132.35,77.39a10.7,10.7,0,0,1-8.52-.93,10.43,10.43,0,0,1-5-6.42,9.87,9.87,0,0,1,1-8.24,12,12,0,0,1,13.26-4.91,5.31,5.31,0,0,1,3.77,3.7,2.45,2.45,0,0,1-.25,1.93,3.17,3.17,0,0,1-2.09,1.28,3.65,3.65,0,0,1-2.71-.44,6.66,6.66,0,0,1-2.07-1.81,8.1,8.1,0,0,0-1.83-1.82,2.35,2.35,0,0,0-2-.47,2.55,2.55,0,0,0-1.69,1.93,6.41,6.41,0,0,0,.09,3.46,10.92,10.92,0,0,0,3.61,5.94,6,6,0,0,0,5.54,1.07A5.7,5.7,0,0,0,137.31,68a1,1,0,0,1,.89-.62A.75.75,0,0,1,139,68a6.91,6.91,0,0,1-1,5.57A9.33,9.33,0,0,1,132.35,77.39Z"/><path d="M157.81,62.92a1,1,0,0,1,.93-.55.76.76,0,0,1,.74.7c.33,1.38-.08,3-1.21,4.84a8.75,8.75,0,0,1-5.36,3.79,10.21,10.21,0,0,1-8.1-.85,10.63,10.63,0,0,1-4.91-6.73,10,10,0,0,1,1-8.11,10.32,10.32,0,0,1,6.32-4.82,9.09,9.09,0,0,1,6.27.12,5.22,5.22,0,0,1,3.13,3.33,2.78,2.78,0,0,1-.9,3l-6.89,6.86a5.48,5.48,0,0,0,5.42,1.37,6,6,0,0,0,2.25-1.18A4.41,4.41,0,0,0,157.81,62.92ZM147,53.41a2.35,2.35,0,0,0-1.65,1.78,6,6,0,0,0,.1,3.29,13.69,13.69,0,0,0,1.81,4.13l3.18-3.35a2.5,2.5,0,0,0,.48-2.39,6.72,6.72,0,0,0-1.45-2.6A2.27,2.27,0,0,0,147,53.41Z"/><path d="M199.13,54.21c.77-.21,1.23,0,1.39.54l.08.29c.2.71-.17,1.58-1.09,2.6a7.05,7.05,0,0,1-3.4,2.09,7.92,7.92,0,0,1-6.1-.65,14.94,14.94,0,0,1-7.19,4.33c-3.72,1-6.75,1.1-9.07.19a7.1,7.1,0,0,1-4.5-5q-1.31-4.73,4.08-9.83-3.89-2.69-4.73-5.76a6.85,6.85,0,0,1,.93-5.89q1.8-2.73,6.28-4a12.55,12.55,0,0,1,4.31-.51,6.54,6.54,0,0,1,3.11.91,6.79,6.79,0,0,1,1.83,1.68,6.06,6.06,0,0,1,.31,6.78,13.33,13.33,0,0,1-3.64,3.9l7.92,4.7a23.05,23.05,0,0,0-.8-9,1.65,1.65,0,0,1,.73-1.88,3.19,3.19,0,0,1,2.32-.64,1.67,1.67,0,0,1,1.59,1.28,21.81,21.81,0,0,1,0,12.43q3.47,2,4.61,1.68Zm-22.9-18.4A1.78,1.78,0,0,0,175,37a3.64,3.64,0,0,0,0,2.12,8.54,8.54,0,0,0,3.6,4.84,5.8,5.8,0,0,0,1.08-2.56,6,6,0,0,0-.09-2.62C178.91,36.37,177.79,35.38,176.23,35.81Zm.8,20.9A5.55,5.55,0,0,0,179.25,60a4.74,4.74,0,0,0,4.1.43,7.3,7.3,0,0,0,3.9-3l-10.18-6.28A9.46,9.46,0,0,0,177,56.71Z"/><path d="M102.36,129.87a14.65,14.65,0,0,1-11.42-1.34,14.82,14.82,0,0,1-7.21-9.45q-1.87-6.76,1-12.06a15.29,15.29,0,0,1,20.76-5.6,15.47,15.47,0,0,1,7.25,9.68,14.85,14.85,0,0,1-1.21,11.82A14.6,14.6,0,0,1,102.36,129.87Zm1.28-3.67a4.27,4.27,0,0,0,3-2.51,7,7,0,0,0,0-4.65,26.74,26.74,0,0,0-3.44-7.33,25,25,0,0,0-5.59-6.21c-2.08-1.6-3.89-2.18-5.45-1.75a4.2,4.2,0,0,0-3,2.49,7.37,7.37,0,0,0,0,4.77,27.34,27.34,0,0,0,3.54,7.66,22.68,22.68,0,0,0,5.47,6Q101.3,126.85,103.64,126.2Z"/><path d="M137.19,115a4.41,4.41,0,0,0,.91,1.44,1.81,1.81,0,0,0,.91.57,3.26,3.26,0,0,1,.75.23.82.82,0,0,1,.46.54q.38,1.35-4.26,2.64a7,7,0,0,1-2.94.33,2.2,2.2,0,0,1-1.59-1.2q-1,2.57-4.62,3.58a9.52,9.52,0,0,1-6,0,5.64,5.64,0,0,1-3.44-4,5.74,5.74,0,0,1,.85-5.21,8.6,8.6,0,0,1,4.8-3.11,8.26,8.26,0,0,1,4.42-.13l0-.12a28,28,0,0,0-2.45-5.24,2,2,0,0,0-2.38-.89,1.83,1.83,0,0,0-1.28,1.29,6.27,6.27,0,0,0-.32,2.12,4.92,4.92,0,0,1-.48,2.16,2.58,2.58,0,0,1-1.73,1.41,3,3,0,0,1-2.28-.17,2.59,2.59,0,0,1-1.34-1.7,4,4,0,0,1,1.39-4.25,13.07,13.07,0,0,1,5.49-2.82,10.65,10.65,0,0,1,7.41.35,9.43,9.43,0,0,1,4.86,5.17Zm-8.7,5.41a1.85,1.85,0,0,0,1.29-1.33,3.7,3.7,0,0,0,0-2.21l-.68-1.85q-1.36-3.28-3.49-2.7a1.89,1.89,0,0,0-1.31,1.18,3.4,3.4,0,0,0,0,2.19,9.59,9.59,0,0,0,1.79,3.68A2.28,2.28,0,0,0,128.49,120.38Z"/><path d="M150.36,116.58a6.52,6.52,0,0,1-5.45-.62,8.37,8.37,0,0,1-3.34-5.12l-2.69-9.73-1.56.44a1,1,0,0,1-1.21-.69l-.25-.9a.87.87,0,0,1,.69-1.2l.78-.22a5.05,5.05,0,0,0,2.92-2,5.37,5.37,0,0,0,.93-3.5c-.06-.75.21-1.21.82-1.37l.94-.26a1,1,0,0,1,1.4.76l1.15,4.14,4.23-1.17a.93.93,0,0,1,.75.08,1,1,0,0,1,.45.6l.25.9a.92.92,0,0,1-.08.75,1,1,0,0,1-.6.46l-4.23,1.17,2.73,9.85a2.46,2.46,0,0,0,1,1.47,1.77,1.77,0,0,0,1.48.23,3.12,3.12,0,0,0,2.29-2.27,1.08,1.08,0,0,1,.53-.61.81.81,0,0,1,.68,0,.69.69,0,0,1,.43.5,6.7,6.7,0,0,1-5,8.37Z"/><path d="M167.42,111.81a14.41,14.41,0,0,1-6.86.46c-1.94-.42-3.1-1.34-3.5-2.76a2.46,2.46,0,0,1,.26-2.19,3.29,3.29,0,0,1,1.93-1.24,3,3,0,0,1,2.46.26,4.89,4.89,0,0,1,1.64,1.62,5.46,5.46,0,0,0,1.52,1.66,2.26,2.26,0,0,0,2,.38,2.06,2.06,0,0,0,1.59-2.87,2.9,2.9,0,0,0-1.78-2,8.34,8.34,0,0,0-3.09-.56c-1.15,0-2.31,0-3.46-.15a6.58,6.58,0,0,1-3.25-1.17,5.62,5.62,0,0,1-2.11-3.26A5.51,5.51,0,0,1,156,94.81a10.8,10.8,0,0,1,5.76-3.47,12.41,12.41,0,0,1,6.61-.29q2.8.77,3.37,2.82a2.43,2.43,0,0,1-.31,2,2.93,2.93,0,0,1-1.75,1.26,2.83,2.83,0,0,1-2.37-.27,4.58,4.58,0,0,1-1.57-1.62,7,7,0,0,0-1.35-1.68,1.77,1.77,0,0,0-1.74-.45,1.72,1.72,0,0,0-1.22,1.09,2.77,2.77,0,0,0-.06,1.78,3.2,3.2,0,0,0,1.77,2.16,7.53,7.53,0,0,0,3,.71c1.12,0,2.24.12,3.37.22a6.55,6.55,0,0,1,3.15,1.14,5.57,5.57,0,0,1,.82,8.07A11.59,11.59,0,0,1,167.42,111.81Z"/><path d="M185.84,105.67a4.87,4.87,0,0,1-2.82,1.86,5,5,0,0,1-3.39-.12,3.67,3.67,0,0,1-2-2.57,3.57,3.57,0,0,1,.44-3.21,5,5,0,0,1,2.84-1.85,4.88,4.88,0,0,1,3.37.13,3.6,3.6,0,0,1,2,2.53A3.68,3.68,0,0,1,185.84,105.67Z"/><path d="M247.39,377.83c-13.13-23.12-57.24-153.44-57.73-185.9-.23-15.16.31-31.33-4.12-40.52s-14.68-6.82-17.27,4.31-1.63,14.65-1,25.38,1.13,17.21-.38,17.62-3.31-6.81-7.23-17.31-4.79-10.67-8.17-18.48-8.61-9.81-14.5-7.57-10,7.86-7.63,18,7.86,19.58,9.07,23.93,4.23,9.4,4.11,10.45-4.16-4.75-9.83-3.18-7.29,3-7.42,9.17a22.19,22.19,0,0,0,2,10c.32,1.14-4.27-3.69-8.7-2.06s-11.09,3.27-11.1,10.6,5.84,12.81,7.15,15.17,5.81,5.36,6.78,7.16,5.3,6.24,8,7.1a13.17,13.17,0,0,0,3.14.82,47.07,47.07,0,0,0,5.57,16.71c4.64,7.93,34.16,116.92,34.63,119.62S173.75,409,184,409.91c5,.43,24.76-2.69,48.37-11.8.14-.05,21.22-9.34,15-20.28" fill="#c97840"/><path d="M247.39,377.83c-13.13-23.12-57.24-153.44-57.73-185.9-.24-15.16.31-31.33-4.12-40.52s-14.68-6.82-17.27,4.31-1.63,14.65-1,25.38,1.13,17.21-.38,17.62-3.31-6.81-7.23-17.31-4.79-10.67-8.17-18.48-8.61-9.81-14.5-7.57-10,7.86-7.63,18,7.86,19.58,9.07,23.93,4.23,9.4,4.11,10.45-4.16-4.75-9.83-3.18-7.29,3-7.42,9.17a22.19,22.19,0,0,0,2,10c.32,1.14-4.27-3.69-8.7-2.06s-11.09,3.27-11.1,10.6,5.84,12.81,7.15,15.17,5.81,5.36,6.78,7.16,5.3,6.24,8,7.1a13.17,13.17,0,0,0,3.14.82,46.84,46.84,0,0,0,5.57,16.71c4.64,7.93,34.17,116.92,34.63,119.62S173.75,409,184,409.91c5,.43,24.76-2.69,48.37-11.8C232.53,398.06,253.61,388.77,247.39,377.83Z" fill="none" stroke="#231f20" stroke-miterlimit="10" stroke-width="2.4"/><path d="M132.48,262.52s8.73-.77,9.69-6-2.71-11.17-6.56-19.11a82.21,82.21,0,0,0-8.39-13.69" fill="none" stroke="#231f20" stroke-miterlimit="10" stroke-width="2.4"/><path d="M142.51,207.71a50.27,50.27,0,0,1,8.61,12.85c3.11,7.13,6.09,13.29,6.26,18.95s-5,7.6-6.76,8.59-6.69.59-9.52-2.31-5.49-8.37-5.49-8.37" fill="none" stroke="#231f20" stroke-miterlimit="10" stroke-width="2.4"/><path d="M176.12,227.47s-15.19.14-20.62-1.14-16.37,0-13.8,9.27,11.09,12.54,16.15,14.31,7.64,3.34,11,3.67,8.62,2.69,10.45,3.83a7.31,7.31,0,0,0,4.5.65" fill="#c97840"/><path d="M176.12,227.47s-15.19.14-20.62-1.14-16.37,0-13.8,9.27,11.09,12.54,16.15,14.31,7.64,3.34,11,3.67,8.62,2.69,10.45,3.83a7.31,7.31,0,0,0,4.5.65" fill="none" stroke="#231f20" stroke-linecap="round" stroke-miterlimit="10" stroke-width="2.4"/></svg>