<svg xmlns="http://www.w3.org/2000/svg" xmlns:xlink="http://www.w3.org/1999/xlink" viewBox="0 0 310 320.75" width="198" height="207"><defs><clipPath id="a"><path d="M662.59-836a21.74,21.74,0,0,0-21.74,21.74v203.1a21.74,21.74,0,0,0,21.74,21.74H792.24c67.81,0,123.29-55.48,123.29-123.29S860.05-836,792.24-836Z" fill="none"/></clipPath></defs><path d="M188.33,310.13,9.48,111.79a12.72,12.72,0,0,1,.93-17.92L103.75,9.7a12.72,12.72,0,0,1,17.92.92L300.52,209a12.72,12.72,0,0,1-.93,17.92l-93.34,84.17a12.73,12.73,0,0,1-17.92-.92" fill="#487cba"/><path d="M223,241.85c3,3.43,6.36,7.47,8,9.76l7.58-6.83c-2.16-1.88-5.75-5.7-8.85-9.05l2.86-2.58c3.24,3.76,6.73,8,9.32,11.25l9.56-8-21.27-23.58c-2,2.26-4.17,4.36-6.36,6.42L206.5,235c-2.27,2-4.58,3.9-7,5.67L221,264.51l9.89-8.92c-2.75-2.47-6.95-6.71-10.95-11Z"/><path d="M218.43,199.85c-1.29-1.68-7.09-7.94-9.55-10.67l-6.19-6.87c-2,2.27-4.17,4.36-6.37,6.42L178.94,204.4c-2.27,2-4.58,3.91-7,5.67L183,222.36c11.77,12.8,21.6,11.14,31.12,2.56s11.46-15.67,4.33-25.07m-24.37,15.9c-.49-.53-1.24-1.28-1.65-1.82l12.7-11.37a18.74,18.74,0,0,1,2.22,2.12c1.83,2,.25,4.36-3.72,7.94s-6.75,5.41-9.55,3.13"/><path d="M157.87,194.51l11.46,12.71c2-2.27,4.17-4.37,6.36-6.42l17.38-15.67c2.27-2,4.58-3.91,7-5.68l-11.45-12.7c-2,2.26-4.17,4.36-6.37,6.42l-17.38,15.67c-2.27,2-4.58,3.9-7,5.67"/><path d="M133.88,167.58c2.62,3.56,7.58,9.74,10.72,13.13,7.59,8.25,14,9.33,21.24,2.76,4.68-4.22,5.46-8.6,1.29-15.72l-1.88-3.33c-.58-1-.9-1.74-.11-2.45s1.73-.58,2.51.29c2,2.27,4.8,7.07,7.14,11.41l11.49-9.38c-3.36-4.4-6.43-8.38-9.53-11.74-8.22-9-14.58-10.18-21.12-4.29-5.84,5.26-7.17,9.69-2.8,16.78l2.76,4.64c1,1.59.92,1.94.18,2.62-.58.52-1.24.37-2.74-1.29a38.48,38.48,0,0,1-7-13.62Z"/><path d="M128.8,122.84c2.29,2.28,4.35,4.33,6.38,6.4L122,141.11c-2.27,2-4.58,3.9-7,5.67l11.49,12.74c2-2.26,4.17-4.36,6.37-6.41L146,141.24c2,2.44,3.89,4.74,5.67,7l11.18-10.07L140,112.76Z"/><path d="M135.32,107.61l-13-14.48C109.5,99.61,97,106.42,84.54,113.19l9.4,10.43c1.27-.84,2.82-1.79,4.53-2.81l5.44,6c-1.22,1.55-2.32,3-3.29,4.17l11,12.16c8-11.74,15.9-23.64,23.73-35.58m-27.94,7.94c2.84-1.58,5.6-3.1,8.08-4.43l.07.08c-1.62,2.29-3.44,4.84-5.35,7.46Z"/><path d="M102.5,70.21c-9.29-10.3-19.36-10.82-29.91-1.31s-11.16,19.66-1.87,30,19.37,10.82,30,1.23,11-19.63,1.78-29.89M80,90.55c-2.31-2.57-.72-5.13,3.83-9.23s7.22-5.39,9.54-2.83.68,5.17-3.79,9.2S82.26,93.11,80,90.55"/></svg>