<svg xmlns="http://www.w3.org/2000/svg" viewBox="0 0 290 287" width="191" height="193"><path d="M184.28,283.36l-166-68.8A24.39,24.39,0,0,1,5.14,182.78l68.8-166A24.39,24.39,0,0,1,105.72,3.64l166,68.8a24.4,24.4,0,0,1,13.16,31.78l-68.8,166a24.39,24.39,0,0,1-31.78,13.16" fill="#487cba"/><path d="M135.11,240.87a62.54,62.54,0,0,0-8-20.45c-5.95-9.56-16.25-22.5-31.45-29.52-12.16-5.62-13.71-17.88-25-28s-29.37-21-23.22-34.07S66.85,123,72,126.12s11.25,11.06,14.07,10.29,4.63-15,31-18.06,33,12.57,37.58,11.46,1.77-7.41,19-17.35,19,12.08,13,17.57S172.28,144.42,172.08,160s26,56.46,24,60.42c-2.74,5.54-8.65,12.35-18.7,18.16S139,252.12,136.64,246a33.11,33.11,0,0,1-1.53-5.09" fill="#c97840"/><path d="M135.11,240.87a62.54,62.54,0,0,0-8-20.45c-5.95-9.56-16.25-22.5-31.45-29.52-12.16-5.62-13.71-17.88-25-28s-29.37-21-23.22-34.07S66.85,123,72,126.12s11.25,11.06,14.07,10.29,4.63-15,31-18.06,33,12.57,37.58,11.46,1.77-7.41,19-17.35,19,12.08,13,17.57S172.28,144.42,172.08,160s26,56.46,24,60.42c-2.74,5.54-8.65,12.35-18.7,18.16S139,252.12,136.64,246A33.11,33.11,0,0,1,135.11,240.87Z" fill="none" stroke="#000" stroke-miterlimit="10" stroke-width="2.49"/><path d="M87.07,135.59s-6.9,14.59.87,30.25c5.77,11.64,17.4,13.27,21.63,10a12.54,12.54,0,0,0,2.14-1.94" fill="none" stroke="#000" stroke-linecap="round" stroke-miterlimit="10" stroke-width="2.49"/><path d="M110.43,135.11s-8.1,9.84-2.86,29.6c1.7,6.38,5,12.45,12,13.19,4.68.5,6.34-1.61,8.14-3.76" fill="none" stroke="#000" stroke-linecap="round" stroke-miterlimit="10" stroke-width="2.49"/><path d="M127.57,135.65s-8.22,11.76-3.24,29.43c3.34,11.88,6.38,12.94,9.51,13.16,5.4.39,10.25-5.6,10.91-12.24s.89-16.48,1.87-19.3" fill="none" stroke="#000" stroke-linecap="round" stroke-miterlimit="10" stroke-width="2.49"/><path d="M120.61,56.93a4.68,4.68,0,0,0,.08,2,2.74,2.74,0,0,1,.09,1.52l-.06.13c-.18.43-.53.53-1.07.31l-7-2.91c-.53-.22-.72-.55-.54-1l.06-.13a2.9,2.9,0,0,1,1.17-.92,2.27,2.27,0,0,0,1.22-1.52l2.86-12.61L106.24,54.14a1.34,1.34,0,0,1-1.62.47,1.59,1.59,0,0,1-1-1.53l.33-17.48L97,47.15a2.34,2.34,0,0,0-.17,1.94,2.76,2.76,0,0,1,.17,1.5l-.06.13c-.17.43-.53.53-1.07.31L91.7,49.29c-.54-.22-.72-.54-.54-1l0-.14a2.75,2.75,0,0,1,1.15-1,4.06,4.06,0,0,0,1.45-1.36l9.41-15.45a2.29,2.29,0,0,0,.12-2,2.69,2.69,0,0,1-.22-1.51l.06-.14c.17-.42.52-.53,1-.32l4.45,1.85a1.89,1.89,0,0,1,1.31,2l-1,16.32L119.56,34.3a1.9,1.9,0,0,1,2.29-.56l4.58,1.9q.78.33.51,1l-.06.14c-.09.22-.5.53-1.24.91a2.27,2.27,0,0,0-1.31,1.54Z"/><path d="M131.89,49a1.58,1.58,0,0,1-2.32.26,2,2,0,0,1-.86-1.7,1.45,1.45,0,0,1,1.21-1.35L133.64,45l-3.11-1.45c-1-.43-1.37-1.08-1.17-1.94a1.84,1.84,0,0,1,1.36-1.38,1.44,1.44,0,0,1,1.68.62l2.21,2.85.41-3.46a1.77,1.77,0,0,1,.87-1.52,2.21,2.21,0,0,1,1.8,0A1.78,1.78,0,0,1,139,39.91a1.9,1.9,0,0,1-.6,1.74l-2.23,2.71,3.55-.46c1-.16,1.61.21,1.79,1.1a1.93,1.93,0,0,1-.64,1.94,1.63,1.63,0,0,1-1.71.2L136,46l1.74,3.52a1.27,1.27,0,0,1-.6,1.93,1.87,1.87,0,0,1-2,0,1.6,1.6,0,0,1-.76-1.59l.13-3.57Z"/><path d="M134.81,67.16c-.51-.21-.68-.53-.5-1l.05-.13a2.64,2.64,0,0,1,1.17-1,3,3,0,0,0,1.35-1.4l6.38-15.4a3,3,0,0,0,.05-2,2.62,2.62,0,0,1-.17-1.43l.05-.14c.1-.24.46-.4,1.06-.46l6.13-.39a1.31,1.31,0,0,1,1.15.42.91.91,0,0,1,.11.93l-8.7,21a2.75,2.75,0,0,0,.05,2,2.58,2.58,0,0,1,.24,1.54l-.06.14c-.18.42-.53.53-1.07.3Z"/><path d="M162.79,75.44a6.26,6.26,0,0,0,.66,1.3,1.83,1.83,0,0,1,.37,1.54l0,.13c-.18.43-.53.54-1,.32l-7.08-2.93c-.52-.22-.69-.55-.5-1l0-.1a1.81,1.81,0,0,1,.92-.78c.5-.26.71-.58.64-1l-1.13-5.65-2.33.86-.84,2a2.68,2.68,0,0,0,.07,2,2.64,2.64,0,0,1,.25,1.55l-.06.13c-.18.43-.54.53-1.07.31l-7.29-3c-.54-.23-.72-.55-.54-1l.06-.13a2.56,2.56,0,0,1,1.18-1,2.91,2.91,0,0,0,1.37-1.39l6.38-15.41a2.66,2.66,0,0,0-.1-2,2.67,2.67,0,0,1-.33-1.5l.06-.13c.1-.25.45-.4,1.06-.47l6.43-.26a1.39,1.39,0,0,1,1.12.43.85.85,0,0,1,.1.91l-6.64,16,6.18-2a.66.66,0,0,0,.59-.54,1.83,1.83,0,0,0,0-.87c-.08-.28-.16-.6-.24-1a1.32,1.32,0,0,1,0-.82l.05-.14c.19-.45.54-.56,1.06-.35l5.32,2.21q.78.32.51,1l0,.13a1.26,1.26,0,0,1-.82.63,11.71,11.71,0,0,1-1.73.43,10.66,10.66,0,0,0-1.79.46l-3,1.1Z"/><path d="M181.09,86.74A13.18,13.18,0,0,1,173,76a13.37,13.37,0,0,1,.95-6.59,14.64,14.64,0,0,1,3.1-4.76,12,12,0,0,1,4.18-2.83,12.87,12.87,0,0,1,4.63-.89,11.6,11.6,0,0,1,4.59.9,13.88,13.88,0,0,1,6.32,4.75q2.09,3,1,5.59a2.89,2.89,0,0,1-1.56,1.68,2.86,2.86,0,0,1-2.27-.07A4.06,4.06,0,0,1,192,72.19a7.92,7.92,0,0,1-1-2.33c-.2-.84-.39-1.67-.56-2.51a7.69,7.69,0,0,0-.86-2.29,3.44,3.44,0,0,0-1.66-1.48,3.55,3.55,0,0,0-3.55.47,8.24,8.24,0,0,0-2.84,3.8,16.93,16.93,0,0,0-1.29,9.49q.78,4.51,3.91,5.81a5.16,5.16,0,0,0,2.06.46l1.83-4.41a2.48,2.48,0,0,0-.24-2.08c-.41-.8-.56-1.34-.45-1.6l.06-.14a.62.62,0,0,1,.46-.38,1.08,1.08,0,0,1,.7.07l7.5,3.15c.54.22.72.56.53,1l-.06.13c-.11.27-.54.57-1.31.88a2.65,2.65,0,0,0-1.51,1.35l-1.62,3.91a3.43,3.43,0,0,1-2.46,1.94A12.76,12.76,0,0,1,181.09,86.74Z"/><path d="M210,94a3.93,3.93,0,0,0-.15,1.46,1.61,1.61,0,0,0,.32.86,2.57,2.57,0,0,1,.38.55.72.72,0,0,1,0,.61q-.47,1.11-4.27-.47a5.87,5.87,0,0,1-2.16-1.33,1.87,1.87,0,0,1-.44-1.64q-2,1.22-5,0a8.12,8.12,0,0,1-4.06-3.22,4.8,4.8,0,0,1-.19-4.54,4.92,4.92,0,0,1,3.33-3.07,7.4,7.4,0,0,1,4.88.43,7.11,7.11,0,0,1,3,2.25l0-.1A24.89,24.89,0,0,0,206.86,81a1.76,1.76,0,0,0-1.15-1.86,1.57,1.57,0,0,0-1.54.19,5.34,5.34,0,0,0-1.33,1.27,4.14,4.14,0,0,1-1.47,1.2,2.17,2.17,0,0,1-1.91,0A2.58,2.58,0,0,1,198,80.48a2.24,2.24,0,0,1,0-1.86,3.44,3.44,0,0,1,3.17-2.14,11.39,11.39,0,0,1,5.2,1,9.12,9.12,0,0,1,4.82,4.15,8.07,8.07,0,0,1,.55,6.06Zm-8.73-.94a1.59,1.59,0,0,0,1.57-.21A3.24,3.24,0,0,0,204,91.38l.51-1.6q.82-2.94-.93-3.67a1.6,1.6,0,0,0-1.5.11,2.92,2.92,0,0,0-1.17,1.47,8.41,8.41,0,0,0-.73,3.43A2,2,0,0,0,201.26,93.08Z"/><path d="M230.19,102.39a3.67,3.67,0,0,0-.06,1.93,2.75,2.75,0,0,1,.05,1.5l-.05.14q-.27.65-1.08.3l-6.74-2.79c-.54-.22-.72-.55-.54-1l0-.13a2.8,2.8,0,0,1,1.16-1,2.67,2.67,0,0,0,1.27-1.45l2.17-6.17a10.81,10.81,0,0,0,.81-3.82A1.89,1.89,0,0,0,226,88.21a1.94,1.94,0,0,0-2,.2,4.83,4.83,0,0,0-1.55,2.16l-3,7.35a2.79,2.79,0,0,0,0,2,2.67,2.67,0,0,1,.23,1.55l-.06.14q-.27.65-1.08.3l-7.28-3c-.54-.23-.72-.55-.54-1l.06-.13c.11-.27.53-.59,1.25-.94a2.78,2.78,0,0,0,1.44-1.38l2.76-6.64a1.94,1.94,0,0,0,.06-1.38,7.12,7.12,0,0,0-.55-1.21,1.1,1.1,0,0,1-.14-1l0-.1c.12-.29.51-.46,1.16-.51l5.68-.37c.51,0,.83.12,1,.38a1,1,0,0,1,0,1l-.66,1.58a5.5,5.5,0,0,1,5.87-.53,6.8,6.8,0,0,1,3.67,3.46c.75,1.6.71,3.68-.14,6.22Z"/><path d="M252,96.77a6,6,0,0,1,1.95,1.1.87.87,0,0,1,.05,1,1.26,1.26,0,0,1-.64.63,1.53,1.53,0,0,1-.72.13c-.22,0-.53-.07-.93-.14s-.7-.13-.87-.15a6.74,6.74,0,0,1-.08,4.87,6.61,6.61,0,0,1-6.05,4.28,6.89,6.89,0,0,1,2.51,2.64,3.27,3.27,0,0,1,0,2.62c-.55,1.33-1.84,2.06-3.88,2.21a15.2,15.2,0,0,1-6.79-1.34,13.41,13.41,0,0,1-5.34-3.55,3.89,3.89,0,0,1-.79-4.16,2.41,2.41,0,0,1,1.25-1.3,2.38,2.38,0,0,1,2,0,2.52,2.52,0,0,1,1.42,1.49,5.66,5.66,0,0,1,.36,2.17,6,6,0,0,0,.36,2.18,2.48,2.48,0,0,0,1.44,1.53,2.83,2.83,0,0,0,2.37.09,3.09,3.09,0,0,0,1.6-1.77c.65-1.55.55-2.65-.28-3.31-.51-.16-.93-.31-1.24-.44a9.78,9.78,0,0,1-5.1-4.32,6.55,6.55,0,0,1-.29-5.85,7.07,7.07,0,0,1,4.47-4.23,9.53,9.53,0,0,1,6.77.47c.63.26,1.59.73,2.9,1.4S250.91,96.32,252,96.77Zm-11,.32a14.92,14.92,0,0,0-1.12,5.66c0,2,.42,3.17,1.3,3.54a1.63,1.63,0,0,0,1.64-.21,4,4,0,0,0,1.35-1.87,15.38,15.38,0,0,0,1.07-5.53c0-2.08-.39-3.32-1.31-3.7a1.59,1.59,0,0,0-1.59.21A4.24,4.24,0,0,0,241,97.09Z"/></svg>