<svg xmlns="http://www.w3.org/2000/svg" xmlns:xlink="http://www.w3.org/1999/xlink" viewBox="0 0 275 275" width="175" height="177"><defs><clipPath id="a"><path d="M-254.13-716.43a21.74,21.74,0,0,0-21.74,21.74v203.11a21.74,21.74,0,0,0,21.74,21.74h129.65c67.81,0,123.29-55.49,123.29-123.3S-56.67-716.43-124.48-716.43Z" fill="none"/></clipPath></defs><path d="M8.1,164.83A132.25,132.25,0,1,1,164.83,266.9,132.26,132.26,0,0,1,8.1,164.83" fill="#487cba"/><path d="M63.3,99.56a10.05,10.05,0,0,1,6.2,1.34,7.23,7.23,0,0,1,.93,11.42q-3,3-10,4.46L49,119.19c-.67.14-1.06,0-1.17-.58l0-.16a3.08,3.08,0,0,1,.51-1.7,3.38,3.38,0,0,0,.4-2.24L44.42,94a3.39,3.39,0,0,0-1.27-1.89A3.09,3.09,0,0,1,42,90.79l0-.17c-.11-.52.16-.86.83-1l11.54-2.44q5.37-1.12,8.58.37a6.6,6.6,0,0,1,3.92,4.83,6.25,6.25,0,0,1-.48,4.23A6.66,6.66,0,0,1,63.3,99.56ZM52,93l1.11,5.25a2.11,2.11,0,0,0,1,1.45,2.33,2.33,0,0,0,1.74.24l2.09-.44a3.36,3.36,0,0,0,2.31-1.6,4.21,4.21,0,0,0,.36-3.06,6.4,6.4,0,0,0-2.15-3.89,4.38,4.38,0,0,0-3.75-.78l-1.17.25Q51.57,90.81,52,93Zm9.68,20.49a4.07,4.07,0,0,0,2.81-1.83,4.52,4.52,0,0,0,.44-3.38,7,7,0,0,0-3-4.32,7.36,7.36,0,0,0-6-1l-1.75.37,1.63,7.7a3.85,3.85,0,0,0,1.39,2.36,2.88,2.88,0,0,0,2.48.52Z"/><path d="M92.47,89.14c.63-.14,1,.06,1.12.59l0,.16a3.26,3.26,0,0,1-.58,1.91,8.23,8.23,0,0,0-.9,2.23l-4.29,18.62a23.32,23.32,0,0,1-.66,2.55,24.11,24.11,0,0,1-1,2.62,7.51,7.51,0,0,1-1.88,2.53,6,6,0,0,1-2.72,1.33,7.66,7.66,0,0,1-5.08-.45,4.32,4.32,0,0,1-2.57-3,3,3,0,0,1,.34-2.29,3,3,0,0,1,2-1.25,2.79,2.79,0,0,1,2.33.42,4,4,0,0,1,1.36,1.69,9.13,9.13,0,0,0,1,1.78c.38.53.77.75,1.19.66,1.08-.23,2-2.31,2.77-6.24l-12-14.91a10.39,10.39,0,0,0-1.81-1.65,3,3,0,0,1-1.3-1.53l0-.16c-.11-.53.16-.86.8-1l9-1.89c.61-.13,1,.09,1.09.64l0,.17a1.78,1.78,0,0,1-.17,1,3.38,3.38,0,0,0-.29,1.11,3.82,3.82,0,0,0,.66,1.69l6.36,9.1L89,95.52a2.67,2.67,0,0,0-.43-2.15,6.69,6.69,0,0,0-1.47-1c-.6-.31-.93-.61-1-.88l0-.17c-.11-.56.15-.9.78-1Z"/><path d="M113.32,74.55a19,19,0,0,1,5.46-.5,9.36,9.36,0,0,1,3.68,1,5.33,5.33,0,0,1,2.24,2.14,10.77,10.77,0,0,1,1.1,2.94,8,8,0,0,1-.09,3.68,6.39,6.39,0,0,1-2.44,3.3,9.19,9.19,0,0,1,2.67.91,8.26,8.26,0,0,1,1.86,1.35,5.33,5.33,0,0,1,1.14,1.72,10.88,10.88,0,0,1,.82,5.52,6.93,6.93,0,0,1-1.28,3.19,9.68,9.68,0,0,1-3,2.59,17,17,0,0,1-5,1.75l-11,2.33-6.29-29.74Zm3.17,12.12c2-.41,3.25-1.08,3.89-2a4.07,4.07,0,0,0,.51-3.37,3.54,3.54,0,0,0-2-2.79c-1-.44-2.66-.44-4.87,0l-5.24,1.11,1.73,8.21,6-1.27Zm2.77,13.56a12.22,12.22,0,0,0,2.93-1,4.56,4.56,0,0,0,1.67-1.35,3.87,3.87,0,0,0,.69-1.71,6.11,6.11,0,0,0-.13-2,4.67,4.67,0,0,0-2-3.2c-1-.61-2.54-.72-4.62-.28l-6.46,1.36,2,9.37,6-1.26Z"/><path d="M134.38,70.06l3.77,17.82c.59,2.79,1.53,4.77,2.86,5.93s3.19,1.5,5.56,1,3.94-1.57,4.65-3.16.76-3.77.18-6.56l-3.77-17.83,5-1.07L156.44,84a18.28,18.28,0,0,1,.41,5.87,10.6,10.6,0,0,1-1.46,4.4,9.21,9.21,0,0,1-3.19,3.07,15.23,15.23,0,0,1-4.71,1.78q-5.56,1.17-9.26-1.18c-2.46-1.57-4.15-4.61-5.1-9.1l-3.74-17.71Z"/><path d="M166.22,85a5.92,5.92,0,0,0,3,3.81,8.86,8.86,0,0,0,5.54.22,9.55,9.55,0,0,0,2.79-1,5,5,0,0,0,1.66-1.39,3.87,3.87,0,0,0,.69-1.71,5.79,5.79,0,0,0-.1-1.9,5.5,5.5,0,0,0-.5-1.33,2.91,2.91,0,0,0-1-1.09,5.36,5.36,0,0,0-1.71-.68,9.52,9.52,0,0,0-2.53-.21l-3.94.09a27.85,27.85,0,0,1-4.22-.19,9.47,9.47,0,0,1-3.25-1,6.53,6.53,0,0,1-2.32-2.12A9.67,9.67,0,0,1,158.9,73a7.7,7.7,0,0,1,.09-3.89A8.09,8.09,0,0,1,160.81,66a10.52,10.52,0,0,1,3.25-2.34,19,19,0,0,1,4.39-1.45,17,17,0,0,1,5.27-.38A10.33,10.33,0,0,1,177.48,63a7.82,7.82,0,0,1,2.56,2.2,11.89,11.89,0,0,1,1.57,2.94L177,69.84a6.58,6.58,0,0,0-2.78-3.29,7.13,7.13,0,0,0-4.79-.24,12.49,12.49,0,0,0-2.94.92,5.45,5.45,0,0,0-1.73,1.28A3.12,3.12,0,0,0,164,70a4.1,4.1,0,0,0,0,1.6,3.77,3.77,0,0,0,1.69,2.65,8.3,8.3,0,0,0,4.07.71l4.29-.08c3.25-.08,5.75.44,7.51,1.54A8.25,8.25,0,0,1,185.08,82a9.13,9.13,0,0,1,.07,3.64,7.44,7.44,0,0,1-1.53,3.24,11.06,11.06,0,0,1-3.15,2.62,16.08,16.08,0,0,1-4.77,1.7c-3.79.8-7,.65-9.46-.48S162,89.37,161.08,86L166.17,85Z"/><path d="M181.5,60.15,187.13,59,197,70.36l4.6-14.46L207,54.77,200.5,74.28l2.61,12.37-5,1.06L195.5,75.33Z"/><path d="M62.56,132.31a10.19,10.19,0,0,1,7.41,1.2,9.6,9.6,0,0,1,4.54,6.76,11,11,0,0,1-1.25,8.4,9.52,9.52,0,0,1-6.3,4.47,7.28,7.28,0,0,1-5.43-.77l.08.37a1,1,0,0,1-.86,1.31l-6.3,1.29c-.64.14-1-.06-1.12-.59l0-.17a3,3,0,0,1,.52-1.69,3.34,3.34,0,0,0,.38-2.28l-4-19a2.78,2.78,0,0,0-1.45-1.81c-.81-.48-1.25-.89-1.32-1.22l0-.17c-.09-.44.2-.91.88-1.4l5.79-4.31a1.63,1.63,0,0,1,1.34-.46c.43.09.7.42.82,1l2.36,11.17A6.91,6.91,0,0,1,62.56,132.31Zm3.3,18.92q3.17-.66,2-5.91a31.83,31.83,0,0,0-1.45-4.92,15.23,15.23,0,0,0-2.36-4.2c-1-1.19-1.92-1.68-2.86-1.48a2.17,2.17,0,0,0-1.61,1.36,4.71,4.71,0,0,0-.12,2.83L61.22,147a5.94,5.94,0,0,0,1.83,3.23A3.15,3.15,0,0,0,65.86,151.23Z"/><path d="M97.31,141.54a4.53,4.53,0,0,0,.82,1.51,1.89,1.89,0,0,0,.87.62,2.76,2.76,0,0,1,.74.28.8.8,0,0,1,.42.56q.28,1.38-4.42,2.37a6.81,6.81,0,0,1-2.95.14,2.19,2.19,0,0,1-1.51-1.29q-1.12,2.51-4.83,3.29a9.48,9.48,0,0,1-6-.43,5.6,5.6,0,0,1-3.18-4.24,5.75,5.75,0,0,1,1.17-5.14,8.65,8.65,0,0,1,5-2.82,8.41,8.41,0,0,1,4.43.15l0-.12A28.07,28.07,0,0,0,85.67,131a2,2,0,0,0-2.32-1,1.79,1.79,0,0,0-1.36,1.2,6.16,6.16,0,0,0-.45,2.09,4.9,4.9,0,0,1-.61,2.13,2.56,2.56,0,0,1-1.82,1.3,3.08,3.08,0,0,1-2.26-.3,2.6,2.6,0,0,1-1.23-1.79,4,4,0,0,1,1.65-4.16A13.31,13.31,0,0,1,82.92,128a10.64,10.64,0,0,1,7.38.81,9.39,9.39,0,0,1,4.52,5.46Zm-9,4.87a1.87,1.87,0,0,0,1.37-1.25,3.76,3.76,0,0,0,.16-2.21l-.57-1.88c-.76-2.24-1.87-3.21-3.31-2.91a1.89,1.89,0,0,0-1.38,1.1,3.4,3.4,0,0,0-.15,2.18A9.66,9.66,0,0,0,86,145.22,2.28,2.28,0,0,0,88.29,146.41Z"/><path d="M111,122.07a3.72,3.72,0,0,1,3.1.56,4.37,4.37,0,0,1,1.69,2.73c.55,2.62-.25,4.15-2.38,4.6a2.9,2.9,0,0,1-2.09-.19,2.31,2.31,0,0,1-1.06-1.2,3.91,3.91,0,0,0-.72-1.26,1.12,1.12,0,0,0-1.13-.39c-1,.22-1.26,1.66-.69,4.33l1.63,7.74a2.93,2.93,0,0,0,1.54,1.83c.88.53,1.36,1,1.43,1.29l0,.17c.11.52-.16.86-.83,1l-9,1.89c-.66.14-1,0-1.16-.58l0-.17a3,3,0,0,1,.52-1.69,3.32,3.32,0,0,0,.39-2.24l-1.75-8.29a2.13,2.13,0,0,0-.8-1.31,8.58,8.58,0,0,0-1.21-.79,1.23,1.23,0,0,1-.69-.81l0-.12a1.49,1.49,0,0,1,.7-1.42l5.3-4c.51-.31.9-.4,1.15-.28a1.15,1.15,0,0,1,.54.88l.64,3A5.72,5.72,0,0,1,111,122.07Z"/><path d="M121.15,117.8a5.08,5.08,0,0,1-3.71-.46,4.08,4.08,0,0,1-1.26-6,5.11,5.11,0,0,1,3.21-1.92,5,5,0,0,1,3.66.47,4.06,4.06,0,0,1,1.26,6A5,5,0,0,1,121.15,117.8Zm.28,23.39c-.66.14-1.05-.05-1.16-.58l0-.16a3.16,3.16,0,0,1,.51-1.72,3.38,3.38,0,0,0,.39-2.26l-1.67-7.91a3.33,3.33,0,0,0-1.28-1.93c-.7-.57-1.07-1-1.13-1.22l0-.17c-.07-.33.18-.72.75-1.16l5.64-4.41a1.55,1.55,0,0,1,1.36-.37,1,1,0,0,1,.7.85l3.12,14.75a3.17,3.17,0,0,0,1.37,1.88c.78.56,1.2,1,1.27,1.34l0,.17c.11.53-.18.86-.87,1Z"/><path d="M142.09,137.22a14.47,14.47,0,0,1-6.87,0q-2.86-.81-3.32-3a2.51,2.51,0,0,1,.38-2.17,3.42,3.42,0,0,1,2-1.12,3,3,0,0,1,2.44.42,4.92,4.92,0,0,1,1.54,1.72,5.5,5.5,0,0,0,1.41,1.75,2.27,2.27,0,0,0,2,.51,2.06,2.06,0,0,0,1.77-2.77,2.88,2.88,0,0,0-1.65-2.13,8.44,8.44,0,0,0-3-.75q-1.72-.11-3.45-.36a6.48,6.48,0,0,1-3.16-1.37,5.58,5.58,0,0,1-1.91-3.39,5.5,5.5,0,0,1,1.49-5.08,10.83,10.83,0,0,1,6-3.1,12.39,12.39,0,0,1,6.62.12q2.75.94,3.18,3a2.39,2.39,0,0,1-.43,2,3,3,0,0,1-1.82,1.15,2.85,2.85,0,0,1-2.35-.42,4.52,4.52,0,0,1-1.47-1.71,6.6,6.6,0,0,0-1.25-1.76,1.82,1.82,0,0,0-3,.45,2.83,2.83,0,0,0-.17,1.78,3.25,3.25,0,0,0,1.63,2.27,7.69,7.69,0,0,0,3,.89c1.11.11,2.23.26,3.35.43a6.44,6.44,0,0,1,3.07,1.33,5.21,5.21,0,0,1,1.82,3.2,5.3,5.3,0,0,1-1.5,4.91A11.51,11.51,0,0,1,142.09,137.22Z"/><path d="M161.34,133.2a6.5,6.5,0,0,1-5.4-.95,8.42,8.42,0,0,1-3-5.32l-2.08-9.87-1.58.33a.93.93,0,0,1-.75-.13.9.9,0,0,1-.41-.63l-.2-.91a.87.87,0,0,1,.76-1.16l.79-.17a5.08,5.08,0,0,0,3.05-1.84,5.48,5.48,0,0,0,1.14-3.44q0-1.12.9-1.32l1-.2a1,1,0,0,1,1.35.84l.89,4.21,4.29-.91a1,1,0,0,1,1.16.76l.19.91a1,1,0,0,1-.12.75.94.94,0,0,1-.63.41l-4.29.91,2.11,10a2.4,2.4,0,0,0,.89,1.53,1.74,1.74,0,0,0,1.46.32,3.12,3.12,0,0,0,2.42-2.12,1.11,1.11,0,0,1,.57-.58.84.84,0,0,1,.68,0,.7.7,0,0,1,.39.53,6.64,6.64,0,0,1-.88,5A6.72,6.72,0,0,1,161.34,133.2Z"/><path d="M188.16,122.36a4.21,4.21,0,0,0,.82,1.5,1.89,1.89,0,0,0,.87.62,2.69,2.69,0,0,1,.73.28.84.84,0,0,1,.43.56q.28,1.38-4.42,2.37a7,7,0,0,1-3,.15,2.21,2.21,0,0,1-1.51-1.29c-.75,1.66-2.36,2.76-4.84,3.28a9.45,9.45,0,0,1-6-.43,5.61,5.61,0,0,1-3.19-4.24,5.72,5.72,0,0,1,1.18-5.14,8.62,8.62,0,0,1,5-2.82,8.27,8.27,0,0,1,4.42.16l0-.13a28.77,28.77,0,0,0-2.12-5.38,2,2,0,0,0-2.33-1,1.78,1.78,0,0,0-1.35,1.2,6.16,6.16,0,0,0-.45,2.09,4.84,4.84,0,0,1-.62,2.13,2.54,2.54,0,0,1-1.81,1.3,3.1,3.1,0,0,1-2.27-.3,2.62,2.62,0,0,1-1.22-1.79,4,4,0,0,1,1.64-4.15,13.24,13.24,0,0,1,5.66-2.48,10.61,10.61,0,0,1,7.37.81,9.41,9.41,0,0,1,4.53,5.46Zm-9,4.86A1.84,1.84,0,0,0,180.5,126a3.76,3.76,0,0,0,.17-2.21l-.57-1.88c-.77-2.24-1.87-3.21-3.32-2.91a1.89,1.89,0,0,0-1.37,1.1,3.34,3.34,0,0,0-.15,2.18,9.66,9.66,0,0,0,1.56,3.78A2.27,2.27,0,0,0,179.14,127.22Z"/><path d="M201.11,124.76a14.46,14.46,0,0,1-6.87,0q-2.87-.81-3.32-3a2.47,2.47,0,0,1,.39-2.17,3.27,3.27,0,0,1,2-1.12,3,3,0,0,1,2.44.42,4.84,4.84,0,0,1,1.54,1.72,5.47,5.47,0,0,0,1.41,1.74,2.27,2.27,0,0,0,2,.51,2,2,0,0,0,1.77-2.76,2.91,2.91,0,0,0-1.65-2.14,8.24,8.24,0,0,0-3.05-.74q-1.72-.12-3.45-.36a6.54,6.54,0,0,1-3.16-1.38,5.61,5.61,0,0,1-1.91-3.38,5.51,5.51,0,0,1,1.49-5.08,10.83,10.83,0,0,1,6-3.11,12.38,12.38,0,0,1,6.62.13q2.74.93,3.18,3a2.35,2.35,0,0,1-.43,2,2.89,2.89,0,0,1-1.82,1.15,2.81,2.81,0,0,1-2.35-.42,4.61,4.61,0,0,1-1.47-1.71,6.8,6.8,0,0,0-1.24-1.76,1.77,1.77,0,0,0-1.71-.55,1.72,1.72,0,0,0-1.29,1,2.87,2.87,0,0,0-.17,1.77,3.21,3.21,0,0,0,1.64,2.27,7.82,7.82,0,0,0,3,.9c1.11.11,2.23.25,3.35.42a6.45,6.45,0,0,1,3.07,1.33,5.56,5.56,0,0,1,.32,8.11A11.55,11.55,0,0,1,201.11,124.76Z"/><path d="M219.92,119.76a4.83,4.83,0,0,1-2.93,1.68,5,5,0,0,1-3.38-.33,4.17,4.17,0,0,1-1.24-5.87,5,5,0,0,1,3-1.67,4.88,4.88,0,0,1,3.35.34,3.62,3.62,0,0,1,1.85,2.65A3.7,3.7,0,0,1,219.92,119.76Z"/><path d="M56.79,192.14c-.67.14-1.06-.06-1.17-.58l0-.17a3.14,3.14,0,0,1,.52-1.7,3.35,3.35,0,0,0,.4-2.23L52.17,167a3.33,3.33,0,0,0-1.27-1.88,3.15,3.15,0,0,1-1.16-1.35l0-.17c-.11-.52.15-.85.79-1l19.58-4.13a1.35,1.35,0,0,1,1,.1,2,2,0,0,1,.65.93l2.11,5a1.05,1.05,0,0,1,0,.92,1.09,1.09,0,0,1-.76.51l-.21,0a2.43,2.43,0,0,1-1.77-.43,10.44,10.44,0,0,1-1.77-1.37,8.1,8.1,0,0,0-1.89-1.34,3.1,3.1,0,0,0-2.1-.36l-4,.84a1.77,1.77,0,0,0-1.49,2.41l2,9.33,4.66-1a1.77,1.77,0,0,0,1.12-.78,4.42,4.42,0,0,0,.65-1.35,6.26,6.26,0,0,1,.53-1.33c.22-.41.45-.64.7-.7l.37-.07c.53-.12.86.15,1,.79l1.58,7.49c.14.64-.06,1-.59,1.13l-.37.08c-.34.07-.73-.12-1.19-.56s-1-.87-1.51-1.31a2,2,0,0,0-1.67-.47l-4.67,1,1.67,7.88a3.1,3.1,0,0,0,1.37,1.86q1.16.82,1.26,1.32l0,.17c.12.53-.16.86-.83,1Z"/><path d="M89.53,185.66a12.16,12.16,0,0,1-8.81-1.25,9.82,9.82,0,0,1-4.94-6.77,9.7,9.7,0,0,1,1.77-8.14,11.82,11.82,0,0,1,7.29-4.61,12,12,0,0,1,8.71,1.25,10.34,10.34,0,0,1,3.23,14.92A11.63,11.63,0,0,1,89.53,185.66Zm.45-2.23c1.77-.38,2.3-2.27,1.58-5.69a23.26,23.26,0,0,0-1.46-4.34,18.45,18.45,0,0,0-2.78-4.51c-1.14-1.35-2.22-1.92-3.22-1.71a2.17,2.17,0,0,0-1.8,1.73,9.5,9.5,0,0,0,.2,4.05,19.06,19.06,0,0,0,1,3.18,30.58,30.58,0,0,0,1.71,3.57,10.14,10.14,0,0,0,2.28,2.87A2.92,2.92,0,0,0,90,183.43Z"/><path d="M111.67,159.23a3.72,3.72,0,0,1,3.1.56,4.32,4.32,0,0,1,1.68,2.73q.83,3.91-2.38,4.59a2.83,2.83,0,0,1-2.08-.19,2.25,2.25,0,0,1-1.06-1.19,4.32,4.32,0,0,0-.72-1.26,1.11,1.11,0,0,0-1.13-.39q-1.55.33-.7,4.32l1.64,7.75a3,3,0,0,0,1.54,1.83c.88.52,1.35,1,1.42,1.29l0,.16c.11.53-.17.86-.83,1l-9,1.89c-.67.14-1-.06-1.17-.58l0-.17a3.1,3.1,0,0,1,.51-1.7,3.29,3.29,0,0,0,.4-2.23l-1.75-8.29a2.18,2.18,0,0,0-.8-1.31,9.19,9.19,0,0,0-1.21-.79,1.24,1.24,0,0,1-.7-.81l0-.13a1.47,1.47,0,0,1,.7-1.41l5.29-4c.52-.31.9-.41,1.16-.29a1.17,1.17,0,0,1,.54.89l.64,3A5.69,5.69,0,0,1,111.67,159.23Z"/><path d="M135.77,144.39a19.06,19.06,0,0,1,5.46-.5,9.37,9.37,0,0,1,3.69,1,5.36,5.36,0,0,1,2.23,2.14,10.34,10.34,0,0,1,1.1,2.94,7.88,7.88,0,0,1-.09,3.68,6.27,6.27,0,0,1-2.44,3.29,9.56,9.56,0,0,1,2.68.92,7.89,7.89,0,0,1,1.85,1.35,5.13,5.13,0,0,1,1.14,1.71,11,11,0,0,1,.82,5.53,6.72,6.72,0,0,1-1.28,3.19,9.7,9.7,0,0,1-3,2.59,17,17,0,0,1-5,1.74l-11,2.33-6.28-29.74Zm3.17,12.12c2-.41,3.25-1.08,3.89-1.95a4,4,0,0,0,.51-3.37,3.56,3.56,0,0,0-2-2.8,8.71,8.71,0,0,0-4.86,0l-5.25,1.11,1.73,8.2,6-1.26Zm2.78,13.55a12.16,12.16,0,0,0,2.92-1,4.6,4.6,0,0,0,1.68-1.36A3.76,3.76,0,0,0,147,166a6.12,6.12,0,0,0-.12-2,4.7,4.7,0,0,0-2-3.19c-1-.62-2.55-.72-4.63-.28l-6.46,1.36,2,9.37,6-1.26Z"/><path d="M156.84,139.89l3.76,17.83c.59,2.79,1.53,4.77,2.86,5.92s3.19,1.51,5.57,1,3.93-1.57,4.64-3.15.77-3.78.18-6.57l-3.77-17.82,5-1.07,3.77,17.83a18.27,18.27,0,0,1,.41,5.87,10.46,10.46,0,0,1-1.46,4.4,9.18,9.18,0,0,1-3.18,3.07,15.55,15.55,0,0,1-4.72,1.78q-5.56,1.17-9.25-1.18c-2.47-1.57-4.15-4.61-5.1-9.11L151.85,141Z"/><path d="M188.67,154.84a5.94,5.94,0,0,0,3,3.81,8.9,8.9,0,0,0,5.53.22,9.55,9.55,0,0,0,2.79-1,5.07,5.07,0,0,0,1.67-1.4,3.76,3.76,0,0,0,.68-1.71,5.75,5.75,0,0,0-.1-1.89,4.78,4.78,0,0,0-.5-1.33,2.76,2.76,0,0,0-1-1.09,5.18,5.18,0,0,0-1.71-.69,9.52,9.52,0,0,0-2.52-.2l-3.94.09a27.7,27.7,0,0,1-4.22-.2,9.68,9.68,0,0,1-3.26-1,6.55,6.55,0,0,1-2.32-2.13,9.54,9.54,0,0,1-1.39-3.49,7.7,7.7,0,0,1,.09-3.89,8.26,8.26,0,0,1,1.82-3.13,10.62,10.62,0,0,1,3.25-2.33,19,19,0,0,1,4.39-1.45,16.72,16.72,0,0,1,5.28-.38,10.39,10.39,0,0,1,3.76,1.12,7.88,7.88,0,0,1,2.55,2.2,12.4,12.4,0,0,1,1.58,2.93l-4.59,1.76a6.65,6.65,0,0,0-2.79-3.29,7.18,7.18,0,0,0-4.79-.25,12.45,12.45,0,0,0-2.94.93,5.45,5.45,0,0,0-1.73,1.28,3.08,3.08,0,0,0-.77,1.51,3.92,3.92,0,0,0,0,1.6,3.74,3.74,0,0,0,1.69,2.65,8.13,8.13,0,0,0,4.06.7l4.29-.08c3.25-.07,5.75.44,7.51,1.55a8.18,8.18,0,0,1,3.48,5.58,9,9,0,0,1,.07,3.64,7.36,7.36,0,0,1-1.53,3.23,10.79,10.79,0,0,1-3.15,2.63,16.66,16.66,0,0,1-4.77,1.7c-3.79.8-7,.64-9.46-.48s-4.23-3.37-5.15-6.7l5.08-1.07Z"/><path d="M204,130l5.62-1.18,9.89,11.4,4.6-14.47,5.34-1.12L223,144.12l2.62,12.37-5,1L218,145.17Z"/><path d="M77.64,203.7a10.29,10.29,0,0,1,7.41,1.2,9.6,9.6,0,0,1,4.54,6.76,11,11,0,0,1-1.25,8.4A9.51,9.51,0,0,1,82,224.53a7.22,7.22,0,0,1-5.42-.77l.08.37a1,1,0,0,1-.86,1.32l-6.3,1.28c-.64.14-1-.06-1.12-.58l0-.17a3.05,3.05,0,0,1,.52-1.7,3.33,3.33,0,0,0,.38-2.28l-4-18.95a2.8,2.8,0,0,0-1.45-1.81c-.81-.48-1.25-.88-1.32-1.22l0-.16c-.09-.45.2-.92.88-1.41l5.79-4.31a1.63,1.63,0,0,1,1.34-.46c.43.09.7.42.82,1l2.36,11.16A7,7,0,0,1,77.64,203.7Zm3.3,18.93q3.16-.67,2-5.92a32,32,0,0,0-1.45-4.91,15.23,15.23,0,0,0-2.36-4.2c-1-1.19-1.92-1.69-2.86-1.49a2.19,2.19,0,0,0-1.61,1.36,4.74,4.74,0,0,0-.12,2.84l1.71,8.08a5.94,5.94,0,0,0,1.83,3.22A3.19,3.19,0,0,0,80.94,222.63Z"/><path d="M112.39,212.94a4.37,4.37,0,0,0,.82,1.5,1.89,1.89,0,0,0,.87.62,3.14,3.14,0,0,1,.74.28.82.82,0,0,1,.42.56q.29,1.38-4.42,2.37a7,7,0,0,1-2.95.15,2.23,2.23,0,0,1-1.51-1.29q-1.12,2.51-4.83,3.28a9.55,9.55,0,0,1-6-.42,5.62,5.62,0,0,1-3.18-4.25,5.75,5.75,0,0,1,1.17-5.14,8.59,8.59,0,0,1,5-2.81,8.21,8.21,0,0,1,4.43.15l0-.13a28.07,28.07,0,0,0-2.12-5.38,2,2,0,0,0-2.32-1,1.79,1.79,0,0,0-1.36,1.2,6.16,6.16,0,0,0-.45,2.1,4.79,4.79,0,0,1-.62,2.13,2.51,2.51,0,0,1-1.81,1.29,3,3,0,0,1-2.26-.3A2.6,2.6,0,0,1,90.7,206a4,4,0,0,1,1.65-4.15A13.14,13.14,0,0,1,98,199.4a10.64,10.64,0,0,1,7.38.81,9.42,9.42,0,0,1,4.52,5.47Zm-9,4.86a1.85,1.85,0,0,0,1.37-1.24,3.77,3.77,0,0,0,.16-2.21l-.57-1.88c-.76-2.25-1.87-3.22-3.31-2.92a1.89,1.89,0,0,0-1.38,1.1,3.43,3.43,0,0,0-.15,2.19,9.79,9.79,0,0,0,1.56,3.78A2.29,2.29,0,0,0,103.37,217.8Z"/><path d="M126.12,193.46a3.79,3.79,0,0,1,3.1.56,4.37,4.37,0,0,1,1.69,2.74q.83,3.92-2.39,4.59a2.88,2.88,0,0,1-2.08-.19,2.33,2.33,0,0,1-1.06-1.19,3.71,3.71,0,0,0-.72-1.26,1.11,1.11,0,0,0-1.13-.4c-1,.22-1.26,1.66-.69,4.33l1.63,7.75a3,3,0,0,0,1.54,1.83c.88.52,1.36.95,1.43,1.28l0,.17c.11.53-.16.86-.83,1l-9,1.89c-.66.14-1.05-.05-1.16-.58l0-.17a3.08,3.08,0,0,1,.51-1.69,3.26,3.26,0,0,0,.4-2.24l-1.75-8.29a2.16,2.16,0,0,0-.8-1.31,8.58,8.58,0,0,0-1.21-.79,1.19,1.19,0,0,1-.69-.81l0-.12a1.48,1.48,0,0,1,.7-1.41l5.3-4c.51-.31.9-.41,1.15-.29a1.17,1.17,0,0,1,.54.89l.64,3A5.72,5.72,0,0,1,126.12,193.46Z"/><path d="M136.23,189.19a5.13,5.13,0,0,1-3.71-.45,4.09,4.09,0,0,1-1.26-6,5.68,5.68,0,0,1,6.87-1.45,4.06,4.06,0,0,1,1.26,5.95A5,5,0,0,1,136.23,189.19Zm.28,23.4c-.66.14-1-.06-1.16-.58l0-.17a3.18,3.18,0,0,1,.51-1.72,3.37,3.37,0,0,0,.39-2.26L134.54,200a3.39,3.39,0,0,0-1.28-1.93c-.7-.56-1.07-1-1.13-1.22l0-.16c-.07-.34.18-.72.75-1.16l5.64-4.42a1.59,1.59,0,0,1,1.36-.37,1,1,0,0,1,.7.85l3.12,14.75a3.17,3.17,0,0,0,1.37,1.88c.78.57,1.2,1,1.27,1.35l0,.16c.11.53-.18.87-.87,1Z"/><path d="M157.17,208.61a14.34,14.34,0,0,1-6.87,0q-2.87-.81-3.32-3a2.5,2.5,0,0,1,.38-2.17,3.32,3.32,0,0,1,2-1.12,3,3,0,0,1,2.44.42,4.84,4.84,0,0,1,1.54,1.72,5.47,5.47,0,0,0,1.41,1.74,2.27,2.27,0,0,0,2,.51,2,2,0,0,0,1.77-2.76,2.91,2.91,0,0,0-1.65-2.14,8.24,8.24,0,0,0-3.05-.74q-1.72-.12-3.45-.36a6.59,6.59,0,0,1-3.16-1.38,5.91,5.91,0,0,1-.42-8.46,10.83,10.83,0,0,1,6-3.11,12.38,12.38,0,0,1,6.62.13q2.74.93,3.18,3a2.39,2.39,0,0,1-.43,2,2.92,2.92,0,0,1-1.82,1.15,2.78,2.78,0,0,1-2.35-.42A4.64,4.64,0,0,1,156.5,192a6.73,6.73,0,0,0-1.24-1.76,1.75,1.75,0,0,0-1.7-.55,1.72,1.72,0,0,0-1.29,1,2.8,2.8,0,0,0-.17,1.77,3.23,3.23,0,0,0,1.63,2.27,7.87,7.87,0,0,0,3,.9c1.11.11,2.23.25,3.35.42a6.54,6.54,0,0,1,3.07,1.33,5.23,5.23,0,0,1,1.82,3.2,5.3,5.3,0,0,1-1.5,4.91A11.51,11.51,0,0,1,157.17,208.61Z"/><path d="M176.42,204.59a6.5,6.5,0,0,1-5.4-1,8.35,8.35,0,0,1-3-5.32l-2.08-9.87-1.58.33a1,1,0,0,1-.75-.12,1,1,0,0,1-.42-.63l-.19-.92a.87.87,0,0,1,.76-1.16l.79-.17a5.08,5.08,0,0,0,3.05-1.84,5.46,5.46,0,0,0,1.14-3.44q0-1.12.9-1.32l1-.2a1,1,0,0,1,1.35.85l.89,4.2,4.29-.9a.94.94,0,0,1,1.16.75l.19.92a.94.94,0,0,1-.12.74,1,1,0,0,1-.63.42l-4.29.9,2.11,10a2.35,2.35,0,0,0,.89,1.53,1.75,1.75,0,0,0,1.46.33,3.13,3.13,0,0,0,2.42-2.13,1.06,1.06,0,0,1,.57-.57.81.81,0,0,1,.68,0,.7.7,0,0,1,.39.53,6.63,6.63,0,0,1-.88,5A6.72,6.72,0,0,1,176.42,204.59Z"/><path d="M203.24,193.75a4.21,4.21,0,0,0,.82,1.5,1.81,1.81,0,0,0,.87.62,3.06,3.06,0,0,1,.73.28.86.86,0,0,1,.43.57q.28,1.36-4.42,2.37a7,7,0,0,1-2.95.14,2.17,2.17,0,0,1-1.51-1.29q-1.12,2.51-4.84,3.28a9.52,9.52,0,0,1-6-.42,5.65,5.65,0,0,1-3.19-4.25,5.73,5.73,0,0,1,1.18-5.14,8.56,8.56,0,0,1,5-2.81,8.18,8.18,0,0,1,4.42.15l0-.12a28.65,28.65,0,0,0-2.12-5.39,2,2,0,0,0-2.33-1,1.8,1.8,0,0,0-1.35,1.2,6.21,6.21,0,0,0-.45,2.1,4.92,4.92,0,0,1-.62,2.13,2.57,2.57,0,0,1-1.82,1.3,3,3,0,0,1-2.26-.31,2.62,2.62,0,0,1-1.22-1.79,4,4,0,0,1,1.64-4.15,13.24,13.24,0,0,1,5.66-2.48,10.61,10.61,0,0,1,7.37.82,9.38,9.38,0,0,1,4.53,5.46Zm-9,4.86a1.84,1.84,0,0,0,1.36-1.24,3.76,3.76,0,0,0,.17-2.21l-.57-1.88c-.77-2.25-1.87-3.22-3.32-2.92a1.91,1.91,0,0,0-1.37,1.1,3.37,3.37,0,0,0-.15,2.19,9.79,9.79,0,0,0,1.56,3.78A2.26,2.26,0,0,0,194.22,198.61Z"/><path d="M216.19,196.15a14.6,14.6,0,0,1-6.87,0c-1.91-.54-3-1.54-3.32-3a2.47,2.47,0,0,1,.39-2.17,3.31,3.31,0,0,1,2-1.12,3,3,0,0,1,2.44.42,4.84,4.84,0,0,1,1.54,1.72,5.5,5.5,0,0,0,1.41,1.75,2.29,2.29,0,0,0,2,.51,2.06,2.06,0,0,0,1.77-2.77,2.88,2.88,0,0,0-1.65-2.13,8.24,8.24,0,0,0-3-.75q-1.73-.12-3.45-.36a6.45,6.45,0,0,1-3.16-1.38,5.91,5.91,0,0,1-.42-8.46,10.9,10.9,0,0,1,6-3.11,12.48,12.48,0,0,1,6.62.13q2.75.94,3.18,3a2.37,2.37,0,0,1-.43,2,2.88,2.88,0,0,1-1.82,1.14,2.81,2.81,0,0,1-2.35-.41,4.64,4.64,0,0,1-1.47-1.72,6.76,6.76,0,0,0-1.25-1.76,1.82,1.82,0,0,0-3,.46,2.83,2.83,0,0,0-.17,1.78,3.19,3.19,0,0,0,1.64,2.26,7.48,7.48,0,0,0,3,.9c1.11.11,2.23.25,3.35.42a6.45,6.45,0,0,1,3.07,1.33,5.58,5.58,0,0,1,.32,8.12A11.55,11.55,0,0,1,216.19,196.15Z"/><path d="M235,191.15a4.84,4.84,0,0,1-2.93,1.69,5,5,0,0,1-3.38-.33,4.18,4.18,0,0,1-1.24-5.88,5.63,5.63,0,0,1,6.31-1.33,3.62,3.62,0,0,1,1.85,2.66A3.69,3.69,0,0,1,235,191.15Z"/></svg>