<svg xmlns="http://www.w3.org/2000/svg" viewBox="0 0 350 350" width="219" height="220"><path d="M175,5.47A169.53,169.53,0,1,0,344.53,175,169.53,169.53,0,0,0,175,5.47M175,286A111,111,0,1,1,286,175,111,111,0,0,1,175,286" fill="#db5b54"/><path d="M211.21,48.54c-.54-.17-.73-.48-.59-.92l0-.14c.09-.28.48-.62,1.15-1a2.73,2.73,0,0,0,1.3-1.48L219,26.68l-1.85-.59a2.08,2.08,0,0,0-1.65.2A5.53,5.53,0,0,0,214,27.42a8.14,8.14,0,0,1-1.34,1.16,1.52,1.52,0,0,1-1.26.32l-.59-.19c-.65-.2-.83-.63-.55-1.28l2.21-4.51a1.12,1.12,0,0,1,1.52-.7l17.87,5.71a1.13,1.13,0,0,1,.84,1.45l-.79,5a.84.84,0,0,1-.4.65,1,1,0,0,1-.78,0l-.59-.19a1.45,1.45,0,0,1-.83-1,8.3,8.3,0,0,1-.45-1.73,5.71,5.71,0,0,0-.58-1.78A2.13,2.13,0,0,0,227,29.26l-1.81-.58L219.37,47a2.7,2.7,0,0,0,.2,2,2.62,2.62,0,0,1,.34,1.51l0,.14c-.14.44-.48.57-1,.4Z"/><path d="M244.63,58.3a3.66,3.66,0,0,0-.2,1.92,2.84,2.84,0,0,1-.06,1.5l-.07.13c-.21.42-.57.49-1.1.22l-6.47-3.28c-.52-.27-.68-.61-.47-1l.07-.13a2.82,2.82,0,0,1,1.21-.9,2.84,2.84,0,0,0,1.4-1.33l2.75-6.22a9.06,9.06,0,0,0,1-3.54,1.92,1.92,0,0,0-1.14-1.78,2,2,0,0,0-2,0,4.7,4.7,0,0,0-1.71,2L234.2,53a2.71,2.71,0,0,0-.08,2,2.55,2.55,0,0,1,.13,1.56l-.07.13c-.21.42-.57.49-1.09.23L226,53.35c-.5-.25-.65-.59-.44-1l.07-.13c.13-.26.57-.53,1.32-.82a2.73,2.73,0,0,0,1.53-1.25l7.67-15.1a2.25,2.25,0,0,0,0-1.93c-.3-.73-.39-1.22-.25-1.48l0-.1a1.17,1.17,0,0,1,1.22-.53l6.29.34a1.05,1.05,0,0,1,.93.39.88.88,0,0,1,0,.92l-4.79,9.43a5.89,5.89,0,0,1,4.75.49,6.87,6.87,0,0,1,3.38,3.66c.64,1.63.48,3.62-.51,6Z"/><path d="M259.25,66.46a.82.82,0,0,1,.87.32.65.65,0,0,1-.06.87,5.58,5.58,0,0,1-3.86,1.84A7.46,7.46,0,0,1,250.77,68a8.74,8.74,0,0,1-3.86-5.82,9.14,9.14,0,0,1,1.76-6.92,8.63,8.63,0,0,1,5.88-3.79A8.78,8.78,0,0,1,261.19,53a7.76,7.76,0,0,1,3.34,4.2,4.45,4.45,0,0,1-.49,3.89,2.39,2.39,0,0,1-2.46,1l-8.29-.81a4.65,4.65,0,0,0,2.05,4.32,5,5,0,0,0,2,.85A3.74,3.74,0,0,0,259.25,66.46Zm.38-12.33a2,2,0,0,0-2.08-.12,5.17,5.17,0,0,0-2.12,1.86,12,12,0,0,0-1.74,3.45l3.95.27a2.13,2.13,0,0,0,1.84-1,5.82,5.82,0,0,0,.93-2.38A1.94,1.94,0,0,0,259.63,54.13Z"/><path d="M270,84.72a12.83,12.83,0,0,1,.64-18.43,13.5,13.5,0,0,1,9.51-4.14,13.09,13.09,0,0,1,12.61,13.43A13.16,13.16,0,0,1,288.33,85a12.71,12.71,0,0,1-9.42,3.86A12.5,12.5,0,0,1,270,84.72Zm3.29-.51a3.7,3.7,0,0,0,3.12,1.27,6.07,6.07,0,0,0,3.53-1.85,22.77,22.77,0,0,0,4.15-5.56,21.21,21.21,0,0,0,2.44-6.73q.56-3.33-.87-4.84a3.6,3.6,0,0,0-3.08-1.22,6.25,6.25,0,0,0-3.6,1.93A23.34,23.34,0,0,0,274.58,73a19.19,19.19,0,0,0-2.31,6.55Q271.82,82.71,273.25,84.21Z"/><path d="M292,106.15a3.67,3.67,0,0,0-.93,1.14,1.53,1.53,0,0,0-.21.89,2.51,2.51,0,0,1,0,.67.71.71,0,0,1-.31.52q-1,.67-3.31-2.75a6.05,6.05,0,0,1-1.06-2.29,1.88,1.88,0,0,1,.54-1.62q-2.36-.09-4.17-2.78A8.19,8.19,0,0,1,281,95a4.8,4.8,0,0,1,2.35-3.89,4.89,4.89,0,0,1,4.46-.72,7.39,7.39,0,0,1,3.84,3,7,7,0,0,1,1.3,3.57l.09-.06a24.81,24.81,0,0,0,3.6-3.42,1.75,1.75,0,0,0,.07-2.18,1.57,1.57,0,0,0-1.39-.69,5.35,5.35,0,0,0-1.81.32,4.27,4.27,0,0,1-1.89.2,2.2,2.2,0,0,1-1.62-1,2.58,2.58,0,0,1-.48-1.89,2.2,2.2,0,0,1,1-1.55,3.42,3.42,0,0,1,3.83,0,11.39,11.39,0,0,1,3.79,3.69,9.13,9.13,0,0,1,1.73,6.12,8.07,8.07,0,0,1-2.88,5.36Zm-6.77-5.6a1.57,1.57,0,0,0,1.43.69,3.29,3.29,0,0,0,1.81-.58l1.31-1.06c1.54-1.33,1.95-2.52,1.25-3.57a1.62,1.62,0,0,0-1.32-.74,2.91,2.91,0,0,0-1.78.58,8.15,8.15,0,0,0-2.5,2.46A2,2,0,0,0,285.25,100.55Z"/><path d="M292.36,116.51a5.63,5.63,0,0,1-.43-4.68,7.21,7.21,0,0,1,3.74-3.69l7.7-3.93-.63-1.24a.8.8,0,0,1-.06-.64.84.84,0,0,1,.42-.49l.72-.36a.74.74,0,0,1,1.13.37l.31.61a4.42,4.42,0,0,0,2.21,2.12,4.67,4.67,0,0,0,3.1.17,1,1,0,0,1,1.29.45l.38.75a.86.86,0,0,1-.39,1.31l-3.29,1.67,1.71,3.35a.85.85,0,0,1,.07.64.8.8,0,0,1-.43.49l-.72.36a.85.85,0,0,1-.64.07.86.86,0,0,1-.49-.43l-1.71-3.35-7.8,4a2.09,2.09,0,0,0-1.06,1.08,1.51,1.51,0,0,0,.06,1.28,2.67,2.67,0,0,0,2.29,1.53.91.91,0,0,1,.61.35.68.68,0,0,1,.14.56.6.6,0,0,1-.34.44,5.7,5.7,0,0,1-4.33.39A5.78,5.78,0,0,1,292.36,116.51Z"/><path d="M297.87,128.89a12.36,12.36,0,0,1-.92-5.81c.21-1.69.91-2.76,2.09-3.2a2.1,2.1,0,0,1,1.89.05,2.86,2.86,0,0,1,1.21,1.55,2.56,2.56,0,0,1,0,2.12,4.15,4.15,0,0,1-1.26,1.53,4.92,4.92,0,0,0-1.3,1.42,2,2,0,0,0-.17,1.78,1.76,1.76,0,0,0,2.57,1.14,2.52,2.52,0,0,0,1.6-1.67,7.28,7.28,0,0,0,.24-2.68c-.09-1-.13-2-.14-3a5.55,5.55,0,0,1,.76-2.86,4.75,4.75,0,0,1,2.62-2.05,4.7,4.7,0,0,1,4.49.61,9.19,9.19,0,0,1,3.4,4.65,10.56,10.56,0,0,1,.75,5.62,3.65,3.65,0,0,1-2.15,3.09,2.08,2.08,0,0,1-1.74-.11,2.46,2.46,0,0,1-1.2-1.4,2.37,2.37,0,0,1,.05-2,3.78,3.78,0,0,1,1.26-1.47,5.79,5.79,0,0,0,1.33-1.28,1.52,1.52,0,0,0,.25-1.52,1.49,1.49,0,0,0-1-1,2.38,2.38,0,0,0-1.53.09,2.75,2.75,0,0,0-1.71,1.67,6.66,6.66,0,0,0-.38,2.64c.05,1,.07,1.92.08,2.89a5.55,5.55,0,0,1-.74,2.77,4.49,4.49,0,0,1-2.48,2,4.57,4.57,0,0,1-4.35-.65A9.93,9.93,0,0,1,297.87,128.89Z"/><path d="M301.2,137.68c-.15-.57,0-.91.44-1l.14,0a2.64,2.64,0,0,1,1.5.36,3,3,0,0,0,2,.24l6.7-1.78a2.87,2.87,0,0,0,1.59-1.17c.46-.63.79-1,1-1l.14,0c.28-.07.63.13,1,.6l4,4.64a1.32,1.32,0,0,1,.37,1.14.89.89,0,0,1-.69.64l-12.49,3.3a2.8,2.8,0,0,0-1.56,1.26c-.45.68-.81,1.06-1.09,1.14l-.14,0c-.45.11-.75-.12-.91-.71Zm20-1.26a4.36,4.36,0,0,1,.23-3.19,3.49,3.49,0,0,1,5.05-1.33,4.87,4.87,0,0,1,1.54,5.82,3.51,3.51,0,0,1-5,1.33A4.3,4.3,0,0,1,321.21,136.42Z"/><path d="M310.36,164a2.92,2.92,0,0,0-1.69,1,2.69,2.69,0,0,1-1.21.92l-.14,0c-.46.06-.73-.18-.81-.73l-.75-5.17a.83.83,0,0,1,.77-1.07l.32,0a6.21,6.21,0,0,1-2.22-4.17,8.49,8.49,0,0,1,1.52-6.36,9.9,9.9,0,0,1,13.12-1.88,8.27,8.27,0,0,1,3.42,5.66,6.68,6.68,0,0,1-.47,3.86l4.8-.69a1.86,1.86,0,0,0,1.18-.65,7.72,7.72,0,0,0,.76-1.09,1.1,1.1,0,0,1,.74-.61h.11c.46-.07.81.16,1.06.69l2.51,5.39c.5,1,.28,1.58-.63,1.71Zm-3.76-8.08a1.94,1.94,0,0,0,1,1.52,3.5,3.5,0,0,0,2.33.35l7-1a5.28,5.28,0,0,0,3-1.45,2.83,2.83,0,0,0,1.07-2.46c-.26-1.78-1.88-2.51-4.86-2.21a19.38,19.38,0,0,0-3.89.88,15.75,15.75,0,0,0-4,1.91C307.06,154.22,306.51,155,306.6,155.89Z"/><path d="M312.36,180.89a.82.82,0,0,1,.26.89.66.66,0,0,1-.74.47,5.61,5.61,0,0,1-3.76-2.05,7.45,7.45,0,0,1-2-5.26,8.7,8.7,0,0,1,2.45-6.54,9.08,9.08,0,0,1,6.63-2.62,8.57,8.57,0,0,1,6.52,2.53,8.85,8.85,0,0,1,2.64,6.29,7.75,7.75,0,0,1-1.45,5.17,4.45,4.45,0,0,1-3.44,1.88,2.38,2.38,0,0,1-2.28-1.38l-4.21-7.2a4.69,4.69,0,0,0-2.3,4.2,5.15,5.15,0,0,0,.49,2.13A3.85,3.85,0,0,0,312.36,180.89ZM322.58,174a2,2,0,0,0-1.12-1.76,5.31,5.31,0,0,0-2.75-.63,12.38,12.38,0,0,0-3.82.61l2.1,3.36a2.09,2.09,0,0,0,1.87.92,5.64,5.64,0,0,0,2.47-.64A2,2,0,0,0,322.58,174Z"/><path d="M305.12,194.39c.1-.55.37-.78.83-.7l.14,0c.29.06.68.39,1.17,1a2.77,2.77,0,0,0,1.64,1.09l18.9,3.38.34-1.9a2,2,0,0,0-.42-1.61,5.39,5.39,0,0,0-1.3-1.31,7.54,7.54,0,0,1-1.33-1.18,1.5,1.5,0,0,1-.49-1.2l.11-.61q.18-1,1.2-.72l4.76,1.6a1.1,1.1,0,0,1,.89,1.42l-3.3,18.46a1.13,1.13,0,0,1-1.33,1l-5.06-.12a.85.85,0,0,1-.7-.32A.92.92,0,0,1,321,212l.11-.61a1.47,1.47,0,0,1,.87-1,8.35,8.35,0,0,1,1.66-.67,5.21,5.21,0,0,0,1.68-.81,2.06,2.06,0,0,0,.95-1.38l.34-1.87-18.89-3.38a2.73,2.73,0,0,0-1.92.45,2.59,2.59,0,0,1-1.45.54l-.14,0c-.46-.08-.63-.41-.53-1Z"/><path d="M300.45,226.8a3.7,3.7,0,0,0-1.46-.06,1.57,1.57,0,0,0-.84.37,2.6,2.6,0,0,1-.53.41.68.68,0,0,1-.6.07c-.76-.26-.7-1.69.2-4.29a6,6,0,0,1,1.19-2.24,1.88,1.88,0,0,1,1.61-.54c-.89-1.29-1-3-.29-5a8.21,8.21,0,0,1,3-4.25,4.8,4.8,0,0,1,4.52-.47,4.91,4.91,0,0,1,3.27,3.13,7.36,7.36,0,0,1-.12,4.89,7.16,7.16,0,0,1-2.06,3.19l.1,0a24.75,24.75,0,0,0,4.89.81,1.75,1.75,0,0,0,1.79-1.26,1.58,1.58,0,0,0-.29-1.53,5.71,5.71,0,0,0-1.34-1.25,4.14,4.14,0,0,1-1.3-1.39,2.17,2.17,0,0,1-.16-1.9,2.58,2.58,0,0,1,1.22-1.53,2.2,2.2,0,0,1,1.85-.12,3.44,3.44,0,0,1,2.34,3,11.26,11.26,0,0,1-.67,5.25,9.15,9.15,0,0,1-3.84,5.07,8.08,8.08,0,0,1-6,.92Zm.39-8.78a1.58,1.58,0,0,0,.32,1.56,3.28,3.28,0,0,0,1.55,1.09l1.64.41c2,.42,3.19,0,3.6-1.16a1.64,1.64,0,0,0-.2-1.5,3,3,0,0,0-1.55-1.07,8.31,8.31,0,0,0-3.47-.51A2,2,0,0,0,300.84,218Z"/><path d="M292.45,233.52a12.38,12.38,0,0,1,3.64-4.63c1.38-1,2.63-1.21,3.77-.64a2.16,2.16,0,0,1,1.25,1.42,2.9,2.9,0,0,1-.32,1.94,2.56,2.56,0,0,1-1.58,1.41,4.21,4.21,0,0,1-2,.12,4.83,4.83,0,0,0-1.93,0,2,2,0,0,0-1.41,1.09,1.75,1.75,0,0,0,.91,2.66,2.48,2.48,0,0,0,2.31,0,7.17,7.17,0,0,0,2.13-1.65c.66-.73,1.36-1.44,2.08-2.12a5.52,5.52,0,0,1,2.61-1.39,4.78,4.78,0,0,1,3.29.52,4.72,4.72,0,0,1,2.61,3.71,9.31,9.31,0,0,1-1.09,5.66,10.7,10.7,0,0,1-3.61,4.37,3.65,3.65,0,0,1-3.73.53,2,2,0,0,1-1.1-1.35,2.48,2.48,0,0,1,.2-1.84A2.44,2.44,0,0,1,302,242,3.89,3.89,0,0,1,304,242a5.74,5.74,0,0,0,1.84.1,1.51,1.51,0,0,0,1.28-.85,1.48,1.48,0,0,0,0-1.4,2.41,2.41,0,0,0-1.1-1.06,2.76,2.76,0,0,0-2.39-.11,6.53,6.53,0,0,0-2.19,1.51c-.67.69-1.36,1.36-2.07,2a5.65,5.65,0,0,1-2.53,1.35,4.79,4.79,0,0,1-5.62-4.12A9.86,9.86,0,0,1,292.45,233.52Z"/><path d="M284.46,247.28a5.59,5.59,0,0,1,3.84-2.7,7.19,7.19,0,0,1,5.06,1.39l7.26,4.71.75-1.16a.81.81,0,0,1,.53-.38.8.8,0,0,1,.63.13l.68.44a.74.74,0,0,1,.24,1.16l-.38.58a4.36,4.36,0,0,0-.72,3,4.66,4.66,0,0,0,1.39,2.78,1,1,0,0,1,.26,1.34l-.45.71a.87.87,0,0,1-1.34.31l-3.09-2-2.05,3.15a.79.79,0,0,1-.52.38.87.87,0,0,1-.64-.13l-.67-.44a.85.85,0,0,1-.38-.53.86.86,0,0,1,.13-.63l2.05-3.15-7.35-4.77a2.1,2.1,0,0,0-1.46-.39,1.54,1.54,0,0,0-1.08.69,2.68,2.68,0,0,0-.18,2.76.94.94,0,0,1,0,.7.7.7,0,0,1-.41.4.6.6,0,0,1-.56-.08,5.69,5.69,0,0,1-2.5-3.55A5.79,5.79,0,0,1,284.46,247.28Z"/><path d="M280.93,253.13c.36-.46.72-.55,1.09-.27l.11.09a2.76,2.76,0,0,1,.62,1.41,2.84,2.84,0,0,0,1,1.7l5.46,4.28a2.92,2.92,0,0,0,1.9.56,2.66,2.66,0,0,1,1.41.18l.12.09c.23.18.27.57.14,1.18l-1.27,6c-.15.54-.37.87-.69,1a.88.88,0,0,1-.93-.17l-10.17-8a2.79,2.79,0,0,0-1.94-.48,2.6,2.6,0,0,1-1.57-.18l-.11-.09c-.37-.29-.36-.67,0-1.15ZM294,268.33a4.33,4.33,0,0,1,2.68-1.74,3.49,3.49,0,0,1,4.11,3.22,4.89,4.89,0,0,1-3.71,4.74,3.51,3.51,0,0,1-4.11-3.22A4.33,4.33,0,0,1,294,268.33Z"/><path d="M264.5,277.11a3.59,3.59,0,0,0-1.77-.78,2.73,2.73,0,0,1-1.41-.53l-.11-.1c-.32-.33-.28-.69.13-1.11l5.14-5.18c.41-.42.78-.46,1.11-.14l.1.11a2.73,2.73,0,0,1,.47,1.44,2.66,2.66,0,0,0,.86,1.73l4.89,4.34a10.71,10.71,0,0,0,3.23,2.19,1.88,1.88,0,0,0,2.07-.49,1.94,1.94,0,0,0,.57-1.92,4.71,4.71,0,0,0-1.41-2.25l-5.65-5.61a2.82,2.82,0,0,0-1.86-.71,2.65,2.65,0,0,1-1.52-.38l-.11-.1c-.33-.33-.28-.7.13-1.11l5.55-5.6c.41-.41.78-.46,1.11-.13l.1.1a2.56,2.56,0,0,1,.39,1.52,2.83,2.83,0,0,0,.73,1.86l5.11,5.06a1.84,1.84,0,0,0,1.25.57,7.23,7.23,0,0,0,1.33,0,1.07,1.07,0,0,1,.93.23l.08.07c.22.23.23.65,0,1.27l-1.81,5.4q-.29.69-.72.75a1.09,1.09,0,0,1-.88-.38L281.34,276a5.47,5.47,0,0,1-1.73,5.63,6.71,6.71,0,0,1-4.58,2.08q-2.65.15-5.72-2.48Z"/><path d="M258.49,298.55a5.63,5.63,0,0,1-1.95,1.12.85.85,0,0,1-.9-.49,1.24,1.24,0,0,1-.22-.87,1.56,1.56,0,0,1,.26-.69q.19-.25.6-.72c.27-.31.46-.53.57-.67a6.71,6.71,0,0,1-4.14-2.56,6.62,6.62,0,0,1-.59-7.39,6.82,6.82,0,0,1-3.54.8,3.28,3.28,0,0,1-2.24-1.36q-1.29-1.73.09-4.46a15.13,15.13,0,0,1,4.62-5.15,13.37,13.37,0,0,1,5.79-2.76,3.87,3.87,0,0,1,4,1.45,2.48,2.48,0,0,1,.47,1.74,2.39,2.39,0,0,1-1.05,1.7,2.5,2.5,0,0,1-2,.44,5.48,5.48,0,0,1-2.05-.79,5.92,5.92,0,0,0-2.06-.81,2.5,2.5,0,0,0-2.05.46,2.77,2.77,0,0,0-1.29,2,3.18,3.18,0,0,0,.69,2.29c1,1.34,2,1.83,3,1.45.4-.36.74-.64,1-.84a9.71,9.71,0,0,1,6.32-2.17A6.51,6.51,0,0,1,267,283a7.06,7.06,0,0,1,1.35,6,9.49,9.49,0,0,1-3.87,5.57c-.55.41-1.45,1-2.69,1.78S259.43,297.86,258.49,298.55Zm5.34-9.57a14.87,14.87,0,0,0-4.29-3.86q-2.57-1.55-3.7-.7a1.65,1.65,0,0,0-.67,1.52,4.15,4.15,0,0,0,.92,2.12,15.29,15.29,0,0,0,4.2,3.74c1.76,1.11,3,1.37,3.85.77a1.55,1.55,0,0,0,.63-1.47A4.26,4.26,0,0,0,263.83,289Z"/><path d="M229.29,294.42a11.36,11.36,0,0,1,9.81-.07,14.06,14.06,0,0,1,7.3,7.14,13.23,13.23,0,0,1,.88,9.84,11.33,11.33,0,0,1-6.42,7,13.27,13.27,0,0,1-7.61,1.28q-3.72-.54-4.92-3.12a2.78,2.78,0,0,1-.14-2.23,3,3,0,0,1,1.66-1.66,3.63,3.63,0,0,1,2.34-.27,6.49,6.49,0,0,1,2.23.95l2.08,1.39a6.81,6.81,0,0,0,2.21,1,3.31,3.31,0,0,0,2.25-.22,3.85,3.85,0,0,0,2.1-2.88,7.5,7.5,0,0,0-.78-4.74,13.7,13.7,0,0,0-5.82-6.61q-3.65-2-6.59-.57a6.56,6.56,0,0,0-1.85,1.26,5.78,5.78,0,0,0-1.18,1.7,10.92,10.92,0,0,0-.59,1.58c-.11.43-.22,1-.34,1.57a1.15,1.15,0,0,1-1,.92.93.93,0,0,1-1.11-.67,9.35,9.35,0,0,1-.2-7Q224.9,296.46,229.29,294.42Z"/><path d="M219,299c.53-.17.87,0,1,.4l.05.14a2.62,2.62,0,0,1-.27,1.48,2.94,2.94,0,0,0-.13,1.94l5.12,15.88a2.92,2.92,0,0,0,1.24,1.53c.63.42,1,.75,1.06,1l0,.14c.08.25-.09.6-.51,1l-4.42,4.26a1.31,1.31,0,0,1-1.14.43.89.89,0,0,1-.69-.64l-7-21.61a2.68,2.68,0,0,0-1.32-1.47q-1-.6-1.17-1l0-.14c-.14-.44.06-.75.62-.93Z"/><path d="M193.15,309.59a3.73,3.73,0,0,0-.53-1.42.89.89,0,0,0-.65-.45,1.05,1.05,0,0,1-.59-.16.93.93,0,0,1-.37-.63c-.09-.45.16-.83.73-1.11a11.53,11.53,0,0,1,2.73-.81,5,5,0,0,1,2.54,0,2.07,2.07,0,0,1,1.23,1.43q1-2.51,4.61-3.23a6.71,6.71,0,0,1,5.15.92A7.1,7.1,0,0,1,211,308.9l1.19,6a2.77,2.77,0,0,0,1.07,1.64q.89.72,1,1.08l0,.14q.15.72-.66,1l-5.19,1.78c-1.09.37-1.7.24-1.82-.38l-2-10.61a6.31,6.31,0,0,0-1.14-3,2,2,0,0,0-2-.59,2,2,0,0,0-1.48,1.32,4.54,4.54,0,0,0-.17,2.73l1.42,7.09a2.83,2.83,0,0,0,1.07,1.64q.88.72,1,1.08l0,.14c.09.48-.12.8-.66,1l-5.19,1.78c-1,.35-1.59.22-1.72-.4Z"/><path d="M180.2,324.31a8.8,8.8,0,0,1-6.1-2,8.2,8.2,0,0,1-2.89-6.36,9.4,9.4,0,0,1,2.22-6.93,8.18,8.18,0,0,1,6-2.9,6.19,6.19,0,0,1,4.48,1.41v-.33a.83.83,0,0,1,.9-1l5.51-.21c.56,0,.85.19.87.65v.15a2.58,2.58,0,0,1-.67,1.36,2.87,2.87,0,0,0-.64,1.87l.74,16.59a2.37,2.37,0,0,0,1,1.73c.62.52.93.93,1,1.22v.14c0,.39-.29.75-.94,1.07l-5.49,2.83a1.33,1.33,0,0,1-1.2.2c-.35-.13-.53-.45-.56-1l-.43-9.77A6,6,0,0,1,180.2,324.31Zm-.15-16.46c-1.85.08-2.7,1.65-2.57,4.71a28.1,28.1,0,0,0,.55,4.36,12.86,12.86,0,0,0,1.41,3.88c.65,1.14,1.39,1.7,2.21,1.66a1.86,1.86,0,0,0,1.55-.93,4.11,4.11,0,0,0,.5-2.38l-.32-7.07a5.09,5.09,0,0,0-1.1-3A2.69,2.69,0,0,0,180.05,307.85Z"/><path d="M157.08,317a4.26,4.26,0,0,1,2.85-.59,4.19,4.19,0,0,1,2.66,1.18,3.56,3.56,0,0,1-.54,5.11,4.73,4.73,0,0,1-5.51-.58,3.57,3.57,0,0,1,.54-5.12Z"/><path d="M144,302.83c.54.15.75.45.62.89l0,.15c-.08.28-.45.64-1.11,1.07a2.73,2.73,0,0,0-1.24,1.54L137.17,325l1.87.52a2.08,2.08,0,0,0,1.64-.27,5.48,5.48,0,0,0,1.42-1.18,7.41,7.41,0,0,1,1.3-1.21,1.47,1.47,0,0,1,1.24-.38l.6.16c.66.18.85.6.6,1.26l-2,4.6a1.12,1.12,0,0,1-1.5.76l-18.08-5a1.14,1.14,0,0,1-.9-1.42l.59-5a.83.83,0,0,1,.37-.67.93.93,0,0,1,.78-.07l.6.16a1.5,1.5,0,0,1,.87,1,8.06,8.06,0,0,1,.51,1.71,5.55,5.55,0,0,0,.65,1.75,2.16,2.16,0,0,0,1.3,1.08l1.83.5,5.09-18.51a2.74,2.74,0,0,0-.28-2,2.5,2.5,0,0,1-.4-1.49l0-.14c.12-.44.46-.59,1-.43Z"/><path d="M110.19,294.36a3.74,3.74,0,0,0,.13-1.93,2.81,2.81,0,0,1,0-1.5l.06-.13c.2-.42.56-.51,1.09-.27l6.6,3q.8.36.51,1l-.06.13a2.82,2.82,0,0,1-1.18.95A2.85,2.85,0,0,0,116,297l-2.49,6.32a9.16,9.16,0,0,0-.84,3.58,1.94,1.94,0,0,0,1.21,1.73,2,2,0,0,0,2-.12,4.84,4.84,0,0,0,1.62-2.1l3.32-7.24a2.69,2.69,0,0,0,0-2,2.54,2.54,0,0,1-.19-1.55l.06-.14c.19-.42.55-.51,1.09-.26l7.19,3.3c.51.23.67.55.48,1l-.06.14q-.18.39-1.29.87a2.77,2.77,0,0,0-1.48,1.31l-7,15.4a2.24,2.24,0,0,0,.1,1.93c.33.71.43,1.2.31,1.46l0,.1a1.12,1.12,0,0,1-1.19.58l-6.3-.08a1,1,0,0,1-.94-.35.88.88,0,0,1,0-.92l4.41-9.62a5.91,5.91,0,0,1-4.77-.3,6.83,6.83,0,0,1-3.52-3.52c-.71-1.6-.63-3.6.26-6Z"/><path d="M95.24,286.88a.84.84,0,0,1-.88-.28.66.66,0,0,1,0-.88,5.6,5.6,0,0,1,3.79-2,7.46,7.46,0,0,1,5.48,1.25,8.76,8.76,0,0,1,4.09,5.66,9.14,9.14,0,0,1-1.48,7,8.64,8.64,0,0,1-5.72,4,8.86,8.86,0,0,1-6.7-1.28,7.76,7.76,0,0,1-3.51-4.07,4.49,4.49,0,0,1,.33-3.9,2.41,2.41,0,0,1,2.42-1.14l8.32.47a4.67,4.67,0,0,0-2.22-4.24,5.17,5.17,0,0,0-2-.76A3.67,3.67,0,0,0,95.24,286.88Zm.11,12.33a2,2,0,0,0,2.08,0,5.09,5.09,0,0,0,2-1.94,12,12,0,0,0,1.6-3.53l-4-.1a2.14,2.14,0,0,0-1.81,1.05,5.84,5.84,0,0,0-.83,2.41A2,2,0,0,0,95.35,299.21Z"/><path d="M83.27,268.67a12.83,12.83,0,0,1,0,18.45,13.58,13.58,0,0,1-9.36,4.47,13.11,13.11,0,0,1-13.07-13,13.22,13.22,0,0,1,4.06-9.54,12.73,12.73,0,0,1,9.29-4.18A12.51,12.51,0,0,1,83.27,268.67ZM80,269.3a3.68,3.68,0,0,0-3.16-1.16,6.07,6.07,0,0,0-3.47,2,23,23,0,0,0-4,5.7,21.13,21.13,0,0,0-2.2,6.81q-.45,3.35,1,4.8a3.57,3.57,0,0,0,3.12,1.12,6.29,6.29,0,0,0,3.53-2.06,23.77,23.77,0,0,0,4.16-5.91,19.48,19.48,0,0,0,2.07-6.63C81.37,271.81,81,270.27,80,269.3Z"/><path d="M60.48,247.89a3.67,3.67,0,0,0,.89-1.17,1.5,1.5,0,0,0,.18-.9,2.51,2.51,0,0,1,0-.67.7.7,0,0,1,.29-.53q1-.7,3.4,2.63a5.85,5.85,0,0,1,1.14,2.26,1.86,1.86,0,0,1-.48,1.63q2.35,0,4.26,2.64a8.12,8.12,0,0,1,1.77,4.87,4.79,4.79,0,0,1-2.21,4,4.91,4.91,0,0,1-4.43.88,7.37,7.37,0,0,1-3.94-2.92,7,7,0,0,1-1.43-3.51l-.09.06a23.83,23.83,0,0,0-3.47,3.54,1.74,1.74,0,0,0,0,2.18,1.56,1.56,0,0,0,1.42.64,5.31,5.31,0,0,0,1.79-.38,4.12,4.12,0,0,1,1.89-.26,2.19,2.19,0,0,1,1.65,1,2.63,2.63,0,0,1,.55,1.87,2.27,2.27,0,0,1-1,1.59,3.43,3.43,0,0,1-3.83.16,11.35,11.35,0,0,1-3.91-3.56A9.11,9.11,0,0,1,53,257.82a8,8,0,0,1,2.69-5.45Zm7,5.36a1.58,1.58,0,0,0-1.45-.64,3.26,3.26,0,0,0-1.79.65l-1.27,1.1c-1.49,1.38-1.86,2.59-1.12,3.61a1.59,1.59,0,0,0,1.34.7,3,3,0,0,0,1.76-.65,8.27,8.27,0,0,0,2.41-2.54A2,2,0,0,0,67.44,253.25Z"/><path d="M59.7,237.64a5.57,5.57,0,0,1,.59,4.66,7.19,7.19,0,0,1-3.6,3.82l-7.56,4.2.67,1.21a.82.82,0,0,1,.09.64.79.79,0,0,1-.41.5l-.7.39a.74.74,0,0,1-1.15-.32l-.33-.61a4.33,4.33,0,0,0-2.28-2,4.66,4.66,0,0,0-3.11-.07,1,1,0,0,1-1.3-.4l-.41-.74a.86.86,0,0,1,.35-1.32l3.22-1.79L42,242.5a.81.81,0,0,1-.09-.64.79.79,0,0,1,.41-.5L43,241a.82.82,0,0,1,.64-.09.83.83,0,0,1,.51.41l1.82,3.29,7.66-4.26a2.07,2.07,0,0,0,1-1.11,1.51,1.51,0,0,0-.11-1.28,2.7,2.7,0,0,0-2.35-1.45,1,1,0,0,1-.62-.32.7.7,0,0,1-.16-.56.59.59,0,0,1,.33-.45,5.66,5.66,0,0,1,4.31-.54A5.77,5.77,0,0,1,59.7,237.64Z"/><path d="M53.83,225.36A12.34,12.34,0,0,1,55,231.14q-.23,2.55-2,3.27a2.13,2.13,0,0,1-1.89,0,2.88,2.88,0,0,1-1.26-1.51,2.54,2.54,0,0,1,0-2.12,4.16,4.16,0,0,1,1.2-1.57,4.8,4.8,0,0,0,1.25-1.47,1.94,1.94,0,0,0,.11-1.78,1.75,1.75,0,0,0-2.61-1,2.5,2.5,0,0,0-1.54,1.72,7.21,7.21,0,0,0-.14,2.69q.18,1.47.24,3a5.49,5.49,0,0,1-.66,2.88,4.78,4.78,0,0,1-2.54,2.14,4.72,4.72,0,0,1-4.52-.45A9.29,9.29,0,0,1,37,232.36a10.77,10.77,0,0,1-1-5.6,3.65,3.65,0,0,1,2-3.16,2,2,0,0,1,1.74.05A2.48,2.48,0,0,1,41.11,225a2.45,2.45,0,0,1,0,2.05,4,4,0,0,1-1.22,1.51,5.52,5.52,0,0,0-1.28,1.32,1.53,1.53,0,0,0-.2,1.53,1.49,1.49,0,0,0,1.06.92,2.36,2.36,0,0,0,1.52-.14,2.75,2.75,0,0,0,1.65-1.73,6.4,6.4,0,0,0,.28-2.65c-.08-.95-.14-1.92-.17-2.89a5.49,5.49,0,0,1,.63-2.79,4.78,4.78,0,0,1,6.79-1.56A9.82,9.82,0,0,1,53.83,225.36Z"/><path d="M30.3,218.64a4.37,4.37,0,0,1-.12,3.2,3.51,3.51,0,0,1-5,1.51,4.4,4.4,0,0,1-1.87-2.6,4.32,4.32,0,0,1,.13-3.16,3.51,3.51,0,0,1,5-1.51A4.28,4.28,0,0,1,30.3,218.64Zm20-2c.17.56,0,.91-.41,1l-.13,0a2.69,2.69,0,0,1-1.51-.31,3,3,0,0,0-2-.17l-6.63,2a2.91,2.91,0,0,0-1.56,1.23c-.42.64-.74,1-.95,1.06l-.14,0c-.28.08-.63-.1-1.05-.56l-4.18-4.49a1.33,1.33,0,0,1-.42-1.13.92.92,0,0,1,.68-.67L44.35,211a2.71,2.71,0,0,0,1.51-1.31c.42-.7.78-1.09,1.06-1.18l.13,0c.45-.13.76.09.93.67Z"/><path d="M40.18,190.73a2.89,2.89,0,0,0,1.65-1,2.66,2.66,0,0,1,1.18-1l.15,0c.45-.08.73.15.83.7l.93,5.14a.82.82,0,0,1-.73,1.09l-.32.06a6.29,6.29,0,0,1,2.37,4.09,8.51,8.51,0,0,1-1.31,6.42,8.79,8.79,0,0,1-6.13,3.68,8.87,8.87,0,0,1-6.9-1.34A8.27,8.27,0,0,1,28.28,203a6.65,6.65,0,0,1,.33-3.88l-4.77.86a1.89,1.89,0,0,0-1.16.69A7.51,7.51,0,0,0,22,201.8a1,1,0,0,1-.72.63l-.11,0a1,1,0,0,1-1.08-.66l-2.7-5.29c-.53-1-.34-1.57.57-1.74Zm4,8a2,2,0,0,0-1.09-1.5,3.57,3.57,0,0,0-2.34-.26l-6.93,1.26a5.28,5.28,0,0,0-2.93,1.55,2.84,2.84,0,0,0-1,2.49c.32,1.78,2,2.45,4.93,2a18.77,18.77,0,0,0,3.86-1,15.7,15.7,0,0,0,3.92-2.05Q44.42,199.94,44.22,198.68Z"/><path d="M37.56,173.92a.81.81,0,0,1-.27-.88.64.64,0,0,1,.72-.49,5.6,5.6,0,0,1,3.81,2,7.46,7.46,0,0,1,2.12,5.2,8.74,8.74,0,0,1-2.28,6.6,9.12,9.12,0,0,1-6.57,2.8,8.55,8.55,0,0,1-6.58-2.38,8.81,8.81,0,0,1-2.8-6.21A7.8,7.8,0,0,1,27,175.31a4.49,4.49,0,0,1,3.39-2,2.4,2.4,0,0,1,2.32,1.33l4.38,7.08a4.68,4.68,0,0,0,2.2-4.25,5,5,0,0,0-.55-2.12A3.72,3.72,0,0,0,37.56,173.92Zm-10,7.18a2,2,0,0,0,1.16,1.72,5.1,5.1,0,0,0,2.77.56,12.07,12.07,0,0,0,3.8-.71l-2.18-3.3a2.11,2.11,0,0,0-1.9-.87,5.89,5.89,0,0,0-2.46.7A2,2,0,0,0,27.53,181.1Z"/><path d="M44.52,158.2c-.09.56-.36.8-.82.72l-.15,0a2.64,2.64,0,0,1-1.19-1,2.71,2.71,0,0,0-1.66-1.06l-19-3-.31,1.91a2.07,2.07,0,0,0,.45,1.6,5.6,5.6,0,0,0,1.33,1.29,7.46,7.46,0,0,1,1.35,1.15,1.47,1.47,0,0,1,.51,1.19l-.1.62c-.1.67-.5.91-1.18.73L19,160.83a1.11,1.11,0,0,1-.92-1.4L21,140.9a1.14,1.14,0,0,1,1.31-1.05l5.06,0a.92.92,0,0,1,.71.3,1,1,0,0,1,.15.77l-.1.61a1.46,1.46,0,0,1-.85,1,8.35,8.35,0,0,1-1.65.7,5.83,5.83,0,0,0-1.67.84,2.19,2.19,0,0,0-.92,1.41l-.3,1.87,19,3a2.72,2.72,0,0,0,1.9-.49,2.66,2.66,0,0,1,1.44-.57l.15,0c.45.07.64.39.54,1Z"/><path d="M48.54,125.6a3.9,3.9,0,0,0,1.47,0,1.56,1.56,0,0,0,.83-.39,2.59,2.59,0,0,1,.52-.42.68.68,0,0,1,.6-.08q1.15.38-.12,4.3a6,6,0,0,1-1.14,2.25,1.92,1.92,0,0,1-1.61.58c.92,1.26,1,2.93.39,5a8.13,8.13,0,0,1-2.89,4.3,4.78,4.78,0,0,1-4.51.56,4.89,4.89,0,0,1-3.32-3.06,7.41,7.41,0,0,1,0-4.9,7.11,7.11,0,0,1,2-3.23l-.1,0a24.18,24.18,0,0,0-4.91-.72A1.75,1.75,0,0,0,34,131.08a1.56,1.56,0,0,0,.32,1.52,5.57,5.57,0,0,0,1.37,1.23A4.13,4.13,0,0,1,37,135.2a2.17,2.17,0,0,1,.19,1.9A2.57,2.57,0,0,1,36,138.65a2.2,2.2,0,0,1-1.85.15,3.42,3.42,0,0,1-2.39-3,11.41,11.41,0,0,1,.56-5.26,9.14,9.14,0,0,1,3.75-5.14,8,8,0,0,1,6-1Zm-.22,8.79a1.59,1.59,0,0,0-.34-1.55,3.29,3.29,0,0,0-1.58-1.06l-1.64-.38c-2-.39-3.19,0-3.58,1.23a1.62,1.62,0,0,0,.23,1.49,3,3,0,0,0,1.56,1,8.26,8.26,0,0,0,3.48.45C47.47,135.49,48.1,135.08,48.32,134.39Z"/><path d="M56.51,118.69a12.33,12.33,0,0,1-3.54,4.7q-2.05,1.53-3.76.72a2.16,2.16,0,0,1-1.28-1.4,2.92,2.92,0,0,1,.28-1.94,2.6,2.6,0,0,1,1.56-1.45,4.18,4.18,0,0,1,2-.15,4.84,4.84,0,0,0,1.93,0A1.93,1.93,0,0,0,55.06,118a1.75,1.75,0,0,0-1-2.64,2.48,2.48,0,0,0-2.31,0,7.07,7.07,0,0,0-2.1,1.68c-.65.75-1.33,1.47-2,2.17a5.48,5.48,0,0,1-2.58,1.43,4.82,4.82,0,0,1-3.3-.45,4.71,4.71,0,0,1-2.68-3.66,9.27,9.27,0,0,1,1-5.68,10.66,10.66,0,0,1,3.53-4.44,3.67,3.67,0,0,1,3.72-.6,2.09,2.09,0,0,1,1.13,1.33,2.52,2.52,0,0,1-.17,1.84,2.46,2.46,0,0,1-1.51,1.38,3.86,3.86,0,0,1-1.93.11,6.09,6.09,0,0,0-1.85-.07,1.51,1.51,0,0,0-1.26.88,1.45,1.45,0,0,0,0,1.4,2.37,2.37,0,0,0,1.12,1,2.79,2.79,0,0,0,2.39.07,6.9,6.9,0,0,0,2.16-1.56c.65-.7,1.33-1.39,2-2.07a5.47,5.47,0,0,1,2.5-1.39,4.46,4.46,0,0,1,3.14.42,4.57,4.57,0,0,1,2.56,3.58A9.86,9.86,0,0,1,56.51,118.69Z"/><path d="M64.16,104.84a5.57,5.57,0,0,1-3.79,2.78,7.21,7.21,0,0,1-5.08-1.29L48,101.76l-.74,1.18a.82.82,0,0,1-1.15.27l-.68-.43a.73.73,0,0,1-.27-1.15l.36-.59a4.33,4.33,0,0,0,.67-3,4.63,4.63,0,0,0-1.44-2.75A1,1,0,0,1,44.41,94l.44-.71a.85.85,0,0,1,1.33-.33l3.13,1.94,2-3.19a.79.79,0,0,1,1.15-.27l.68.43a.79.79,0,0,1,.39.51.82.82,0,0,1-.12.64l-2,3.19,7.43,4.63a2.11,2.11,0,0,0,1.48.36,1.5,1.5,0,0,0,1.06-.71,2.66,2.66,0,0,0,.13-2.76,1,1,0,0,1,0-.7.69.69,0,0,1,.41-.41.6.6,0,0,1,.56.07,5.66,5.66,0,0,1,2.56,3.5A5.78,5.78,0,0,1,64.16,104.84Z"/><path d="M54.26,84a4.37,4.37,0,0,1-2.65,1.79,3.49,3.49,0,0,1-4.17-3.14,4.86,4.86,0,0,1,3.62-4.8,3.34,3.34,0,0,1,2.79.63A3.39,3.39,0,0,1,55.23,81,4.37,4.37,0,0,1,54.26,84Zm13.36,15c-.35.47-.71.56-1.08.28l-.12-.08a2.81,2.81,0,0,1-.64-1.4,3,3,0,0,0-1-1.68l-5.54-4.17a2.9,2.9,0,0,0-1.91-.53,2.85,2.85,0,0,1-1.42-.15l-.12-.09c-.23-.17-.28-.56-.16-1.17l1.16-6a1.32,1.32,0,0,1,.66-1,.91.91,0,0,1,.94.15L68.7,90.82a2.72,2.72,0,0,0,2,.45,2.6,2.6,0,0,1,1.57.15l.12.09q.55.42,0,1.14Z"/><path d="M83.53,74.55a3.64,3.64,0,0,0,1.79.75,2.8,2.8,0,0,1,1.42.5l.1.1c.34.32.3.69-.1,1.11l-5,5.28c-.41.42-.77.47-1.11.15l-.1-.1a2.67,2.67,0,0,1-.5-1.43,2.63,2.63,0,0,0-.89-1.71l-5-4.25a10.73,10.73,0,0,0-3.26-2.13,1.89,1.89,0,0,0-2.07.53,1.94,1.94,0,0,0-.53,1.93,4.76,4.76,0,0,0,1.46,2.23L75.47,83a2.75,2.75,0,0,0,1.87.68,2.62,2.62,0,0,1,1.53.35l.11.1c.33.32.3.69-.1,1.11l-5.45,5.7c-.4.43-.77.48-1.1.16l-.11-.1a2.66,2.66,0,0,1-.42-1.52A2.79,2.79,0,0,0,71,87.64l-5.2-5a1.86,1.86,0,0,0-1.26-.55,7.13,7.13,0,0,0-1.33.07,1.06,1.06,0,0,1-.93-.21l-.08-.08q-.34-.33-.06-1.26l1.71-5.44c.18-.46.41-.72.71-.76a1.06,1.06,0,0,1,.88.37L66.71,76a5.48,5.48,0,0,1,1.63-5.66,6.7,6.7,0,0,1,4.54-2.17q2.66-.19,5.76,2.37Z"/><path d="M89.15,53a5.87,5.87,0,0,1,1.93-1.15.84.84,0,0,1,.91.47,1.22,1.22,0,0,1,.23.86,1.42,1.42,0,0,1-.24.7c-.13.17-.32.42-.59.73s-.45.54-.55.68A6.76,6.76,0,0,1,95,57.78a6.61,6.61,0,0,1,.73,7.38,6.86,6.86,0,0,1,3.53-.87,3.28,3.28,0,0,1,2.27,1.32q1.32,1.69,0,4.46A15.12,15.12,0,0,1,97,75.31a13.44,13.44,0,0,1-5.74,2.87,3.85,3.85,0,0,1-4-1.38,2.4,2.4,0,0,1-.51-1.72,2.36,2.36,0,0,1,1-1.72,2.47,2.47,0,0,1,2-.49,5.44,5.44,0,0,1,2.06.76,6,6,0,0,0,2.07.77,2.5,2.5,0,0,0,2-.5,2.8,2.8,0,0,0,1.26-2,3.2,3.2,0,0,0-.74-2.27c-1-1.33-2-1.79-3-1.4-.4.37-.73.66-1,.87a9.7,9.7,0,0,1-6.28,2.28A6.52,6.52,0,0,1,81,68.72a7.08,7.08,0,0,1-1.47-6,9.52,9.52,0,0,1,3.78-5.65c.53-.42,1.42-1,2.65-1.82S88.23,53.72,89.15,53ZM84,62.68a14.88,14.88,0,0,0,4.36,3.78q2.6,1.5,3.72.63a1.65,1.65,0,0,0,.63-1.54,4.06,4.06,0,0,0-.95-2.09,15.43,15.43,0,0,0-4.27-3.67q-2.68-1.6-3.87-.69a1.56,1.56,0,0,0-.6,1.48A4.11,4.11,0,0,0,84,62.68Z"/><path d="M119.7,56a11.42,11.42,0,0,1-9.81.15,14,14,0,0,1-7.36-7.09,13.18,13.18,0,0,1-1-9.83,11.37,11.37,0,0,1,6.36-7.09,13.22,13.22,0,0,1,7.61-1.34c2.48.34,4.13,1.36,4.94,3.08a2.78,2.78,0,0,1,.16,2.23A3,3,0,0,1,119,37.82a3.54,3.54,0,0,1-2.33.28,6.18,6.18,0,0,1-2.25-.93l-2.08-1.36a7,7,0,0,0-2.22-1,3.36,3.36,0,0,0-2.25.24A3.84,3.84,0,0,0,105.77,38a7.51,7.51,0,0,0,.83,4.75,13.63,13.63,0,0,0,5.87,6.55q3.66,1.92,6.59.52a6.42,6.42,0,0,0,1.84-1.28,5.79,5.79,0,0,0,1.17-1.71,10.17,10.17,0,0,0,.57-1.59c.11-.42.22-1,.33-1.57a1.14,1.14,0,0,1,1-.92.94.94,0,0,1,1.12.65,9.36,9.36,0,0,1,.26,7C124.49,52.77,122.62,54.64,119.7,56Z"/><path d="M129.86,51.45q-.8.27-1-.39l0-.14a2.68,2.68,0,0,1,.25-1.49,2.86,2.86,0,0,0,.11-1.94l-5.25-15.83a2.87,2.87,0,0,0-1.25-1.52c-.64-.42-1-.74-1.07-1l0-.14c-.08-.25.08-.6.5-1.05l4.38-4.3a1.34,1.34,0,0,1,1.14-.43.87.87,0,0,1,.69.63l7.15,21.55a2.69,2.69,0,0,0,1.33,1.46c.69.4,1.09.73,1.18,1l0,.14c.15.44-.06.75-.61.93Z"/><path d="M155.76,40.6A3.89,3.89,0,0,0,156.3,42c.23.3.44.45.65.44a1.08,1.08,0,0,1,.6.16.93.93,0,0,1,.37.63q.14.68-.72,1.11a11.26,11.26,0,0,1-2.72.83,5,5,0,0,1-2.54.05,2.07,2.07,0,0,1-1.24-1.42c-.65,1.68-2.17,2.76-4.58,3.27A6.69,6.69,0,0,1,141,46.2a7.06,7.06,0,0,1-3-4.76l-1.24-6a2.82,2.82,0,0,0-1.09-1.63c-.59-.47-.92-.83-1-1.07l0-.14a.81.81,0,0,1,.65-1l5.18-1.83c1.09-.37,1.7-.25,1.83.37l2.09,10.59a6.34,6.34,0,0,0,1.17,3,1.93,1.93,0,0,0,2,.57A2,2,0,0,0,149,43a4.64,4.64,0,0,0,.14-2.73l-1.48-7.07a2.81,2.81,0,0,0-1.09-1.64c-.59-.47-.91-.83-1-1.07l0-.14c-.1-.48.11-.81.65-1l5.17-1.83c1-.36,1.59-.23,1.72.39Z"/><path d="M168.58,25.81a8.75,8.75,0,0,1,6.11,2,8.22,8.22,0,0,1,2.95,6.33,9.43,9.43,0,0,1-2.17,7A8.12,8.12,0,0,1,169.54,44a6.15,6.15,0,0,1-4.49-1.37V43a.83.83,0,0,1-.89,1l-5.51.25c-.56,0-.85-.18-.87-.64v-.15a2.56,2.56,0,0,1,.66-1.37,2.94,2.94,0,0,0,.63-1.88l-.88-16.58a2.4,2.4,0,0,0-1-1.72c-.63-.51-1-.92-1-1.21v-.14q0-.59.93-1.08l5.47-2.88a1.37,1.37,0,0,1,1.2-.21c.35.13.53.45.56,1l.52,9.76A6,6,0,0,1,168.58,25.81Zm.28,16.47q2.77-.15,2.53-4.74a27.88,27.88,0,0,0-.58-4.35,13.28,13.28,0,0,0-1.44-3.87c-.66-1.14-1.4-1.68-2.23-1.64a1.86,1.86,0,0,0-1.54.94,4.06,4.06,0,0,0-.48,2.38l.38,7.07a5.11,5.11,0,0,0,1.12,3A2.72,2.72,0,0,0,168.86,42.28Z"/><path d="M195.53,33.4a4.73,4.73,0,0,1-5.5-.68,3.1,3.1,0,0,1-.77-2.69,3.1,3.1,0,0,1,1.4-2.42,4.73,4.73,0,0,1,5.5.68,3.13,3.13,0,0,1,.77,2.69A3.1,3.1,0,0,1,195.53,33.4Z"/></svg>