<svg xmlns="http://www.w3.org/2000/svg" xmlns:xlink="http://www.w3.org/1999/xlink" viewBox="0 0 460 283.35" width="273" height="189"><defs><clipPath id="a"><path d="M1405,299.71a21.74,21.74,0,0,0-21.74,21.74V524.56A21.75,21.75,0,0,0,1405,546.3H1534.6c67.81,0,123.29-55.48,123.29-123.3s-55.48-123.29-123.29-123.29Z" fill="none"/></clipPath></defs><path d="M434.94,228.92l-379,51.73a24.4,24.4,0,0,1-27.39-20.82L4.25,81.82a24.4,24.4,0,0,1,20.81-27.4l379-51.72a24.4,24.4,0,0,1,27.39,20.82l24.29,178a24.39,24.39,0,0,1-20.81,27.39" fill="#db5b54"/><path d="M236.11,186.24l11.51-5.78a36.31,36.31,0,0,0,16.12-48.59l-1.29-2.57a17.71,17.71,0,0,0-23.7-7.86l-44.66,22.42a17.7,17.7,0,0,0-7.86,23.69l1.29,2.57a36.3,36.3,0,0,0,48.59,16.12"/><path d="M335.73,130.18l13.1-7.43c16-10.34,18.31-35.88,8-51.92a18.65,18.65,0,0,0-25.71-5.56L290.68,91.32a18.64,18.64,0,0,0-5.56,25.7c10.34,16,34.56,23.49,50.61,13.16"/><path d="M287.86,113.3s-23.45-1.81-27.66,18.88" fill="none" stroke="#000" stroke-linecap="round" stroke-miterlimit="10" stroke-width="5.05"/><path d="M203.56,166.79s-96.65,20.6-113.76,31.9S87.6,222,87.6,222" fill="none" stroke="#000" stroke-linecap="round" stroke-miterlimit="10" stroke-width="5.05"/><path d="M335.53,66.4S238.2,83.51,220.7,94.19s-3,23.18-3,23.18" fill="none" stroke="#000" stroke-linecap="round" stroke-miterlimit="10" stroke-width="5.05"/><path d="M63.32,112a15,15,0,0,1-17-13.19q-1-7,2.57-11.82a14.37,14.37,0,0,1,10.19-5.77,14.32,14.32,0,0,1,11.14,3,15.44,15.44,0,0,1,5.88,10.56,14.82,14.82,0,0,1-2.78,11.55A14.6,14.6,0,0,1,63.32,112Zm1.76-3.46a4.3,4.3,0,0,0,3.33-2.09,7.12,7.12,0,0,0,.66-4.6,26.62,26.62,0,0,0-2.43-7.72,24.89,24.89,0,0,0-4.7-6.9c-1.85-1.87-3.57-2.7-5.18-2.48a4.22,4.22,0,0,0-3.26,2.08,7.38,7.38,0,0,0-.62,4.73,27.38,27.38,0,0,0,2.48,8.06A22.43,22.43,0,0,0,60,106.27Q62.68,108.87,65.08,108.54Z"/><path d="M99.8,101.91a4.28,4.28,0,0,0,.7,1.56,1.92,1.92,0,0,0,.83.68,2.73,2.73,0,0,1,.71.34.8.8,0,0,1,.38.59c.13.92-1.4,1.61-4.58,2a6.91,6.91,0,0,1-3-.07,2.2,2.2,0,0,1-1.42-1.4c-.86,1.61-2.55,2.59-5,2.93a9.57,9.57,0,0,1-6-.86,5.63,5.63,0,0,1-2.86-4.47,5.71,5.71,0,0,1,1.55-5,8.6,8.6,0,0,1,5.16-2.45,8.26,8.26,0,0,1,4.41.48l0-.13A28.6,28.6,0,0,0,89,90.59a2,2,0,0,0-2.25-1.2,1.8,1.8,0,0,0-1.44,1.1,6.54,6.54,0,0,0-.6,2.06,4.84,4.84,0,0,1-.77,2.08A2.53,2.53,0,0,1,82,95.79a3.07,3.07,0,0,1-2.24-.47,2.6,2.6,0,0,1-1.09-1.87,4,4,0,0,1,1.94-4,13.24,13.24,0,0,1,5.82-2.06,10.62,10.62,0,0,1,7.3,1.34,9.43,9.43,0,0,1,4.12,5.78Zm-9.36,4.2A1.85,1.85,0,0,0,91.9,105a3.81,3.81,0,0,0,.32-2.2l-.43-1.91q-.9-3.45-3.09-3.15a1.89,1.89,0,0,0-1.46,1,3.43,3.43,0,0,0-.3,2.17,9.64,9.64,0,0,0,1.28,3.89C88.86,105.77,89.6,106.23,90.44,106.11Z"/><path d="M112.59,105.28a6.54,6.54,0,0,1-5.32-1.34,8.35,8.35,0,0,1-2.62-5.53l-1.37-10-1.6.22a1,1,0,0,1-.73-.18.92.92,0,0,1-.37-.66l-.13-.93a.86.86,0,0,1,.84-1.1l.8-.11A5.1,5.1,0,0,0,105.26,84a5.36,5.36,0,0,0,1.39-3.35c0-.75.37-1.16,1-1.25l1-.13a1,1,0,0,1,1.29.94l.58,4.26,4.35-.59a.93.93,0,0,1,.73.18,1,1,0,0,1,.37.66l.13.92a1,1,0,0,1-.18.74,1,1,0,0,1-.66.37l-4.34.59,1.38,10.12a2.41,2.41,0,0,0,.77,1.6,1.75,1.75,0,0,0,1.43.42A3.13,3.13,0,0,0,117,97.58a1,1,0,0,1,.61-.53.8.8,0,0,1,.68.06.7.7,0,0,1,.35.55,6.68,6.68,0,0,1-1.24,4.92A6.79,6.79,0,0,1,112.59,105.28Z"/><path d="M130.17,102.84a14.47,14.47,0,0,1-6.85-.47q-2.8-1-3.1-3.2a2.53,2.53,0,0,1,.54-2.14,3.36,3.36,0,0,1,2.08-1,3,3,0,0,1,2.41.59,4.91,4.91,0,0,1,1.41,1.83,5.55,5.55,0,0,0,1.28,1.85,2.28,2.28,0,0,0,2,.65,2,2,0,0,0,2-2.63,2.9,2.9,0,0,0-1.49-2.25,8.42,8.42,0,0,0-3-1c-1.14-.16-2.28-.37-3.41-.61a6.56,6.56,0,0,1-3.06-1.6,5.65,5.65,0,0,1-1.66-3.52,5.54,5.54,0,0,1,1.86-5,10.84,10.84,0,0,1,6.17-2.66,12.4,12.4,0,0,1,6.59.6q2.67,1.14,3,3.25a2.37,2.37,0,0,1-.58,2,2.92,2.92,0,0,1-1.9,1,2.8,2.8,0,0,1-2.31-.59,4.71,4.71,0,0,1-1.35-1.81,6.74,6.74,0,0,0-1.11-1.85,1.75,1.75,0,0,0-1.66-.67,1.7,1.7,0,0,0-1.35.91,2.76,2.76,0,0,0-.3,1.76,3.24,3.24,0,0,0,1.46,2.38,7.9,7.9,0,0,0,2.9,1.11c1.1.19,2.21.41,3.32.66a6.52,6.52,0,0,1,3,1.55,5.36,5.36,0,0,1,1.59,3.33,5.3,5.3,0,0,1-1.86,4.79A11.59,11.59,0,0,1,130.17,102.84Z"/><path d="M144,77.4a5.14,5.14,0,0,1-3.67-.72,4.09,4.09,0,0,1-.82-6,5.69,5.69,0,0,1,7-1,4.09,4.09,0,0,1,.82,6A5.06,5.06,0,0,1,144,77.4Zm-1.41,23.35c-.68.09-1.05-.13-1.13-.66l0-.17a3.19,3.19,0,0,1,.63-1.68,3.42,3.42,0,0,0,.56-2.22l-1.1-8a3.36,3.36,0,0,0-1.13-2c-.66-.61-1-1-1-1.3l0-.17c-.05-.33.23-.7.84-1.1l5.94-4a1.57,1.57,0,0,1,1.38-.27,1,1,0,0,1,.64.9l2,14.93a3.22,3.22,0,0,0,1.23,2c.73.62,1.12,1.09,1.17,1.43l0,.17c.07.53-.24.85-1,1Z"/><path d="M175.47,91.58a3.35,3.35,0,0,0,1.13,2A3,3,0,0,1,177.65,95l0,.17c.08.53-.21.85-.86.93l-6,.83a1,1,0,0,1-1.24-.91l0-.38a7.28,7.28,0,0,1-4.89,2.56,9.88,9.88,0,0,1-7.41-1.85,10.3,10.3,0,0,1-4-7.34,10.41,10.41,0,0,1,1.92-8,9.71,9.71,0,0,1,6.64-3.94,7.83,7.83,0,0,1,4.51.59l-.77-5.61a2.16,2.16,0,0,0-.75-1.38,8.19,8.19,0,0,0-1.26-.9,1.24,1.24,0,0,1-.7-.87v-.13c-.08-.53.2-.94.82-1.23l6.31-2.88c1.18-.56,1.84-.31,2,.76ZM166,95.88a2.28,2.28,0,0,0,1.8-1.19,4.08,4.08,0,0,0,.42-2.72l-1.11-8.14a6.24,6.24,0,0,0-1.66-3.49,3.27,3.27,0,0,0-2.86-1.26q-3.12.42-2.62,5.64a22.31,22.31,0,0,0,1,4.55,18.48,18.48,0,0,0,2.19,4.66C164.06,95.34,165,96,166,95.88Z"/><path d="M196.11,86.66a1,1,0,0,1,1-.41.76.76,0,0,1,.64.79q.21,2.11-1.86,4.64a8.7,8.7,0,0,1-5.81,3,10.2,10.2,0,0,1-7.92-1.92,10.66,10.66,0,0,1-4-7.33,10,10,0,0,1,2-7.9,10.3,10.3,0,0,1,6.91-3.93,9.06,9.06,0,0,1,6.19,1A5.21,5.21,0,0,1,196,78.3a2.79,2.79,0,0,1-1.29,2.84L187,87a5.46,5.46,0,0,0,5.19,2.08,5.87,5.87,0,0,0,2.39-.86A4.36,4.36,0,0,0,196.11,86.66Zm-9.43-10.87a2.36,2.36,0,0,0-1.88,1.54,6,6,0,0,0-.34,3.27A14.32,14.32,0,0,0,185.69,85l3.6-2.9a2.49,2.49,0,0,0,.81-2.3A6.77,6.77,0,0,0,189,77,2.29,2.29,0,0,0,186.68,75.79Z"/><path d="M314.49,184.28c.64-.08,1,.14,1.08.67l0,.17a2.53,2.53,0,0,1-.76,1.65,6.37,6.37,0,0,0-1.19,2.31L307,213.66a3.08,3.08,0,0,1-5.72,1l-14-21.89a8.23,8.23,0,0,0-1.75-1.87c-.74-.58-1.14-1.07-1.19-1.47l0-.17c-.07-.53.23-.84.91-.94l11.26-1.53c.67-.09,1.05.13,1.12.66l0,.17a1.4,1.4,0,0,1-.49,1.08,6.06,6.06,0,0,0-.94,1.33,1.5,1.5,0,0,0,.08,1.51l9.08,15.86,4.16-17.71a1.45,1.45,0,0,0-.33-1.46,6.1,6.1,0,0,0-1.28-1c-.48-.3-.74-.6-.79-.91l0-.16c-.07-.54.23-.85.9-.94Z"/><path d="M323.11,190.46a5.14,5.14,0,0,1-3.67-.73,4.08,4.08,0,0,1-.82-6A5.14,5.14,0,0,1,322,182a5.05,5.05,0,0,1,3.62.73,4.08,4.08,0,0,1,.82,6A5,5,0,0,1,323.11,190.46Zm-1.41,23.35c-.68.09-1.05-.13-1.13-.66l0-.17a3.28,3.28,0,0,1,.63-1.68,3.42,3.42,0,0,0,.56-2.22l-1.1-8a3.33,3.33,0,0,0-1.13-2c-.66-.62-1-1.05-1-1.3l0-.17c-.05-.34.23-.7.84-1.1l5.94-4a1.55,1.55,0,0,1,1.38-.28,1,1,0,0,1,.64.9l2,14.94a3.2,3.2,0,0,0,1.24,2c.72.61,1.11,1.09,1.16,1.43l0,.17c.07.53-.24.84-.94.94Z"/><path d="M343.05,211.28a14.35,14.35,0,0,1-6.85-.46q-2.81-1-3.1-3.21a2.47,2.47,0,0,1,.54-2.13,3.37,3.37,0,0,1,2.08-1,3,3,0,0,1,2.41.6,4.78,4.78,0,0,1,1.4,1.83,5.69,5.69,0,0,0,1.29,1.84,2.26,2.26,0,0,0,2,.65,2,2,0,0,0,2-2.63,2.89,2.89,0,0,0-1.49-2.24,8.23,8.23,0,0,0-3-1c-1.14-.16-2.28-.36-3.41-.61a6.47,6.47,0,0,1-3.06-1.6,5.6,5.6,0,0,1-1.66-3.51,5.52,5.52,0,0,1,1.86-5,10.85,10.85,0,0,1,6.17-2.67,12.5,12.5,0,0,1,6.59.61q2.67,1.14,3,3.24a2.39,2.39,0,0,1-.57,1.95,2.9,2.9,0,0,1-1.91,1,2.8,2.8,0,0,1-2.31-.58,4.74,4.74,0,0,1-1.35-1.82,6.69,6.69,0,0,0-1.11-1.84,1.76,1.76,0,0,0-1.66-.68,1.72,1.72,0,0,0-1.36.92,2.82,2.82,0,0,0-.29,1.76,3.2,3.2,0,0,0,1.46,2.37,7.5,7.5,0,0,0,2.9,1.11c1.1.2,2.21.42,3.32.67a6.42,6.42,0,0,1,3,1.55,5.56,5.56,0,0,1-.27,8.11A11.59,11.59,0,0,1,343.05,211.28Z"/><path d="M356.89,185.85a5.13,5.13,0,0,1-3.66-.73,4.08,4.08,0,0,1-.82-6,5.69,5.69,0,0,1,7-1,4.08,4.08,0,0,1,.82,6A5.07,5.07,0,0,1,356.89,185.85Zm-1.41,23.35c-.67.09-1-.13-1.12-.67l0-.17a3.1,3.1,0,0,1,.63-1.67,3.42,3.42,0,0,0,.56-2.22l-1.1-8a3.33,3.33,0,0,0-1.13-2c-.66-.62-1-1.05-1-1.3l0-.17c-.05-.34.23-.71.84-1.1l5.94-4a1.55,1.55,0,0,1,1.38-.28,1,1,0,0,1,.64.9l2,14.94a3.13,3.13,0,0,0,1.23,2c.73.62,1.12,1.1,1.17,1.43l0,.17c.07.54-.24.85-.95,1Z"/><path d="M379.16,206.4a12.19,12.19,0,0,1-8.7-1.89,10.21,10.21,0,0,1-2.08-15.1,11.88,11.88,0,0,1,7.61-4.07,12,12,0,0,1,8.59,1.88,10.34,10.34,0,0,1,2.15,15.11A11.59,11.59,0,0,1,379.16,206.4Zm.61-2.19q2.7-.37,2-5.56a23.25,23.25,0,0,0-1.14-4.44,17.91,17.91,0,0,0-2.45-4.69c-1-1.44-2.07-2.08-3.08-2a2.21,2.21,0,0,0-1.93,1.6,9.67,9.67,0,0,0-.09,4.05,20.19,20.19,0,0,0,.78,3.24,33.56,33.56,0,0,0,1.45,3.69,10.12,10.12,0,0,0,2.07,3A2.9,2.9,0,0,0,379.77,204.21Z"/><path d="M414.8,196.42a4.33,4.33,0,0,0,1.08,2,3.24,3.24,0,0,1,.94,1.48l0,.17c.07.53-.23.85-.9.94l-8.44,1.15c-.68.09-1.05-.13-1.12-.66l0-.17a3.24,3.24,0,0,1,.58-1.67,3,3,0,0,0,.43-2.21l-1.45-7.49a12.34,12.34,0,0,0-1.43-4.32,2.2,2.2,0,0,0-2.26-1,2.29,2.29,0,0,0-1.9,1.38,5.66,5.66,0,0,0-.29,3.09l1.26,9.19a3.18,3.18,0,0,0,1.22,2q1.07.93,1.14,1.44l0,.17c.07.53-.23.84-.9.94L393.66,204c-.67.09-1-.13-1.12-.66l0-.17a3,3,0,0,1,.72-1.69,3.29,3.29,0,0,0,.64-2.24L392.74,191a2.18,2.18,0,0,0-.75-1.42,8.19,8.19,0,0,0-1.26-.9,1.21,1.21,0,0,1-.7-.87l0-.13c-.05-.36.24-.76.87-1.19l5.51-3.72c.5-.29.9-.36,1.2-.18a1.27,1.27,0,0,1,.54,1l.27,2q1.34-3.4,5.6-4a7.87,7.87,0,0,1,5.72,1.33c1.71,1.17,2.89,3.28,3.53,6.35Z"/></svg>