<svg xmlns="http://www.w3.org/2000/svg" viewBox="0 0 270 270" width="171" height="172"><circle cx="135" cy="135" r="130.83" fill="#f7df53"/><path d="M63.75,106.71a15.8,15.8,0,0,1-5.3,7.37c-2.26,1.61-4.26,2.08-6,1.39s-2.32-2-1.62-3.76a3,3,0,0,1,1.49-1.64,7.06,7.06,0,0,1,2.32-.71c.84-.1,1.68-.24,2.54-.4a5.78,5.78,0,0,0,2.45-1.09,5.28,5.28,0,0,0,1.76-2.4,4.15,4.15,0,0,0,.19-3,3.1,3.1,0,0,0-1.93-1.86,4.1,4.1,0,0,0-2.79-.15A6,6,0,0,0,54.46,102a26.48,26.48,0,0,0-2.1,2.51c-.7,1-1.45,1.87-2.26,2.78a15,15,0,0,1-2.56,2.32,6.66,6.66,0,0,1-3.28,1.18,8.8,8.8,0,0,1-4.16-.66,7.76,7.76,0,0,1-4.8-5.09,12.3,12.3,0,0,1,.63-8.32A14.92,14.92,0,0,1,41,89.82q3.28-2.34,5.91-1.28a2.9,2.9,0,0,1,1.73,1.52,3.11,3.11,0,0,1-.09,2.42A3.42,3.42,0,0,1,47,94.31,5.8,5.8,0,0,1,44.7,95l-2.46.22a5.76,5.76,0,0,0-2.32.71,3.53,3.53,0,0,0-1.58,1.88,3.76,3.76,0,0,0-.09,3,3.57,3.57,0,0,0,2,1.84,4.86,4.86,0,0,0,3.05.25,5.74,5.74,0,0,0,2.54-1.44A23.59,23.59,0,0,0,48.09,99c.73-.94,1.48-1.85,2.27-2.75a15.92,15.92,0,0,1,2.49-2.33A6.36,6.36,0,0,1,56,92.67a8.18,8.18,0,0,1,4,.61,7.11,7.11,0,0,1,4.53,5.22A13.41,13.41,0,0,1,63.75,106.71Z"/><path d="M77.06,76.88a4.16,4.16,0,0,0,1.47.83,1,1,0,0,0,.87-.09,1.24,1.24,0,0,1,.61-.29,1.07,1.07,0,0,1,.77.27q.6.48.18,1.47a13.27,13.27,0,0,1-1.72,2.64,5.5,5.5,0,0,1-2.14,1.84A2.31,2.31,0,0,1,75,83.23q1,2.83-1.58,6a7.39,7.39,0,0,1-5,2.92,7.85,7.85,0,0,1-5.94-1.93l-5.31-4.21a3.15,3.15,0,0,0-2.09-.62,2.9,2.9,0,0,1-1.58-.22l-.13-.1a.9.9,0,0,1-.15-1.31l3.11-5.23c.66-1.1,1.27-1.43,1.82-1l9.33,7.54a7,7,0,0,0,3.11,1.71,2.14,2.14,0,0,0,2.09-.9A2.28,2.28,0,0,0,73,83.74a5.12,5.12,0,0,0-1.83-2.42l-6.29-5a3.17,3.17,0,0,0-2.09-.62,2.9,2.9,0,0,1-1.58-.22l-.13-.1a.9.9,0,0,1-.15-1.31L64,68.85c.61-1,1.19-1.33,1.74-.9Z"/><path d="M89.29,73.43a13.73,13.73,0,0,1-5.92,2.76c-1.87.3-3.22-.12-4.06-1.24a2.42,2.42,0,0,1-.53-2,3.21,3.21,0,0,1,1.29-1.76,2.87,2.87,0,0,1,2.28-.61,4.38,4.38,0,0,1,2,.88,5.38,5.38,0,0,0,1.92.94,2.19,2.19,0,0,0,2-.36,2,2,0,0,0,.42-3.1,2.73,2.73,0,0,0-2.27-1.18,7.75,7.75,0,0,0-2.93.56c-1,.39-2.07.75-3.13,1.07a6.28,6.28,0,0,1-3.28.07,5.38,5.38,0,0,1-3-2.17,5.25,5.25,0,0,1-.73-5,10.26,10.26,0,0,1,3.91-5.06A11.82,11.82,0,0,1,83,54.68q2.74-.28,4,1.35a2.26,2.26,0,0,1,.42,1.88,2.79,2.79,0,0,1-1.12,1.72,2.75,2.75,0,0,1-2.2.58,4.38,4.38,0,0,1-2-.9,6.54,6.54,0,0,0-1.78-1,1.69,1.69,0,0,0-1.69.2,1.63,1.63,0,0,0-.71,1.39,2.62,2.62,0,0,0,.56,1.6,3,3,0,0,0,2.31,1.31,7.23,7.23,0,0,0,2.93-.41c1-.34,2-.67,3.06-1A6.26,6.26,0,0,1,90,61.33a5.3,5.3,0,0,1,3.5,6.89A11,11,0,0,1,89.29,73.43Z"/><path d="M104.68,64.58a6.19,6.19,0,0,1-5.22.22,8,8,0,0,1-3.89-4.33l-3.95-8.76-1.4.64a.91.91,0,0,1-.72,0,.89.89,0,0,1-.51-.5l-.37-.81a.83.83,0,0,1,.47-1.24l.7-.31a4.87,4.87,0,0,0,2.46-2.33,5.21,5.21,0,0,0,.36-3.44,1.09,1.09,0,0,1,.57-1.41L94,42a.94.94,0,0,1,1.42.51l1.69,3.73,3.8-1.72a.91.91,0,0,1,.72,0,1,1,0,0,1,.52.5l.36.81a1,1,0,0,1,0,.72,1,1,0,0,1-.5.52l-3.81,1.71,4,8.87a2.33,2.33,0,0,0,1.14,1.24,1.68,1.68,0,0,0,1.42,0,3,3,0,0,0,1.82-2.47,1.13,1.13,0,0,1,.42-.65.77.77,0,0,1,.63-.13.66.66,0,0,1,.47.41,6.33,6.33,0,0,1,.2,4.82A6.4,6.4,0,0,1,104.68,64.58Z"/><path d="M128.42,53.29a4,4,0,0,0,.75,1.45,1.8,1.8,0,0,0,.82.6,3.3,3.3,0,0,1,.7.28.82.82,0,0,1,.39.55c.17.87-1.25,1.6-4.24,2.17a6.48,6.48,0,0,1-2.81.09,2.06,2.06,0,0,1-1.42-1.25c-.74,1.57-2.29,2.59-4.65,3a9.08,9.08,0,0,1-5.73-.5,5.35,5.35,0,0,1-3-4.09,5.44,5.44,0,0,1,1.21-4.88,8.16,8.16,0,0,1,4.78-2.59,7.86,7.86,0,0,1,4.21.22l0-.12a27.45,27.45,0,0,0-1.93-5.16,1.92,1.92,0,0,0-2.2-1A1.74,1.74,0,0,0,114,43.2a6.09,6.09,0,0,0-.46,2,4.57,4.57,0,0,1-.62,2,2.45,2.45,0,0,1-1.75,1.21,2.89,2.89,0,0,1-2.15-.33,2.44,2.44,0,0,1-1.13-1.72,3.79,3.79,0,0,1,1.63-3.93A12.61,12.61,0,0,1,115,40.17a10.14,10.14,0,0,1,7,.9,9,9,0,0,1,4.21,5.27Zm-8.67,4.48a1.78,1.78,0,0,0,1.33-1.16,3.64,3.64,0,0,0,.19-2.1l-.51-1.8q-1-3.23-3.11-2.83a1.81,1.81,0,0,0-1.33,1,3.3,3.3,0,0,0-.17,2.08,9.09,9.09,0,0,0,1.42,3.62A2.15,2.15,0,0,0,119.75,57.77Z"/><path d="M132.19,57.9c-.65,0-1-.28-1-.79V57a3,3,0,0,1,.83-1.49,3.17,3.17,0,0,0,.85-2l.13-7.7a3.18,3.18,0,0,0-.77-2.06,3.1,3.1,0,0,1-.79-1.37v-.16c0-.32.33-.63.95-.92l6.17-2.89A1.48,1.48,0,0,1,140,38.3a1,1,0,0,1,.47.94l-.25,14.34a3.06,3.06,0,0,0,.88,2,2.88,2.88,0,0,1,.88,1.51v.17c0,.51-.35.76-1,.75Zm4.72-21.77a4.81,4.81,0,0,1-3.34-1.21,3.87,3.87,0,0,1,.1-5.79,5.41,5.41,0,0,1,6.68.11,3.89,3.89,0,0,1-.1,5.8A4.8,4.8,0,0,1,136.91,36.13Z"/><path d="M164.85,58.45a4.13,4.13,0,0,0,.26,2.13,3.16,3.16,0,0,1,.31,1.64l0,.16c-.13.5-.5.67-1.13.51L156.38,61c-.63-.16-.88-.48-.76-1l0-.16a3.12,3.12,0,0,1,1.11-1.27,2.91,2.91,0,0,0,1.15-1.8l1.35-7.14a11.79,11.79,0,0,0,.26-4.32,2.11,2.11,0,0,0-1.65-1.7,2.18,2.18,0,0,0-2.16.55,5.35,5.35,0,0,0-1.34,2.63l-2.12,8.58a3.07,3.07,0,0,0,.38,2.18,2.92,2.92,0,0,1,.5,1.67l0,.15c-.13.5-.5.67-1.13.52l-8.5-2.1c-.63-.16-.88-.49-.76-1l0-.16c.08-.32.49-.73,1.23-1.24a3.12,3.12,0,0,0,1.35-1.75l1.91-7.75a2.11,2.11,0,0,0-.16-1.53,9.14,9.14,0,0,0-.8-1.24,1.15,1.15,0,0,1-.31-1l0-.12c.08-.34.48-.59,1.18-.75l6.18-1.35a1.14,1.14,0,0,1,1.13.25,1.2,1.2,0,0,1,.13,1.06L154.18,43q2.37-2.55,6.35-1.56a7.55,7.55,0,0,1,4.6,3.18c1.1,1.64,1.39,3.92.89,6.86Z"/><path d="M183.78,69.13a4.23,4.23,0,0,0-.38,1.58,1.79,1.79,0,0,0,.22,1,2.82,2.82,0,0,1,.34.67.79.79,0,0,1-.06.67q-.68,1.15-4.63-1.15a6.71,6.71,0,0,1-2.18-1.78,2.13,2.13,0,0,1-.24-1.88q-2.39,1-5.51-.77a9,9,0,0,1-4-4.14,5.36,5.36,0,0,1,.46-5,5.46,5.46,0,0,1,4.12-2.88,8.17,8.17,0,0,1,5.3,1.19,7.85,7.85,0,0,1,3,2.93l.06-.1a27.2,27.2,0,0,0,1.95-5.15,2,2,0,0,0-1-2.22,1.73,1.73,0,0,0-1.72,0,5.69,5.69,0,0,0-1.66,1.19,4.76,4.76,0,0,1-1.79,1.11,2.48,2.48,0,0,1-2.11-.24,2.91,2.91,0,0,1-1.4-1.66,2.5,2.5,0,0,1,.27-2.05,3.81,3.81,0,0,1,3.82-1.88,12.61,12.61,0,0,1,5.57,1.86A10.1,10.1,0,0,1,187,55.67a8.89,8.89,0,0,1-.29,6.74Zm-9.47-2.33a1.76,1.76,0,0,0,1.76,0,3.56,3.56,0,0,0,1.53-1.45l.79-1.69q1.35-3.12-.48-4.17a1.77,1.77,0,0,0-1.67-.11,3.2,3.2,0,0,0-1.5,1.45,9.19,9.19,0,0,0-1.31,3.66A2.17,2.17,0,0,0,174.31,66.8Z"/><path d="M206,69.06a9.71,9.71,0,0,1,2.76,6.58,9.09,9.09,0,0,1-3.17,7.08,10.44,10.44,0,0,1-7.41,3.22,9,9,0,0,1-6.78-2.84,6.9,6.9,0,0,1-2.12-4.77l-.26.26a.94.94,0,0,1-1.49,0l-4.21-4.44c-.43-.45-.46-.85-.09-1.21l.11-.11a3,3,0,0,1,1.63-.44,3.27,3.27,0,0,0,2-.83l13.28-12.78a2.65,2.65,0,0,0,.73-2.08,2.55,2.55,0,0,1,.32-1.69l.12-.11c.31-.3.83-.3,1.57,0l6.4,2.5a1.57,1.57,0,0,1,1.05.86,1.06,1.06,0,0,1-.4,1.16l-7.82,7.53A6.61,6.61,0,0,1,206,69.06ZM192.4,81.26q2.13,2.22,5.81-1.32a30.5,30.5,0,0,0,3.24-3.65,14.68,14.68,0,0,0,2.2-4c.47-1.37.39-2.39-.24-3.05a2.06,2.06,0,0,0-1.91-.61,4.48,4.48,0,0,0-2.35,1.33l-5.66,5.45a5.56,5.56,0,0,0-1.68,3.1A3,3,0,0,0,192.4,81.26Z"/><path d="M198.56,91.23c-.32-.53-.26-.93.18-1.19l.13-.09a2.93,2.93,0,0,1,1.68-.09,3.24,3.24,0,0,0,2.12-.37l15.81-9.64a3.29,3.29,0,0,0,1.34-1.74,3,3,0,0,1,.78-1.4l.14-.09c.25-.15.67-.06,1.26.28l5.74,3.66a1.45,1.45,0,0,1,.76,1.13,1,1,0,0,1-.51.9L206.47,95.71a3.06,3.06,0,0,0-1.25,1.81,2.86,2.86,0,0,1-.8,1.53l-.14.08c-.44.27-.82.13-1.16-.42Z"/><path d="M216,113.31a.92.92,0,0,1,.59.84.73.73,0,0,1-.6.76,6.24,6.24,0,0,1-4.7-.77,8.26,8.26,0,0,1-4-4.78,9.68,9.68,0,0,1,.16-7.75,10.12,10.12,0,0,1,6-5.19,9.55,9.55,0,0,1,7.76.26,9.83,9.83,0,0,1,5.08,5.62,8.62,8.62,0,0,1,.38,6,4.92,4.92,0,0,1-2.9,3.23,2.65,2.65,0,0,1-2.91-.61l-7.05-6a5.21,5.21,0,0,0-.87,5.25,5.65,5.65,0,0,0,1.3,2.05A4.18,4.18,0,0,0,216,113.31Zm8.15-11a2.23,2.23,0,0,0-1.82-1.42,5.69,5.69,0,0,0-3.11.35,13.47,13.47,0,0,0-3.78,2l3.44,2.75a2.38,2.38,0,0,0,2.3.27,6.37,6.37,0,0,0,2.35-1.59A2.15,2.15,0,0,0,224.12,102.3Z"/><path d="M206.25,163.29a15.87,15.87,0,0,1,5.31-7.37c2.25-1.61,4.26-2.08,6-1.39s2.33,1.95,1.62,3.76a3,3,0,0,1-1.49,1.64,7,7,0,0,1-2.31.71c-.84.1-1.69.24-2.55.4a5.78,5.78,0,0,0-2.45,1.09,5.28,5.28,0,0,0-1.76,2.4,4.2,4.2,0,0,0-.19,2.95,3.13,3.13,0,0,0,1.93,1.86,4.1,4.1,0,0,0,2.79.15,5.84,5.84,0,0,0,2.37-1.51,26.48,26.48,0,0,0,2.1-2.51c.71-.95,1.46-1.87,2.26-2.78a15,15,0,0,1,2.56-2.32,6.66,6.66,0,0,1,3.28-1.18,8.8,8.8,0,0,1,4.16.66,7.74,7.74,0,0,1,4.8,5.09,12.24,12.24,0,0,1-.63,8.32,14.9,14.9,0,0,1-5.06,6.92c-2.19,1.57-4.17,2-5.92,1.28a2.93,2.93,0,0,1-1.73-1.52,3.11,3.11,0,0,1,.09-2.42,3.46,3.46,0,0,1,1.56-1.83,5.8,5.8,0,0,1,2.3-.69l2.45-.22a5.76,5.76,0,0,0,2.32-.71,3.53,3.53,0,0,0,1.58-1.88,3.76,3.76,0,0,0,.09-3,3.54,3.54,0,0,0-2.05-1.84,4.86,4.86,0,0,0-3-.25,5.74,5.74,0,0,0-2.54,1.44,24.78,24.78,0,0,0-2.2,2.47c-.73.94-1.48,1.85-2.27,2.75a16,16,0,0,1-2.49,2.34,6.55,6.55,0,0,1-3.15,1.21,8.32,8.32,0,0,1-4-.62,7.11,7.11,0,0,1-4.53-5.22A13.41,13.41,0,0,1,206.25,163.29Z"/><path d="M192.94,193.12a4,4,0,0,0-1.47-.82,1,1,0,0,0-.87.08,1.12,1.12,0,0,1-.61.29,1,1,0,0,1-.77-.27q-.6-.48-.18-1.47a13,13,0,0,1,1.72-2.63,5.52,5.52,0,0,1,2.14-1.85,2.31,2.31,0,0,1,2.07.32q-1-2.84,1.58-6a7.42,7.42,0,0,1,5-2.92,7.82,7.82,0,0,1,5.94,1.94l5.31,4.2a3.15,3.15,0,0,0,2.09.62,2.9,2.9,0,0,1,1.58.22l.13.1a.9.9,0,0,1,.15,1.31l-3.11,5.24c-.66,1.09-1.27,1.42-1.82,1l-9.33-7.55a7,7,0,0,0-3.11-1.71,2.14,2.14,0,0,0-2.09.9,2.28,2.28,0,0,0-.31,2.19,5.19,5.19,0,0,0,1.83,2.43l6.29,5a3.17,3.17,0,0,0,2.09.62,2.9,2.9,0,0,1,1.58.22l.13.1a.9.9,0,0,1,.15,1.31L206,201.16c-.61,1-1.19,1.33-1.74.89Z"/><path d="M180.71,196.57a13.73,13.73,0,0,1,5.92-2.76c1.87-.3,3.22.12,4.06,1.24a2.39,2.39,0,0,1,.53,2,3.21,3.21,0,0,1-1.29,1.76,2.84,2.84,0,0,1-2.27.61,4.46,4.46,0,0,1-2-.87,5.24,5.24,0,0,0-1.92-1,2.19,2.19,0,0,0-1.95.36,2,2,0,0,0-.42,3.1,2.78,2.78,0,0,0,2.27,1.19,8,8,0,0,0,2.94-.57c1-.39,2.06-.75,3.12-1.07a6.18,6.18,0,0,1,3.28-.06,5.31,5.31,0,0,1,3,2.16,5.22,5.22,0,0,1,.73,5,10.21,10.21,0,0,1-3.91,5.06,11.78,11.78,0,0,1-5.77,2.53q-2.74.28-4-1.35a2.26,2.26,0,0,1-.42-1.88,2.79,2.79,0,0,1,1.12-1.72,2.75,2.75,0,0,1,2.2-.58,4.47,4.47,0,0,1,2,.9,6.34,6.34,0,0,0,1.77,1,1.69,1.69,0,0,0,1.69-.2,1.63,1.63,0,0,0,.71-1.39,2.62,2.62,0,0,0-.56-1.6,3,3,0,0,0-2.31-1.31,7.25,7.25,0,0,0-2.93.41c-1,.34-2,.67-3.06,1a6.23,6.23,0,0,1-3.18.07,5.3,5.3,0,0,1-3.51-6.89A11,11,0,0,1,180.71,196.57Z"/><path d="M165.32,205.42a6.19,6.19,0,0,1,5.22-.22,8,8,0,0,1,3.89,4.33l3.95,8.76,1.4-.64a.91.91,0,0,1,.72,0,.89.89,0,0,1,.51.5l.37.81a.83.83,0,0,1-.47,1.24l-.7.31a4.87,4.87,0,0,0-2.46,2.33,5.15,5.15,0,0,0-.36,3.44,1.09,1.09,0,0,1-.57,1.41L176,228a1,1,0,0,1-1.44-.51l-1.68-3.73-3.8,1.72a.91.91,0,0,1-.72,0,.94.94,0,0,1-.52-.5l-.36-.81a1,1,0,0,1,0-.72.94.94,0,0,1,.5-.52l3.81-1.71-4-8.87a2.33,2.33,0,0,0-1.14-1.24,1.68,1.68,0,0,0-1.42,0,3,3,0,0,0-1.82,2.47,1.08,1.08,0,0,1-.42.65.76.76,0,0,1-.63.13.66.66,0,0,1-.47-.41,6.33,6.33,0,0,1-.2-4.82A6.4,6.4,0,0,1,165.32,205.42Z"/><path d="M141.58,216.71a4.09,4.09,0,0,0-.76-1.45,1.73,1.73,0,0,0-.81-.6,3.3,3.3,0,0,1-.7-.28.8.8,0,0,1-.39-.54c-.17-.88,1.25-1.61,4.24-2.18a6.48,6.48,0,0,1,2.81-.09,2.06,2.06,0,0,1,1.42,1.25c.74-1.57,2.29-2.59,4.65-3a9.08,9.08,0,0,1,5.73.5,5.35,5.35,0,0,1,3,4.1,5.42,5.42,0,0,1-1.21,4.87,8.11,8.11,0,0,1-4.78,2.59,7.76,7.76,0,0,1-4.21-.22l0,.12a26.92,26.92,0,0,0,1.92,5.16,1.92,1.92,0,0,0,2.2,1A1.74,1.74,0,0,0,156,226.8a6,6,0,0,0,.46-2,4.57,4.57,0,0,1,.62-2,2.47,2.47,0,0,1,1.75-1.21,3,3,0,0,1,2.15.33,2.44,2.44,0,0,1,1.13,1.72,3.79,3.79,0,0,1-1.63,3.93,12.61,12.61,0,0,1-5.43,2.26,10.14,10.14,0,0,1-7-.9,8.92,8.92,0,0,1-4.21-5.27Zm8.67-4.48a1.78,1.78,0,0,0-1.33,1.16,3.64,3.64,0,0,0-.19,2.1l.51,1.8q1,3.22,3.11,2.83a1.81,1.81,0,0,0,1.33-1,3.29,3.29,0,0,0,.17-2.08,9.15,9.15,0,0,0-1.42-3.62A2.18,2.18,0,0,0,150.25,212.23Z"/><path d="M137.81,212.1c.64,0,1,.28,1,.79v.16a3,3,0,0,1-.83,1.49,3.17,3.17,0,0,0-.85,2l-.13,7.7a3.18,3.18,0,0,0,.77,2.06,3.1,3.1,0,0,1,.79,1.37v.16c0,.32-.32.63-.94.92l-6.17,2.89a1.52,1.52,0,0,1-1.34.06,1,1,0,0,1-.47-1l.25-14.34a3.06,3.06,0,0,0-.88-2,2.88,2.88,0,0,1-.88-1.51v-.17c0-.51.35-.76,1-.75Zm-4.72,21.77a4.81,4.81,0,0,1,3.34,1.21,3.87,3.87,0,0,1-.1,5.79,5.41,5.41,0,0,1-6.68-.11,3.89,3.89,0,0,1,.1-5.8A4.8,4.8,0,0,1,133.09,233.87Z"/><path d="M105.15,211.55a4.13,4.13,0,0,0-.26-2.13,3.14,3.14,0,0,1-.31-1.64l0-.16c.13-.5.5-.67,1.13-.51l7.87,1.94c.63.16.88.49.76,1l0,.16a3.06,3.06,0,0,1-1.11,1.27,2.91,2.91,0,0,0-1.15,1.8l-1.35,7.14a11.79,11.79,0,0,0-.26,4.32,2.11,2.11,0,0,0,1.65,1.7,2.16,2.16,0,0,0,2.16-.55,5.3,5.3,0,0,0,1.34-2.63l2.12-8.58a3.07,3.07,0,0,0-.38-2.18,2.92,2.92,0,0,1-.5-1.67l0-.15c.13-.5.5-.67,1.13-.52l8.5,2.1c.63.16.88.49.76,1l0,.16c-.08.32-.49.73-1.23,1.24a3.13,3.13,0,0,0-1.35,1.76l-1.91,7.75a2.09,2.09,0,0,0,.16,1.52,9.14,9.14,0,0,0,.8,1.24,1.16,1.16,0,0,1,.31,1l0,.11c-.08.34-.48.59-1.18.75l-6.18,1.36c-.55.08-.93,0-1.13-.26a1.2,1.2,0,0,1-.13-1.06l.45-1.85q-2.37,2.55-6.35,1.56a7.51,7.51,0,0,1-4.6-3.18c-1.09-1.64-1.39-3.92-.89-6.86Z"/><path d="M86.22,200.87a4.23,4.23,0,0,0,.38-1.58,1.73,1.73,0,0,0-.22-1,2.82,2.82,0,0,1-.34-.67.78.78,0,0,1,.06-.67q.68-1.16,4.63,1.15a6.58,6.58,0,0,1,2.18,1.78,2.13,2.13,0,0,1,.24,1.88q2.38-1.05,5.51.77a9,9,0,0,1,4,4.14,5.36,5.36,0,0,1-.46,5,5.46,5.46,0,0,1-4.12,2.88,8.17,8.17,0,0,1-5.3-1.19,7.85,7.85,0,0,1-3-2.93l-.06.1a28,28,0,0,0-2,5.15,2,2,0,0,0,1,2.22,1.73,1.73,0,0,0,1.72,0,6.06,6.06,0,0,0,1.66-1.2,4.76,4.76,0,0,1,1.79-1.11,2.48,2.48,0,0,1,2.11.24,2.88,2.88,0,0,1,1.4,1.66,2.46,2.46,0,0,1-.27,2,3.81,3.81,0,0,1-3.82,1.88,12.61,12.61,0,0,1-5.57-1.86,10.11,10.11,0,0,1-4.68-5.28,8.92,8.92,0,0,1,.29-6.75Zm9.47,2.33a1.76,1.76,0,0,0-1.76,0,3.56,3.56,0,0,0-1.53,1.45l-.79,1.69q-1.35,3.12.47,4.17a1.79,1.79,0,0,0,1.68.11,3.2,3.2,0,0,0,1.5-1.45,9.14,9.14,0,0,0,1.31-3.66A2.17,2.17,0,0,0,95.69,203.2Z"/><path d="M64,200.94a9.71,9.71,0,0,1-2.76-6.58,9.11,9.11,0,0,1,3.17-7.08,10.44,10.44,0,0,1,7.41-3.22,9,9,0,0,1,6.78,2.84,6.9,6.9,0,0,1,2.12,4.77l.26-.25a.93.93,0,0,1,1.49,0l4.21,4.44c.43.45.46.85.09,1.21l-.11.11a3,3,0,0,1-1.63.44,3.27,3.27,0,0,0-2,.83L69.69,211.26a2.63,2.63,0,0,0-.73,2.07,2.55,2.55,0,0,1-.32,1.69l-.12.11c-.31.3-.83.3-1.57,0l-6.4-2.5a1.58,1.58,0,0,1-1-.85,1.07,1.07,0,0,1,.4-1.17l7.82-7.53A6.61,6.61,0,0,1,64,200.94Zm13.62-12.2q-2.13-2.22-5.81,1.32a31.29,31.29,0,0,0-3.24,3.65,14.68,14.68,0,0,0-2.2,4c-.47,1.37-.39,2.39.24,3a2.06,2.06,0,0,0,1.91.61,4.48,4.48,0,0,0,2.35-1.33l5.66-5.45a5.56,5.56,0,0,0,1.68-3.1A3,3,0,0,0,77.6,188.74Z"/><path d="M71.44,178.77c.32.53.26.93-.17,1.19l-.14.09a2.93,2.93,0,0,1-1.68.09,3.26,3.26,0,0,0-2.12.37l-15.81,9.64a3.34,3.34,0,0,0-1.34,1.74,3.1,3.1,0,0,1-.78,1.41l-.14.08c-.25.15-.67.06-1.26-.28l-5.74-3.66a1.47,1.47,0,0,1-.76-1.13,1,1,0,0,1,.51-.9l21.52-13.12a3,3,0,0,0,1.25-1.81,2.86,2.86,0,0,1,.8-1.53l.14-.08c.44-.27.82-.13,1.16.43Z"/><path d="M54,156.69a.92.92,0,0,1-.59-.84.73.73,0,0,1,.61-.76,6.21,6.21,0,0,1,4.69.77,8.26,8.26,0,0,1,4,4.78,9.68,9.68,0,0,1-.16,7.75,10.12,10.12,0,0,1-6,5.19,9.51,9.51,0,0,1-7.76-.26,9.83,9.83,0,0,1-5.08-5.62,8.62,8.62,0,0,1-.38-5.95,4.92,4.92,0,0,1,2.9-3.23,2.65,2.65,0,0,1,2.91.61l7.05,6a5.21,5.21,0,0,0,.87-5.25,5.65,5.65,0,0,0-1.3-2.05A4.21,4.21,0,0,0,54,156.69Zm-8.15,11a2.23,2.23,0,0,0,1.82,1.42,5.69,5.69,0,0,0,3.11-.35,13.47,13.47,0,0,0,3.78-2.05L51.15,164a2.38,2.38,0,0,0-2.3-.27,6.37,6.37,0,0,0-2.35,1.59A2.17,2.17,0,0,0,45.88,167.7Z"/><path d="M114.64,182.43a2.84,2.84,0,0,1-1.63-2.09l-16-85a.24.24,0,0,1,.31-.27l32.85,6.8,17.09,88.79c.12.6.46,1.44-.09,1.2Z" fill="#f1f1f2"/><path d="M114.64,182.43a2.84,2.84,0,0,1-1.63-2.09l-16-85a.24.24,0,0,1,.31-.27l32.85,6.8,17.09,88.79c.12.6.46,1.44-.09,1.2Z" fill="none" stroke="#000" stroke-linejoin="round" stroke-width="1.66"/><path d="M147.55,191.79l24.86-20.32a3.29,3.29,0,0,0,.53-2.5L157,83.74a.5.5,0,0,0-.82-.32l-26.26,18,17.2,89.82c.07.35.16.85.39.6" fill="#f1f1f2"/><path d="M147.55,191.79l24.86-20.32a3.29,3.29,0,0,0,.53-2.5L157,83.74a.5.5,0,0,0-.82-.32l-26.26,18,17.2,89.82C147.23,191.54,147.32,192,147.55,191.79Z" fill="none" stroke="#000" stroke-linejoin="round" stroke-width="1.66"/><path d="M156.69,83.19l-30.5-5a3.54,3.54,0,0,0-2.4.51L97.23,94.46a.33.33,0,0,0,.09.56l32.85,6.8,26.62-18.08a.3.3,0,0,0-.1-.55" fill="#f1f1f2"/><path d="M156.69,83.19l-30.5-5a3.54,3.54,0,0,0-2.4.51L97.23,94.46a.33.33,0,0,0,.09.56l32.85,6.8,26.62-18.08A.3.3,0,0,0,156.69,83.19Z" fill="none" stroke="#000" stroke-linejoin="round" stroke-width="1.66"/><path d="M133.79,86.83a42.56,42.56,0,0,1,.91,5,15.72,15.72,0,0,1-7.13,2.78c-3.79.57-5.85-.14-6.6-.5a.76.76,0,0,1-.41-.54l-.91-4.43c0-.19.22.34.4.4a15.83,15.83,0,0,0,13.31-2.25s.42-.51.43-.5" fill="#f1f1f2"/><path d="M133.79,86.83a42.56,42.56,0,0,1,.91,5,15.72,15.72,0,0,1-7.13,2.78c-3.79.57-5.85-.14-6.6-.5a.76.76,0,0,1-.41-.54l-.91-4.43c0-.19.22.34.4.4a15.83,15.83,0,0,0,13.31-2.25S133.78,86.82,133.79,86.83Z" fill="none" stroke="#000" stroke-linejoin="round" stroke-width="1.66"/><path d="M119.65,89.18c.14.74,3.54,1.6,7.39.86s6.89-2.79,6.75-3.53-3.71-1-7.56-.3-6.72,2.23-6.58,3" fill="#f1f1f2"/><path d="M119.65,89.18c.14.74,3.54,1.6,7.39.86s6.89-2.79,6.75-3.53-3.71-1-7.56-.3S119.51,88.44,119.65,89.18Z" fill="none" stroke="#000" stroke-linejoin="round" stroke-width="1.66"/><polygon points="101.64 120.2 134.4 127.31 161.9 110.14 167.58 139.92 140.77 158.05 107.55 151.3 101.64 120.2" fill="#db5b54"/><polygon points="101.64 120.2 134.4 127.31 161.9 110.14 167.58 139.92 140.77 158.05 107.55 151.3 101.64 120.2" fill="none" stroke="#000" stroke-linejoin="round" stroke-width="1.66"/><line x1="132.45" y1="114.71" x2="141.45" y2="162.2" fill="#f1f1f2"/><line x1="132.45" y1="114.71" x2="141.45" y2="162.2" fill="none" stroke="#000" stroke-linejoin="round" stroke-width="1.66"/></svg>