<svg xmlns="http://www.w3.org/2000/svg" viewBox="0 0 333.74 385" width="214" height="246"><path d="M328,105.34,219.08,368.08a19.48,19.48,0,0,1-25.38,10.51L16.26,305A19.48,19.48,0,0,1,5.75,279.66L114.65,16.92A19.5,19.5,0,0,1,140,6.41L317.48,80A19.48,19.48,0,0,1,328,105.34" fill="#db5b54"/><rect x="26.69" y="100.19" width="280.32" height="184.85" transform="translate(-75.16 272.44) rotate(-67.35)" fill="#f7df53"/><rect x="26.69" y="100.19" width="280.32" height="184.85" transform="translate(-75.16 272.44) rotate(-67.35)" fill="none" stroke="#000" stroke-miterlimit="10" stroke-width="4.56"/><path d="M269.53,142.85a13.44,13.44,0,0,1-8.62-2.44c-4.46-3-12.28-6.3-23.17-3-17.92,5.41-23.43-9.77-31.89-2.85s-10.37,18.5,2.17,25c21.38,11.17,10.83,8.73,20,19.65,4.54,5.42,15.29,1.25,20.07,6.79,8.51,9.87,17.74,9.38,18.77,7,2.9-6.69,18.14-43.64,18.14-43.64s-8.25-7.1-15.43-6.54" fill="#fff"/><path d="M269.53,142.85a13.44,13.44,0,0,1-8.62-2.44c-4.46-3-12.28-6.3-23.17-3-17.92,5.41-23.43-9.77-31.89-2.85s-10.37,18.5,2.17,25c21.38,11.17,10.83,8.73,20,19.65,4.54,5.42,15.29,1.25,20.07,6.79,8.51,9.87,17.74,9.38,18.77,7,2.9-6.69,18.14-43.64,18.14-43.64S276.71,142.29,269.53,142.85Z" fill="none" stroke="#000" stroke-miterlimit="10" stroke-width="4.56"/><path d="M126.85,93.22a13.49,13.49,0,0,1,8.61,2.44c4.46,3.06,12.28,6.3,23.17,3,17.92-5.41,23.43,9.78,31.89,2.86s10.37-18.5-2.16-25.05c-21.39-11.17-10.84-8.73-20-19.65-4.54-5.42-15.29-1.25-20.07-6.79-8.51-9.87-17.79-10.08-18.76-7.69C126.79,49.2,111,87,111,87s8.7,6.83,15.89,6.27" fill="#fff"/><path d="M126.85,93.22a13.49,13.49,0,0,1,8.61,2.44c4.46,3.06,12.28,6.3,23.17,3,17.92-5.41,23.43,9.78,31.89,2.86s10.37-18.5-2.16-25.05c-21.39-11.17-10.84-8.73-20-19.65-4.54-5.42-15.29-1.25-20.07-6.79-8.51-9.87-17.79-10.08-18.76-7.69C126.79,49.2,111,87,111,87S119.66,93.78,126.85,93.22Z" fill="none" stroke="#000" stroke-miterlimit="10" stroke-width="4.56"/><rect x="84.69" y="187.24" width="91.61" height="184.9" transform="translate(-177.88 292.44) rotate(-67.35)" fill="#487cba"/><rect x="84.69" y="187.24" width="91.61" height="184.9" transform="translate(-177.88 292.44) rotate(-67.35)" fill="none" stroke="#000" stroke-miterlimit="10" stroke-width="4.56"/><path d="M153.79,339.05c-32-56.31-106.73-99.47-106.73-99.47L27.54,286.37s126.66,53.4,126.25,52.68" fill="#c97840"/><path d="M153.79,339.05c-32-56.31-106.73-99.47-106.73-99.47L27.54,286.37S154.2,339.77,153.79,339.05Z" fill="none" stroke="#000" stroke-miterlimit="10" stroke-width="4.56"/><path d="M162,191.88c3.75-8.31,12.32-17,21-19.92,7.08-2.41,25.6-5.24,37,4.2,12.82,10.6,17.27,27,18.69,33.17a1,1,0,0,1-1.6.9c-4.72-4.55-16.68-14.88-31.46-18.9-19.21-5.22-42.43,4.4-44.6,6.26-1.07.91-.92-1.49,1-5.71" fill="#76a780"/><path d="M162,191.88c3.75-8.31,12.32-17,21-19.92,7.08-2.41,25.6-5.24,37,4.2,12.82,10.6,17.27,27,18.69,33.17a1,1,0,0,1-1.6.9c-4.72-4.55-16.68-14.88-31.46-18.9-19.21-5.22-42.43,4.4-44.6,6.26C159.92,198.5,160.07,196.1,162,191.88Z" fill="none" stroke="#000" stroke-miterlimit="10" stroke-width="4.56"/><path d="M161.33,179.79c-6.87-6-11.09-11.51-11.42-20.62-.26-7.48,3.57-23.44,15.48-33.13,12.9-10.48,30.07-9.85,36.38-9.44a1,1,0,0,1,.4,1.79c-5.72,3.21-19.06,11.68-27.17,24.68-10.54,16.89-9.65,36.7-8.49,39.31.57,1.28-1.69.45-5.18-2.59" fill="#76a780"/><path d="M161.33,179.79c-6.87-6-11.09-11.51-11.42-20.62-.26-7.48,3.57-23.44,15.48-33.13,12.9-10.48,30.07-9.85,36.38-9.44a1,1,0,0,1,.4,1.79c-5.72,3.21-19.06,11.68-27.17,24.68-10.54,16.89-9.65,36.7-8.49,39.31C167.08,183.66,164.82,182.83,161.33,179.79Z" fill="none" stroke="#000" stroke-miterlimit="10" stroke-width="4.56"/><path d="M161.68,185.9c1.73-9-.25-21-5.6-28.37-4.39-6.06-17.88-19.06-32.65-17.95-16.58,1.24-29.7,12.07-34.42,16.27a1,1,0,0,0,.79,1.66c6.48-1,22.21-2.51,36.6,2.75,18.7,6.83,32,28.13,32.79,30.87.37,1.35,1.61-.68,2.49-5.23" fill="#76a780"/><path d="M161.68,185.9c1.73-9-.25-21-5.6-28.37-4.39-6.06-17.88-19.06-32.65-17.95-16.58,1.24-29.7,12.07-34.42,16.27a1,1,0,0,0,.79,1.66c6.48-1,22.21-2.51,36.6,2.75,18.7,6.83,32,28.13,32.79,30.87C159.56,192.48,160.8,190.45,161.68,185.9Z" fill="none" stroke="#000" stroke-miterlimit="10" stroke-width="4.56"/><path d="M158.87,189.77c-1.84-8.93,0-21,5.24-28.44,4.31-6.12,17.63-19.29,32.41-18.37,16.6,1,29.86,11.68,34.63,15.82a1,1,0,0,1-.76,1.67c-6.5-.89-22.25-2.22-36.57,3.23-18.61,7.07-32.09,29.08-32.75,31.86-.32,1.37-1.26-1.23-2.2-5.77" fill="#76a780"/><path d="M158.87,189.77c-1.84-8.93,0-21,5.24-28.44,4.31-6.12,17.63-19.29,32.41-18.37,16.6,1,29.86,11.68,34.63,15.82a1,1,0,0,1-.76,1.67c-6.5-.89-22.25-2.22-36.57,3.23-18.61,7.07-32.09,29.08-32.75,31.86C160.75,196.91,159.81,194.31,158.87,189.77Z" fill="none" stroke="#000" stroke-miterlimit="10" stroke-width="4.56"/><path d="M66.45,198.85s13-4.17,39.5,11.77,33.32,23,51.37,27.36,22.34,2.49,41,11.18c15.71,7.31,34.65,22.57,34.65,22.57l-1.68,4-61.72-10.28L60.83,212.76Z" fill="#487cba"/><path d="M64.51,198.26s14.95-3.58,41.44,12.36,33.32,23,51.37,27.36,22.13,3,41,11.18,22.06,16.53,35.13,22l.47.21" fill="none" stroke="#000" stroke-linecap="round" stroke-miterlimit="10" stroke-width="4.56"/><path d="M153.51,193.83a171.53,171.53,0,0,1-15.12,53.59c-10.83,22.74-43.27,42.42-43.27,42.42l11.3,13.67s30.24-15.78,47-49.07c16-31.69,15.45-60.46,15.45-60.46Z" fill="#c97840"/><path d="M153.51,193.83a171.53,171.53,0,0,1-15.12,53.59c-10.83,22.74-43.27,42.42-43.27,42.42l11.3,13.67s30.24-15.78,47-49.07c16-31.69,15.45-60.46,15.45-60.46Z" fill="none" stroke="#000" stroke-miterlimit="10" stroke-width="4.56"/><path d="M85.33,284.24s10.35,3,17,11,3.89,10,10.6,16.36-8.48,4.85-8.48,4.85L84.41,298.06Z" fill="#c97840"/><path d="M86.82,284c3.13,1.17,10.4,4.37,15.52,10.45,6.52,7.76,4,9.91,10.12,15.91" fill="#c97840"/><path d="M86.82,284c3.13,1.17,10.4,4.37,15.52,10.45,6.52,7.76,4,9.91,10.12,15.91" fill="none" stroke="#000" stroke-linecap="round" stroke-miterlimit="10" stroke-width="4.56"/><path d="M159,191.86c-3.71-8.33-12.24-17.06-20.86-20-7.07-2.44-25.58-5.36-37,4-12.87,10.53-17.41,26.92-18.86,33.07a1,1,0,0,0,1.59.91c4.75-4.52,16.76-14.79,31.56-18.73,19.24-5.13,42.38,4.66,44.57,6.47,1.08.9.93-1.48-1-5.7" fill="#76a780"/><path d="M159,191.86c-3.71-8.33-12.24-17.06-20.86-20-7.07-2.44-25.58-5.36-37,4-12.87,10.53-17.41,26.92-18.86,33.07a1,1,0,0,0,1.59.91c4.75-4.52,16.76-14.79,31.56-18.73,19.24-5.13,42.38,4.66,44.57,6.47C161,198.46,160.84,196.08,159,191.86Z" fill="none" stroke="#000" stroke-miterlimit="10" stroke-width="4.56"/><path d="M152,205.1s7.32,8.21,16,2.43" fill="#c97840"/><path d="M152,205.1s7.32,8.21,16,2.43" fill="none" stroke="#000" stroke-miterlimit="10" stroke-width="4.56"/><path d="M149.77,215.36s7.33,8.21,16,2.42" fill="#c97840"/><path d="M149.77,215.36s7.33,8.21,16,2.42" fill="none" stroke="#000" stroke-miterlimit="10" stroke-width="4.56"/><path d="M147.29,224.54s6.69,9,16,4.17" fill="#c97840"/><path d="M147.29,224.54s6.69,9,16,4.17" fill="none" stroke="#000" stroke-miterlimit="10" stroke-width="4.56"/><path d="M144.07,234.54s6.69,9,16,4.17" fill="#c97840"/><path d="M144.07,234.54s6.69,9,16,4.17" fill="none" stroke="#000" stroke-miterlimit="10" stroke-width="4.56"/><path d="M140.6,243.53s5.5,9.78,15.37,6.16" fill="#c97840"/><path d="M140.6,243.53s5.5,9.78,15.37,6.16" fill="none" stroke="#000" stroke-miterlimit="10" stroke-width="4.56"/><path d="M135,253s4.65,10.48,15,8" fill="#c97840"/><path d="M135,253s4.65,10.48,15,8" fill="none" stroke="#000" stroke-miterlimit="10" stroke-width="4.56"/><path d="M128.5,261.79s3.83,11.24,14.26,9.92" fill="none" stroke="#000" stroke-miterlimit="10" stroke-width="4.56"/><path d="M121.17,269.55s3,11.75,13.55,11.76" fill="none" stroke="#000" stroke-miterlimit="10" stroke-width="4.56"/><path d="M103.89,284.23s1.55,12,12,13.36" fill="none" stroke="#000" stroke-miterlimit="10" stroke-width="4.56"/><path d="M113.12,277.06a15.28,15.28,0,0,0,12.22,13.3" fill="none" stroke="#000" stroke-miterlimit="10" stroke-width="4.56"/><path d="M170.41,183.65a8.84,8.84,0,1,1-4.75-11.56,8.84,8.84,0,0,1,4.75,11.56" fill="#c97840"/><path d="M170.41,183.65a8.84,8.84,0,1,1-4.75-11.56A8.84,8.84,0,0,1,170.41,183.65Z" fill="none" stroke="#000" stroke-miterlimit="10" stroke-width="4.56"/><path d="M178.62,196.3a8.84,8.84,0,1,1-4.75-11.56,8.83,8.83,0,0,1,4.75,11.56" fill="#c97840"/><path d="M178.62,196.3a8.84,8.84,0,1,1-4.75-11.56A8.83,8.83,0,0,1,178.62,196.3Z" fill="none" stroke="#000" stroke-miterlimit="10" stroke-width="4.56"/><path d="M162.35,196.08a8.84,8.84,0,1,1-4.75-11.56,8.83,8.83,0,0,1,4.75,11.56" fill="#c97840"/><path d="M162.35,196.08a8.84,8.84,0,1,1-4.75-11.56A8.83,8.83,0,0,1,162.35,196.08Z" fill="none" stroke="#000" stroke-miterlimit="10" stroke-width="4.56"/></svg>