<svg xmlns="http://www.w3.org/2000/svg" xmlns:xlink="http://www.w3.org/1999/xlink" viewBox="0 0 315 315" width="206" height="207"><defs><clipPath id="a"><path d="M1698.27-481.49a21.75,21.75,0,0,0-21.74,21.75v203.1a21.74,21.74,0,0,0,21.74,21.74h129.65c67.81,0,123.29-55.48,123.29-123.29s-55.48-123.3-123.29-123.3Z" fill="none"/></clipPath></defs><path d="M205.24,72.89s-8.52-3.91-9.15,0c-1,6.54.3,12.92,5.09,12.12s8.93-3.53,8.87-2.54S203.9,89.17,206.28,95c1,2.44,5.23,6.31,5.56,5.42,2.82-7.7,7.19-14.68,5.66-20.51-.69-2.62-12.26-7-12.26-7" fill="#f6df53"/><path d="M205.24,72.89s-8.52-3.91-9.15,0c-1,6.54.3,12.92,5.09,12.12s8.93-3.53,8.87-2.54S203.9,89.17,206.28,95c1,2.44,5.23,6.31,5.56,5.42,2.82-7.7,7.19-14.68,5.66-20.51C216.81,77.27,205.24,72.89,205.24,72.89Z" fill="none" stroke="#000" stroke-miterlimit="10" stroke-width="1.2"/><path d="M170.29,9.13,305.87,144.71a18.09,18.09,0,0,1,0,25.58L170.29,305.87a18.09,18.09,0,0,1-25.58,0L9.13,170.29a18.09,18.09,0,0,1,0-25.58L144.71,9.13a18.09,18.09,0,0,1,25.58,0" fill="#487cba"/><path d="M108.5,84.22s10.94-10.4,21.93-14.76,28.2-6.84,28.2-6.84l47,100.34-40.12,19.57Z" fill="#db5b54"/><path d="M108.5,84.22s10.94-10.4,21.93-14.76,28.2-6.84,28.2-6.84l47,100.34-40.12,19.56Z" fill="none" stroke="#000" stroke-miterlimit="10" stroke-width="1.2"/><path d="M99,88.49S75.1,104.64,88.63,147.34c1,3.29,12.68-2,22-7.25.72-.41,1.54,2,3.13,5.83,2.69,6.56,24.76,52.15,26.21,53.24,1.81,1.36,15.6-5.85,23-9.51,10.12-5,4.24-10.17,3-13,0,0-7.54-15.68-12.65-24.09s-11.28-18.24-14.67-26.35-11.59-17-11.59-17Z" fill="#db5b54"/><path d="M99,88.49S75.1,104.64,88.63,147.34c1,3.29,12.68-2,22-7.25.72-.41,1.54,2,3.13,5.83,2.69,6.56,24.76,52.15,26.21,53.24,1.81,1.36,15.6-5.85,23-9.51,10.12-5,4.24-10.17,3-13,0,0-7.54-15.68-12.65-24.09s-11.28-18.24-14.67-26.35-11.59-17-11.59-17Z" fill="none" stroke="#000" stroke-miterlimit="10" stroke-width="1.2"/><path d="M130.37,140.83s9.4-2.62,10,1.33c1,6.54-.27,12.92-5.06,12.13s-8.94-3.5-8.87-2.52,6.16,6.64,3.8,12.45c-1,2.45-5.22,6.32-5.55,5.44-2.84-7.7-8.63-17.65-10.29-21.95-.41-1,15.94-6.88,15.94-6.88" fill="#f6df53"/><path d="M130.37,140.83s9.4-2.62,10,1.33c1,6.54-.27,12.92-5.06,12.13s-8.94-3.5-8.87-2.52,6.16,6.64,3.8,12.45c-1,2.45-5.22,6.32-5.55,5.44-2.84-7.7-8.63-17.65-10.29-21.95C114,146.67,130.37,140.83,130.37,140.83Z" fill="none" stroke="#000" stroke-miterlimit="10" stroke-width="1.2"/><path d="M139.49,198.54c-.93-1.81,3.65-6,4.14-7.06.59-1.27-8.72-1.56-8.72-1.56l-5.42-11s1.3-3,7.67.42,5.69,4.85,7,4.81,2.82-1.34.47-5.3-7.76-5.14-3.15-9.84,19.37-1.82,14.63,7.45-4.95,9-3.5,9c7.31-.3,11.05,3.72,11.05,3.72l-10.09,5.1s-1.82-2.49-3.44-2.48c-2.37,0-2.85,3.91-2.94,4.91a1.23,1.23,0,0,1-.33.65s-6.3,3.41-7.4,1.25" fill="#f6df53"/><path d="M139.49,198.54c-.93-1.81,3.65-6,4.14-7.06.59-1.27-8.72-1.56-8.72-1.56l-5.42-11s1.3-3,7.67.42,5.69,4.85,7,4.81,2.82-1.34.47-5.3-7.76-5.14-3.15-9.84,19.37-1.82,14.63,7.45-4.95,9-3.5,9c7.31-.3,11.05,3.72,11.05,3.72l-10.09,5.1s-1.82-2.49-3.44-2.48c-2.37,0-2.85,3.91-2.94,4.91a1.23,1.23,0,0,1-.33.65S140.59,200.7,139.49,198.54Z" fill="none" stroke="#000" stroke-miterlimit="10" stroke-width="1.2"/><path d="M89.42,100.23c4.6-7.83,11.26-2.54,12.13-1.79,2.64,2.26,5.34,4.61,5.45,4.74,4,4.54-7.14,9.22-7.79,10.19-.78,1.17,1,2.47,8.31,2.32s8.65,3.62,6,7.88-4.06,7.16-9.83,2.82-4.87-5.67-6.2-5.83-3,.88-1.29,5.15,6.87,6.28,1.6,10.22-12.12,1.49-13.15-9c-1.7-17.28,4.73-26.7,4.73-26.7" fill="#f6df53"/><path d="M89.42,100.23c4.6-7.83,11.26-2.54,12.13-1.79,2.64,2.26,5.34,4.61,5.45,4.74,4,4.54-7.14,9.22-7.79,10.19-.78,1.17,1,2.47,8.31,2.32s8.65,3.62,6,7.88-4.06,7.16-9.83,2.82-4.87-5.67-6.2-5.83-3,.88-1.29,5.15,6.87,6.28,1.6,10.22-12.12,1.49-13.15-9C83,109.65,89.42,100.23,89.42,100.23Z" fill="none" stroke="#000" stroke-miterlimit="10" stroke-width="1.2"/><path d="M95.23,91.18a63,63,0,0,1,14.24,6.87c10.68,7.26,18,11.81,18,11.81s-.8-11.72-8.94-18.61S104.48,81.62,102.46,82s-12.3,9.54-7.23,9.19" fill="#db5b54"/><path d="M95.23,91.18a63,63,0,0,1,14.24,6.87c10.68,7.26,18,11.81,18,11.81s-.8-11.72-8.94-18.61S104.48,81.62,102.46,82,90.16,91.53,95.23,91.18Z" fill="none" stroke="#000" stroke-miterlimit="10" stroke-width="1.2"/><path d="M107.71,130.78a33,33,0,0,0,3.59,9.59" fill="#fff"/><path d="M107.71,130.78a33,33,0,0,0,3.59,9.59" fill="none" stroke="#000" stroke-linecap="round" stroke-miterlimit="10" stroke-width="1.2"/><path d="M160.3,60s14.7-10.6,57.06,19.21c2.82,2-6,27-10.73,29.08-4.41,1.92-13.95-11.58-9.68-5.91S229.28,152,230.5,155.44s-9.81,8-18.48,13.63c-7,4.54-10.5-1.07-12.16-1.88,0,0-15.1-16.64-19-25.69s-8.3-19.78-12.93-27.25S160.88,95,160.88,95Z" fill="#db5b54"/><path d="M160.3,60s14.7-10.6,57.06,19.21c2.82,2-6,27-10.73,29.08-4.41,1.92-13.95-11.58-9.68-5.91S229.28,152,230.5,155.44s-9.81,8-18.48,13.63c-7,4.54-10.5-1.07-12.16-1.88,0,0-15.1-16.64-19-25.69s-8.3-19.78-12.93-27.25S160.88,95,160.88,95Z" fill="none" stroke="#000" stroke-miterlimit="10" stroke-width="1.2"/><path d="M198.82,104.71a.22.22,0,0,0-.41.13c.31,2.87,1.2,11.45,1,12.6-.24,1.38-2.42,1.12-7.63-4S183,110.11,182,115s-2,8,5.21,8.8,7.44-.77,8.52,0,1.57,2.7-2.61,4.63-9.31-.16-8.17,6.33,14.93,12.46,16.27,2.14,2-8.12,3.19-7.25c5.86,4.39,11.17,2.07,11.17,2.07l-6.38-10.91s-2.91,1-4.24.09c-1.94-1.36-.14-4.83.36-5.7a.42.42,0,0,0,0-.42Z" fill="#f6df53"/><path d="M198.82,104.71a.22.22,0,0,0-.41.13c.31,2.87,1.2,11.45,1,12.6-.24,1.38-2.42,1.12-7.63-4S183,110.11,182,115s-2,8,5.21,8.8,7.43-.77,8.52,0,1.57,2.7-2.61,4.63-9.31-.16-8.17,6.33,14.93,12.46,16.27,2.14,2-8.12,3.19-7.25c5.86,4.39,11.17,2.07,11.17,2.07l-6.38-10.91s-2.91,1-4.24.09c-1.94-1.36-.14-4.83.36-5.7a.42.42,0,0,0,0-.42Z" fill="none" stroke="#000" stroke-miterlimit="10" stroke-width="1.2"/><path d="M160.92,95.49c.46,1.35,1.14,1.51,2.24,1.19,3.34-1,6.77-2,6.92-2.07,5.48-2.51-2.69-11.35-2.88-12.5-.23-1.38,1.92-1.85,8.52,1.32s9.37.28,8.76-4.69-.75-8.19-7.79-6.62-6.78,3.15-8.06,2.75-2.36-2,1-5.23,8.85-2.88,5.67-8.64-15.19-7.16-16.55,3.16c-.8,6.09-1.86,13.8-2.05,14.79,0,.14,4.26,16.54,4.26,16.54" fill="#f6df53"/><path d="M160.92,95.49c.46,1.35,1.14,1.51,2.24,1.19,3.34-1,6.76-2,6.92-2.07,5.48-2.51-2.69-11.35-2.88-12.5-.23-1.38,1.92-1.85,8.52,1.32s9.37.28,8.76-4.69-.75-8.19-7.79-6.62-6.78,3.15-8.06,2.75-2.36-2,1-5.23,8.85-2.88,5.67-8.64-15.19-7.16-16.55,3.16c-.8,6.09-1.86,13.8-2.05,14.79C156.63,79.09,160.92,95.49,160.92,95.49Z" fill="none" stroke="#000" stroke-miterlimit="10" stroke-width="1.2"/><path d="M169,58.06a62.86,62.86,0,0,0-5.14,15c-2.35,12.7-3.73,21.7-3.73,21.7s-8.31-9.41-7.48-20,2.32-16.79,4-18,16.16-2,12.34,1.35" fill="#db5b54"/><path d="M169,58.06a62.86,62.86,0,0,0-5.14,15c-2.35,12.7-3.73,21.7-3.73,21.7s-8.31-9.41-7.48-20,2.32-16.79,4-18S172.81,54.7,169,58.06Z" fill="none" stroke="#000" stroke-miterlimit="10" stroke-width="1.2"/><path d="M107.44,220.3A13.32,13.32,0,0,1,97,215.53a16.35,16.35,0,0,1-4.19-11.15,15.42,15.42,0,0,1,3.92-10.83A13.23,13.23,0,0,1,107,189.27a15.49,15.49,0,0,1,8.68,2.4c2.44,1.61,3.66,3.51,3.66,5.73a3.22,3.22,0,0,1-1,2.42,3.48,3.48,0,0,1-2.57.94,4.2,4.2,0,0,1-2.6-.87,7.47,7.47,0,0,1-1.89-2.11l-1.51-2.49a8,8,0,0,0-1.86-2.13,3.86,3.86,0,0,0-2.49-.87,4.46,4.46,0,0,0-3.64,2,8.82,8.82,0,0,0-1.51,5.41,16,16,0,0,0,2.9,9.85q2.89,3.85,6.68,3.86a7.59,7.59,0,0,0,2.58-.43,6.64,6.64,0,0,0,2.08-1.21,12.43,12.43,0,0,0,1.41-1.39c.32-.39.7-.89,1.13-1.49a1.36,1.36,0,0,1,1.49-.49,1.11,1.11,0,0,1,.85,1.26,10.94,10.94,0,0,1-3.26,7.53C114.13,219.27,111.22,220.3,107.44,220.3Z"/><path d="M144.35,215.19a4.33,4.33,0,0,0,.81,2.11,3.35,3.35,0,0,1,.73,1.6v.17c0,.54-.35.81-1,.81h-8.47q-1,0-1-.81v-.17a3.24,3.24,0,0,1,.79-1.58,3.35,3.35,0,0,0,.74-2.13l-.42-7.92a11,11,0,0,0-.85-4.19,2.26,2.26,0,0,0-2.13-1.25,2.29,2.29,0,0,0-2.07,1.1,5.62,5.62,0,0,0-.7,3v9.28a3.1,3.1,0,0,0,1,2.1q1,1,1,1.56v.17c0,.54-.34.81-1,.81h-9.23c-.66,0-1-.27-1-.81v-.17a3,3,0,0,1,.93-1.56,3.12,3.12,0,0,0,.94-2.1V195.48a2.62,2.62,0,0,0-1-2c-.7-.59-1-1.06-1-1.4V192c0-.51.33-.91,1-1.19l6.73-3a1.25,1.25,0,0,1,1.17-.09,1,1,0,0,1,.45,1V201a6.82,6.82,0,0,1,5.19-2,8,8,0,0,1,5.45,2q2.29,2,2.64,6.49Z"/><path d="M148.78,219.88q-1,0-1-.81v-.17a3.15,3.15,0,0,1,.85-1.58,3.4,3.4,0,0,0,.85-2.13V207.1a3.38,3.38,0,0,0-.85-2.15,3.21,3.21,0,0,1-.85-1.42v-.17c0-.34.32-.67,1-1l6.43-3.15a1.53,1.53,0,0,1,1.4-.09,1.05,1.05,0,0,1,.51,1v15.07a3.21,3.21,0,0,0,1,2.13,3.06,3.06,0,0,1,1,1.58v.17c0,.54-.36.81-1.07.81Zm4.56-22.95a5.17,5.17,0,0,1-3.54-1.21,4.09,4.09,0,0,1,0-6.09,5.12,5.12,0,0,1,3.54-1.21,5.06,5.06,0,0,1,3.49,1.21,4.09,4.09,0,0,1,0,6.09A5.11,5.11,0,0,1,153.34,196.93Z"/><path d="M161.76,219.88c-.65,0-1-.27-1-.81v-.17a3.12,3.12,0,0,1,.84-1.56,3.36,3.36,0,0,0,.83-2.1V195.78a3.45,3.45,0,0,0-.83-2.15,3.17,3.17,0,0,1-.84-1.47V192c0-.31.32-.64.94-1l6.43-3.15a1.58,1.58,0,0,1,1.43-.06,1,1,0,0,1,.53,1v26.48a3.12,3.12,0,0,0,.94,2.1,3,3,0,0,1,.93,1.56v.17q0,.81-1,.81Z"/><path d="M174.83,219.88c-.65,0-1-.27-1-.81v-.17a3.12,3.12,0,0,1,.84-1.56,3.36,3.36,0,0,0,.83-2.1V195.78a3.45,3.45,0,0,0-.83-2.15,3.17,3.17,0,0,1-.84-1.47V192c0-.31.32-.64.94-1l6.43-3.15a1.58,1.58,0,0,1,1.43-.06,1,1,0,0,1,.53,1v26.48a3.15,3.15,0,0,0,.93,2.1,3,3,0,0,1,.94,1.56v.17q0,.81-1,.81Z"/><path d="M225.71,215.79c.79,0,1.19.3,1.19.89v.3c0,.74-.58,1.48-1.75,2.21a7,7,0,0,1-3.83,1.11,7.92,7.92,0,0,1-5.7-2.25,15,15,0,0,1-8.09,2.25q-5.79,0-8.79-2.23a7.13,7.13,0,0,1-3-6q0-4.89,6.55-8.38-3-3.63-3-6.82a6.86,6.86,0,0,1,2.47-5.42c1.65-1.44,4-2.15,7.11-2.15a12.66,12.66,0,0,1,4.3.66,6.55,6.55,0,0,1,2.75,1.7,7.15,7.15,0,0,1,1.32,2.11,5.81,5.81,0,0,1,.4,2.08,6,6,0,0,1-1.92,4.54,13.21,13.21,0,0,1-4.55,2.78l6.38,6.65a23,23,0,0,0,1.62-8.86,1.67,1.67,0,0,1,1.22-1.62,3.21,3.21,0,0,1,2.4,0A1.68,1.68,0,0,1,224,201a21.82,21.82,0,0,1-3.36,12c1.87,1.9,3.21,2.85,4,2.85Zm-22-3.49A5.57,5.57,0,0,0,205,216a4.73,4.73,0,0,0,3.83,1.51,7.27,7.27,0,0,0,4.55-1.83l-8.13-8.77A9.5,9.5,0,0,0,203.74,212.3ZM208.55,192a1.76,1.76,0,0,0-1.53.81,3.53,3.53,0,0,0-.55,2,8.47,8.47,0,0,0,2.17,5.62,5.85,5.85,0,0,0,1.72-2.17,6,6,0,0,0,.62-2.56Q211,192,208.55,192Z"/><path d="M128.64,262.87A14.63,14.63,0,0,1,118,258.53a14.78,14.78,0,0,1-4.43-11q0-7,4.15-11.37a15.29,15.29,0,0,1,21.5.15,15.42,15.42,0,0,1,4.41,11.26,14.86,14.86,0,0,1-4.32,11.07A14.6,14.6,0,0,1,128.64,262.87Zm2.22-3.19a4.28,4.28,0,0,0,3.57-1.62,7,7,0,0,0,1.28-4.47,26.61,26.61,0,0,0-1.36-8,24.66,24.66,0,0,0-3.73-7.47q-2.35-3.15-4.79-3.15a4.2,4.2,0,0,0-3.51,1.62,7.39,7.39,0,0,0-1.25,4.59,27.32,27.32,0,0,0,1.36,8.33,22.44,22.44,0,0,0,3.68,7.21Q128.44,259.68,130.86,259.68Z"/><path d="M166.15,257.81a4.42,4.42,0,0,0,.49,1.64,1.84,1.84,0,0,0,.72.78,3.26,3.26,0,0,1,.66.43.8.8,0,0,1,.3.64c0,.94-1.6,1.4-4.81,1.4a7,7,0,0,1-2.92-.46,2.24,2.24,0,0,1-1.21-1.58c-1.08,1.48-2.88,2.21-5.41,2.21a9.48,9.48,0,0,1-5.81-1.66,5.61,5.61,0,0,1-2.23-4.81,5.75,5.75,0,0,1,2.21-4.79,8.6,8.6,0,0,1,5.45-1.72,8.24,8.24,0,0,1,4.3,1.06v-.12a28,28,0,0,0-1-5.71,2,2,0,0,0-2.06-1.49,1.83,1.83,0,0,0-1.58.9,6.61,6.61,0,0,0-.87,1.95,4.78,4.78,0,0,1-1,2,2.55,2.55,0,0,1-2,.9,3.06,3.06,0,0,1-2.15-.77,2.61,2.61,0,0,1-.83-2,4,4,0,0,1,2.47-3.73,13.34,13.34,0,0,1,6.05-1.25,10.59,10.59,0,0,1,7,2.32,9.4,9.4,0,0,1,3.3,6.28Zm-9.83,2.89a1.84,1.84,0,0,0,1.59-.93,3.82,3.82,0,0,0,.62-2.13l-.17-2c-.28-2.36-1.17-3.53-2.64-3.53a1.87,1.87,0,0,0-1.57.78,3.41,3.41,0,0,0-.6,2.11,9.78,9.78,0,0,0,.74,4C154.79,260.16,155.46,260.7,156.32,260.7Z"/><path d="M178.41,262.87a6.53,6.53,0,0,1-5.09-2,8.41,8.41,0,0,1-1.85-5.83V244.91h-1.62a.94.94,0,0,1-.7-.28,1,1,0,0,1-.28-.7V243a.87.87,0,0,1,1-1h.81a5.1,5.1,0,0,0,3.37-1.17,5.49,5.49,0,0,0,1.83-3.13c.14-.73.52-1.1,1.15-1.1h1c.76,0,1.15.37,1.15,1.1V242h4.38a1,1,0,0,1,.7.28.93.93,0,0,1,.28.7v.94a1,1,0,0,1-1,1h-4.38v10.22a2.41,2.41,0,0,0,.55,1.68,1.76,1.76,0,0,0,1.36.62,3.12,3.12,0,0,0,2.81-1.58,1.13,1.13,0,0,1,.68-.45.83.83,0,0,1,.66.15.7.7,0,0,1,.28.6,6.63,6.63,0,0,1-1.9,4.7A6.72,6.72,0,0,1,178.41,262.87Z"/><path d="M196.12,262.83a14.42,14.42,0,0,1-6.72-1.38c-1.77-.92-2.64-2.12-2.64-3.6a2.45,2.45,0,0,1,.83-2,3.3,3.3,0,0,1,2.19-.68,3,3,0,0,1,2.3.91,4.9,4.9,0,0,1,1.15,2,5.43,5.43,0,0,0,1,2,2.28,2.28,0,0,0,1.87.92,2.05,2.05,0,0,0,2.3-2.34,2.89,2.89,0,0,0-1.17-2.43,8.19,8.19,0,0,0-2.83-1.36c-1.11-.31-2.21-.67-3.3-1.07a6.43,6.43,0,0,1-2.81-2,5.58,5.58,0,0,1-1.17-3.7,5.52,5.52,0,0,1,2.51-4.66,10.77,10.77,0,0,1,6.47-1.81,12.37,12.37,0,0,1,6.45,1.49q2.49,1.48,2.49,3.62a2.41,2.41,0,0,1-.83,1.85,2.9,2.9,0,0,1-2,.74,2.79,2.79,0,0,1-2.21-.89,4.63,4.63,0,0,1-1.09-2,6.74,6.74,0,0,0-.85-2,1.75,1.75,0,0,0-1.56-.89,1.71,1.71,0,0,0-1.46.72,2.76,2.76,0,0,0-.54,1.7,3.25,3.25,0,0,0,1.13,2.56,7.65,7.65,0,0,0,2.73,1.49c1.06.34,2.13.71,3.19,1.1a6.53,6.53,0,0,1,2.72,1.94,5.56,5.56,0,0,1-1.36,8A11.52,11.52,0,0,1,196.12,262.83Z"/></svg>