<svg xmlns="http://www.w3.org/2000/svg" xmlns:xlink="http://www.w3.org/1999/xlink" viewBox="0 0 320 276.02" width="220" height="191"><defs><clipPath id="a"><path d="M810.71,347.69A21.75,21.75,0,0,0,789,369.43V572.54a21.74,21.74,0,0,0,21.74,21.74H940.36c67.81,0,123.3-55.48,123.3-123.29s-55.49-123.3-123.3-123.3Z" fill="none"/></clipPath></defs><path d="M313.22,130.33l-225.58,143a12.73,12.73,0,0,1-17.51-3.93L2.85,163.2a12.73,12.73,0,0,1,3.93-17.51l225.58-143a12.73,12.73,0,0,1,17.51,3.92l67.28,106.17a12.73,12.73,0,0,1-3.93,17.51" fill="#f7df53"/><path d="M251.74,84.69c3.89-2.4,8.44-5,11-6.3l-5.46-8.62c-2.22,1.81-6.59,4.7-10.42,7.2l-2.06-3.25c4.25-2.56,9-5.29,12.66-7.3l-6.23-10.76-26.82,17c1.89,2.36,3.6,4.85,5.25,7.36l12.53,19.76c1.56,2.57,3.08,5.18,4.41,7.9l27.15-17.21-7.12-11.25c-2.9,2.3-7.79,5.72-12.67,9Z"/><path d="M209.58,82.12c-1.88,1-9,5.65-12.12,7.61l-7.82,5c1.9,2.36,3.6,4.84,5.26,7.35l12.53,19.77c1.56,2.57,3.08,5.17,4.4,7.89l14-8.86c14.59-9.44,14.61-19.41,7.75-30.24s-13.51-13.93-24-8.48m11.58,26.7c-.61.38-1.48,1-2.07,1.31L210,95.7a19.43,19.43,0,0,1,2.47-1.83c2.3-1.46,4.33.49,7.19,5s4.2,7.57,1.49,9.95"/><path d="M194.13,140.92l14.45-9.16c-1.89-2.36-3.6-4.84-5.25-7.35L190.8,104.64c-1.56-2.57-3.08-5.17-4.41-7.89l-14.45,9.15c1.9,2.36,3.6,4.85,5.26,7.36L189.73,133c1.56,2.57,3.08,5.17,4.4,7.89"/><path d="M163.55,160c3.95-2,10.88-5.84,14.75-8.36,9.4-6.09,11.54-12.2,6.29-20.48-3.37-5.32-7.56-6.82-15.28-3.91l-3.6,1.29c-1.13.4-1.86.59-2.43-.3s-.28-1.8.7-2.42c2.59-1.64,7.78-3.55,12.46-5.13l-7.32-12.9c-4.9,2.57-9.35,4.93-13.18,7.42-10.19,6.6-12.48,12.66-7.77,20.1,4.2,6.64,8.34,8.7,16.07,5.58l5-1.94c1.73-.7,2.07-.58,2.6.26.42.66.16,1.29-1.72,2.48a38.55,38.55,0,0,1-14.61,4.64Z"/><path d="M118.59,157.52c2.64-1.87,5-3.56,7.39-5.2l9.48,15c1.57,2.57,3.08,5.17,4.41,7.89l14.5-9.18c-1.9-2.36-3.6-4.85-5.26-7.36l-9.48-15c2.74-1.61,5.32-3,7.81-4.43l-8.05-12.71-28.85,18.29Z"/><path d="M104.68,148.53,88.21,159c4.24,13.67,8.86,27.1,13.43,40.56L113.5,192c-.62-1.39-1.29-3.08-2-4.93l6.87-4.36c1.33,1.47,2.56,2.8,3.56,4l13.83-8.77c-10.22-9.88-20.63-19.65-31.08-29.38m3.13,28.89c-1.09-3.07-2.11-6-3-8.71l.09-.06c2,2,4.19,4.2,6.45,6.53Z"/><path d="M62.29,174.6C50.57,182,48.37,191.87,56,203.87s17.51,14.3,29.23,6.87,13.92-17.26,6.26-29.36S74,167.2,62.29,174.6m16.26,25.65c-2.92,1.85-5.18-.15-8.46-5.33s-4.09-8-1.17-9.87,5.2.2,8.42,5.28,4.13,8.07,1.21,9.92"/></svg>