<svg xmlns="http://www.w3.org/2000/svg" xmlns:xlink="http://www.w3.org/1999/xlink" viewBox="0 0 314 327.34" width="192" height="211"><defs><clipPath id="a"><path d="M1604.12-46.9a21.74,21.74,0,0,0-21.74,21.74v203.1a21.74,21.74,0,0,0,21.74,21.74h129.65c67.81,0,123.29-55.48,123.29-123.29S1801.58-46.9,1733.77-46.9Z" fill="none"/></clipPath></defs><path d="M272.68,306.24l25.1-281.83A18.66,18.66,0,0,0,271.33,5.83L14.7,125a18.68,18.68,0,0,0-2.87,32.21L243.35,319.86a18.67,18.67,0,0,0,29.33-13.62l25.1-281.83A18.66,18.66,0,0,0,271.33,5.83L14.7,125a18.68,18.68,0,0,0-2.87,32.21L243.35,319.86A18.67,18.67,0,0,0,272.68,306.24Z" fill="#f7df53"/><path d="M114.23,182.53a3.61,3.61,0,0,0,1.24,1.05,2.16,2.16,0,0,1,1,.79l.06.1c.15.35,0,.62-.42.82l-5.62,2.61c-.43.2-.72.13-.88-.21l0-.11a2.34,2.34,0,0,1,.09-1.21,1.84,1.84,0,0,0-.24-1.58l-6-8.68,1.25,13.51a1.1,1.1,0,0,1-.61,1.24,1.32,1.32,0,0,1-1.49-.23l-10.32-9.86,3.12,10.54a1.9,1.9,0,0,0,1.07,1.18,2.29,2.29,0,0,1,1,.72l.05.11c.16.34,0,.61-.41.81l-3.35,1.56c-.44.2-.73.13-.89-.21l0-.11a2.19,2.19,0,0,1,0-1.25,3.27,3.27,0,0,0,0-1.62l-4.09-14.19a1.88,1.88,0,0,0-1.11-1.16,2.24,2.24,0,0,1-1-.7l0-.11c-.15-.34,0-.61.39-.8l3.56-1.66a1.55,1.55,0,0,1,1.91.3l9.24,9.64L100,170.66A1.55,1.55,0,0,1,101,169l3.67-1.71c.42-.19.7-.12.86.23l0,.1a2.28,2.28,0,0,1-.14,1.25,1.85,1.85,0,0,0,.21,1.65Z"/><path d="M129.23,175.59a3,3,0,0,0,.8.9,1.38,1.38,0,0,0,.69.29,2,2,0,0,1,.54.07.58.58,0,0,1,.38.32c.27.59-.6,1.36-2.64,2.31a4.92,4.92,0,0,1-2,.56,1.52,1.52,0,0,1-1.23-.64,4.4,4.4,0,0,1-2.78,3,6.7,6.7,0,0,1-4.18.66A4.4,4.4,0,0,1,116,177a5.93,5.93,0,0,1,3-2.7,5.78,5.78,0,0,1,3-.59l0-.08a19.72,19.72,0,0,0-2.29-3.34,1.42,1.42,0,0,0-1.75-.34,1.26,1.26,0,0,0-.73,1,4.44,4.44,0,0,0,0,1.5,3.55,3.55,0,0,1-.08,1.55,1.8,1.8,0,0,1-1,1.17,2.13,2.13,0,0,1-1.59.15,1.79,1.79,0,0,1-1.11-1,2.8,2.8,0,0,1,.46-3.09,9.46,9.46,0,0,1,3.47-2.58,7.51,7.51,0,0,1,5.16-.6,6.57,6.57,0,0,1,3.94,3Zm-5.39,4.74a1.29,1.29,0,0,0,.74-1.07,2.65,2.65,0,0,0-.23-1.53l-.69-1.19c-.87-1.41-1.78-1.9-2.72-1.47a1.32,1.32,0,0,0-.76,1,2.35,2.35,0,0,0,.24,1.51,6.68,6.68,0,0,0,1.66,2.33A1.59,1.59,0,0,0,123.84,180.33Z"/><path d="M133.27,177.3c-.41.19-.7.11-.85-.23l0-.11a2.11,2.11,0,0,1,.06-1.23,2.33,2.33,0,0,0-.09-1.58l-5.73-12.35a2.41,2.41,0,0,0-1.17-1.12c-.55-.28-.87-.5-1-.69l0-.1c-.1-.2,0-.5.3-.9l3.15-3.89a1.1,1.1,0,0,1,.89-.47.74.74,0,0,1,.62.46l7.8,16.8a2.21,2.21,0,0,0,1.22,1.06,2.14,2.14,0,0,1,1.05.71l.05.11c.16.34,0,.62-.41.82Z"/><path d="M146.8,171.34a4.55,4.55,0,0,1-3.83.21,5.92,5.92,0,0,1-2.89-3.16l-3-6.4-1,.47a.62.62,0,0,1-.53,0,.64.64,0,0,1-.38-.36l-.28-.59a.61.61,0,0,1,.33-.91l.52-.24a3.65,3.65,0,0,0,1.79-1.74,3.78,3.78,0,0,0,.23-2.52.8.8,0,0,1,.41-1l.62-.29a.69.69,0,0,1,1.05.36l1.27,2.73,2.78-1.29a.62.62,0,0,1,.53,0,.69.69,0,0,1,.39.36l.27.59a.62.62,0,0,1,0,.53.64.64,0,0,1-.36.38l-2.78,1.3,3,6.48a1.75,1.75,0,0,0,.84.91,1.24,1.24,0,0,0,1.05,0,2.21,2.21,0,0,0,1.32-1.83.8.8,0,0,1,.3-.49.6.6,0,0,1,.46-.1.54.54,0,0,1,.36.3,4.69,4.69,0,0,1-2.51,6.35Z"/><path d="M160,149.11c.41-.19.7-.12.86.22l.05.11a2.25,2.25,0,0,1-.1,1.39,5.68,5.68,0,0,0-.26,1.67v13.36a15.32,15.32,0,0,1-.05,1.85,17.81,17.81,0,0,1-.3,1.95,5.29,5.29,0,0,1-.89,2A4.28,4.28,0,0,1,157.7,173a5.4,5.4,0,0,1-3.54.49,3,3,0,0,1-2.22-1.63,2,2,0,0,1,1-2.78,1.91,1.91,0,0,1,1.66-.08,2.68,2.68,0,0,1,1.19.94,6.9,6.9,0,0,0,.94,1.06c.33.3.64.39.91.26.7-.32,1-1.89.91-4.69l-10.52-8.28a6.93,6.93,0,0,0-1.49-.84,2.16,2.16,0,0,1-1.13-.84l0-.11c-.16-.34,0-.61.39-.8l5.81-2.7a.55.55,0,0,1,.84.27l.05.1a1.33,1.33,0,0,1,0,.74,2.46,2.46,0,0,0,0,.8,2.71,2.71,0,0,0,.72,1l5.77,5.21-.32-7.18c-.11-.76-.32-1.22-.63-1.4a4.62,4.62,0,0,0-1.15-.43c-.46-.12-.73-.26-.82-.44l0-.11c-.17-.36,0-.64.36-.83Z"/><path d="M169.33,165.54a.65.65,0,0,1-.9.24.54.54,0,0,1-.36-.77,14.77,14.77,0,0,0,.55-1.86,2.35,2.35,0,0,0-.09-1.18c-.15-.41-.36-.55-.63-.43a1.89,1.89,0,0,1-1.71-.07,3.12,3.12,0,0,1-1.4-1.54,3.25,3.25,0,0,1-.23-2.44,2.83,2.83,0,0,1,1.62-1.71,3,3,0,0,1,2.45-.06,3.62,3.62,0,0,1,2,2C171.67,160,171.26,162.66,169.33,165.54Z"/><path d="M186.22,153a9.32,9.32,0,0,1-8,0,11.48,11.48,0,0,1-6-5.85,10.82,10.82,0,0,1-.71-8,9.28,9.28,0,0,1,5.26-5.73,10.85,10.85,0,0,1,6.22-1q3,.45,4,2.56a2.24,2.24,0,0,1,.1,1.82,2.48,2.48,0,0,1-1.35,1.35,2.87,2.87,0,0,1-1.91.21,5,5,0,0,1-1.82-.78l-1.7-1.13a5.81,5.81,0,0,0-1.8-.81,2.73,2.73,0,0,0-1.84.19,3.1,3.1,0,0,0-1.72,2.34,6.2,6.2,0,0,0,.64,3.88,11.21,11.21,0,0,0,4.74,5.4,5.8,5.8,0,0,0,5.38.47,5.31,5.31,0,0,0,1.5-1,4.49,4.49,0,0,0,1-1.38,9,9,0,0,0,.49-1.3c.09-.34.18-.77.27-1.27a.93.93,0,0,1,.81-.75.77.77,0,0,1,.91.54,7.7,7.7,0,0,1,.15,5.74A8.26,8.26,0,0,1,186.22,153Z"/><path d="M198,131.13a2.64,2.64,0,0,1,2.21-.1,3,3,0,0,1,1.58,1.6q1.17,2.53-.91,3.5a2,2,0,0,1-1.45.2,1.59,1.59,0,0,1-.91-.64,2.5,2.5,0,0,0-.69-.75.76.76,0,0,0-.83-.09c-.66.31-.6,1.33.21,3.06l2.33,5a2.08,2.08,0,0,0,1.34,1c.68.22,1.07.44,1.17.65l.05.11c.16.34,0,.61-.41.81l-5.81,2.7c-.43.2-.72.13-.88-.21l-.05-.11a2.11,2.11,0,0,1,.08-1.24,2.27,2.27,0,0,0-.08-1.58l-2.5-5.38a1.52,1.52,0,0,0-.75-.77,6.18,6.18,0,0,0-.95-.35.84.84,0,0,1-.6-.44l0-.08a1,1,0,0,1,.26-1.07l3-3.56c.3-.29.55-.42.75-.37s.36.21.5.52l.92,2A4,4,0,0,1,198,131.13Z"/><path d="M216.59,133.41a.68.68,0,0,1,.58-.48.53.53,0,0,1,.59.4,4.54,4.54,0,0,1-.28,3.48,6.15,6.15,0,0,1-3.27,3.23,7.15,7.15,0,0,1-5.69.34,7.45,7.45,0,0,1-4.16-4.08,7,7,0,0,1-.26-5.7,7.2,7.2,0,0,1,3.81-4.06,6.35,6.35,0,0,1,4.34-.63,3.61,3.61,0,0,1,2.54,1.94,2,2,0,0,1-.27,2.16l-4,5.52a3.82,3.82,0,0,0,3.9.33,4.2,4.2,0,0,0,1.42-1.07A3,3,0,0,0,216.59,133.41ZM208,128.09a1.64,1.64,0,0,0-.93,1.42,4.1,4.1,0,0,0,.44,2.26,9.87,9.87,0,0,0,1.72,2.65l1.81-2.68a1.74,1.74,0,0,0,.06-1.71,4.69,4.69,0,0,0-1.3-1.63A1.6,1.6,0,0,0,208,128.09Z"/><path d="M232.28,127.74a3.21,3.21,0,0,0,.79.89,1.35,1.35,0,0,0,.7.29,2,2,0,0,1,.54.08.57.57,0,0,1,.38.31q.41.9-2.64,2.31a4.61,4.61,0,0,1-2,.56,1.49,1.49,0,0,1-1.23-.64,4.37,4.37,0,0,1-2.78,3,6.7,6.7,0,0,1-4.18.66,3.94,3.94,0,0,1-2.84-2.39,4,4,0,0,1,0-3.7,6,6,0,0,1,2.95-2.7,5.78,5.78,0,0,1,3-.59l0-.08a20.16,20.16,0,0,0-2.29-3.34,1.42,1.42,0,0,0-1.75-.33,1.25,1.25,0,0,0-.73,1,4.45,4.45,0,0,0,0,1.5,3.42,3.42,0,0,1-.09,1.55,1.76,1.76,0,0,1-1,1.17,2.08,2.08,0,0,1-1.59.14,1.84,1.84,0,0,1-1.12-1,2.8,2.8,0,0,1,.47-3.09,9.25,9.25,0,0,1,3.47-2.58,7.38,7.38,0,0,1,5.15-.6,6.52,6.52,0,0,1,3.95,3Zm-5.39,4.73a1.28,1.28,0,0,0,.74-1.06,2.56,2.56,0,0,0-.24-1.53l-.68-1.2c-.88-1.41-1.78-1.9-2.72-1.46a1.29,1.29,0,0,0-.76,1,2.38,2.38,0,0,0,.24,1.52,6.87,6.87,0,0,0,1.66,2.33A1.58,1.58,0,0,0,226.89,132.47Z"/><path d="M257.33,116.11a3,3,0,0,0,1.14,1.11,2.38,2.38,0,0,1,.92.79l.05.1c.16.35,0,.62-.41.82l-5.4,2.51c-.43.2-.73.13-.89-.21l-.05-.11a2.33,2.33,0,0,1,.06-1.21,2.21,2.21,0,0,0-.18-1.6l-2.49-4.65A8.71,8.71,0,0,0,248.2,111a1.55,1.55,0,0,0-1.72-.23,1.5,1.5,0,0,0-.91,1.27,3.88,3.88,0,0,0,.43,2.07,9.06,9.06,0,0,1,.61,1.1l2.23,4.81a2.52,2.52,0,0,0,1.12,1.12,2.3,2.3,0,0,1,.95.78l.05.1c.16.34,0,.62-.41.82l-5.38,2.5c-.43.2-.73.12-.89-.22l-.05-.1a2.46,2.46,0,0,1,0-1.23,2.56,2.56,0,0,0-.15-1.57l-2.39-5.13c-1-2.25-2.18-3.09-3.4-2.52a1.66,1.66,0,0,0-1,1.33,3.67,3.67,0,0,0,.41,2.07l2.76,6a2.26,2.26,0,0,0,1.22,1.07c.61.27,1,.51,1.06.73l.05.11c.16.34,0,.61-.41.81l-5.83,2.71c-.44.2-.73.13-.89-.21l0-.11a2.14,2.14,0,0,1,.13-1.28,2.34,2.34,0,0,0,0-1.62l-2.48-5.33a1.42,1.42,0,0,0-.8-.76,7,7,0,0,0-1-.35.93.93,0,0,1-.64-.46l0-.08c-.11-.24,0-.56.34-1l3.19-3.75a.77.77,0,0,1,.75-.35.85.85,0,0,1,.57.53l.45,1a4.61,4.61,0,0,1,2.79-3.4,5.39,5.39,0,0,1,5.46.16,4.32,4.32,0,0,1,.84-2.38,5.42,5.42,0,0,1,2.13-1.7,5.15,5.15,0,0,1,4-.23q2,.67,3.63,3.6Z"/><path d="M268.75,98.62c.41-.19.7-.12.86.22l.05.11a2.25,2.25,0,0,1-.1,1.39,6,6,0,0,0-.26,1.67v13.36a17.93,17.93,0,0,1,0,1.85,18.16,18.16,0,0,1-.31,2,5.14,5.14,0,0,1-.89,2,4.28,4.28,0,0,1-1.64,1.34,5.37,5.37,0,0,1-3.53.49,3,3,0,0,1-2.22-1.63,1.94,1.94,0,0,1,1-2.78,1.89,1.89,0,0,1,1.65-.08,2.68,2.68,0,0,1,1.19.94,6.9,6.9,0,0,0,.94,1.06c.34.3.64.39.91.26.7-.32,1-1.89.91-4.69l-10.52-8.29a7.57,7.57,0,0,0-1.48-.83,2.12,2.12,0,0,1-1.13-.84l-.05-.11c-.16-.34,0-.61.38-.8l5.81-2.7q.6-.27.84.27l0,.1a1.25,1.25,0,0,1,.05.74,2.43,2.43,0,0,0,0,.8,2.53,2.53,0,0,0,.71,1l5.77,5.21-.31-7.18c-.11-.76-.33-1.22-.64-1.4a4.62,4.62,0,0,0-1.15-.43c-.46-.12-.73-.26-.81-.44l-.05-.11c-.17-.36-.05-.64.37-.83Z"/><path d="M141.55,203.14c.51-.23.84-.16,1,.22l.09.19c.22.47.07,1.11-.46,1.92a4.91,4.91,0,0,1-2.1,1.83,5.53,5.53,0,0,1-4.29.25,10.44,10.44,0,0,1-4.47,3.82,10.29,10.29,0,0,1-6.23,1.17,5,5,0,0,1-3.68-2.94c-1-2.07-.4-4.49,1.68-7.25a7.71,7.71,0,0,1-3.92-3.44,4.8,4.8,0,0,1,0-4.17,7.35,7.35,0,0,1,3.87-3.46,9.09,9.09,0,0,1,2.93-.85,4.56,4.56,0,0,1,2.24.27,5,5,0,0,1,1.46,1,4.28,4.28,0,0,1,1,4.65,9.11,9.11,0,0,1-2.07,3.11l6,2.33a16,16,0,0,0-1.58-6.09,1.16,1.16,0,0,1,.29-1.39,2.31,2.31,0,0,1,1.53-.71,1.19,1.19,0,0,1,1.25.71,15.31,15.31,0,0,1,1.39,8.58c1.75.65,2.87.87,3.38.63Zm-17.91-10.07a1.22,1.22,0,0,0-.74,1,2.5,2.5,0,0,0,.25,1.45,6,6,0,0,0,3,2.93,4,4,0,0,0,.45-1.88,4.33,4.33,0,0,0-.36-1.81C125.54,193.15,124.66,192.59,123.64,193.07Zm2.94,14.33a3.91,3.91,0,0,0,1.91,2,3.32,3.32,0,0,0,2.88-.17,5.18,5.18,0,0,0,2.35-2.5L126,203.55A6.66,6.66,0,0,0,126.58,207.4Z"/><path d="M150.83,202c-.43.2-.72.13-.88-.22l0-.1a2.11,2.11,0,0,1,.08-1.24,2.36,2.36,0,0,0-.08-1.59l-6.17-13.29a2.32,2.32,0,0,0-1.17-1.09,2.19,2.19,0,0,1-1-.74l0-.1c-.16-.34,0-.62.41-.82l6.72-3.12a12.29,12.29,0,0,1,7-1.34,6,6,0,0,1,4.6,3.74,6.78,6.78,0,0,1,.15,5.86,9.17,9.17,0,0,1-4.77,4.43l-2.24,1,1.45,3.14a2.18,2.18,0,0,0,1.23,1,2.12,2.12,0,0,1,1.07.7l.05.11c.16.34,0,.62-.41.82Zm2.92-11.05,1-.46a2.43,2.43,0,0,0,1.47-2,5.17,5.17,0,0,0-.53-2.94,7.75,7.75,0,0,0-3-3.58,3.37,3.37,0,0,0-3.18-.45l-.38.18c-.65.3-.77.88-.37,1.75l3.14,6.75A1.23,1.23,0,0,0,153.75,190.94Z"/><path d="M176.52,184.87a.66.66,0,0,1,.58-.48.52.52,0,0,1,.59.39,4.56,4.56,0,0,1-.28,3.49,6.13,6.13,0,0,1-3.27,3.22,7.11,7.11,0,0,1-5.69.34,7.45,7.45,0,0,1-4.16-4.08,7,7,0,0,1-.26-5.7,7.2,7.2,0,0,1,3.81-4.06,6.35,6.35,0,0,1,4.34-.63,3.66,3.66,0,0,1,2.54,1.94,2,2,0,0,1-.28,2.17l-4,5.52a3.82,3.82,0,0,0,3.9.32,4.07,4.07,0,0,0,1.42-1.07A3.12,3.12,0,0,0,176.52,184.87ZM168,179.54A1.66,1.66,0,0,0,167,181a4.08,4.08,0,0,0,.44,2.26,9.87,9.87,0,0,0,1.72,2.65l1.81-2.68a1.72,1.72,0,0,0,.06-1.7,4.6,4.6,0,0,0-1.3-1.63A1.59,1.59,0,0,0,168,179.54Z"/><path d="M183.65,170.65a2.62,2.62,0,0,1,2.2-.1,3,3,0,0,1,1.58,1.6c.79,1.69.48,2.86-.9,3.51a2,2,0,0,1-1.45.19,1.55,1.55,0,0,1-.91-.64,2.94,2.94,0,0,0-.69-.75.79.79,0,0,0-.83-.09c-.67.31-.6,1.33.2,3.06l2.33,5a2,2,0,0,0,1.34,1c.68.22,1.08.44,1.18.65l.05.11c.15.34,0,.61-.41.82l-5.81,2.69c-.44.2-.73.13-.89-.21l0-.11a2.17,2.17,0,0,1,.08-1.23,2.3,2.3,0,0,0-.08-1.59l-2.5-5.38a1.45,1.45,0,0,0-.75-.77,7.44,7.44,0,0,0-1-.35.81.81,0,0,1-.6-.44l0-.08a1,1,0,0,1,.25-1.07l3-3.55c.31-.3.56-.42.75-.38s.36.21.5.52l.92,2A4,4,0,0,1,183.65,170.65Z"/><path d="M190.92,160.94c-.61.28-.78.82-.51,1.61a6.94,6.94,0,0,0,1.32,2.27,9.69,9.69,0,0,0,1.69,1.63l3.05-1.42a.62.62,0,0,1,.53,0,.64.64,0,0,1,.38.36l.28.59a.67.67,0,0,1-.34.92l-2.94,1.36,3.79,8.16a2.08,2.08,0,0,0,1.36,1c.69.21,1.09.43,1.19.64l.05.11c.16.35,0,.61-.38.8l-5.95,2.77c-.41.19-.7.11-.86-.23l-.05-.11a2.17,2.17,0,0,1,.08-1.23,2.33,2.33,0,0,0-.09-1.62l-3.79-8.16-1.75.82a.67.67,0,0,1-.92-.34l-.27-.59a.66.66,0,0,1,0-.53.64.64,0,0,1,.36-.38l1.76-.82-.63-1.35a6.1,6.1,0,0,1-.41-4.57,6,6,0,0,1,3.48-3.46,5.21,5.21,0,0,1,3.53-.39,3.34,3.34,0,0,1,2.39,1.82,1.79,1.79,0,0,1,.06,1.33,1.85,1.85,0,0,1-1.07,1.11,2.53,2.53,0,0,1-1.58.26,2.17,2.17,0,0,1-1.13-.63,11.47,11.47,0,0,1-.79-1,2.76,2.76,0,0,0-.81-.76A1,1,0,0,0,190.92,160.94Z"/><path d="M212.81,168a.65.65,0,0,1,.58-.48.53.53,0,0,1,.59.39,4.57,4.57,0,0,1-.29,3.49,6.08,6.08,0,0,1-3.26,3.22,7.11,7.11,0,0,1-5.69.34,7.42,7.42,0,0,1-4.16-4.08,7,7,0,0,1-.27-5.7,7.25,7.25,0,0,1,3.82-4.06,6.32,6.32,0,0,1,4.33-.63,3.65,3.65,0,0,1,2.55,1.94,2,2,0,0,1-.28,2.16l-4,5.53a3.8,3.8,0,0,0,3.89.32,4.11,4.11,0,0,0,1.43-1.07A3.17,3.17,0,0,0,212.81,168Zm-8.56-5.33a1.65,1.65,0,0,0-.93,1.42,4.26,4.26,0,0,0,.44,2.26,10.12,10.12,0,0,0,1.72,2.65l1.82-2.68a1.77,1.77,0,0,0,.06-1.7,4.71,4.71,0,0,0-1.3-1.63A1.6,1.6,0,0,0,204.25,162.69Z"/><path d="M224,168.33a7.49,7.49,0,0,1-6,.33,7.26,7.26,0,0,1-4.19-3.85,7,7,0,0,1-.26-5.81,8.44,8.44,0,0,1,8.59-4.91,3.72,3.72,0,0,1,3,2.13,1.67,1.67,0,0,1,.06,1.35,2.24,2.24,0,0,1-1.3,1.14,2.65,2.65,0,0,1-1.92,0,4.74,4.74,0,0,1-1.64-1,5.81,5.81,0,0,0-1.47-1,1.63,1.63,0,0,0-1.45-.09,1.78,1.78,0,0,0-.95,1.52,4.4,4.4,0,0,0,.46,2.38,7.59,7.59,0,0,0,3.17,3.69,4.22,4.22,0,0,0,3.95.1,4,4,0,0,0,2.27-3,.67.67,0,0,1,.54-.53.54.54,0,0,1,.62.35,4.88,4.88,0,0,1,0,4A6.54,6.54,0,0,1,224,168.33Z"/><path d="M236.61,162.48a4.55,4.55,0,0,1-3.83.21,5.94,5.94,0,0,1-2.9-3.16l-3-6.4-1,.47a.62.62,0,0,1-.53,0,.67.67,0,0,1-.38-.36l-.27-.59a.6.6,0,0,1,.33-.91l.51-.24a3.57,3.57,0,0,0,1.79-1.74,3.72,3.72,0,0,0,.24-2.52.81.81,0,0,1,.41-1.05l.62-.28a.69.69,0,0,1,1.05.36l1.27,2.73,2.78-1.29a.62.62,0,0,1,.53,0,.64.64,0,0,1,.38.36l.28.59a.7.7,0,0,1,0,.53.67.67,0,0,1-.36.38l-2.79,1.3,3,6.48a1.73,1.73,0,0,0,.85.91,1.24,1.24,0,0,0,1.05,0,2.21,2.21,0,0,0,1.32-1.83.8.8,0,0,1,.3-.49.6.6,0,0,1,.46-.1.5.5,0,0,1,.35.3,4.67,4.67,0,0,1,.19,3.54A4.75,4.75,0,0,1,236.61,162.48Z"/><path d="M242.37,159.48c-.41.19-.7.11-.86-.23l0-.11a2.23,2.23,0,0,1,.07-1.23,2.33,2.33,0,0,0-.09-1.58L235.7,144a2.43,2.43,0,0,0-1.16-1.12,2.26,2.26,0,0,1-1-.68l-.05-.11c-.09-.2,0-.5.31-.9l3.15-3.89a1.12,1.12,0,0,1,.89-.47.78.78,0,0,1,.62.46l7.8,16.8a2.22,2.22,0,0,0,1.22,1.07,2.08,2.08,0,0,1,1,.7l.05.11c.16.35,0,.62-.41.82Z"/><path d="M258.13,136.39c.41-.19.7-.11.86.23l.05.11a2.25,2.25,0,0,1-.1,1.39,6,6,0,0,0-.26,1.66v13.37a17.73,17.73,0,0,1,0,1.84,17.91,17.91,0,0,1-.31,2,5.2,5.2,0,0,1-.89,2,4.28,4.28,0,0,1-1.64,1.34,5.39,5.39,0,0,1-3.54.49,3,3,0,0,1-2.21-1.63,2.07,2.07,0,0,1-.13-1.62,2.11,2.11,0,0,1,1.16-1.17,1.94,1.94,0,0,1,1.66-.07,2.68,2.68,0,0,1,1.19.94,6.9,6.9,0,0,0,.94,1.06c.34.3.64.39.91.26.7-.32,1-1.89.91-4.69l-10.52-8.29a7.4,7.4,0,0,0-1.49-.83,2.08,2.08,0,0,1-1.12-.84l-.06-.11c-.15-.34,0-.61.39-.8l5.81-2.7c.39-.18.68-.1.84.26l.05.11a1.25,1.25,0,0,1,0,.74,2.46,2.46,0,0,0,0,.8,2.71,2.71,0,0,0,.72,1l5.77,5.21-.31-7.18c-.12-.76-.32-1.23-.64-1.4a4.62,4.62,0,0,0-1.15-.43q-.69-.18-.81-.45l-.05-.11c-.17-.35,0-.63.37-.82Z"/><path d="M158.91,218.53a7,7,0,0,1,4.44-.06,4.86,4.86,0,0,1,2.87,2.65,4.93,4.93,0,0,1-.44,5c-1.06,1.67-3.09,3.21-6.1,4.6l-7.4,3.44c-.43.2-.73.13-.89-.21l0-.11a2.2,2.2,0,0,1,.08-1.24,2.27,2.27,0,0,0-.08-1.58l-6.17-13.3a2.32,2.32,0,0,0-1.16-1.08,2.14,2.14,0,0,1-1-.74l0-.11c-.16-.34,0-.61.41-.81l7.48-3.48a9.63,9.63,0,0,1,5.91-1.1,4.64,4.64,0,0,1,3.43,2.68,4.35,4.35,0,0,1,.34,3A4.61,4.61,0,0,1,158.91,218.53Zm-8.71-2.71,1.58,3.4a1.48,1.48,0,0,0,.88.84,1.62,1.62,0,0,0,1.23-.11l1.35-.63a2.34,2.34,0,0,0,1.33-1.45,2.93,2.93,0,0,0-.24-2.14,4.45,4.45,0,0,0-2.08-2.32,3,3,0,0,0-2.68.06l-.76.35C150,214.22,149.76,214.88,150.2,215.82ZM160,228.27a2.79,2.79,0,0,0,1.62-1.69,3.11,3.11,0,0,0-.23-2.38,4.9,4.9,0,0,0-2.74-2.47,5.14,5.14,0,0,0-4.23.26l-1.13.53,2.32,5a2.76,2.76,0,0,0,1.32,1.39,2,2,0,0,0,1.77,0Z"/><path d="M181.55,217a2.94,2.94,0,0,0,.79.89,1.36,1.36,0,0,0,.69.29,2,2,0,0,1,.55.08.59.59,0,0,1,.38.31q.4.9-2.64,2.31a4.84,4.84,0,0,1-2,.57,1.56,1.56,0,0,1-1.24-.65,4.34,4.34,0,0,1-2.78,3,6.67,6.67,0,0,1-4.17.66,3.92,3.92,0,0,1-2.84-2.39,4.06,4.06,0,0,1,0-3.7,6.1,6.1,0,0,1,3-2.7,5.83,5.83,0,0,1,3-.59l0-.08a20.16,20.16,0,0,0-2.29-3.34,1.43,1.43,0,0,0-1.75-.33,1.25,1.25,0,0,0-.73,1,4.21,4.21,0,0,0,0,1.5,3.42,3.42,0,0,1-.09,1.55,1.78,1.78,0,0,1-1,1.17,2.13,2.13,0,0,1-1.59.15,1.89,1.89,0,0,1-1.12-1,2.8,2.8,0,0,1,.47-3.09,9.17,9.17,0,0,1,3.47-2.58,7.38,7.38,0,0,1,5.15-.6,6.55,6.55,0,0,1,4,3Zm-5.39,4.73a1.3,1.3,0,0,0,.74-1.06,2.56,2.56,0,0,0-.24-1.53l-.68-1.2c-.88-1.41-1.78-1.89-2.72-1.46a1.32,1.32,0,0,0-.77,1,2.45,2.45,0,0,0,.24,1.52,6.91,6.91,0,0,0,1.66,2.33A1.6,1.6,0,0,0,176.16,221.72Z"/><path d="M185.59,218.69c-.41.19-.7.12-.86-.22l0-.11a2.14,2.14,0,0,1,.07-1.23,2.26,2.26,0,0,0-.1-1.58l-5.73-12.35a2.39,2.39,0,0,0-1.16-1.12,2.34,2.34,0,0,1-1-.69l-.05-.11c-.09-.2,0-.49.31-.89l3.15-3.9a1.07,1.07,0,0,1,.88-.46.75.75,0,0,1,.63.45l7.8,16.81a2.22,2.22,0,0,0,1.21,1.06c.6.26,1,.49,1.06.71l.05.11c.15.34,0,.61-.41.81Z"/><path d="M204.84,206.17a3,3,0,0,0,.79.9,1.45,1.45,0,0,0,.69.29,2,2,0,0,1,.55.07.54.54,0,0,1,.37.32c.28.59-.6,1.36-2.63,2.31a4.92,4.92,0,0,1-2,.56,1.55,1.55,0,0,1-1.24-.64,4.38,4.38,0,0,1-2.78,3,6.67,6.67,0,0,1-4.17.66,4,4,0,0,1-2.84-2.4,4,4,0,0,1,0-3.69,6.06,6.06,0,0,1,2.95-2.7,5.83,5.83,0,0,1,3.05-.59l0-.08a20.16,20.16,0,0,0-2.29-3.34,1.42,1.42,0,0,0-1.75-.34,1.29,1.29,0,0,0-.74,1,4.72,4.72,0,0,0,0,1.5,3.41,3.41,0,0,1-.09,1.55,1.78,1.78,0,0,1-1,1.17,2.13,2.13,0,0,1-1.59.15,1.83,1.83,0,0,1-1.12-1,2.8,2.8,0,0,1,.47-3.09,9.46,9.46,0,0,1,3.47-2.58,7.49,7.49,0,0,1,5.15-.6,6.59,6.59,0,0,1,3.95,3Zm-5.39,4.74a1.31,1.31,0,0,0,.74-1.07,2.67,2.67,0,0,0-.24-1.53l-.68-1.19c-.88-1.41-1.78-1.9-2.72-1.47a1.36,1.36,0,0,0-.77,1,2.43,2.43,0,0,0,.25,1.51,6.66,6.66,0,0,0,1.65,2.33A1.6,1.6,0,0,0,199.45,210.91Z"/><path d="M221.67,198.36a3,3,0,0,0,1.14,1.1,2.15,2.15,0,0,1,.92.79l.06.11c.15.35,0,.62-.41.82L218,203.69c-.43.2-.73.13-.89-.22l-.05-.1a2.3,2.3,0,0,1,.05-1.24,2.12,2.12,0,0,0-.17-1.57l-2.51-4.71a8.9,8.9,0,0,0-1.84-2.59,1.54,1.54,0,0,0-1.73-.21,1.59,1.59,0,0,0-1,1.31,3.89,3.89,0,0,0,.45,2.12l2.73,5.89a2.3,2.3,0,0,0,1.23,1.08c.6.26,1,.5,1.06.72l0,.11c.16.34,0,.61-.4.81l-5.84,2.71c-.43.2-.73.13-.89-.21l-.05-.11a2.2,2.2,0,0,1,.13-1.27,2.26,2.26,0,0,0,0-1.63l-2.47-5.32a1.53,1.53,0,0,0-.8-.8,5.9,5.9,0,0,0-1-.34.92.92,0,0,1-.65-.44l0-.08c-.11-.24,0-.56.33-1l2.92-3.62c.27-.3.53-.43.76-.37a.86.86,0,0,1,.57.54l.59,1.27a4.47,4.47,0,0,1,2.92-3.82,5.51,5.51,0,0,1,4.1-.29,6.84,6.84,0,0,1,3.67,3.52Z"/><path d="M232.11,197.42a7.49,7.49,0,0,1-6,.33,7.26,7.26,0,0,1-4.19-3.85,7,7,0,0,1-.26-5.81,8.44,8.44,0,0,1,8.59-4.91,3.72,3.72,0,0,1,3,2.13,1.67,1.67,0,0,1,.06,1.35,2.23,2.23,0,0,1-1.3,1.13,2.6,2.6,0,0,1-1.92,0,4.74,4.74,0,0,1-1.64-1,5.57,5.57,0,0,0-1.47-1,1.63,1.63,0,0,0-1.45-.09,1.77,1.77,0,0,0-.95,1.52,4.42,4.42,0,0,0,.46,2.38,7.52,7.52,0,0,0,3.17,3.68,4.17,4.17,0,0,0,3.94.11,4,4,0,0,0,2.28-3,.67.67,0,0,1,.54-.53.53.53,0,0,1,.62.35,4.88,4.88,0,0,1,0,4A6.54,6.54,0,0,1,232.11,197.42Z"/><path d="M248.05,184.5a.68.68,0,0,1,.58-.49.54.54,0,0,1,.59.4,4.54,4.54,0,0,1-.28,3.48,6.15,6.15,0,0,1-3.27,3.23,7.15,7.15,0,0,1-5.69.34,7.42,7.42,0,0,1-4.16-4.08,7,7,0,0,1-.26-5.7,7.2,7.2,0,0,1,3.81-4.06,6.35,6.35,0,0,1,4.34-.63,3.63,3.63,0,0,1,2.54,1.94,1.94,1.94,0,0,1-.28,2.16l-4,5.53a3.84,3.84,0,0,0,3.9.32,4.2,4.2,0,0,0,1.42-1.07A3.07,3.07,0,0,0,248.05,184.5Zm-8.55-5.33a1.68,1.68,0,0,0-.94,1.42,4.18,4.18,0,0,0,.45,2.26,9.87,9.87,0,0,0,1.72,2.65l1.81-2.68a1.73,1.73,0,0,0,.06-1.71,4.9,4.9,0,0,0-1.3-1.63A1.6,1.6,0,0,0,239.5,179.17Z"/><path d="M264.6,178.42a2.36,2.36,0,0,0,1.17,1.09,2.09,2.09,0,0,1,1,.73l.05.11c.16.34,0,.61-.38.8l-3.86,1.79a.67.67,0,0,1-1-.34l-.11-.25a5.09,5.09,0,0,1-2.75,2.72,6.9,6.9,0,0,1-5.33.29,7.17,7.17,0,0,1-4.18-4.08,7.29,7.29,0,0,1-.36-5.73,6.74,6.74,0,0,1,3.63-4,5.43,5.43,0,0,1,3.13-.54l-1.67-3.59a1.47,1.47,0,0,0-.78-.77,5.9,5.9,0,0,0-1-.34.88.88,0,0,1-.65-.44l0-.08a.8.8,0,0,1,.3-1l3.62-3.23c.68-.62,1.18-.59,1.49.1Zm-5.44,4.83a1.61,1.61,0,0,0,.95-1.17,2.86,2.86,0,0,0-.28-1.91L257.41,175a4.26,4.26,0,0,0-1.83-2,2.29,2.29,0,0,0-2.17-.26q-2,.93-.59,4.31a15.61,15.61,0,0,0,1.6,2.84,12.93,12.93,0,0,0,2.42,2.67C257.75,183.28,258.52,183.52,259.16,183.25Z"/><path d="M67.94,169.32c-.76.36-1.28.23-1.56-.37l-.08-.19a3.78,3.78,0,0,1,.14-2.18,4.12,4.12,0,0,0-.14-2.8L55.42,140.37a4.07,4.07,0,0,0-2-1.91,3.84,3.84,0,0,1-1.76-1.3l-.09-.19c-.28-.6,0-1.08.72-1.43l11.23-5.22q10-4.62,17.68-2.48A18.42,18.42,0,0,1,93,152.1q-3,7-11.39,10.9Zm11.88-9.56,1.9-.88a8.11,8.11,0,0,0,4.59-5.08c.7-2.3.36-5-1-8a28.85,28.85,0,0,0-5.46-8,18.13,18.13,0,0,0-7.1-4.69,9.09,9.09,0,0,0-7,.2l-.52.24q-2.14,1-1.08,3.28l9.26,19.94a6,6,0,0,0,2.77,3.11A4.16,4.16,0,0,0,79.82,159.76Z"/><path d="M118.85,136.55a1.16,1.16,0,0,1,1-.85.94.94,0,0,1,1,.69q1,2.43-.51,6.14a10.72,10.72,0,0,1-5.75,5.68,12.55,12.55,0,0,1-10,.6,13.1,13.1,0,0,1-7.33-7.18,12.33,12.33,0,0,1-.47-10,12.73,12.73,0,0,1,6.72-7.14c2.89-1.34,5.43-1.72,7.64-1.12a6.46,6.46,0,0,1,4.48,3.42,3.42,3.42,0,0,1-.49,3.81l-7,9.73a6.72,6.72,0,0,0,6.86.57,7.46,7.46,0,0,0,2.51-1.89A5.42,5.42,0,0,0,118.85,136.55Zm-15.06-9.38a2.91,2.91,0,0,0-1.65,2.5,7.42,7.42,0,0,0,.78,4,17.07,17.07,0,0,0,3,4.67l3.18-4.72a3,3,0,0,0,.11-3,8.25,8.25,0,0,0-2.28-2.87A2.81,2.81,0,0,0,103.79,127.17Z"/><path d="M127.19,141.81c-.73.34-1.23.21-1.51-.4l-.09-.19a3.74,3.74,0,0,1,.12-2.16,4.2,4.2,0,0,0-.16-2.79l-10.1-21.75a4.28,4.28,0,0,0-2-2,3.92,3.92,0,0,1-1.69-1.21l-.09-.19c-.16-.35,0-.88.54-1.58l5.55-6.86a1.86,1.86,0,0,1,1.56-.81,1.31,1.31,0,0,1,1.1.79l13.74,29.6a3.9,3.9,0,0,0,2.14,1.87c1.06.45,1.68.87,1.85,1.25l.09.19c.28.61,0,1.08-.72,1.44Z"/><path d="M135.36,106.83a6.22,6.22,0,0,1-4.58.48,5,5,0,0,1-3.16-6.8,7,7,0,0,1,7.86-3.65,5,5,0,0,1,3.16,6.81A6.23,6.23,0,0,1,135.36,106.83Zm6.82,28c-.76.35-1.28.23-1.56-.37l-.09-.19a3.88,3.88,0,0,1,.14-2.21,4.22,4.22,0,0,0-.16-2.82l-4.2-9a4.11,4.11,0,0,0-2.06-2,4.11,4.11,0,0,1-1.7-1.15l-.08-.19c-.18-.39,0-.92.58-1.61l5.55-6.86a1.92,1.92,0,0,1,1.53-.82,1.3,1.3,0,0,1,1.08.83L149,125.31a3.94,3.94,0,0,0,2.18,1.88q1.62.69,1.89,1.26l.08.19c.28.6,0,1.09-.77,1.46Z"/><path d="M168.15,123.37a13.18,13.18,0,0,1-10.55.59,12.78,12.78,0,0,1-7.37-6.79,12.2,12.2,0,0,1-.47-10.23,14.88,14.88,0,0,1,15.13-8.64,6.55,6.55,0,0,1,5.33,3.74,2.93,2.93,0,0,1,.09,2.39,3.87,3.87,0,0,1-2.28,2,4.49,4.49,0,0,1-3.38,0,8.17,8.17,0,0,1-2.89-1.78,9.89,9.89,0,0,0-2.58-1.84,2.88,2.88,0,0,0-2.57-.16,3.14,3.14,0,0,0-1.67,2.68,7.8,7.8,0,0,0,.81,4.19,13.36,13.36,0,0,0,5.59,6.49,7.41,7.41,0,0,0,6.95.19,7.06,7.06,0,0,0,4-5.21,1.17,1.17,0,0,1,1-.94.94.94,0,0,1,1.1.62,8.59,8.59,0,0,1-.06,7Q172.77,121.23,168.15,123.37Z"/><path d="M174.67,88.58a6.32,6.32,0,0,1-4.58.48,5,5,0,0,1-3.16-6.81,6.33,6.33,0,0,1,3.32-3.19,6.17,6.17,0,0,1,4.53-.45,5,5,0,0,1,3.16,6.8A6.19,6.19,0,0,1,174.67,88.58Zm6.82,28c-.76.35-1.28.22-1.56-.38l-.09-.19a3.9,3.9,0,0,1,.13-2.2,4.16,4.16,0,0,0-.15-2.82l-4.2-9.05a4.18,4.18,0,0,0-2.07-2c-1-.48-1.56-.86-1.69-1.15l-.09-.19c-.17-.38,0-.91.59-1.6l5.55-6.86a1.88,1.88,0,0,1,1.53-.82,1.29,1.29,0,0,1,1.08.83l7.82,16.84a4,4,0,0,0,2.17,1.88c1.09.46,1.72.89,1.89,1.27l.09.19c.28.6,0,1.08-.77,1.45Z"/><path d="M208.36,104.7a15,15,0,0,1-10.93.94,12.08,12.08,0,0,1-7.8-6.77,11.94,11.94,0,0,1-.14-10.26A14.57,14.57,0,0,1,197,81.06a14.76,14.76,0,0,1,10.8-.91,12.75,12.75,0,0,1,8,17A14.31,14.31,0,0,1,208.36,104.7Zm-.08-2.8q3-1.41.32-7.27a28.37,28.37,0,0,0-3-4.82,22.1,22.1,0,0,0-4.58-4.63q-2.62-2-4.33-1.17a2.7,2.7,0,0,0-1.7,2.58,11.82,11.82,0,0,0,1.37,4.8,22.87,22.87,0,0,0,2.1,3.54,39.86,39.86,0,0,0,3.05,3.82,12.58,12.58,0,0,0,3.53,2.81A3.58,3.58,0,0,0,208.28,101.9Z"/><path d="M245.16,80.66a5.22,5.22,0,0,0,1.22,1.81c.41.35.76.49,1.05.41a1.55,1.55,0,0,1,.88,0,1.33,1.33,0,0,1,.73.76c.28.61.07,1.21-.64,1.81a17.19,17.19,0,0,1-3.53,2,7.33,7.33,0,0,1-3.55.9,3,3,0,0,1-2.21-1.58c-.35,2.55-2.13,4.58-5.34,6.06a9.62,9.62,0,0,1-7.51.46,10.14,10.14,0,0,1-5.74-5.7l-3.69-8a4,4,0,0,0-2.06-1.93,3.77,3.77,0,0,1-1.7-1.18L213,76.4a1.16,1.16,0,0,1,.59-1.6l6.65-4.25c1.4-.88,2.29-.91,2.67-.08l6.4,14.15a9.07,9.07,0,0,0,2.6,3.79,2.79,2.79,0,0,0,3,.17,2.94,2.94,0,0,0,1.63-2.35,6.66,6.66,0,0,0-.7-3.87l-4.38-9.42A4.08,4.08,0,0,0,229.33,71a3.77,3.77,0,0,1-1.7-1.17l-.09-.19a1.16,1.16,0,0,1,.59-1.6l6.65-4.25c1.3-.84,2.15-.84,2.53,0Z"/><path d="M262.4,79.54a17.71,17.71,0,0,1-8.24,1.95q-3.66-.18-4.82-2.65a3.09,3.09,0,0,1-.13-2.72,4.12,4.12,0,0,1,2.1-1.9,3.7,3.7,0,0,1,3-.17,6,6,0,0,1,2.33,1.64,6.68,6.68,0,0,0,2.18,1.71,2.81,2.81,0,0,0,2.57,0q2.56-1.2,1.35-3.81a3.58,3.58,0,0,0-2.57-2.11,10.42,10.42,0,0,0-3.87,0c-1.4.23-2.81.4-4.24.52a7.88,7.88,0,0,1-4.18-.78,7.28,7.28,0,0,1-2.85-10,13.34,13.34,0,0,1,6.3-5.38,15.42,15.42,0,0,1,8-1.69c2.38.25,3.93,1.17,4.67,2.76a3,3,0,0,1,0,2.5,3.6,3.6,0,0,1-1.88,1.88,3.45,3.45,0,0,1-2.93.15A5.81,5.81,0,0,1,257,59.75,8.44,8.44,0,0,0,255,58a2.18,2.18,0,0,0-2.21-.19,2.12,2.12,0,0,0-1.26,1.57,3.42,3.42,0,0,0,.29,2.18,4,4,0,0,0,2.58,2.27,9.47,9.47,0,0,0,3.82.25c1.37-.17,2.75-.31,4.15-.42a7.94,7.94,0,0,1,4.05.75A6.86,6.86,0,0,1,269.07,74Q267.21,77.31,262.4,79.54Z"/><path d="M245.09,229.14c.92-.45,1.85-.91,2.79-1.34.08-.05.3.06.38.16a2.87,2.87,0,0,1,.25.53q4,8.55,7.94,17.09c.16.33.16.51-.22.67-.9.36-1.78.77-2.66,1.16h0c-.1-.19-.22-.37-.31-.56L245.41,230c-.13-.26-.21-.55-.32-.82Z"/><path d="M210.74,267.3c-.92.45-1.85.91-2.79,1.35a.46.46,0,0,1-.38-.15,2.83,2.83,0,0,1-.28-.58q-4-8.52-7.92-17.05c-.16-.34-.15-.52.23-.67.9-.37,1.78-.78,2.66-1.17h0c.13.24.26.46.37.7q3.94,8.47,7.88,17c.09.21.17.43.25.64Z"/><path d="M208.84,231.05c-.46-.93-.92-1.85-1.35-2.79a.47.47,0,0,1,.15-.39,2.37,2.37,0,0,1,.48-.23q8.58-4,17.14-8c.35-.16.52-.13.67.24.37.89.78,1.77,1.17,2.66v0c-.26.14-.52.29-.78.41l-16.73,7.77c-.26.12-.52.21-.78.32Z"/><path d="M247,265.39c.45.93.91,1.86,1.34,2.8a.43.43,0,0,1-.15.38,2.75,2.75,0,0,1-.57.28l-17.05,7.93c-.35.16-.52.12-.67-.25-.38-.89-.78-1.77-1.17-2.66v0c.25-.13.49-.27.74-.39L246,265.84c.34-.16.69-.3,1-.44Z"/><path d="M227.1,222.57c1.94-.91,3.88-1.81,5.81-2.73.28-.13.42,0,.53.22.35.77.72,1.52,1.05,2.29.14.32.28.38.6.22.72-.36,1.46-.67,2.18-1,.38-.19.55-.1.7.27.31.73.68,1.43,1,2.16.16.38.34.4.67.23.71-.36,1.44-.66,2.14-1,.34-.17.51-.13.68.24.87,1.92,1.76,3.82,2.65,5.73h0c-.86.4-1.74.79-2.59,1.22-.42.22-.6.1-.78-.3-.77-1.71-1.58-3.41-2.35-5.11-.17-.37-.32-.47-.7-.27-.67.35-1.38.63-2,1-.4.2-.61.16-.79-.28-.28-.68-.64-1.33-.92-2-.17-.42-.35-.49-.77-.29-1.69.81-3.4,1.58-5.09,2.39-.4.19-.59.11-.76-.28-.37-.88-.78-1.74-1.18-2.61Z"/><path d="M253.57,247.41c.9,1.92,1.79,3.85,2.7,5.77.15.32.07.47-.24.6-.72.32-1.42.68-2.15,1-.39.17-.51.32-.29.73.37.7.67,1.43,1,2.14.16.32.13.49-.22.64-.76.32-1.49.7-2.25,1-.31.14-.38.29-.22.6.38.75.71,1.52,1.08,2.28.12.25.11.42-.17.55-2,.88-3.89,1.78-5.84,2.67h0c-.41-.87-.8-1.74-1.23-2.59-.19-.38-.13-.57.27-.75,1.74-.78,3.47-1.61,5.2-2.4.33-.15.42-.28.24-.62-.36-.71-.66-1.44-1-2.14-.18-.36-.12-.57.26-.73.71-.31,1.4-.67,2.11-1,.38-.16.44-.33.26-.7-.82-1.71-1.59-3.44-2.41-5.15-.19-.4-.1-.58.29-.75.88-.38,1.74-.79,2.6-1.19Z"/><path d="M202.26,249c-.91-1.94-1.81-3.88-2.73-5.81-.13-.28,0-.42.22-.53.76-.35,1.52-.71,2.29-1.05.31-.13.38-.28.22-.59-.36-.74-.68-1.5-1-2.23-.17-.34-.11-.5.23-.64.76-.33,1.49-.7,2.25-1,.32-.14.36-.29.21-.6-.37-.74-.7-1.49-1.06-2.23-.12-.26-.16-.45.16-.59l5.84-2.68h0c.4.85.77,1.71,1.2,2.54.22.43.13.63-.3.82-1.71.77-3.41,1.58-5.11,2.37-.14.06-.28.14-.45.23.42.9.8,1.75,1.21,2.6.16.32.1.5-.24.65-.72.32-1.43.68-2.16,1-.37.15-.44.3-.26.69.83,1.72,1.62,3.46,2.44,5.19.16.34.1.53-.26.68-.89.39-1.76.81-2.65,1.21Z"/><path d="M228.72,273.87l-5.8,2.74c-.28.13-.42.05-.54-.22-.34-.76-.71-1.52-1-2.29-.14-.31-.29-.38-.6-.23-.74.37-1.5.69-2.23,1.06-.33.17-.49.1-.64-.23-.32-.76-.7-1.49-1-2.25-.14-.33-.3-.36-.6-.21-.75.37-1.52.71-2.28,1.08-.26.13-.42.09-.55-.19-.88-1.94-1.78-3.89-2.68-5.83h0c.85-.39,1.71-.77,2.54-1.19.44-.23.63-.14.83.3.77,1.72,1.59,3.43,2.37,5.15.16.35.31.4.63.23.55-.29,1.13-.54,1.7-.8,1.06-.49.89-.51,1.37.5l1,2.13.55-.26c1.71-.79,3.41-1.57,5.11-2.37.34-.17.53-.12.69.24.38.89.8,1.77,1.21,2.65Z"/><path d="M235.41,263.41l-8.56,4c-.63.3-.63.3-.91-.31s-.66-1.37-.95-2.07c-.14-.33-.3-.36-.6-.2-.69.34-1.41.64-2.1,1-.43.23-.64.12-.82-.31-.3-.71-.66-1.4-1-2.11-.14-.33-.29-.37-.6-.22-.72.37-1.47.68-2.19,1-.35.17-.53.09-.68-.26q-1.22-2.64-2.46-5.28c-.17-.35-.1-.54.25-.69.75-.33,1.5-.68,2.24-1,.36-.18.53-.06.68.27.79,1.72,1.6,3.43,2.38,5.16.18.39.34.47.73.27.7-.37,1.43-.67,2.15-1a.39.39,0,0,1,.62.22c.33.75.7,1.49,1,2.25.14.32.29.36.6.22,5.82-2.72,10.81-5,16.64-7.73.31-.15.37-.29.21-.6-.36-.72-.67-1.46-1-2.19-.18-.34-.1-.53.25-.68.74-.33,1.46-.69,2.21-1,.32-.14.36-.29.21-.6-.81-1.72-1.6-3.47-2.43-5.19-.2-.42-.11-.61.3-.78.73-.31,1.44-.65,2.15-1,.34-.17.53-.11.7.25.8,1.76,1.62,3.53,2.45,5.28.16.34.12.54-.24.7-.73.31-1.43.67-2.16,1-.35.15-.44.29-.26.66.36.68.64,1.41,1,2.09.22.42.1.62-.3.79-.72.3-1.4.66-2.12,1-.35.15-.38.31-.22.63.35.69.64,1.41,1,2.1.21.42.11.6-.3.79Z"/><path d="M217.58,241.88c.87,1.87,1.21,2.63,2.09,4.48.21.44.12.65-.31.83-.73.3-1.44.64-2.15,1-.32.15-.5.1-.66-.23-1.76-3.83-3-6.54-4.8-10.35-.16-.34-.08-.51.25-.66.73-.32,1.47-.66,2.19-1,.38-.19.58-.13.76.27C215.81,238.1,216.7,240,217.58,241.88Z"/><path d="M229.7,236.17c-.87-1.86-1.73-3.73-2.61-5.59-.18-.38-.16-.59.26-.77.74-.31,1.47-.66,2.19-1,.34-.17.53-.11.69.25,1.76,3.81,3,6.5,4.79,10.3.17.36.08.53-.26.68-.73.32-1.45.65-2.15,1-.4.2-.61.13-.8-.29C231,238.85,230.58,238.07,229.7,236.17Z"/></svg>