<svg xmlns="http://www.w3.org/2000/svg" xmlns:xlink="http://www.w3.org/1999/xlink" viewBox="0 0 210 179.72" width="137" height="117"><defs><clipPath id="a"><path d="M1779.43,187.42a21.74,21.74,0,0,0-21.74,21.75v203.1A21.74,21.74,0,0,0,1779.43,434h129.65c67.81,0,123.29-55.48,123.29-123.29s-55.48-123.3-123.29-123.3Z" fill="none"/></clipPath></defs><path d="M206.15,61c0,31.87-45.29,57.71-101.15,57.71S3.85,92.88,3.85,61,49.14,3.3,105,3.3,206.15,29.13,206.15,61" fill="#76a780"/><path d="M206.15,118.72c0,31.87-45.29,57.71-101.15,57.71S3.85,150.59,3.85,118.72,49.14,61,105,61s101.15,25.83,101.15,57.71" fill="#76a780"/><path d="M65.07,79.37a8.18,8.18,0,0,0,1.34,1.7c.49.49.88.85,1.15,1.11a1.17,1.17,0,0,1,.4.89v.17q0,.81-1,.81H56.42c-.65,0-1-.27-1-.81v-.17A1.67,1.67,0,0,1,56,82,6.58,6.58,0,0,0,56.91,81c.19-.3.14-.81-.15-1.52l-5.95-10-3.33,3.36v6.6a3.27,3.27,0,0,0,.94,2.13,3.12,3.12,0,0,1,.94,1.57v.17q0,.81-1,.81H39.06c-.69,0-1-.27-1-.81v-.17a3.22,3.22,0,0,1,.85-1.57,3.41,3.41,0,0,0,.86-2.13V58.47a3.32,3.32,0,0,0-.86-2.11A3.14,3.14,0,0,1,38,54.81v-.18c0-.53.34-.8,1-.8h9.28c.68,0,1,.27,1,.8v.18c0,.34-.32.85-.94,1.55a3.19,3.19,0,0,0-.94,2.11v9.7l9.41-9.66c.49-.65.71-1.13.66-1.43A3.08,3.08,0,0,0,57,55.93a2.27,2.27,0,0,1-.44-1.12v-.18c0-.53.33-.8,1-.8h6.94c.68,0,1,.27,1,.8v.18a1.35,1.35,0,0,1-.58,1A18,18,0,0,1,63.34,57a10.43,10.43,0,0,0-1.81,1.49L56,64.09Z"/><path d="M85.71,77.33a1,1,0,0,1,1.05-.28.77.77,0,0,1,.53.87,6.53,6.53,0,0,1-2.47,4.34,8.7,8.7,0,0,1-6.17,2.22,10.2,10.2,0,0,1-7.58-3,10.63,10.63,0,0,1-2.94-7.79,10,10,0,0,1,3.09-7.56,10.31,10.31,0,0,1,7.38-3,9.09,9.09,0,0,1,6,1.79,5.21,5.21,0,0,1,2.13,4,2.79,2.79,0,0,1-1.66,2.64L76.6,76.43a5.45,5.45,0,0,0,4.86,2.77A6,6,0,0,0,84,78.67,4.44,4.44,0,0,0,85.71,77.33Zm-7.87-12a2.36,2.36,0,0,0-2.07,1.28A6,6,0,0,0,75,69.75a14.35,14.35,0,0,0,.63,4.47l4-2.39a2.48,2.48,0,0,0,1.11-2.17,6.73,6.73,0,0,0-.7-2.89A2.29,2.29,0,0,0,77.84,65.28Z"/><path d="M106.7,77.33a1,1,0,0,1,1-.28.77.77,0,0,1,.53.87,6.53,6.53,0,0,1-2.47,4.34,8.7,8.7,0,0,1-6.17,2.22,10.18,10.18,0,0,1-7.58-3,10.63,10.63,0,0,1-2.94-7.79,10,10,0,0,1,3.09-7.56,10.29,10.29,0,0,1,7.38-3,9.09,9.09,0,0,1,6,1.79,5.23,5.23,0,0,1,2.12,4,2.77,2.77,0,0,1-1.66,2.64l-8.47,4.77a5.45,5.45,0,0,0,4.85,2.77,6,6,0,0,0,2.49-.53A4.48,4.48,0,0,0,106.7,77.33Zm-7.87-12a2.35,2.35,0,0,0-2.07,1.28A6,6,0,0,0,96,69.75a14.34,14.34,0,0,0,.64,4.47l4-2.39a2.48,2.48,0,0,0,1.11-2.17,6.88,6.88,0,0,0-.7-2.89A2.29,2.29,0,0,0,98.83,65.28Z"/><path d="M123.48,63.19a10.2,10.2,0,0,1,7,2.71,9.61,9.61,0,0,1,3,7.59,10.87,10.87,0,0,1-3,7.94,9.52,9.52,0,0,1-7.08,3,7.31,7.31,0,0,1-4.35-1.24V88.4a3.12,3.12,0,0,0,1,2.1q1,1.05,1,1.56v.17c0,.54-.34.8-1,.8h-9c-.68,0-1-.26-1-.8v-.17a3.08,3.08,0,0,1,.85-1.56,3.3,3.3,0,0,0,.85-2.1V70.94a2.46,2.46,0,0,0-1-1.85c-.68-.58-1-1.06-1-1.43v-.21c0-.45.33-.87,1-1.24l5.62-2.76a1.58,1.58,0,0,1,1.36-.13,1.06,1.06,0,0,1,.43,1v1.23Q119.68,63.19,123.48,63.19Zm-.69,19.2Q126,82.39,126,77a33.73,33.73,0,0,0-.4-5.11,15.5,15.5,0,0,0-1.45-4.6q-1.05-2-2.49-2a2.19,2.19,0,0,0-1.85.93,4,4,0,0,0-.71,2.43v7.71a7.81,7.81,0,0,0,1.11,4.34A3.12,3.12,0,0,0,122.79,82.39Z"/><path d="M145.4,84.05q-1,0-1-.81v-.17a3.13,3.13,0,0,1,.85-1.57,3.4,3.4,0,0,0,.85-2.13V71.28a3.36,3.36,0,0,0-.85-2.15,3.17,3.17,0,0,1-.85-1.43v-.17c0-.34.32-.66,1-1l6.43-3.16a1.56,1.56,0,0,1,1.4-.08,1.05,1.05,0,0,1,.51,1V79.37a3.21,3.21,0,0,0,1,2.13c.64.71,1,1.23,1,1.57v.17c0,.54-.36.81-1.07.81ZM150,61.11a5.13,5.13,0,0,1-3.54-1.22,4.09,4.09,0,0,1,0-6.09A5.17,5.17,0,0,1,150,52.59a5.11,5.11,0,0,1,3.49,1.21,4.09,4.09,0,0,1,0,6.09A5.07,5.07,0,0,1,150,61.11Z"/><path d="M166.43,84.48a6.51,6.51,0,0,1-5.09-2,8.39,8.39,0,0,1-1.85-5.83V66.51h-1.62a1,1,0,0,1-.7-.27,1,1,0,0,1-.28-.71V64.6a.86.86,0,0,1,1-1h.81a5.1,5.1,0,0,0,3.37-1.17,5.53,5.53,0,0,0,1.83-3.13c.14-.74.52-1.11,1.15-1.11h1a1,1,0,0,1,1.15,1.11v4.3h4.38a.94.94,0,0,1,1,1v.93a.94.94,0,0,1-1,1h-4.38V76.73a2.41,2.41,0,0,0,.55,1.68,1.76,1.76,0,0,0,1.36.62,3.12,3.12,0,0,0,2.81-1.58,1.11,1.11,0,0,1,.68-.44.76.76,0,0,1,.66.15.69.69,0,0,1,.28.59,6.66,6.66,0,0,1-1.9,4.71A6.75,6.75,0,0,1,166.43,84.48Z"/><path d="M68.58,127.05a13.3,13.3,0,0,1-10.41-4.77A16.32,16.32,0,0,1,54,111.13a15.46,15.46,0,0,1,3.91-10.84A13.26,13.26,0,0,1,68.15,96a15.5,15.5,0,0,1,8.69,2.41q3.66,2.4,3.66,5.73a3.22,3.22,0,0,1-1,2.42,3.51,3.51,0,0,1-2.57.94,4.2,4.2,0,0,1-2.6-.87,7.51,7.51,0,0,1-1.9-2.11c-.49-.82-1-1.65-1.51-2.49a8.12,8.12,0,0,0-1.85-2.13A3.86,3.86,0,0,0,66.62,99,4.44,4.44,0,0,0,63,101a8.72,8.72,0,0,0-1.51,5.4,16,16,0,0,0,2.89,9.86q2.9,3.86,6.69,3.85a7.57,7.57,0,0,0,2.57-.42,6.72,6.72,0,0,0,2.09-1.22,10.79,10.79,0,0,0,1.4-1.38c.33-.4.71-.89,1.13-1.49a1.37,1.37,0,0,1,1.49-.49,1.1,1.1,0,0,1,.85,1.26,10.88,10.88,0,0,1-3.25,7.53Q74.24,127,68.58,127.05Z"/><path d="M94.42,127.05a12.13,12.13,0,0,1-8.36-3,9.79,9.79,0,0,1-3.43-7.65,9.67,9.67,0,0,1,3.4-7.59,11.8,11.8,0,0,1,8.09-3,12,12,0,0,1,8.26,3,10.33,10.33,0,0,1,.09,15.26A11.6,11.6,0,0,1,94.42,127.05Zm.89-2.09Q98,125,98,119.73a23.92,23.92,0,0,0-.53-4.56,18.07,18.07,0,0,0-1.79-5q-1.26-2.34-2.79-2.34a2.2,2.2,0,0,0-2.13,1.32,9.67,9.67,0,0,0-.64,4,20,20,0,0,0,.34,3.32,32.82,32.82,0,0,0,.94,3.86,10,10,0,0,0,1.64,3.27A2.87,2.87,0,0,0,95.31,125Z"/><path d="M119.58,127.05a12.13,12.13,0,0,1-8.36-3,9.79,9.79,0,0,1-3.43-7.65,9.67,9.67,0,0,1,3.4-7.59,11.8,11.8,0,0,1,8.09-3,12,12,0,0,1,8.26,3,10.33,10.33,0,0,1,.09,15.26A11.6,11.6,0,0,1,119.58,127.05Zm.89-2.09q2.73,0,2.73-5.23a23.92,23.92,0,0,0-.53-4.56,18.07,18.07,0,0,0-1.79-5q-1.26-2.34-2.79-2.34a2.2,2.2,0,0,0-2.13,1.32,9.67,9.67,0,0,0-.64,4,20,20,0,0,0,.34,3.32,32.82,32.82,0,0,0,.94,3.86,10,10,0,0,0,1.64,3.27A2.87,2.87,0,0,0,120.47,125Z"/><path d="M133.93,126.62c-.66,0-1-.26-1-.8v-.17a3.07,3.07,0,0,1,.83-1.56,3.39,3.39,0,0,0,.83-2.11V102.53a3.43,3.43,0,0,0-.83-2.15,3.17,3.17,0,0,1-.83-1.47v-.17c0-.31.31-.64.94-1l6.42-3.15a1.52,1.52,0,0,1,1.43-.06,1,1,0,0,1,.53,1V122a3.14,3.14,0,0,0,.94,2.11,3,3,0,0,1,.93,1.56v.17c0,.54-.34.8-1,.8Z"/><path d="M154.32,126.16a5,5,0,0,1-3.24,1,4.94,4.94,0,0,1-3.21-1,3.62,3.62,0,0,1-1.26-3,3.69,3.69,0,0,1,1.26-3,4.89,4.89,0,0,1,3.21-1,5,5,0,0,1,3.24,1,3.68,3.68,0,0,1,1.28,3A3.6,3.6,0,0,1,154.32,126.16Zm-4.73-9.92a87.75,87.75,0,0,1-1.68-9.58q-.61-5.07-.66-8A2.17,2.17,0,0,1,148,97,3.55,3.55,0,0,1,150,96.1a8.08,8.08,0,0,1,2.25,0,3.57,3.57,0,0,1,1.92.83,2.17,2.17,0,0,1,.79,1.7,74,74,0,0,1-.58,8.24,65.06,65.06,0,0,1-1.77,9.39c-.14.54-.64.8-1.49.78S149.74,116.75,149.59,116.24Z"/></svg>