<svg xmlns="http://www.w3.org/2000/svg" viewBox="0 0 310 306.8" width="200" height="198"><path d="M241.59,95.61,56.09,120.93A46.38,46.38,0,0,1,4,81.37H4A46.36,46.36,0,0,1,43.59,29.31L229.09,4a46.23,46.23,0,1,1,12.5,91.62" fill="#db5b54"/><path d="M182.63,53.87l-46.46-7.62a5.36,5.36,0,0,0-3.66.77L92.07,71a.5.5,0,0,0,.13.85l50,10.36,40.56-27.54a.47.47,0,0,0-.16-.84" fill="#f1f1f2"/><path d="M182.63,53.87l-46.46-7.62a5.36,5.36,0,0,0-3.66.77L92.07,71a.5.5,0,0,0,.13.85l50,10.36,40.56-27.54A.47.47,0,0,0,182.63,53.87Z" fill="none" stroke="#000" stroke-miterlimit="10" stroke-width="2.53"/><path d="M147.76,59.42s1.65,7.43,1.38,7.67a24,24,0,0,1-10.86,4.24c-5.78.86-8.91-.22-10.06-.77a1.12,1.12,0,0,1-.62-.82L126.22,63c-.07-.3.33.52.6.6a24.1,24.1,0,0,0,20.28-3.42s.63-.78.66-.76" fill="#f1f1f2"/><path d="M147.76,59.42s1.65,7.43,1.38,7.67a24,24,0,0,1-10.86,4.24c-5.78.86-8.91-.22-10.06-.77a1.12,1.12,0,0,1-.62-.82L126.22,63c-.07-.3.33.52.6.6a24.1,24.1,0,0,0,20.28-3.42S147.73,59.4,147.76,59.42Z" fill="none" stroke="#000" stroke-miterlimit="10" stroke-width="2.53"/><path d="M126.22,63c.21,1.13,5.38,2.43,11.25,1.31s10.49-4.26,10.28-5.38-5.65-1.57-11.52-.46-10.23,3.4-10,4.53" fill="#f1f1f2"/><path d="M126.22,63c.21,1.13,5.38,2.43,11.25,1.31s10.49-4.26,10.28-5.38-5.65-1.57-11.52-.46S126,61.87,126.22,63Z" fill="none" stroke="#000" stroke-miterlimit="10" stroke-width="2.53"/><path d="M254,186.55,68.5,211.87A46.23,46.23,0,1,1,56,120.25L241.5,94.93A46.23,46.23,0,1,1,254,186.55" fill="#db5b54"/><path d="M266.41,277.49,80.91,302.81a46.23,46.23,0,0,1-12.5-91.62l185.5-25.32a46.23,46.23,0,0,1,12.5,91.62" fill="#db5b54"/><path d="M118.58,205a4.36,4.36,0,0,1-2.49-3.19L91.74,72.31a.36.36,0,0,1,.46-.42l50,10.36,26,135.24c.18.92.69,2.2-.14,1.82Z" fill="#f1f1f2"/><path d="M118.58,205a4.36,4.36,0,0,1-2.49-3.19L91.74,72.31a.36.36,0,0,1,.46-.42l50,10.36,26,135.24c.18.92.69,2.2-.14,1.82Z" fill="none" stroke="#000" stroke-miterlimit="10" stroke-width="2.53"/><path d="M168.7,219.28l37.88-30.94a5,5,0,0,0,.8-3.81L183.17,54.71a.77.77,0,0,0-1.25-.49l-40,27.34,26.21,136.81c.1.53.23,1.3.58.91" fill="#f1f1f2"/><path d="M168.7,219.28l37.88-30.94a5,5,0,0,0,.8-3.81L183.17,54.71a.77.77,0,0,0-1.25-.49l-40,27.34,26.21,136.81C168.22,218.9,168.35,219.67,168.7,219.28Z" fill="none" stroke="#000" stroke-miterlimit="10" stroke-width="2.53"/><polygon points="98.79 110.25 148.68 121.08 190.57 94.93 199.21 140.27 158.38 167.89 107.78 157.62 98.79 110.25" fill="#c97840"/><polygon points="98.79 110.25 148.68 121.08 190.57 94.93 199.21 140.27 158.38 167.89 107.78 157.62 98.79 110.25" fill="none" stroke="#000" stroke-miterlimit="10" stroke-width="2.53"/><line x1="145.7" y1="101.89" x2="159.42" y2="174.22" fill="#f1f1f2"/><line x1="145.7" y1="101.89" x2="159.42" y2="174.22" fill="none" stroke="#000" stroke-miterlimit="10" stroke-width="2.53"/><path d="M84.72,274a15,15,0,0,1-17-13.19q-.94-7,2.58-11.82a15.27,15.27,0,0,1,21.32-2.76,15.45,15.45,0,0,1,5.89,10.56,14.87,14.87,0,0,1-2.79,11.55A14.6,14.6,0,0,1,84.72,274Zm1.76-3.46a4.33,4.33,0,0,0,3.33-2.09,7,7,0,0,0,.66-4.6A26.68,26.68,0,0,0,88,256.15a24.89,24.89,0,0,0-4.7-6.9c-1.85-1.86-3.57-2.69-5.17-2.47a4.18,4.18,0,0,0-3.26,2.08,7.28,7.28,0,0,0-.63,4.72,27.43,27.43,0,0,0,2.48,8.07,22.61,22.61,0,0,0,4.62,6.65C83.18,270,84.88,270.78,86.48,270.57Z"/><path d="M120.23,264.07a4.12,4.12,0,0,0,.71,1.56,1.85,1.85,0,0,0,.82.68,3.06,3.06,0,0,1,.71.33.79.79,0,0,1,.38.6c.13.92-1.4,1.61-4.57,2a7,7,0,0,1-3-.07,2.21,2.21,0,0,1-1.41-1.4c-.87,1.61-2.56,2.58-5.06,2.93a9.54,9.54,0,0,1-6-.86,5.65,5.65,0,0,1-2.87-4.47,5.74,5.74,0,0,1,1.55-5,8.6,8.6,0,0,1,5.16-2.45,8.26,8.26,0,0,1,4.41.48l0-.13a27.89,27.89,0,0,0-1.72-5.52,2,2,0,0,0-2.25-1.2,1.83,1.83,0,0,0-1.44,1.1,6.54,6.54,0,0,0-.6,2.06,4.72,4.72,0,0,1-.77,2.08,2.53,2.53,0,0,1-1.9,1.16,3,3,0,0,1-2.23-.47,2.61,2.61,0,0,1-1.1-1.87,4,4,0,0,1,2-4,13.33,13.33,0,0,1,5.82-2.07,10.66,10.66,0,0,1,7.29,1.35,9.39,9.39,0,0,1,4.12,5.78Zm-9.35,4.2a1.85,1.85,0,0,0,1.45-1.14,3.82,3.82,0,0,0,.33-2.2l-.44-1.92q-.9-3.43-3.09-3.14a1.91,1.91,0,0,0-1.46,1,3.43,3.43,0,0,0-.3,2.17,9.64,9.64,0,0,0,1.28,3.89A2.3,2.3,0,0,0,110.88,268.27Z"/><path d="M132.05,267.57a6.51,6.51,0,0,1-5.32-1.34,8.35,8.35,0,0,1-2.62-5.53l-1.37-10-1.6.22a.95.95,0,0,1-1.1-.84l-.13-.93a.86.86,0,0,1,.84-1.1l.8-.11a5.15,5.15,0,0,0,3.18-1.62,5.44,5.44,0,0,0,1.39-3.34q.06-1.12,1-1.26l1-.13a1,1,0,0,1,1.28.94l.59,4.26,4.34-.59a.95.95,0,0,1,1.1.84l.13.93a.93.93,0,0,1-.18.73,1,1,0,0,1-.66.37l-4.34.59,1.38,10.13a2.46,2.46,0,0,0,.77,1.59,1.82,1.82,0,0,0,1.44.43,3.14,3.14,0,0,0,2.57-1.95,1.1,1.1,0,0,1,.61-.53.8.8,0,0,1,.68.06.69.69,0,0,1,.35.55,6.68,6.68,0,0,1-1.24,4.92A6.75,6.75,0,0,1,132.05,267.57Z"/><path d="M145.44,236c-1,.13-1.42.79-1.38,2a9.76,9.76,0,0,0,.84,3.64,13.47,13.47,0,0,0,1.62,2.94l4.77-.65a.93.93,0,0,1,.73.18,1,1,0,0,1,.37.66l.13.93a.93.93,0,0,1-.18.73,1,1,0,0,1-.66.37l-4.6.63,1.74,12.74a3,3,0,0,0,1.43,2q1.27.88,1.35,1.38l0,.17c.08.54-.21.85-.86.94l-9.28,1.26q-1,.13-1.08-.66l0-.17a3,3,0,0,1,.63-1.66,3.35,3.35,0,0,0,.56-2.24l-1.74-12.74-2.74.37a1,1,0,0,1-.74-.18,1,1,0,0,1-.37-.66l-.12-.93a.93.93,0,0,1,.83-1.1l2.75-.37-.29-2.11a8.73,8.73,0,0,1,1.36-6.42c1.24-1.77,3.32-2.86,6.21-3.25a7.43,7.43,0,0,1,5,1,4.75,4.75,0,0,1,2.49,3.48,2.56,2.56,0,0,1-.47,1.85,2.64,2.64,0,0,1-1.92,1.06,3.59,3.59,0,0,1-2.28-.31,3,3,0,0,1-1.28-1.33,16.31,16.31,0,0,1-.67-1.65,4,4,0,0,0-.79-1.37A1.45,1.45,0,0,0,145.44,236Z"/><path d="M175.9,256.43a4.51,4.51,0,0,0,.51,1.69q.36.56.72.57a1.29,1.29,0,0,1,.68.23,1,1,0,0,1,.38.76c.08.54-.23.95-.92,1.25a13.76,13.76,0,0,1-3.23.74,5.79,5.79,0,0,1-3-.16,2.43,2.43,0,0,1-1.33-1.75q-1.34,2.85-5.59,3.43a7.77,7.77,0,0,1-5.93-1.45,8.2,8.2,0,0,1-3.09-5.78l-1-7.05a3.28,3.28,0,0,0-1.14-2c-.65-.6-1-1-1-1.32l0-.17c-.07-.56.2-.93.84-1.1l6.17-1.7q2-.52,2.1.57l1.57,12.5a7.62,7.62,0,0,0,1.11,3.57,2.29,2.29,0,0,0,2.25.83,2.38,2.38,0,0,0,1.82-1.43,5.27,5.27,0,0,0,.38-3.17l-1.14-8.35a3.24,3.24,0,0,0-1.13-2c-.65-.6-1-1-1-1.32l0-.17c-.08-.56.2-.93.84-1.1l6.17-1.71c1.21-.33,1.87-.14,2,.59Z"/><path d="M180.12,260.58c-.65.09-1-.13-1.08-.67l0-.17a3.12,3.12,0,0,1,.61-1.65,3.38,3.38,0,0,0,.54-2.2l-2.63-19.28a3.37,3.37,0,0,0-1.12-2,3.27,3.27,0,0,1-1-1.35l0-.17c0-.31.22-.67.8-1.09l5.94-4a1.53,1.53,0,0,1,1.4-.26,1.06,1.06,0,0,1,.66.88l3.58,26.23a3.2,3.2,0,0,0,1.21,2q1.08.9,1.14,1.41l0,.17c.07.53-.23.84-.91.94Z"/><path d="M213.53,251.34a4.45,4.45,0,0,0,1.09,2,3.28,3.28,0,0,1,.93,1.48l0,.17c.07.53-.23.85-.91.94l-8.43,1.15c-.68.09-1.05-.13-1.13-.66l0-.17a3.25,3.25,0,0,1,.59-1.67,3.09,3.09,0,0,0,.43-2.21l-1.45-7.49a12.47,12.47,0,0,0-1.43-4.32,2.21,2.21,0,0,0-2.27-1,2.27,2.27,0,0,0-1.89,1.37,5.59,5.59,0,0,0-.29,3.09l1.25,9.2a3.3,3.3,0,0,0,1.22,2c.71.62,1.1,1.1,1.14,1.44l0,.16c.07.54-.23.85-.91.94L192.4,259c-.67.09-1.05-.13-1.12-.67l0-.17a3.05,3.05,0,0,1,.71-1.68,3.24,3.24,0,0,0,.64-2.24l-1.13-8.31a2.15,2.15,0,0,0-.76-1.42,8.19,8.19,0,0,0-1.26-.9,1.28,1.28,0,0,1-.7-.87v-.13c-.05-.36.24-.76.86-1.19l5.51-3.72q.76-.45,1.2-.18a1.21,1.21,0,0,1,.54,1l.27,2q1.35-3.41,5.61-4a7.89,7.89,0,0,1,5.72,1.32c1.71,1.18,2.88,3.29,3.53,6.35Z"/><path d="M232.78,246.61a.94.94,0,0,1,1-.42.76.76,0,0,1,.64.79c.14,1.42-.48,3-1.86,4.64a8.67,8.67,0,0,1-5.81,3,10.2,10.2,0,0,1-7.92-1.93,10.64,10.64,0,0,1-4-7.32,10,10,0,0,1,2-7.91,10.32,10.32,0,0,1,6.92-3.93,9.08,9.08,0,0,1,6.19,1,5.22,5.22,0,0,1,2.65,3.72,2.79,2.79,0,0,1-1.29,2.84L223.63,247a5.47,5.47,0,0,0,5.19,2.09,5.88,5.88,0,0,0,2.39-.87A4.41,4.41,0,0,0,232.78,246.61Zm-9.43-10.88a2.36,2.36,0,0,0-1.87,1.55,5.86,5.86,0,0,0-.35,3.27,14.33,14.33,0,0,0,1.23,4.34L226,242a2.48,2.48,0,0,0,.81-2.3,6.77,6.77,0,0,0-1.09-2.77A2.29,2.29,0,0,0,223.35,235.73Z"/><path d="M245.47,252.05a14.48,14.48,0,0,1-6.85-.46q-2.81-1-3.1-3.21a2.5,2.5,0,0,1,.54-2.14,3.36,3.36,0,0,1,2.08-1,3,3,0,0,1,2.4.6A4.71,4.71,0,0,1,242,247.7a5.79,5.79,0,0,0,1.29,1.84,2.26,2.26,0,0,0,2,.65,2,2,0,0,0,2-2.63,2.89,2.89,0,0,0-1.49-2.24,8.23,8.23,0,0,0-3-1c-1.14-.16-2.28-.36-3.41-.61a6.56,6.56,0,0,1-3.06-1.6,5.62,5.62,0,0,1-1.66-3.51,5.52,5.52,0,0,1,1.86-5A10.85,10.85,0,0,1,242.6,231a12.4,12.4,0,0,1,6.59.6c1.78.76,2.76,1.85,3,3.25a2.37,2.37,0,0,1-.58,2,2.9,2.9,0,0,1-1.9,1,2.8,2.8,0,0,1-2.31-.59,4.54,4.54,0,0,1-1.35-1.81,6.74,6.74,0,0,0-1.11-1.85,1.77,1.77,0,0,0-1.66-.67,1.7,1.7,0,0,0-1.35.91,2.78,2.78,0,0,0-.3,1.76,3.22,3.22,0,0,0,1.46,2.38,7.5,7.5,0,0,0,2.9,1.11c1.1.19,2.21.42,3.32.66a6.49,6.49,0,0,1,3,1.56,5.56,5.56,0,0,1-.27,8.11A11.59,11.59,0,0,1,245.47,252.05Z"/><path d="M265,249.38a14.48,14.48,0,0,1-6.85-.46q-2.81-1-3.1-3.21a2.53,2.53,0,0,1,.54-2.14,3.36,3.36,0,0,1,2.08-1,3,3,0,0,1,2.41.6,4.81,4.81,0,0,1,1.41,1.82,5.55,5.55,0,0,0,1.28,1.85,2.28,2.28,0,0,0,2,.65,2,2,0,0,0,2-2.63,2.87,2.87,0,0,0-1.49-2.24,8.23,8.23,0,0,0-3-1c-1.14-.16-2.27-.36-3.41-.61a6.56,6.56,0,0,1-3.06-1.6,5.62,5.62,0,0,1-1.66-3.51,5.55,5.55,0,0,1,1.86-5,10.78,10.78,0,0,1,6.17-2.67,12.4,12.4,0,0,1,6.59.6c1.78.76,2.77,1.85,3,3.25a2.4,2.4,0,0,1-.57,1.95,2.92,2.92,0,0,1-1.91,1,2.8,2.8,0,0,1-2.31-.59,4.51,4.51,0,0,1-1.34-1.81,7,7,0,0,0-1.12-1.85,1.75,1.75,0,0,0-1.66-.67,1.7,1.7,0,0,0-1.35.91,2.78,2.78,0,0,0-.3,1.76,3.22,3.22,0,0,0,1.46,2.38,7.5,7.5,0,0,0,2.9,1.11c1.1.19,2.21.41,3.32.66a6.52,6.52,0,0,1,3,1.55,5.58,5.58,0,0,1-.27,8.12A11.56,11.56,0,0,1,265,249.38Z"/></svg>