<svg xmlns="http://www.w3.org/2000/svg" viewBox="0 0 255 215.65" width="173" height="144"><path d="M242.17,191.14c-25.26,34.77-97.08,25.65-160.41-20.36S-12.44,59.28,12.83,24.51,109.9-1.15,173.24,44.87s94.2,111.5,68.93,146.27" fill="#c97840"/><path d="M105.61,58.05c-.55-.4-.67-.82-.35-1.26l.1-.13a1.59,1.59,0,0,1,1.12-.5,14.91,14.91,0,0,0,1.8-.38,2.62,2.62,0,0,0,1.48-1l10-13.71a2.13,2.13,0,0,0,.48-1.46,2.24,2.24,0,0,0-.43-1.18,3.87,3.87,0,0,1-.56-1,1,1,0,0,1,.11-.95l.13-.17c.3-.41.91-.53,1.83-.35l7.15,1.61A3.41,3.41,0,0,1,130.6,39a1.47,1.47,0,0,1,0,1.69,4.19,4.19,0,0,1-1.31,1,5.61,5.61,0,0,0-1.78,1.65L115.89,59.26a2.46,2.46,0,0,0-.44,1.73,14.19,14.19,0,0,0,.25,1.86,1.64,1.64,0,0,1-.11,1.24l-.1.14c-.32.43-.75.45-1.3,0Z"/><path d="M128.12,74.93a12.87,12.87,0,0,1-5.43-9.18Q122,60,126.06,54.38t9.71-7a12.54,12.54,0,0,1,10.59,2.41,12.71,12.71,0,0,1,5.38,9.32,16.28,16.28,0,0,1-3.46,11.49q-4.08,5.63-9.79,6.67A12.91,12.91,0,0,1,128.12,74.93Zm1.14-5.54c-.08,1.84.42,3.14,1.47,3.91a3.43,3.43,0,0,0,3.84,0,15.74,15.74,0,0,0,4.88-4.79A37.51,37.51,0,0,0,143.22,62a20.1,20.1,0,0,0,1.83-6.35c.19-2-.25-3.34-1.31-4.11s-2.44-.75-4,.15A18.51,18.51,0,0,0,134.49,57a34.1,34.1,0,0,0-3.69,6.37A17,17,0,0,0,129.26,69.39Z"/><path d="M152.65,92.75a12.87,12.87,0,0,1-5.44-9.18q-.71-5.76,3.37-11.37c2.79-3.83,6-6.18,9.71-7a12.57,12.57,0,0,1,10.59,2.4,12.73,12.73,0,0,1,5.38,9.33,16.27,16.27,0,0,1-3.45,11.49Q168.73,94,163,95.07A12.91,12.91,0,0,1,152.65,92.75Zm1.13-5.54c-.07,1.84.42,3.14,1.47,3.91a3.43,3.43,0,0,0,3.84,0,15.69,15.69,0,0,0,4.88-4.8,37.05,37.05,0,0,0,3.77-6.46,19.71,19.71,0,0,0,1.83-6.36c.19-2-.25-3.33-1.3-4.1s-2.45-.75-4,.15A18.39,18.39,0,0,0,159,74.8a34.34,34.34,0,0,0-3.69,6.37A17.13,17.13,0,0,0,153.78,87.21Z"/><path d="M173.32,107.25c-.3-.22-.43-.45-.38-.71a.76.76,0,0,1,.52-.57l28.79-14.28a1.09,1.09,0,0,1,1.07,0l2.2,1.61a.73.73,0,0,1,.37.69.74.74,0,0,1-.5.58l-28.73,14.33a1.08,1.08,0,0,1-1.24-.11ZM181.1,95a8,8,0,0,1-3.32-5.17,7.57,7.57,0,0,1,1.48-6.06,8,8,0,0,1,5.26-3.44,7.84,7.84,0,0,1,6,1.59,7.93,7.93,0,0,1,3.28,5.26,7.81,7.81,0,0,1-1.51,6.13A7.46,7.46,0,0,1,187,96.51,8.08,8.08,0,0,1,181.1,95Zm1.66-1.06q1.52,1.11,3.62-1.79A17.18,17.18,0,0,0,189,86.69c.58-2,.44-3.31-.4-3.93-1-.73-2.27-.07-3.77,2a16,16,0,0,0-2.58,5.36C181.74,92,181.91,93.28,182.76,93.89Zm5.78,24.94a8,8,0,0,1-3.32-5.18,7.54,7.54,0,0,1,1.48-6.05,8,8,0,0,1,5.26-3.44,7.84,7.84,0,0,1,6,1.59A7.94,7.94,0,0,1,201.3,111a7.82,7.82,0,0,1-1.54,6.14,7.48,7.48,0,0,1-5.31,3.25A8.08,8.08,0,0,1,188.54,118.83Zm1.66-1.06c1,.73,2.21.14,3.62-1.79a17.24,17.24,0,0,0,2.61-5.42q.87-3-.41-3.92c-1-.74-2.25-.08-3.74,2a16.22,16.22,0,0,0-2.6,5.4C189.18,115.89,189.35,117.15,190.2,117.77Z"/><path d="M60.37,72.07a6.32,6.32,0,0,0,0,2.57,2.61,2.61,0,0,1-.1,1.85l-.1.13c-.32.44-.75.46-1.3.06L49.9,70.2c-.53-.39-.64-.8-.32-1.23l.1-.14a1.48,1.48,0,0,1,1.09-.45,6.1,6.1,0,0,0,1.55-.32,1.55,1.55,0,0,0,1-1.12l.8-2.68L45.36,57.9l-2.31,1.59a1.54,1.54,0,0,0-.75,1.29,6,6,0,0,0,.17,1.57,1.46,1.46,0,0,1-.09,1.17l-.1.14c-.32.44-.75.46-1.3.06L35.88,60c-.55-.4-.67-.82-.35-1.25l.1-.14A2.63,2.63,0,0,1,37.34,58a6.56,6.56,0,0,0,2.44-.86l18.55-12a1.69,1.69,0,0,0,.79-1.27,9.92,9.92,0,0,0,.09-1.72,2,2,0,0,1,.2-1.18l.1-.13c.31-.44.74-.47,1.27-.08l4.4,3.2a3,3,0,0,1,1.18,3.38ZM48.17,56l6.88,5,3.54-12.11Z"/><path d="M80.72,86.8a4.24,4.24,0,0,0-.8,1.58,1,1,0,0,0,.13.91,1.2,1.2,0,0,1,.33.63,1.05,1.05,0,0,1-.26.82c-.31.43-.82.52-1.52.25a13.43,13.43,0,0,1-2.85-1.69,5.8,5.8,0,0,1-2-2.17A2.41,2.41,0,0,1,74,85c-1.95.75-4.08.29-6.4-1.4a7.8,7.8,0,0,1-3.29-5.15,8.21,8.21,0,0,1,1.78-6.31l4.18-5.75a3.32,3.32,0,0,0,.56-2.23A3,3,0,0,1,71,62.44l.1-.14a1,1,0,0,1,1.37-.21l5.63,3c1.18.64,1.55,1.27,1.12,1.86L71.66,77.11A7.4,7.4,0,0,0,70,80.46a2.28,2.28,0,0,0,1,2.15,2.42,2.42,0,0,0,2.31.23,5.32,5.32,0,0,0,2.47-2l5-6.82a3.23,3.23,0,0,0,.57-2.22,3,3,0,0,1,.16-1.67l.1-.14A.94.94,0,0,1,83,69.75l5.63,3c1.11.59,1.45,1.19,1,1.79Z"/><path d="M88.28,98.56a14.47,14.47,0,0,1-4.63-5.08c-.88-1.78-.88-3.26,0-4.46a2.5,2.5,0,0,1,1.88-1.16,3.34,3.34,0,0,1,2.17.74A3,3,0,0,1,89,90.69,4.71,4.71,0,0,1,88.75,93a5.5,5.5,0,0,0-.34,2.22,2.26,2.26,0,0,0,1,1.84,2.06,2.06,0,0,0,3.24-.54,2.9,2.9,0,0,0,.48-2.65,8.35,8.35,0,0,0-1.49-2.77c-.71-.9-1.39-1.83-2-2.8A6.39,6.39,0,0,1,88.47,85a5.59,5.59,0,0,1,1.23-3.68A5.52,5.52,0,0,1,94.47,79a10.85,10.85,0,0,1,6.3,2.34,12.47,12.47,0,0,1,4.34,5q1.14,2.67-.11,4.39a2.4,2.4,0,0,1-1.76,1,2.92,2.92,0,0,1-2.08-.59,2.82,2.82,0,0,1-1.26-2,4.65,4.65,0,0,1,.28-2.24,6.65,6.65,0,0,0,.48-2.1,1.76,1.76,0,0,0-.73-1.64,1.73,1.73,0,0,0-1.62-.28A2.81,2.81,0,0,0,96.88,84a3.26,3.26,0,0,0-.59,2.73,7.73,7.73,0,0,0,1.33,2.8c.66.91,1.31,1.83,1.94,2.78a6.47,6.47,0,0,1,1.06,3.17,5.56,5.56,0,0,1-5.81,5.67A11.57,11.57,0,0,1,88.28,98.56Z"/><path d="M104.72,110.55a6.45,6.45,0,0,1-2.91-4.64,8.37,8.37,0,0,1,1.93-5.81l5.93-8.16-1.31-1a1,1,0,0,1-.41-.64.94.94,0,0,1,.19-.73l.55-.76a.87.87,0,0,1,1.37-.21l.65.47a5.09,5.09,0,0,0,3.41,1,5.4,5.4,0,0,0,3.32-1.45,1.13,1.13,0,0,1,1.58-.22l.8.57a1,1,0,0,1,.27,1.57l-2.52,3.48,3.55,2.58a1,1,0,0,1,.4.64,1,1,0,0,1-.19.73l-.55.75a.93.93,0,0,1-.64.41,1,1,0,0,1-.73-.19l-3.54-2.58-6,8.27a2.4,2.4,0,0,0-.54,1.69,1.76,1.76,0,0,0,.74,1.3,3.13,3.13,0,0,0,3.2.37,1.11,1.11,0,0,1,.81,0,.86.86,0,0,1,.45.51.72.72,0,0,1-.13.64,6.69,6.69,0,0,1-9.67,1.29Z"/><path d="M135.62,106.69a3.75,3.75,0,0,1,1.66,2.68,4.32,4.32,0,0,1-.9,3.09q-2.34,3.23-5,1.31a2.94,2.94,0,0,1-1.26-1.68,2.31,2.31,0,0,1,.18-1.58,4.13,4.13,0,0,0,.45-1.38,1.1,1.1,0,0,0-.46-1.1q-1.28-.93-3.68,2.38l-4.65,6.4a2.94,2.94,0,0,0-.33,2.37q.3,1.51,0,1.92l-.1.14c-.32.44-.75.45-1.3.05l-7.41-5.38c-.55-.4-.67-.81-.35-1.25l.1-.14a3.1,3.1,0,0,1,1.6-.76,3.31,3.31,0,0,0,1.93-1.2l5-6.85a2.19,2.19,0,0,0,.44-1.48,8.26,8.26,0,0,0-.23-1.42,1.22,1.22,0,0,1,.14-1.06l.07-.1a1.48,1.48,0,0,1,1.52-.43l6.51,1.26q.87.26,1,.66a1.2,1.2,0,0,1-.3,1l-1.83,2.51A5.71,5.71,0,0,1,135.62,106.69Z"/><path d="M146.65,134.76a4.35,4.35,0,0,0-.57,1.61,1.91,1.91,0,0,0,.13,1.06,3.43,3.43,0,0,1,.28.73.82.82,0,0,1-.13.7c-.55.75-2.13.19-4.72-1.7a6.9,6.9,0,0,1-2.09-2.09,2.21,2.21,0,0,1-.05-2q-2.61.84-5.68-1.38a9.45,9.45,0,0,1-3.72-4.76,5.6,5.6,0,0,1,1-5.21,5.71,5.71,0,0,1,4.6-2.57,8.63,8.63,0,0,1,5.43,1.81,8.25,8.25,0,0,1,2.85,3.39l.07-.11a28,28,0,0,0,2.58-5.18,2,2,0,0,0-.79-2.41,1.8,1.8,0,0,0-1.8-.21,6.66,6.66,0,0,0-1.86,1.07,4.93,4.93,0,0,1-2,1A2.55,2.55,0,0,1,138,118a3,3,0,0,1-1.29-1.89,2.59,2.59,0,0,1,.5-2.1,4,4,0,0,1,4.19-1.57,13.4,13.4,0,0,1,5.63,2.54,10.68,10.68,0,0,1,4.34,6,9.41,9.41,0,0,1-1,7ZM137,131.32a1.88,1.88,0,0,0,1.85.18,3.79,3.79,0,0,0,1.75-1.36l1-1.69c1.15-2.07,1.14-3.54-.06-4.4a1.85,1.85,0,0,0-1.74-.29,3.41,3.41,0,0,0-1.72,1.35,9.81,9.81,0,0,0-1.76,3.69A2.29,2.29,0,0,0,137,131.32Z"/><path d="M147.33,141c-.52-.39-.63-.8-.31-1.23l.1-.14a3.09,3.09,0,0,1,1.58-.77,3.32,3.32,0,0,0,1.91-1.22l11.44-15.74a3.42,3.42,0,0,0,.59-2.22,3.17,3.17,0,0,1,.19-1.68l.1-.14c.19-.25.63-.33,1.34-.24l7,1.23a1.54,1.54,0,0,1,1.19.79,1.05,1.05,0,0,1-.13,1.09l-15.57,21.42a3.11,3.11,0,0,0-.48,2.25,3,3,0,0,1-.15,1.81l-.1.14c-.32.43-.76.45-1.31,0Z"/><path d="M158.18,148.87c-.55-.4-.67-.82-.35-1.25l.1-.14a3.12,3.12,0,0,1,1.62-.78,3.46,3.46,0,0,0,1.94-1.22l4.75-6.54a3.41,3.41,0,0,0,.58-2.24A3.33,3.33,0,0,1,167,135l.11-.13c.2-.28.65-.35,1.36-.22l7.06,1.23a1.52,1.52,0,0,1,1.18.76,1,1,0,0,1-.16,1.09L167.65,150a3.2,3.2,0,0,0-.47,2.29,3,3,0,0,1-.16,1.83l-.1.14c-.31.44-.76.45-1.33,0ZM175.36,133a5.08,5.08,0,0,1-2.15-3.06,4.08,4.08,0,0,1,3.58-4.92,5.67,5.67,0,0,1,5.68,4.13,4.08,4.08,0,0,1-3.58,4.92A5,5,0,0,1,175.36,133Z"/><path d="M187.12,164.16a4.41,4.41,0,0,0-.57,1.61,2,2,0,0,0,.13,1.07,3.06,3.06,0,0,1,.28.73.81.81,0,0,1-.13.69c-.55.76-2.13.19-4.72-1.69a7,7,0,0,1-2.09-2.1,2.19,2.19,0,0,1-.05-2c-1.74.56-3.63.09-5.68-1.39a9.45,9.45,0,0,1-3.72-4.76,5.59,5.59,0,0,1,1-5.2,5.7,5.7,0,0,1,4.6-2.58,8.63,8.63,0,0,1,5.43,1.81,8.25,8.25,0,0,1,2.85,3.39l.07-.11a28.71,28.71,0,0,0,2.58-5.17,2,2,0,0,0-.79-2.42,1.8,1.8,0,0,0-1.8-.2,6.08,6.08,0,0,0-1.86,1.07,4.92,4.92,0,0,1-2,1,2.54,2.54,0,0,1-2.17-.48,3,3,0,0,1-1.29-1.88,2.61,2.61,0,0,1,.5-2.11,4,4,0,0,1,4.19-1.56,13.25,13.25,0,0,1,5.63,2.53,10.66,10.66,0,0,1,4.33,6,9.35,9.35,0,0,1-1,7Zm-9.66-3.44a1.88,1.88,0,0,0,1.85.18,3.84,3.84,0,0,0,1.75-1.36l1-1.68q1.73-3.12-.06-4.41a1.87,1.87,0,0,0-1.74-.29,3.41,3.41,0,0,0-1.72,1.35,9.78,9.78,0,0,0-1.76,3.7A2.28,2.28,0,0,0,177.46,160.72Z"/><path d="M208.54,179.72a4.34,4.34,0,0,0-.58,2.18,3.37,3.37,0,0,1-.35,1.72l-.1.14c-.32.43-.76.45-1.31.05l-6.88-5c-.56-.4-.67-.82-.36-1.26l.1-.14a3.29,3.29,0,0,1,1.58-.79,3.07,3.07,0,0,0,1.84-1.3l4.14-6.42a12.26,12.26,0,0,0,1.95-4.1,2.22,2.22,0,0,0-.93-2.31,2.3,2.3,0,0,0-2.32-.32,5.64,5.64,0,0,0-2.34,2l-5.46,7.5A3.3,3.3,0,0,0,197,174a3,3,0,0,1-.17,1.82l-.1.14c-.32.44-.75.45-1.3.05L188,170.6c-.55-.4-.67-.82-.35-1.26l.1-.13a3,3,0,0,1,1.68-.73,3.2,3.2,0,0,0,2-1.17l4.93-6.78a2.18,2.18,0,0,0,.44-1.55,8.65,8.65,0,0,0-.29-1.53,1.25,1.25,0,0,1,.1-1.11l.08-.1c.21-.3.7-.39,1.45-.26l6.55,1.12c.57.14.9.37,1,.7a1.24,1.24,0,0,1-.29,1.08l-1.17,1.62q3.31-1.53,6.8,1a7.94,7.94,0,0,1,3.22,4.92q.63,3-1.84,7Z"/><path d="M74.56,141.27A15,15,0,0,1,71.41,120c2.75-3.78,6.09-6,10-6.75A15.28,15.28,0,0,1,98.75,126a15.43,15.43,0,0,1-3,11.7,14.87,14.87,0,0,1-10,6.41A14.67,14.67,0,0,1,74.56,141.27ZM78.23,140a4.29,4.29,0,0,0,3.85.8,7,7,0,0,0,3.66-2.87,26.73,26.73,0,0,0,3.59-7.26,24.86,24.86,0,0,0,1.37-8.23q-.06-3.93-2-5.36a4.18,4.18,0,0,0-3.79-.76,7.41,7.41,0,0,0-3.72,3,27.34,27.34,0,0,0-3.79,7.54,22.57,22.57,0,0,0-1.26,8Q76.27,138.56,78.23,140Z"/><path d="M107.92,159.24a4.41,4.41,0,0,0-.57,1.61,2,2,0,0,0,.13,1.07,3.06,3.06,0,0,1,.28.73.78.78,0,0,1-.14.69c-.55.76-2.12.19-4.71-1.69a7,7,0,0,1-2.09-2.1,2.19,2.19,0,0,1,0-2q-2.61.84-5.68-1.39a9.45,9.45,0,0,1-3.72-4.76,5.59,5.59,0,0,1,1-5.2,5.7,5.7,0,0,1,4.6-2.58,8.59,8.59,0,0,1,5.42,1.81,8.2,8.2,0,0,1,2.86,3.39l.07-.1a29,29,0,0,0,2.58-5.18,2,2,0,0,0-.79-2.42,1.82,1.82,0,0,0-1.8-.2,6.08,6.08,0,0,0-1.86,1.07,4.92,4.92,0,0,1-2,1,2.54,2.54,0,0,1-2.17-.48A3,3,0,0,1,98,140.62a2.61,2.61,0,0,1,.5-2.11A4,4,0,0,1,102.7,137a13.16,13.16,0,0,1,5.63,2.54,10.61,10.61,0,0,1,4.33,6,9.35,9.35,0,0,1-1,7Zm-9.66-3.44a1.88,1.88,0,0,0,1.85.18,3.84,3.84,0,0,0,1.75-1.36l1-1.68c1.15-2.07,1.13-3.55-.06-4.41a1.87,1.87,0,0,0-1.74-.29,3.41,3.41,0,0,0-1.72,1.35,9.78,9.78,0,0,0-1.76,3.7A2.28,2.28,0,0,0,98.26,155.8Z"/><path d="M114.86,170.54A6.51,6.51,0,0,1,112,165.9a8.37,8.37,0,0,1,1.93-5.81l5.93-8.16-1.31-1a1,1,0,0,1-.41-.64,1,1,0,0,1,.19-.73l.55-.76a.87.87,0,0,1,1.37-.21l.65.47a5.09,5.09,0,0,0,3.41,1,5.4,5.4,0,0,0,3.32-1.45,1.14,1.14,0,0,1,1.59-.22l.79.57a1,1,0,0,1,.28,1.57l-2.53,3.48,3.55,2.58a1,1,0,0,1,.21,1.37l-.55.76a.94.94,0,0,1-1.36.21L126,156.44l-6,8.26a2.46,2.46,0,0,0-.54,1.69,1.76,1.76,0,0,0,.74,1.3,3.13,3.13,0,0,0,3.2.37,1.11,1.11,0,0,1,.81,0,.83.83,0,0,1,.45.51.71.71,0,0,1-.13.65,6.69,6.69,0,0,1-9.67,1.28Z"/><path d="M129.21,180.92a14.41,14.41,0,0,1-4.62-5.07c-.89-1.78-.89-3.27,0-4.47a2.47,2.47,0,0,1,1.87-1.16,3.32,3.32,0,0,1,2.17.74,3,3,0,0,1,1.32,2.09,4.82,4.82,0,0,1-.24,2.29,5.54,5.54,0,0,0-.35,2.22,2.27,2.27,0,0,0,1,1.84,2,2,0,0,0,3.23-.54,2.9,2.9,0,0,0,.48-2.65,8.45,8.45,0,0,0-1.49-2.77c-.71-.9-1.39-1.83-2-2.8a6.48,6.48,0,0,1-1.1-3.27,5.61,5.61,0,0,1,1.23-3.68,5.52,5.52,0,0,1,4.77-2.3,10.8,10.8,0,0,1,6.3,2.34,12.39,12.39,0,0,1,4.34,5c.76,1.78.73,3.24-.11,4.39a2.38,2.38,0,0,1-1.76,1,2.88,2.88,0,0,1-2.07-.59,2.84,2.84,0,0,1-1.27-2,4.65,4.65,0,0,1,.29-2.24,6.79,6.79,0,0,0,.47-2.1,1.77,1.77,0,0,0-.73-1.64,1.74,1.74,0,0,0-1.61-.28,2.83,2.83,0,0,0-1.43,1.07,3.2,3.2,0,0,0-.59,2.73,7.45,7.45,0,0,0,1.33,2.81c.66.9,1.3,1.82,1.93,2.77a6.41,6.41,0,0,1,1.06,3.17,5.23,5.23,0,0,1-1.15,3.5,5.3,5.3,0,0,1-4.65,2.17A11.57,11.57,0,0,1,129.21,180.92Z"/></svg>