<svg xmlns="http://www.w3.org/2000/svg" viewBox="0 0 285 203.59" width="186" height="136"><path d="M264.58,200.92H20.42A16.73,16.73,0,0,1,3.74,184.24V19.35A16.73,16.73,0,0,1,20.42,2.67H264.58a16.73,16.73,0,0,1,16.68,16.68V184.24a16.73,16.73,0,0,1-16.68,16.68" fill="#76a780"/><rect x="23.02" y="22.9" width="238.96" height="157.57" transform="translate(-0.64 0.9) rotate(-0.36)" fill="#db5b54"/><rect x="23.02" y="22.9" width="238.96" height="157.57" transform="translate(-0.64 0.9) rotate(-0.36)" fill="none" stroke="#000" stroke-miterlimit="10" stroke-width="3.61"/><path d="M62.87,181s-19.69-44.12,53.19-67.88C166.74,96.55,261.62,98,261.62,98l.5,81.76Z" fill="#c97840"/><path d="M62.87,181s-19.69-44.12,53.19-67.88C166.74,96.55,261.62,98,261.62,98l.5,81.76Z" fill="none" stroke="#000" stroke-linecap="round" stroke-miterlimit="10" stroke-width="3.61"/><path d="M23.52,181.44l0-34.1s49.1-24.41,92-34.4c10.32-2.4,6.37,10.32,4.91,15.95-2.26,8.67.22,8.94-1,15s2.93,7.22,1.23,14.18-4.36,5.53-7.41,13c-1.48,3.63-1.51,9.43-1.51,9.43Z" fill="#487cba"/><path d="M23.52,181.44l0-34.1s49.1-24.41,92-34.4c10.32-2.4,6.37,10.32,4.91,15.95-2.26,8.67.22,8.94-1,15s2.93,7.22,1.23,14.18-4.36,5.53-7.41,13c-1.48,3.63-1.51,9.43-1.51,9.43Z" fill="none" stroke="#000" stroke-miterlimit="10" stroke-width="3.61"/><path d="M100.82,180.08a17.41,17.41,0,0,1,1-13.08c3.42-6.71,5.72-6.23,6.72-11,1.22-5.8-2-7.51-2.35-12.4s1.61-7.45,5.9-12.34c6.67-7.6-3.41-16.57-3.41-16.57l12.48-3.17s6.93,6.86,5.79,16.3-6.89,9.84-7.6,16.06,3.83,10,1.73,15.78c-1.71,4.71-5.33,4.89-6.73,9.32s-1,11.11-1,11.11Z" fill="#fff"/><path d="M100.82,180.08a17.41,17.41,0,0,1,1-13.08c3.42-6.71,5.72-6.23,6.72-11,1.22-5.8-2-7.51-2.35-12.4s1.61-7.45,5.9-12.34c6.67-7.6-3.41-16.57-3.41-16.57l12.48-3.17s6.93,6.86,5.79,16.3-6.89,9.84-7.6,16.06,3.83,10,1.73,15.78c-1.71,4.71-5.33,4.89-6.73,9.32s-1,11.11-1,11.11Z" fill="none" stroke="#000" stroke-miterlimit="10" stroke-width="3.61"/><path d="M100.67,59.38A22.25,22.25,0,1,1,78.28,37.26a22.24,22.24,0,0,1,22.39,22.12" fill="#f7df53"/><path d="M100.67,59.38A22.25,22.25,0,1,1,78.28,37.26,22.25,22.25,0,0,1,100.67,59.38Z" fill="none" stroke="#000" stroke-miterlimit="10" stroke-width="3.61"/><path d="M40.42,99.81c4.09-1.64,6-3,11-2.2C60,99,74,102.54,81.86,97.08c8.06-5.56,10.13-5,16.31-7.67,6-2.53,4.62-13.53-9.12-14-15.93-.61-10.45-4.43-24.93-8.13-10.29-2.63-14.65,5.31-21.05,3.43-11.42-3.34-20.25-1.13-20.2.43.14,4.46.17,29.37.17,29.37s11.3,1.79,17.38-.65" fill="#fff"/><path d="M40.42,99.81c4.08-1.64,6-3,11-2.2C60,99,74,102.54,81.86,97.08c8.06-5.56,10.13-5,16.31-7.67,6-2.53,4.62-13.53-9.12-14-15.93-.61-10.45-4.43-24.93-8.13-10.29-2.63-14.65,5.31-21.05,3.43-11.42-3.34-20.25-1.13-20.2.43.14,4.46.17,29.37.17,29.37S34.34,102.25,40.42,99.81Z" fill="none" stroke="#000" stroke-miterlimit="10" stroke-width="3.61"/></svg>