<svg xmlns="http://www.w3.org/2000/svg" xmlns:xlink="http://www.w3.org/1999/xlink" viewBox="0 0 280 280" width="179" height="180"><defs><clipPath id="a"><path d="M93.52,377.49a21.74,21.74,0,0,0-21.74,21.74v203.1a21.74,21.74,0,0,0,21.74,21.74H223.16c67.82,0,123.3-55.48,123.3-123.29S291,377.49,223.16,377.49Z" fill="none"/></clipPath></defs><path d="M100.46,6.21c20.06-5.93,78.28,15.32,98.1,26.1s69.31,48.1,75.23,68.15-15.31,78.28-26.1,98.1-48.1,69.31-68.15,75.23-78.28-15.32-98.1-26.1-69.31-48.1-75.23-68.15,15.31-78.28,26.1-98.1,48.1-69.31,68.15-75.23" fill="#487cba"/><path d="M125.76,217.45a87.16,87.16,0,0,0,18.78,1.89,72.12,72.12,0,0,0,53.78-24.75l.28-.32c9.37-10.78,15.23-37,16.12-55.24s-3.6-18.87-2.65-19.92,8.49-8.92,7.54-13.25-3-8.21-10.56-9.53A12.6,12.6,0,0,0,197.63,100a.46.46,0,0,1-.69,0l-.84-1c-1.2-1.37-10.54-8.22-15-10.47S168.7,82,161.32,79.33s-25.78-4-25.78-4c-12.06-1.57-15.5,3.29-15.5,3.29l-3.88-6.35c-3.88-6.35-13.31-7.74-14.26-7.88S89.73,64.2,85.49,77.71C81.81,89.43,88.24,95.92,90,97.43a.54.54,0,0,1,.07.76c-2.68,3.09-19.14,22.74-24.1,44.41A63.57,63.57,0,0,0,71.29,185s10.21,23.11,54.47,32.49" fill="#c97840"/><path d="M125.76,217.45a87.16,87.16,0,0,0,18.78,1.89,72.12,72.12,0,0,0,53.78-24.75l.28-.32c9.37-10.78,15.23-37,16.12-55.24s-3.6-18.87-2.65-19.92,8.49-8.92,7.54-13.25-3-8.21-10.56-9.53A12.6,12.6,0,0,0,197.63,100a.46.46,0,0,1-.69,0l-.84-1c-1.2-1.37-10.54-8.22-15-10.47S168.7,82,161.32,79.33s-25.78-4-25.78-4c-12.06-1.57-15.5,3.29-15.5,3.29l-3.88-6.35c-3.88-6.35-13.31-7.74-14.26-7.88S89.73,64.2,85.49,77.71C81.81,89.43,88.24,95.92,90,97.43a.54.54,0,0,1,.07.76c-2.68,3.09-19.14,22.74-24.1,44.41A63.57,63.57,0,0,0,71.29,185S81.5,208.07,125.76,217.45Z" fill="none" stroke="#000" stroke-miterlimit="10" stroke-width="2.38"/><path d="M134.19,134.88s-27.08,3.09-35.14,16-13.32,21.82,17.37,31,42.87,2.5,42.87,2.5" fill="none" stroke="#000" stroke-linecap="round" stroke-miterlimit="10" stroke-width="2.38"/><path d="M171.3,123.55a3.4,3.4,0,0,0-4,.81c-1.77,1.92-4,5.52.15,6.66s5.15-2.3,5.35-3.67-.21-3.35-1.54-3.8"/><path d="M115.22,108.73s-4.21.69-4.13,3.75,1.91,3.6,3.36,3.82,2.7-1.7,2.93-3.24.65-4.44-2.16-4.33"/><path d="M104.11,146.24s-3.66-2.59-9.46,1.67c-3.17,2.32-1.14,6.73,0,8.94s4.18,2.45,5.93,1.57,8.51-4.79,3.56-12.18"/><path d="M136.53,169.15s-15.18,7.38-27.74,2.3c-11.85-4.79-15.59-8.8-15.59-8.8" fill="none" stroke="#000" stroke-linecap="round" stroke-miterlimit="10" stroke-width="2.38"/><path d="M197.17,108.65s7-8.74,12.68-4.52c5.3,4-4.46,13.76-4.46,13.76" fill="none" stroke="#000" stroke-linecap="round" stroke-miterlimit="10" stroke-width="2.38"/><path d="M99.25,96.56s-7.73-9.3-6.63-16.79,5.55-8.35,8.82-7.36,10.22,9.41,13.24,15.2" fill="none" stroke="#000" stroke-linecap="round" stroke-miterlimit="10" stroke-width="2.38"/><line x1="92.79" y1="100.18" x2="89.42" y2="96.83" fill="none" stroke="#000" stroke-linecap="round" stroke-miterlimit="10" stroke-width="2.38"/><path d="M122,82.93A27.37,27.37,0,0,0,120,78.62" fill="#c97840"/><path d="M122,82.93A27.37,27.37,0,0,0,120,78.62" fill="none" stroke="#000" stroke-linecap="round" stroke-miterlimit="10" stroke-width="2.38"/><path d="M193.53,105.19a22.94,22.94,0,0,1,3.76-4.81" fill="#c97840"/><path d="M193.53,105.19a22.94,22.94,0,0,1,3.76-4.81" fill="none" stroke="#000" stroke-linecap="round" stroke-miterlimit="10" stroke-width="2.38"/><path d="M209.56,121.19a12.24,12.24,0,0,0,2.51-2.08" fill="none" stroke="#000" stroke-linecap="round" stroke-miterlimit="10" stroke-width="2.38"/></svg>