<svg xmlns="http://www.w3.org/2000/svg" xmlns:xlink="http://www.w3.org/1999/xlink" viewBox="0 0 290 291.5" width="190" height="191"><defs><clipPath id="a"><path d="M372.61,7.48a21.75,21.75,0,0,0-21.74,21.75v203.1a21.74,21.74,0,0,0,21.74,21.74H502.26c67.81,0,123.3-55.48,123.3-123.29S570.07,7.48,502.26,7.48Z" fill="none"/></clipPath></defs><path d="M214.6,28l4.82,22.59a15,15,0,0,0,12.74,11.76l22.91,3a15,15,0,0,1,12.11,20.19L259,107.16a15,15,0,0,0,4.37,16.78L281,138.82a15,15,0,0,1-.73,23.53l-18.55,13.76a15,15,0,0,0-5.4,16.48l6.82,22.07a15,15,0,0,1-13.34,19.4l-23.05,1.55a15,15,0,0,0-13.45,10.95l-6.2,22.25a15,15,0,0,1-21.7,9.11l-20.23-11.16A15,15,0,0,0,148,268.69l-17.25,15.37A15,15,0,0,1,107.54,280l-11-20.32A15,15,0,0,0,81,252l-22.82,3.6a15,15,0,0,1-17.3-16l1.74-23a15,15,0,0,0-8.91-14.87l-21.14-9.31a15,15,0,0,1-5.93-22.78L20.58,151.2a15,15,0,0,0,.54-17.33L8.36,114.61a15,15,0,0,1,7.33-22.37l21.68-8A15,15,0,0,0,47.19,70l-.32-23.1A15,15,0,0,1,65.13,32l22.55,5a15,15,0,0,0,16-6.71l12.22-19.6a15,15,0,0,1,23.39-2.63l16.27,16.41a15,15,0,0,0,17.08,3l20.88-9.88A15,15,0,0,1,214.6,28" fill="#f7df53"/><path d="M76.73,82.24a5.28,5.28,0,0,0,.34,2.25,2.27,2.27,0,0,1,.18,1.63l-.07.14c-.21.43-.58.51-1.13.24l-8.77-4.34c-.52-.26-.68-.6-.47-1l.07-.14a1.3,1.3,0,0,1,.89-.55,5.94,5.94,0,0,0,1.31-.51,1.41,1.41,0,0,0,.7-1.13l.3-2.47-8.61-4.26L59.68,73.8a1.4,1.4,0,0,0-.47,1.25,5.6,5.6,0,0,0,.39,1.35,1.28,1.28,0,0,1,.1,1l-.07.13c-.21.43-.59.52-1.13.25l-5-2.48c-.54-.27-.7-.62-.49-1l.07-.14c.14-.29.61-.56,1.4-.82a5.65,5.65,0,0,0,2-1.12L70.91,58.94a1.49,1.49,0,0,0,.51-1.22,9.56,9.56,0,0,0-.18-1.52,1.82,1.82,0,0,1,0-1.06L71.3,55c.22-.43.58-.51,1.1-.26l4.34,2.15a2.65,2.65,0,0,1,1.53,2.78ZM63.64,70l6.78,3.36L71.71,62.2Z"/><path d="M96.33,75.86a9.09,9.09,0,0,1,4.51,4.91,8.53,8.53,0,0,1-.57,7.25,9.62,9.62,0,0,1-5.48,5.15A8.48,8.48,0,0,1,88,92.81a6.46,6.46,0,0,1-3-2.7l-2,4.1a2.82,2.82,0,0,0-.07,2.06A2.54,2.54,0,0,1,83,97.88L83,98c-.22.43-.59.51-1.13.24l-7.19-3.55c-.54-.27-.71-.62-.49-1l.06-.14a2.8,2.8,0,0,1,1.29-.9A3,3,0,0,0,77,91.28l6.87-13.89a2.19,2.19,0,0,0-.08-1.88c-.31-.73-.4-1.24-.25-1.54l.08-.17c.18-.36.6-.56,1.27-.59h5.56c.6,0,1,.18,1.13.43a.93.93,0,0,1,0,.95l-.49,1C92.57,74.77,94.32,74.87,96.33,75.86Zm-8.1,15q2.58,1.28,4.69-3a29.25,29.25,0,0,0,1.69-4.22,13.75,13.75,0,0,0,.65-4.23q0-2-1.17-2.61a2,2,0,0,0-1.85,0,3.5,3.5,0,0,0-1.51,1.65l-3,6.13a6.93,6.93,0,0,0-.83,3.9A2.75,2.75,0,0,0,88.23,90.88Z"/><path d="M116.63,85.9a9.09,9.09,0,0,1,4.51,4.91,8.53,8.53,0,0,1-.57,7.25,9.68,9.68,0,0,1-5.48,5.16,8.48,8.48,0,0,1-6.84-.37,6.49,6.49,0,0,1-3-2.69l-2,4.1a2.79,2.79,0,0,0-.07,2,2.54,2.54,0,0,1,.15,1.61l-.06.14c-.22.43-.59.51-1.14.24L95,104.75c-.54-.27-.71-.62-.49-1l.06-.13a2.8,2.8,0,0,1,1.29-.9,2.93,2.93,0,0,0,1.51-1.35l6.87-13.89a2.19,2.19,0,0,0-.08-1.88c-.31-.73-.4-1.24-.25-1.54l.08-.17c.18-.36.6-.56,1.27-.59h5.56c.6,0,1,.19,1.13.43a.93.93,0,0,1,0,1l-.49,1Q113.62,84.42,116.63,85.9Zm-8.1,15q2.58,1.27,4.69-3a29.25,29.25,0,0,0,1.69-4.22,13.66,13.66,0,0,0,.65-4.23c0-1.36-.41-2.23-1.17-2.61a2,2,0,0,0-1.85,0A3.46,3.46,0,0,0,111,88.53l-3,6.14a7,7,0,0,0-.82,3.89A2.75,2.75,0,0,0,108.53,100.92Z"/><path d="M137.74,96.35a3.32,3.32,0,0,1,1.85,2.1,3.79,3.79,0,0,1-.32,2.83q-1.58,3.18-4.19,1.89a2.53,2.53,0,0,1-1.35-1.28,2,2,0,0,1-.08-1.41,3.36,3.36,0,0,0,.19-1.27,1,1,0,0,0-.57-.9q-1.26-.61-2.86,2.63l-3.12,6.31a2.58,2.58,0,0,0,.07,2.12c.32.85.42,1.41.28,1.68l-.06.14c-.22.43-.59.51-1.14.24l-7.28-3.61c-.54-.26-.71-.61-.5-1l.07-.14a2.69,2.69,0,0,1,1.29-.9,3,3,0,0,0,1.51-1.34l3.33-6.75A1.89,1.89,0,0,0,125,96.3a8.15,8.15,0,0,0-.41-1.21,1.07,1.07,0,0,1,0-1l0-.1a1.28,1.28,0,0,1,1.26-.6l5.89.13c.53.06.85.21,1,.43a1,1,0,0,1-.11.92l-1.22,2.47A5.06,5.06,0,0,1,137.74,96.35Z"/><path d="M142.78,119.93a10.79,10.79,0,0,1-5.46-5.72,9.07,9.07,0,0,1,6-12.14,11.19,11.19,0,0,1,13,6.46,9.19,9.19,0,0,1-5.94,12.18A10.3,10.3,0,0,1,142.78,119.93Zm1.53-1.31q2.17,1.08,4.23-3.09a21.2,21.2,0,0,0,1.38-3.84,16.08,16.08,0,0,0,.53-4.67c0-1.57-.48-2.56-1.29-3a2,2,0,0,0-2.22.21,8.58,8.58,0,0,0-2.08,2.94,16.76,16.76,0,0,0-1,2.77,29.16,29.16,0,0,0-.77,3.44,9.07,9.07,0,0,0,0,3.25A2.56,2.56,0,0,0,144.31,118.62Z"/><path d="M179,117.17c.52.26.67.6.46,1l-.07.14c-.16.31-.7.59-1.64.83a5,5,0,0,0-2.07,1l-10.16,9.53a1.3,1.3,0,0,1-1.62.29l-3-1.47a1.5,1.5,0,0,1-.78-1.49l.63-14.24a7.74,7.74,0,0,0-.29-2,3,3,0,0,1-.07-1.78l.07-.14c.21-.42.58-.51,1.1-.25l7.79,3.85c.5.25.64.6.41,1l-.06.13a1.72,1.72,0,0,1-.7.65,3.73,3.73,0,0,0-.84.62,3.14,3.14,0,0,0-.51,1.43l-.88,9.1,5.84-5.59a3.62,3.62,0,0,0,1.09-1.93,4,4,0,0,0-.28-1.44,1.48,1.48,0,0,1-.13-1.06l.07-.13c.22-.46.59-.55,1.11-.3Z"/><path d="M189,135.7a.83.83,0,0,1,.94.19.67.67,0,0,1,.08.9,5.75,5.75,0,0,1-3.67,2.48,7.76,7.76,0,0,1-5.79-.66,9.08,9.08,0,0,1-4.86-5.36,9.48,9.48,0,0,1,.73-7.36,8.9,8.9,0,0,1,5.44-4.8,9.17,9.17,0,0,1,7,.55,8,8,0,0,1,4.07,3.79,4.65,4.65,0,0,1,.11,4.06,2.49,2.49,0,0,1-2.36,1.45l-8.63.46a4.86,4.86,0,0,0,2.78,4.11,5.3,5.3,0,0,0,2.19.56A4,4,0,0,0,189,135.7ZM187.45,123a2.11,2.11,0,0,0-2.15.21,5.28,5.28,0,0,0-1.88,2.23,12.37,12.37,0,0,0-1.25,3.81l4.09-.34a2.23,2.23,0,0,0,1.73-1.29,6,6,0,0,0,.58-2.58A2,2,0,0,0,187.45,123Z"/><path d="M208.15,147.25a3,3,0,0,0-.16,2,2.75,2.75,0,0,1,.07,1.57L208,151c-.21.43-.57.51-1.1.26l-4.84-2.4a.85.85,0,0,1-.46-1.28l.15-.31a6.5,6.5,0,0,1-4.87-.55,8.8,8.8,0,0,1-4.53-5.05,9.12,9.12,0,0,1,.72-7.38,9.24,9.24,0,0,1,5.38-4.91,8.56,8.56,0,0,1,6.84.41,6.81,6.81,0,0,1,3,2.67l2.23-4.5a1.87,1.87,0,0,0,.14-1.39,7.52,7.52,0,0,0-.48-1.29,1.11,1.11,0,0,1-.08-1l0-.1a1,1,0,0,1,1.22-.5l6.07,1c1.15.18,1.51.7,1.09,1.56ZM199,145.7a2,2,0,0,0,1.91,0,3.63,3.63,0,0,0,1.67-1.79l3.24-6.54a5.53,5.53,0,0,0,.51-3.39,2.91,2.91,0,0,0-1.47-2.35q-2.51-1.24-4.74,2.84a20.27,20.27,0,0,0-1.54,3.84,16.62,16.62,0,0,0-.71,4.52C197.88,144.33,198.26,145.28,199,145.7Z"/><path d="M234.9,144.41a9.13,9.13,0,0,1,4.51,4.91,8.5,8.5,0,0,1-.55,7.21,9.79,9.79,0,0,1-5.49,5.18,8.46,8.46,0,0,1-6.85-.35,6.4,6.4,0,0,1-3.36-3.52l-.16.3a.86.86,0,0,1-1.31.45l-5.1-2.57c-.52-.26-.68-.6-.46-1l.06-.13a2.73,2.73,0,0,1,1.29-.91,3,3,0,0,0,1.53-1.37l7.62-15.42a2.46,2.46,0,0,0,0-2.06c-.3-.78-.39-1.3-.25-1.58l.06-.13c.18-.36.64-.53,1.39-.5l6.41.18a1.37,1.37,0,0,1,1.18.42,1,1,0,0,1,0,1.15l-4.49,9.08A6.18,6.18,0,0,1,234.9,144.41Zm-8.1,15c1.71.85,3.28-.15,4.69-3a27.8,27.8,0,0,0,1.68-4.23,13.39,13.39,0,0,0,.66-4.23c0-1.35-.41-2.22-1.17-2.6a2,2,0,0,0-1.87.06,4.16,4.16,0,0,0-1.64,1.91l-3.26,6.58a5.31,5.31,0,0,0-.49,3.25A2.81,2.81,0,0,0,226.8,159.43Z"/><path d="M262,158.23c.52.26.67.6.46,1l-.07.13a2.78,2.78,0,0,1-1.45,1,7.06,7.06,0,0,0-1.85,1.06l-13.23,10.62a21.58,21.58,0,0,1-1.86,1.42,22.35,22.35,0,0,1-2.18,1.25,6.49,6.49,0,0,1-2.7.73,5.35,5.35,0,0,1-2.63-.57,6.81,6.81,0,0,1-3.3-3.1,3.86,3.86,0,0,1-.15-3.49,2.58,2.58,0,0,1,1.5-1.41,2.63,2.63,0,0,1,2.08.23,2.45,2.45,0,0,1,1.4,1.57,3.52,3.52,0,0,1,0,1.93,8,8,0,0,0-.3,1.77c0,.57.12.94.46,1.11.88.44,2.67-.51,5.36-2.83l-.15-17a9.25,9.25,0,0,0-.36-2.14,2.81,2.81,0,0,1-.07-1.78l.07-.14c.21-.43.58-.51,1.1-.26l7.29,3.61a.7.7,0,0,1,.41,1l-.07.14a1.54,1.54,0,0,1-.69.63,3.05,3.05,0,0,0-.81.61,3.43,3.43,0,0,0-.47,1.54l-.56,9.84,6.85-6c.66-.71,1-1.29.88-1.74a5.81,5.81,0,0,0-.49-1.48c-.25-.55-.32-.93-.2-1.16l.06-.14c.23-.45.6-.55,1.12-.29Z"/><path d="M66.88,124.57a11.86,11.86,0,0,1-6.41-7.9,14.53,14.53,0,0,1,1.06-10.53,13.68,13.68,0,0,1,7.38-7.08,11.79,11.79,0,0,1,9.85.63,13.71,13.71,0,0,1,6,5.34q2,3.36.66,6a2.84,2.84,0,0,1-1.72,1.55,3.09,3.09,0,0,1-2.42-.27,3.7,3.7,0,0,1-1.72-1.71,6.69,6.69,0,0,1-.68-2.43c-.07-.85-.14-1.71-.22-2.57a7.27,7.27,0,0,0-.64-2.43,3.37,3.37,0,0,0-1.64-1.67,3.93,3.93,0,0,0-3.68.16,7.73,7.73,0,0,0-3.33,3.7,14.14,14.14,0,0,0-1.58,9c.52,2.81,1.79,4.7,3.8,5.7a6.64,6.64,0,0,0,2.22.67,5.69,5.69,0,0,0,2.14-.14,10.34,10.34,0,0,0,1.66-.55c.42-.19.91-.43,1.49-.74a1.2,1.2,0,0,1,1.38.2,1,1,0,0,1,.18,1.33,9.7,9.7,0,0,1-5.56,4.72C72.61,126.38,69.89,126.05,66.88,124.57Z"/><path d="M87.45,134.74A10.78,10.78,0,0,1,82,129a8.73,8.73,0,0,1,.28-7.44A8.62,8.62,0,0,1,88,116.88a10.55,10.55,0,0,1,7.62.8,10.68,10.68,0,0,1,5.38,5.66A9.19,9.19,0,0,1,95,135.52,10.3,10.3,0,0,1,87.45,134.74ZM89,133.43q2.17,1.08,4.24-3.09a21.25,21.25,0,0,0,1.37-3.84,16,16,0,0,0,.53-4.67c-.05-1.57-.48-2.56-1.29-3a2,2,0,0,0-2.22.22A8.42,8.42,0,0,0,89.53,122a16.56,16.56,0,0,0-1,2.78,28.56,28.56,0,0,0-.77,3.43,9.12,9.12,0,0,0,0,3.26A2.56,2.56,0,0,0,89,133.43Z"/><path d="M107.48,144.65a10.79,10.79,0,0,1-5.46-5.72,9.07,9.07,0,0,1,6-12.14,10.49,10.49,0,0,1,7.62.8,10.63,10.63,0,0,1,5.39,5.66,9.19,9.19,0,0,1-5.94,12.18A10.3,10.3,0,0,1,107.48,144.65Zm1.53-1.31q2.17,1.08,4.23-3.09a20.51,20.51,0,0,0,1.37-3.84,16.09,16.09,0,0,0,.54-4.67c-.05-1.57-.48-2.56-1.3-3a2,2,0,0,0-2.21.21,8.48,8.48,0,0,0-2.08,2.94,16.76,16.76,0,0,0-1,2.77,29.16,29.16,0,0,0-.77,3.44,9.07,9.07,0,0,0,0,3.25A2.56,2.56,0,0,0,109,143.34Z"/><path d="M119.07,150c-.52-.26-.68-.6-.46-1l.06-.13a2.69,2.69,0,0,1,1.28-.91,3.06,3.06,0,0,0,1.49-1.35l7.66-15.49a3.09,3.09,0,0,0,.19-2,2.87,2.87,0,0,1-.09-1.5l.07-.13c.12-.25.5-.39,1.13-.41l6.36,0a1.38,1.38,0,0,1,1.16.51.92.92,0,0,1,0,1l-10.42,21.08a2.83,2.83,0,0,0-.09,2,2.63,2.63,0,0,1,.14,1.6l-.07.14c-.21.43-.59.51-1.13.24Z"/><path d="M157.7,153a8.91,8.91,0,0,1,3.59,4.34,6.14,6.14,0,0,1-.34,4.94,6.27,6.27,0,0,1-5.29,3.54q-3.75.42-9.41-2.37l-9.29-4.6c-.54-.27-.71-.62-.49-1.05l.06-.13a2.8,2.8,0,0,1,1.29-.9,3,3,0,0,0,1.51-1.34l8.25-16.68a2.93,2.93,0,0,0,.15-2,2.75,2.75,0,0,1-.07-1.57l.07-.14c.21-.43.59-.51,1.13-.24l9.39,4.64c2.91,1.45,4.84,3.1,5.79,5a5.87,5.87,0,0,1,.07,5.52,5.52,5.52,0,0,1-2.66,2.69A6,6,0,0,1,157.7,153Zm-8.76,8.83a3.62,3.62,0,0,0,3,.26,4,4,0,0,0,2.17-2.11,6.19,6.19,0,0,0,.26-4.68,6.53,6.53,0,0,0-3.61-4l-1.43-.7-3.1,6.26a3.49,3.49,0,0,0-.33,2.42,2.58,2.58,0,0,0,1.45,1.72Zm4.52-19.62-2.11,4.27a1.88,1.88,0,0,0-.13,1.54,2.07,2.07,0,0,0,1.09,1.13L154,150a3,3,0,0,0,2.5.16,3.74,3.74,0,0,0,1.92-1.94,5.7,5.7,0,0,0,.65-3.9,3.86,3.86,0,0,0-2.2-2.6l-1-.47C154.86,140.67,154,141,153.46,142.17Z"/><path d="M175.84,171.38a.85.85,0,0,1,.94.19.68.68,0,0,1,.08.9,5.82,5.82,0,0,1-3.68,2.49,7.77,7.77,0,0,1-5.79-.67,9,9,0,0,1-4.85-5.36,9.39,9.39,0,0,1,.73-7.36,8.86,8.86,0,0,1,5.43-4.8,9.13,9.13,0,0,1,7,.56,8,8,0,0,1,4.08,3.79,4.62,4.62,0,0,1,.1,4,2.49,2.49,0,0,1-2.36,1.45l-8.62.46a4.8,4.8,0,0,0,2.77,4.11,5.15,5.15,0,0,0,2.19.56A3.9,3.9,0,0,0,175.84,171.38Zm-1.53-12.69a2.09,2.09,0,0,0-2.15.2,5.34,5.34,0,0,0-1.88,2.23,12.54,12.54,0,0,0-1.25,3.81l4.09-.34a2.19,2.19,0,0,0,1.74-1.29,6.2,6.2,0,0,0,.58-2.58A2,2,0,0,0,174.31,158.69Z"/><path d="M193.92,182.39a3.85,3.85,0,0,0-.25,1.5,1.73,1.73,0,0,0,.26.91,2.65,2.65,0,0,1,.36.6.73.73,0,0,1,0,.63q-.56,1.11-4.38-.78a6.07,6.07,0,0,1-2.14-1.52,2,2,0,0,1-.35-1.73q-2.16,1.13-5.17-.37a8.49,8.49,0,0,1-4-3.61,5,5,0,0,1,.12-4.71,5.13,5.13,0,0,1,3.65-2.94,7.73,7.73,0,0,1,5,.77,7.33,7.33,0,0,1,3,2.55l0-.11a25.2,25.2,0,0,0,1.48-4.91,1.8,1.8,0,0,0-1.05-2,1.61,1.61,0,0,0-1.61.09,5.64,5.64,0,0,0-1.46,1.21,4.31,4.31,0,0,1-1.61,1.15,2.28,2.28,0,0,1-2-.09,2.69,2.69,0,0,1-1.42-1.46,2.36,2.36,0,0,1,.13-1.92,3.55,3.55,0,0,1,3.44-2,11.72,11.72,0,0,1,5.3,1.38,9.48,9.48,0,0,1,4.7,4.62,8.34,8.34,0,0,1,.15,6.3Zm-9-1.56a1.67,1.67,0,0,0,1.64-.12,3.46,3.46,0,0,0,1.33-1.45l.63-1.63c.7-2,.47-3.27-.71-3.85a1.63,1.63,0,0,0-1.56,0,3,3,0,0,0-1.31,1.44,8.76,8.76,0,0,0-1,3.49A2,2,0,0,0,185,180.83Z"/><path d="M214.38,176.44a3.35,3.35,0,0,1,1.85,2.1,3.85,3.85,0,0,1-.33,2.83c-1.05,2.12-2.44,2.76-4.18,1.89a2.56,2.56,0,0,1-1.35-1.27,2.07,2.07,0,0,1-.09-1.42,3.36,3.36,0,0,0,.19-1.27,1,1,0,0,0-.57-.9c-.83-.41-1.79.47-2.86,2.64l-3.12,6.3a2.62,2.62,0,0,0,.07,2.12c.32.85.42,1.41.29,1.68l-.07.14c-.21.43-.59.51-1.13.24l-7.29-3.6c-.54-.27-.71-.62-.49-1l.06-.14a2.8,2.8,0,0,1,1.29-.9,3,3,0,0,0,1.51-1.34l3.34-6.74a2,2,0,0,0,.16-1.36,7.14,7.14,0,0,0-.41-1.21,1.1,1.1,0,0,1,0-1l0-.1c.19-.39.61-.58,1.27-.6l5.88.13c.53.06.85.21,1,.43a1.06,1.06,0,0,1-.12.92L208,177.48A5.07,5.07,0,0,1,214.38,176.44Z"/><path d="M217.53,199.05a12.77,12.77,0,0,1-4.81-3.75c-1-1.43-1.26-2.73-.68-3.9a2.18,2.18,0,0,1,1.46-1.3,2.94,2.94,0,0,1,2,.32,2.69,2.69,0,0,1,1.47,1.63,4.24,4.24,0,0,1,.12,2,5,5,0,0,0,0,2,2,2,0,0,0,1.13,1.47,1.82,1.82,0,0,0,2.75-1,2.56,2.56,0,0,0,0-2.39,7.1,7.1,0,0,0-1.71-2.2c-.76-.69-1.5-1.4-2.21-2.15a5.82,5.82,0,0,1-1.45-2.7,5,5,0,0,1,.53-3.41A4.91,4.91,0,0,1,220,181a9.62,9.62,0,0,1,5.87,1.11,11,11,0,0,1,4.54,3.73,3.76,3.76,0,0,1,.56,3.86,2.1,2.1,0,0,1-1.39,1.14,2.59,2.59,0,0,1-1.9-.2,2.51,2.51,0,0,1-1.41-1.58,4.18,4.18,0,0,1-.09-2,5.89,5.89,0,0,0,.11-1.91,1.58,1.58,0,0,0-.89-1.32,1.5,1.5,0,0,0-1.45,0,2.44,2.44,0,0,0-1.1,1.14,2.85,2.85,0,0,0-.1,2.48,6.63,6.63,0,0,0,1.58,2.26c.71.69,1.41,1.4,2.1,2.14a5.74,5.74,0,0,1,1.41,2.61,4.66,4.66,0,0,1-.49,3.24,4.71,4.71,0,0,1-3.75,2.6A10.28,10.28,0,0,1,217.53,199.05Z"/><path d="M148.72,185.17a125.29,125.29,0,0,0-13.15-4.66c-6-1.63-7.84-2.22-8.58-3.75s-4.92-3.1-10.32-7.26-4.48-8.34-1.79-15.12,1.55-11.82-3.83-11.34-11,13.13-13.74,14.07-9.62-4.21-17,.6-11.21,9.48-13.71,16.19,1.26,14.86,3.4,18.57a16,16,0,0,0,9.79,7.33c3.72.84,11.3,2.27,13.87-.26s7.54,2.9,15.78,6.39,22.48,9.54,28.82,11.15S153,224.84,157,225.79s6.61,3.4,8.84-.34,8.31-16.8,11.21-21.11,2.06-7.27-1.16-8.48S153.9,187,148.72,185.17" fill="#c97840"/><path d="M148.72,185.17a125.29,125.29,0,0,0-13.15-4.66c-6-1.63-7.84-2.22-8.58-3.75s-4.92-3.1-10.32-7.26-4.48-8.34-1.79-15.12,1.55-11.82-3.83-11.34-11,13.13-13.74,14.07-9.62-4.21-17,.6-11.21,9.48-13.71,16.19,1.26,14.86,3.4,18.57a16,16,0,0,0,9.79,7.33c3.72.84,11.3,2.27,13.87-.26s7.54,2.9,15.79,6.39,22.47,9.54,28.81,11.15S153,224.84,157,225.79s6.61,3.4,8.84-.34,8.31-16.8,11.21-21.11,2.06-7.27-1.17-8.48S153.9,187,148.72,185.17Z" fill="none" stroke="#231f20" stroke-miterlimit="10" stroke-width="1.23"/><path d="M92.51,164.59s7.15,5,13.67,7.16.91,12.66-5.89,9.95" fill="#c97840"/><path d="M92.51,164.59s7.15,5,13.67,7.16.91,12.66-5.89,9.95" fill="none" stroke="#231f20" stroke-linecap="round" stroke-miterlimit="10" stroke-width="1.23"/><path d="M87.68,174.87a40.8,40.8,0,0,0,10.69,5.91c3.36,1.14,4.52,3.87,3.71,7.3s-1.66,4.37-3.78,4.64a7,7,0,0,1-3.82-.69s4.72,3.07-.78,7.51" fill="#c97840"/><path d="M87.68,174.87a40.8,40.8,0,0,0,10.69,5.91c3.36,1.14,4.52,3.87,3.71,7.3s-1.66,4.37-3.78,4.64a7,7,0,0,1-3.82-.69s4.72,3.07-.78,7.51" fill="none" stroke="#231f20" stroke-linecap="round" stroke-miterlimit="10" stroke-width="1.23"/></svg>