<svg xmlns="http://www.w3.org/2000/svg" xmlns:xlink="http://www.w3.org/1999/xlink" viewBox="0 0 290 289.17" width="189" height="192"><defs><clipPath id="a"><path d="M424.07,373.16a21.74,21.74,0,0,0-21.74,21.74V598a21.75,21.75,0,0,0,21.74,21.74H553.72c67.81,0,123.29-55.48,123.29-123.3S621.53,373.16,553.72,373.16Z" fill="none"/></clipPath></defs><path d="M226.24,144.58A70.88,70.88,0,1,0,145,67a70.87,70.87,0,1,0-81.23,77.62A70.88,70.88,0,1,0,145,222.21a70.87,70.87,0,1,0,81.24-77.63" fill="#f7df53"/><path d="M142.92,133.67s4.21-31,17.63-42.92c18.53-16.46,34.82,2.08,28.81,15.08-6.34,13.71-32,35.93-32,35.93" fill="#76a780"/><path d="M142.92,133.67s4.21-31,17.63-42.92c18.53-16.46,34.82,2.08,28.81,15.08-6.34,13.71-32,35.93-32,35.93" fill="none" stroke="#000" stroke-miterlimit="10" stroke-width="2.47"/><path d="M171.4,102.76s-5.81,7.87-9.93,15c-1.81,3.12-8.25,15-8.25,15" fill="none" stroke="#000" stroke-linecap="round" stroke-miterlimit="10" stroke-width="2.47"/><path d="M152.91,137.45s30.5-7,46.38,1.39c21.93,11.55,6.86,30-7.42,29-15.06-1.11-39.27-17.4-39.27-17.4" fill="#76a780"/><path d="M152.91,137.45s30.5-7,46.38,1.39c21.93,11.55,6.86,30-7.42,29-15.06-1.11-39.27-17.4-39.27-17.4" fill="none" stroke="#000" stroke-miterlimit="10" stroke-width="2.47"/><path d="M191.86,153.23s-9.57-4.38-17.69-5.74c-3.55-.59-17.85-3.64-17.85-3.64" fill="none" stroke="#000" stroke-linecap="round" stroke-miterlimit="10" stroke-width="2.47"/><path d="M141.58,148.22s-14.43,22.84-31.86,27.13C85.66,181.28,84.6,155.44,96,146.74c12-9.17,36.61-12.4,36.61-12.4" fill="#76a780"/><path d="M141.58,148.22s-14.43,22.84-31.86,27.13C85.66,181.28,84.6,155.44,96,146.74c12-9.17,36.61-12.4,36.61-12.4" fill="none" stroke="#000" stroke-miterlimit="10" stroke-width="2.47"/><path d="M108,161.63s8.8-4.26,15.76-8.63c3-1.92,14.28-9.42,14.28-9.42" fill="none" stroke="#000" stroke-linecap="round" stroke-miterlimit="10" stroke-width="2.47"/><path d="M136.46,140.69s-28.56-12.76-36.23-29C89.65,89.28,112,78.86,122.82,88.29c11.36,9.95,22.38,42.16,22.38,42.16" fill="#76a780"/><path d="M136.46,140.69s-28.56-12.76-36.23-29C89.65,89.28,112,78.86,122.82,88.29c11.36,9.95,22.38,42.16,22.38,42.16" fill="none" stroke="#000" stroke-miterlimit="10" stroke-width="2.47"/><path d="M114.81,104.67s5.92,7.78,11.59,13.74c2.48,2.61,14,15.45,14,15.45" fill="none" stroke="#000" stroke-linecap="round" stroke-miterlimit="10" stroke-width="2.47"/><path d="M155.65,147s13.39,23.46,9,40.87c-6.07,24-29.37,12.83-31.71-1.31-2.46-14.89,6.24-38.14,6.24-38.14" fill="#76a780"/><path d="M155.65,147s13.39,23.46,9,40.87c-6.07,24-29.37,12.83-31.71-1.31-2.46-14.89,6.24-38.14,6.24-38.14" fill="none" stroke="#000" stroke-miterlimit="10" stroke-width="2.47"/><path d="M149.48,188.6s.38-9.77-.22-18c-.26-3.59-1.61-17-1.61-17" fill="none" stroke="#000" stroke-linecap="round" stroke-miterlimit="10" stroke-width="2.47"/><path d="M157.35,141.76a10.28,10.28,0,1,1-10.27-10.27,10.27,10.27,0,0,1,10.27,10.27" fill="#f6df53"/><circle cx="147.08" cy="141.76" r="10.27" transform="translate(-40.18 223.39) rotate(-67.5)" fill="none" stroke="#000" stroke-miterlimit="10" stroke-width="2.47"/></svg>