<svg xmlns="http://www.w3.org/2000/svg" viewBox="0 0 220 242.7" width="141" height="157"><path d="M46.61,233.75,204.3,135.14a23,23,0,0,0-1.41-39.74L38.65,8.14A23,23,0,0,0,4.93,29.23l6.56,185.86a23,23,0,0,0,35.12,18.66" fill="#487cba"/><path d="M76.3,70.56a3.37,3.37,0,0,0,.24-2.26,3,3,0,0,1,0-1.77l.08-.15c.25-.48.68-.56,1.28-.24l8.27,4.4q.87.45.48,1.17l-.08.15a3,3,0,0,1-1.55.93,3.21,3.21,0,0,0-1.82,1.42L77.53,84.85Q74.08,91.36,70.14,93t-8.6-.79a14.46,14.46,0,0,1-4.15-3,7.45,7.45,0,0,1-1.9-3.28,8.54,8.54,0,0,1-.2-2.93A6.79,6.79,0,0,1,56,80.48a3.86,3.86,0,0,1,2.11-2,3.19,3.19,0,0,1,2.69.28,3.53,3.53,0,0,1,1.81,1.94,4.58,4.58,0,0,1,.15,2.49c-.18.86-.37,1.69-.59,2.51a5.92,5.92,0,0,0-.16,2.3,2.11,2.11,0,0,0,1.17,1.61c1.53.82,3.27-.61,5.21-4.27Z"/><path d="M96.31,104.86a4.37,4.37,0,0,0-.58,1.67,1,1,0,0,0,.26.88,1.26,1.26,0,0,1,.41.58,1,1,0,0,1-.13.85c-.26.47-.75.63-1.48.47A13.89,13.89,0,0,1,91.74,108a5.77,5.77,0,0,1-2.32-1.86,2.44,2.44,0,0,1-.06-2.2q-2.74,1.53-6.54-.48a7.84,7.84,0,0,1-4-4.64,8.24,8.24,0,0,1,.87-6.5l3.34-6.28a3.28,3.28,0,0,0,.25-2.28,3.05,3.05,0,0,1-.08-1.68l.08-.15a1,1,0,0,1,1.33-.41l6,2.23c1.26.47,1.71,1,1.37,1.69L86,96.53a7.39,7.39,0,0,0-1.18,3.54,2.26,2.26,0,0,0,1.33,2,2.35,2.35,0,0,0,2.32-.09,5.36,5.36,0,0,0,2.16-2.35l4-7.44a3.34,3.34,0,0,0,.24-2.28,3.12,3.12,0,0,1-.07-1.68l.08-.15a.94.94,0,0,1,1.32-.4l6,2.22c1.19.44,1.61,1,1.26,1.63Z"/><path d="M105.47,115.46a14.47,14.47,0,0,1-5.29-4.37c-1.12-1.64-1.33-3.12-.64-4.42a2.49,2.49,0,0,1,1.69-1.41,3.35,3.35,0,0,1,2.26.42,3,3,0,0,1,1.6,1.89,4.78,4.78,0,0,1,.07,2.31,5.63,5.63,0,0,0,0,2.24,2.29,2.29,0,0,0,1.22,1.69,2,2,0,0,0,3.13-1,2.88,2.88,0,0,0,.11-2.69,8.37,8.37,0,0,0-1.86-2.53c-.84-.8-1.64-1.63-2.42-2.49a6.51,6.51,0,0,1-1.54-3.09,5.59,5.59,0,0,1,.7-3.82,5.51,5.51,0,0,1,4.41-2.94,10.79,10.79,0,0,1,6.56,1.44,12.51,12.51,0,0,1,5,4.34c1,1.66,1.16,3.12.5,4.37a2.37,2.37,0,0,1-1.6,1.24,2.89,2.89,0,0,1-2.14-.29,2.79,2.79,0,0,1-1.53-1.82,4.56,4.56,0,0,1,0-2.26,6.85,6.85,0,0,0,.17-2.15,1.76,1.76,0,0,0-1-1.52,1.74,1.74,0,0,0-1.64,0A2.81,2.81,0,0,0,112,99.82a3.21,3.21,0,0,0-.2,2.78,7.72,7.72,0,0,0,1.71,2.6c.78.8,1.55,1.62,2.3,2.47a6.57,6.57,0,0,1,1.5,3,5.57,5.57,0,0,1-5,6.43A11.55,11.55,0,0,1,105.47,115.46Z"/><path d="M123.42,125.05a6.52,6.52,0,0,1-3.53-4.19,8.41,8.41,0,0,1,1.1-6l4.74-8.91-1.43-.76a1,1,0,0,1-.49-.58,1,1,0,0,1,.08-.75l.44-.82a.87.87,0,0,1,1.33-.41l.71.38a5.09,5.09,0,0,0,3.52.54,5.42,5.42,0,0,0,3.08-1.9,1.15,1.15,0,0,1,1.54-.44l.86.46a1,1,0,0,1,.5,1.52l-2,3.8,3.87,2a1,1,0,0,1,.49.58,1,1,0,0,1-.08.75l-.44.82a.92.92,0,0,1-.57.49,1,1,0,0,1-.75-.08l-3.88-2.06-4.79,9a2.44,2.44,0,0,0-.3,1.74,1.74,1.74,0,0,0,.91,1.18,3.11,3.11,0,0,0,3.22-.07,1.06,1.06,0,0,1,.81-.07.82.82,0,0,1,.52.44.72.72,0,0,1,0,.65,6.67,6.67,0,0,1-3.88,3.27A6.76,6.76,0,0,1,123.42,125.05Z"/><path d="M30.53,123.42c-.58-.31-.74-.7-.49-1.17l.08-.15a3,3,0,0,1,1.54-.95,3.2,3.2,0,0,0,1.8-1.43L44,100l-2-1.06A2.4,2.4,0,0,0,40,98.77a6.44,6.44,0,0,0-1.92,1,8.79,8.79,0,0,1-1.79,1.06,1.73,1.73,0,0,1-1.5.11l-.64-.34Q33.11,100,33.82,99l3.46-4.71a1.3,1.3,0,0,1,1.9-.49l19.33,10.27a1.32,1.32,0,0,1,.65,1.84l-1.94,5.57a1,1,0,0,1-.6.67,1.09,1.09,0,0,1-.9-.11l-.64-.34a1.72,1.72,0,0,1-.75-1.32,10.2,10.2,0,0,1-.15-2.08,6.27,6.27,0,0,0-.3-2.16,2.46,2.46,0,0,0-1.2-1.55l-2-1L40.22,123.32a3.23,3.23,0,0,0-.18,2.29,2.94,2.94,0,0,1,.08,1.8l-.08.15c-.25.48-.68.56-1.28.24Z"/><path d="M67.86,138a4.21,4.21,0,0,0-.34,1.68,1.87,1.87,0,0,0,.27,1,2.58,2.58,0,0,1,.38.69.78.78,0,0,1,0,.7q-.66,1.25-4.91-1a6.93,6.93,0,0,1-2.36-1.78,2.18,2.18,0,0,1-.33-2c-1.64.8-3.58.6-5.81-.58a9.55,9.55,0,0,1-4.36-4.19,5.64,5.64,0,0,1,.29-5.3,5.74,5.74,0,0,1,4.2-3.19,8.62,8.62,0,0,1,5.62,1,8.34,8.34,0,0,1,3.3,3l.06-.11a28.38,28.38,0,0,0,1.83-5.49,2,2,0,0,0-1.13-2.28,1.81,1.81,0,0,0-1.81,0A6.49,6.49,0,0,0,61,121.56a4.79,4.79,0,0,1-1.84,1.24,2.57,2.57,0,0,1-2.22-.17,3.07,3.07,0,0,1-1.54-1.69,2.59,2.59,0,0,1,.21-2.16,4,4,0,0,1,3.93-2.13,13.28,13.28,0,0,1,5.92,1.73,10.66,10.66,0,0,1,5.14,5.36,9.4,9.4,0,0,1,0,7.09Zm-10-2.06a1.84,1.84,0,0,0,1.85-.08,3.83,3.83,0,0,0,1.55-1.59l.76-1.81c.86-2.21.63-3.66-.67-4.36a1.89,1.89,0,0,0-1.76,0A3.42,3.42,0,0,0,58,129.64a9.63,9.63,0,0,0-1.23,3.9A2.28,2.28,0,0,0,57.81,135.94Z"/><path d="M76.7,148.39A14.49,14.49,0,0,1,71.41,144q-1.68-2.46-.64-4.42a2.49,2.49,0,0,1,1.69-1.41,3.36,3.36,0,0,1,2.26.43,3,3,0,0,1,1.6,1.88,4.78,4.78,0,0,1,.07,2.31,5.67,5.67,0,0,0,0,2.25,2.29,2.29,0,0,0,1.22,1.68,2,2,0,0,0,3.13-1,2.88,2.88,0,0,0,.11-2.69A8.32,8.32,0,0,0,79,140.52c-.83-.79-1.63-1.62-2.41-2.49A6.47,6.47,0,0,1,75,135a5.58,5.58,0,0,1,.7-3.82,5.51,5.51,0,0,1,4.41-2.94,10.79,10.79,0,0,1,6.56,1.44,12.36,12.36,0,0,1,5,4.34c1,1.65,1.16,3.11.5,4.36a2.41,2.41,0,0,1-1.6,1.25,2.93,2.93,0,0,1-2.14-.29,2.8,2.8,0,0,1-1.53-1.83,4.56,4.56,0,0,1,0-2.26,6.83,6.83,0,0,0,.17-2.15,1.82,1.82,0,0,0-2.59-1.57,2.81,2.81,0,0,0-1.27,1.26,3.21,3.21,0,0,0-.2,2.78,7.72,7.72,0,0,0,1.71,2.6c.78.8,1.55,1.62,2.3,2.47a6.57,6.57,0,0,1,1.5,3,5.59,5.59,0,0,1-5,6.43A11.61,11.61,0,0,1,76.7,148.39Z"/><path d="M94.65,158a6.52,6.52,0,0,1-3.53-4.19,8.42,8.42,0,0,1,1.1-6L97,138.85l-1.42-.76a.92.92,0,0,1-.49-.57,1,1,0,0,1,.08-.75l.44-.83a.87.87,0,0,1,1.32-.41l.72.38a5,5,0,0,0,3.52.55,5.44,5.44,0,0,0,3.08-1.91,1.14,1.14,0,0,1,1.54-.43l.86.45a1,1,0,0,1,.5,1.52l-2,3.8L109,142a.92.92,0,0,1,.49.57,1,1,0,0,1-.08.75l-.44.83a1,1,0,0,1-.58.49,1,1,0,0,1-.75-.09l-3.87-2.06-4.79,9a2.4,2.4,0,0,0-.3,1.74,1.78,1.78,0,0,0,.91,1.19,3.11,3.11,0,0,0,3.22-.08,1.11,1.11,0,0,1,.81-.07.82.82,0,0,1,.52.44.74.74,0,0,1,0,.66,6.71,6.71,0,0,1-9.4,2.62Z"/><path d="M120.87,163.8a1,1,0,0,1,1,.24.77.77,0,0,1,.06,1c-.72,1.22-2.12,2.11-4.22,2.67a8.73,8.73,0,0,1-6.49-.94,10.14,10.14,0,0,1-5.29-6.19,10.59,10.59,0,0,1,1.06-8.26,10,10,0,0,1,6.27-5.22,10.3,10.3,0,0,1,7.91.85,9,9,0,0,1,4.46,4.4,5.21,5.21,0,0,1,0,4.57A2.8,2.8,0,0,1,123,158.5l-9.72.23a5.47,5.47,0,0,0,3,4.73,5.93,5.93,0,0,0,2.45.69A4.33,4.33,0,0,0,120.87,163.8Zm-1.3-14.34a2.38,2.38,0,0,0-2.43.16,6.08,6.08,0,0,0-2.19,2.45,14.07,14.07,0,0,0-1.53,4.25l4.61-.25a2.48,2.48,0,0,0,2-1.4,6.8,6.8,0,0,0,.74-2.88A2.3,2.3,0,0,0,119.57,149.46Z"/><path d="M39,175.2l.08-.15a3.08,3.08,0,0,1,1.48-1,3.3,3.3,0,0,0,1.74-1.46l9.83-18.5a3.31,3.31,0,0,0,.23-2.26,3.1,3.1,0,0,1,0-1.77l.08-.15c.25-.48.68-.55,1.28-.24L61.84,154c.6.32.78.72.52,1.19l-.07.15a3.1,3.1,0,0,1-1.56.94,3.17,3.17,0,0,0-1.82,1.42l-9.82,18.49a3.13,3.13,0,0,0-.16,2.31,3,3,0,0,1,.09,1.81l-.08.15c-.25.47-.68.55-1.28.23L39.5,176.4C38.9,176.08,38.73,175.68,39,175.2Z"/><path d="M58.82,187.14A6.51,6.51,0,0,1,55.28,183a8.42,8.42,0,0,1,1.1-6L61.12,168l-1.43-.76a.92.92,0,0,1-.49-.57,1,1,0,0,1,.08-.75l.44-.83A.87.87,0,0,1,61,164.7l.72.38a5.09,5.09,0,0,0,3.52.55,5.44,5.44,0,0,0,3.08-1.91,1.15,1.15,0,0,1,1.54-.44l.86.46a1,1,0,0,1,.5,1.52l-2,3.8,3.87,2.05a1,1,0,0,1,.49.58,1,1,0,0,1-.08.75l-.44.83a1,1,0,0,1-.58.49,1,1,0,0,1-.75-.09l-3.87-2.06-4.79,9a2.44,2.44,0,0,0-.3,1.74,1.78,1.78,0,0,0,.91,1.19,3.13,3.13,0,0,0,3.22-.08,1.11,1.11,0,0,1,.81-.07.82.82,0,0,1,.52.44.74.74,0,0,1,0,.66,6.7,6.7,0,0,1-9.39,2.62Z"/></svg>