<svg xmlns="http://www.w3.org/2000/svg" viewBox="0 0 295 294.43" width="191" height="193"><path d="M190.38,11.86l-45.2-6.62a69.89,69.89,0,0,0-42.55,7.26L62.17,33.72A69.82,69.82,0,0,0,32,64.6l-20.26,41a69.84,69.84,0,0,0-6.25,42.71l7.68,45a69.86,69.86,0,0,0,20.05,38.22l32.69,31.92a69.89,69.89,0,0,0,38.69,19.14l45.2,6.61a69.89,69.89,0,0,0,42.55-7.26l40.46-21.22A69.82,69.82,0,0,0,263,229.83l20.26-41a69.84,69.84,0,0,0,6.25-42.71l-7.68-45a69.88,69.88,0,0,0-20.05-38.23L229.07,31a69.76,69.76,0,0,0-38.69-19.14" fill="#76a780"/><path d="M110.53,71c-.65-.1-.93-.41-.85-.94l0-.17c0-.34.43-.81,1.13-1.41a3.21,3.21,0,0,0,1.21-2l3.24-22.16-2.23-.32a2.39,2.39,0,0,0-1.87.54,6.41,6.41,0,0,0-1.47,1.57,8.91,8.91,0,0,1-1.33,1.59,1.75,1.75,0,0,1-1.38.62l-.72-.11c-.79-.11-1.08-.57-.88-1.37l1.69-5.61a1.3,1.3,0,0,1,1.62-1.1l21.65,3.17a1.33,1.33,0,0,1,1.24,1.52l0,5.9a1,1,0,0,1-.33.83,1.1,1.1,0,0,1-.89.19l-.72-.1a1.74,1.74,0,0,1-1.15-1,9.35,9.35,0,0,1-.83-1.91,6.87,6.87,0,0,0-1-1.93,2.53,2.53,0,0,0-1.66-1.06l-2.19-.32-3.24,22.16a3.24,3.24,0,0,0,.6,2.22,2.92,2.92,0,0,1,.68,1.67l0,.17c-.08.53-.45.75-1.13.65Z"/><path d="M150.58,72.2a4.37,4.37,0,0,0,.25,1.69,1.86,1.86,0,0,0,.6.88,3,3,0,0,1,.6.52.84.84,0,0,1,.2.68c-.14.92-1.79,1.15-5,.69a6.75,6.75,0,0,1-2.81-.89,2.21,2.21,0,0,1-1-1.73q-1.92,2-5.67,1.41A9.52,9.52,0,0,1,132.3,73a5.59,5.59,0,0,1-1.52-5.08,5.74,5.74,0,0,1,2.88-4.42,8.64,8.64,0,0,1,5.64-.92,8.33,8.33,0,0,1,4.1,1.68l0-.13a28.08,28.08,0,0,0-.12-5.78,2,2,0,0,0-1.83-1.77,1.79,1.79,0,0,0-1.68.65A6.17,6.17,0,0,0,138.64,59a4.82,4.82,0,0,1-1.32,1.78,2.55,2.55,0,0,1-2.15.59,3.06,3.06,0,0,1-2-1.07,2.6,2.6,0,0,1-.53-2.1,4,4,0,0,1,3-3.33,13.16,13.16,0,0,1,6.16-.36,10.6,10.6,0,0,1,6.63,3.31,9.36,9.36,0,0,1,2.36,6.69Zm-10.15,1.44a1.87,1.87,0,0,0,1.72-.7,3.77,3.77,0,0,0,.92-2l.11-2q.09-3.55-2.1-3.87a1.84,1.84,0,0,0-1.67.55,3.36,3.36,0,0,0-.89,2,9.72,9.72,0,0,0,.15,4.08C139,72.88,139.59,73.52,140.43,73.64Z"/><path d="M162.41,79A14.27,14.27,0,0,1,156,76.66q-2.42-1.75-2.1-3.94a2.52,2.52,0,0,1,1.12-1.9,3.35,3.35,0,0,1,2.27-.36,3,3,0,0,1,2.14,1.24,4.81,4.81,0,0,1,.85,2.15A5.51,5.51,0,0,0,161,76a2.26,2.26,0,0,0,1.72,1.18,2.06,2.06,0,0,0,2.62-2,2.92,2.92,0,0,0-.81-2.57,8.32,8.32,0,0,0-2.61-1.76c-1-.47-2.08-1-3.11-1.53a6.55,6.55,0,0,1-2.49-2.39,5.64,5.64,0,0,1-.62-3.83,5.53,5.53,0,0,1,3.16-4.25,10.81,10.81,0,0,1,6.66-.86,12.53,12.53,0,0,1,6.17,2.41c1.5,1.22,2.15,2.54,1.94,3.94A2.36,2.36,0,0,1,172.5,66a2.9,2.9,0,0,1-2.11.45,2.86,2.86,0,0,1-2.06-1.21,4.57,4.57,0,0,1-.78-2.11,6.8,6.8,0,0,0-.56-2.08,1.83,1.83,0,0,0-3-.61,2.78,2.78,0,0,0-.77,1.61,3.23,3.23,0,0,0,.75,2.69,7.65,7.65,0,0,0,2.48,1.87q1.5.73,3,1.56a6.35,6.35,0,0,1,2.41,2.31,5.22,5.22,0,0,1,.61,3.63,5.32,5.32,0,0,1-3.11,4.09A11.57,11.57,0,0,1,162.41,79Z"/><path d="M182.5,82a6.51,6.51,0,0,1-4.74-2.75,8.39,8.39,0,0,1-1-6l1.46-10-1.6-.23a1,1,0,0,1-.83-1.11l.14-.93a.86.86,0,0,1,1.11-.82l.8.11a5.07,5.07,0,0,0,3.5-.67,5.44,5.44,0,0,0,2.26-2.83c.25-.71.68-1,1.3-.93l1,.14a1,1,0,0,1,1,1.26l-.62,4.26,4.34.63a.95.95,0,0,1,.83,1.11l-.14.93a1,1,0,0,1-.37.66,1,1,0,0,1-.74.17l-4.34-.64-1.47,10.11a2.38,2.38,0,0,0,.3,1.75,1.75,1.75,0,0,0,1.26.81,3.14,3.14,0,0,0,3-1.16,1.07,1.07,0,0,1,.73-.34.85.85,0,0,1,.64.24.71.71,0,0,1,.18.63,6.69,6.69,0,0,1-8,5.63Z"/><path d="M215.72,65.76c.65.1.93.41.85.94l0,.17a3.15,3.15,0,0,1-1.2,1.59,8,8,0,0,0-1.62,1.79l-10.47,16a23.63,23.63,0,0,1-1.5,2.17,22.85,22.85,0,0,1-1.9,2.08,7.33,7.33,0,0,1-2.64,1.73,6.14,6.14,0,0,1-3,.31,7.7,7.7,0,0,1-4.61-2.18,4.35,4.35,0,0,1-1.37-3.69,2.79,2.79,0,0,1,3.42-2.51,2.82,2.82,0,0,1,2,1.2,4.08,4.08,0,0,1,.69,2.06,8.54,8.54,0,0,0,.29,2c.16.63.46,1,.88,1q1.63.24,4.76-4.89l-6.08-18.15a10.8,10.8,0,0,0-1.13-2.16,3,3,0,0,1-.69-1.89l0-.17c.08-.53.44-.75,1.09-.66l9.06,1.33c.61.09.88.42.8,1l0,.17a1.86,1.86,0,0,1-.53.91,3.55,3.55,0,0,0-.65.94,3.75,3.75,0,0,0,0,1.81L205,79.39l5.24-8.83c.47-1,.58-1.72.34-2.17a6.61,6.61,0,0,0-1-1.42c-.45-.49-.66-.88-.62-1.16l0-.17c.09-.57.45-.8,1.09-.7Z"/><path d="M89.6,111.42a12.07,12.07,0,0,1-7.83-4.22,9.8,9.8,0,0,1-2.29-8.06,9.66,9.66,0,0,1,4.47-7,12.58,12.58,0,0,1,16.17,2.39A10.34,10.34,0,0,1,98,109.62,11.56,11.56,0,0,1,89.6,111.42Zm1.19-1.93c1.8.26,2.95-1.33,3.45-4.79a23.52,23.52,0,0,0,.14-4.58,18.28,18.28,0,0,0-1-5.19c-.61-1.66-1.41-2.57-2.42-2.72a2.2,2.2,0,0,0-2.3,1,9.61,9.61,0,0,0-1.21,3.87,19.71,19.71,0,0,0-.15,3.33,36.05,36.05,0,0,0,.37,4,10.26,10.26,0,0,0,1.15,3.48A2.89,2.89,0,0,0,90.79,109.49Z"/><path d="M108.4,95.29a1,1,0,0,1-1.3-.41.78.78,0,0,1,.16-1.22,19,19,0,0,0,2.15-1.78,3.09,3.09,0,0,0,.82-1.49c.15-.61,0-.94-.41-1a2.67,2.67,0,0,1-2-1.43,4.44,4.44,0,0,1-.48-2.93A4.6,4.6,0,0,1,109,81.93a4,4,0,0,1,3.28-.79,4.3,4.3,0,0,1,3,1.85,5.27,5.27,0,0,1,.78,4Q115.24,92.42,108.4,95.29Z"/><path d="M128.31,117.09a13.29,13.29,0,0,1-9.6-6.23,16.32,16.32,0,0,1-2.54-11.64,15.48,15.48,0,0,1,5.44-10.16,13.26,13.26,0,0,1,10.78-2.74A15.4,15.4,0,0,1,140.63,90c2.18,1.94,3.12,4,2.8,6.2a3.26,3.26,0,0,1-1.3,2.26,3.55,3.55,0,0,1-2.69.56A4.28,4.28,0,0,1,137,97.73a7.44,7.44,0,0,1-1.57-2.36c-.37-.89-.75-1.78-1.14-2.69a8.09,8.09,0,0,0-1.52-2.37,3.89,3.89,0,0,0-2.34-1.23,4.46,4.46,0,0,0-3.89,1.46,8.75,8.75,0,0,0-2.28,5.13,15.94,15.94,0,0,0,1.44,10.17q2.31,4.23,6.06,4.78a7.34,7.34,0,0,0,2.61-.05,6.62,6.62,0,0,0,2.23-.9,12.47,12.47,0,0,0,1.6-1.16c.38-.35.82-.79,1.33-1.31a1.35,1.35,0,0,1,1.54-.27,1.08,1.08,0,0,1,.66,1.36,10.9,10.9,0,0,1-4.31,7Q133.91,117.91,128.31,117.09Z"/><path d="M143.24,118.84c-.64-.09-.93-.41-.85-.94l0-.17a3.11,3.11,0,0,1,1.05-1.42,3.39,3.39,0,0,0,1.12-2l2.82-19.25a3.51,3.51,0,0,0-.51-2.25,3.18,3.18,0,0,1-.61-1.57l0-.17c.05-.31.4-.59,1.07-.84l6.82-2.18a1.55,1.55,0,0,1,1.42.14,1,1,0,0,1,.39,1l-3.84,26.21a3.18,3.18,0,0,0,.63,2.22,3,3,0,0,1,.7,1.67l0,.17c-.08.53-.45.75-1.13.65Z"/><path d="M166.77,122.71a12.12,12.12,0,0,1-7.83-4.22,10.21,10.21,0,0,1,2.18-15.09,11.8,11.8,0,0,1,8.44-1.79,12,12,0,0,1,7.73,4.18,10.35,10.35,0,0,1-2.12,15.12A11.56,11.56,0,0,1,166.77,122.71Zm1.19-1.93q2.7.39,3.45-4.79a23.52,23.52,0,0,0,.14-4.58,18.15,18.15,0,0,0-1.05-5.19c-.61-1.67-1.41-2.57-2.42-2.72a2.19,2.19,0,0,0-2.3,1,9.56,9.56,0,0,0-1.21,3.86,19,19,0,0,0-.14,3.34,31.9,31.9,0,0,0,.37,4,10,10,0,0,0,1.14,3.48A2.92,2.92,0,0,0,168,120.78Z"/><path d="M190.87,126.24a10.65,10.65,0,0,1-7.42-4.3,10.38,10.38,0,0,1-2-7.88,9.94,9.94,0,0,1,4.23-7.15,11.14,11.14,0,0,1,8-1.77,11,11,0,0,1,6.11,2.63,5.32,5.32,0,0,1,1.95,4.91,2.4,2.4,0,0,1-1,1.66,3.17,3.17,0,0,1-2.44.34,3.7,3.7,0,0,1-2.29-1.5,6.58,6.58,0,0,1-1.17-2.49,8.06,8.06,0,0,0-.94-2.4,2.32,2.32,0,0,0-1.66-1.26,2.57,2.57,0,0,0-2.33,1.08,6.33,6.33,0,0,0-1.31,3.21,10.84,10.84,0,0,0,.91,6.89,6,6,0,0,0,4.62,3.21,5.71,5.71,0,0,0,5-1.76,1,1,0,0,1,1.06-.21.76.76,0,0,1,.47.91,7,7,0,0,1-3.14,4.71A9.35,9.35,0,0,1,190.87,126.24Z"/><path d="M224.64,127.13a7.1,7.1,0,0,0,1.13,1.28c.63.64.92,1.19.86,1.64l0,.16c-.08.54-.44.76-1.09.66l-8.84-1.29c-.65-.1-.93-.42-.85-1l0-.13a2.11,2.11,0,0,1,.82-1.15c.49-.43.64-.86.44-1.29L214.2,120l-2.39,1.63-.37,2.52a3.12,3.12,0,0,0,.65,2.23,3,3,0,0,1,.72,1.67l0,.17c-.07.54-.45.75-1.12.66l-9.1-1.33c-.68-.1-1-.42-.9-1l0-.17a3,3,0,0,1,1.07-1.42,3.29,3.29,0,0,0,1.14-2l2.82-19.25a3.06,3.06,0,0,0-.7-2.27c-.58-.79-.84-1.32-.8-1.6l0-.17c0-.31.4-.59,1.07-.84l7.2-2.13a1.62,1.62,0,0,1,1.39.16,1,1,0,0,1,.37,1l-2.92,20,6.4-4.05a.79.79,0,0,0,.52-.79,2,2,0,0,0-.29-1c-.17-.3-.35-.64-.54-1a1.66,1.66,0,0,1-.23-.93l0-.17c.08-.56.44-.8,1.09-.7l6.66,1c.64.09.93.41.85.94l0,.17a1.46,1.46,0,0,1-.74.95,13.5,13.5,0,0,1-1.84,1,13,13,0,0,0-1.89,1l-3.06,2.09Z"/><path d="M73.59,224.7c27.46,41.12,67.35,62.68,89.09,48.16,4.71-3.15,19.59-10.53,21.86-16.19,8.21-20.48-10.68-52.35-32.19-84.56-21.72-32.52-44.74-62.34-66.89-62.21-5.85,0-17.66,11-22.2,14.06C41.51,138.48,46.13,183.59,73.59,224.7" fill="#f6df53"/><path d="M73.59,224.7c27.46,41.12,67.35,62.68,89.09,48.16,4.71-3.15,19.59-10.53,21.86-16.19,8.21-20.48-10.68-52.35-32.19-84.56-21.72-32.52-44.74-62.34-66.89-62.21-5.85,0-17.66,11-22.2,14.06C41.51,138.48,46.13,183.59,73.59,224.7Z" fill="none" stroke="#000" stroke-miterlimit="10" stroke-width="2.98"/><path d="M90.62,213.33C118.07,254.45,158,276,179.71,261.49s17.12-59.63-10.34-100.75S102,98.07,80.28,112.59,63.16,172.22,90.62,213.33" fill="#f6df53"/><ellipse cx="129.99" cy="187.04" rx="47.35" ry="89.52" transform="translate(-81.98 103.68) rotate(-33.73)" fill="none" stroke="#000" stroke-miterlimit="10" stroke-width="2.98"/><path d="M99.11,207.66c23.21,34.76,56.08,53.56,73.41,42s12.57-49.13-10.65-83.9-56.08-53.56-73.41-42S75.9,172.9,99.11,207.66" fill="#db5b54"/><path d="M99.11,207.66c23.21,34.76,56.08,53.56,73.41,42s12.57-49.13-10.65-83.9-56.08-53.56-73.41-42S75.9,172.9,99.11,207.66Z" fill="none" stroke="#000" stroke-miterlimit="10" stroke-width="2.98"/><path d="M127.62,183.82l-14-41.79a2.83,2.83,0,0,1-.05-1.5l.67-2.8a.91.91,0,0,1,1.55-.4l2.22,2.4a2.72,2.72,0,0,1,.62,1.06l13.67,41Z"/><path d="M134.59,186.24,168,215a2.72,2.72,0,0,1,.82,1.26l.86,2.75a.91.91,0,0,1-1.12,1.14l-3.15-.92a2.84,2.84,0,0,1-1.07-.6L131.6,190.35Z"/><path d="M127.7,188.57c2.46,3.67,6.09,5.56,8.12,4.2s1.68-5.43-.78-9.1-6.08-5.56-8.11-4.21-1.68,5.43.77,9.11" fill="#db5b54"/><path d="M127.7,188.57c2.46,3.67,6.09,5.56,8.12,4.2s1.68-5.43-.78-9.1-6.08-5.56-8.11-4.21S125.25,184.89,127.7,188.57Z" fill="none" stroke="#000" stroke-miterlimit="10" stroke-width="2.98"/></svg>