<svg xmlns="http://www.w3.org/2000/svg" xmlns:xlink="http://www.w3.org/1999/xlink" viewBox="0 0 295 210.26" width="197" height="142"><defs><clipPath id="a"><path d="M-228.8,322.19a21.74,21.74,0,0,0-21.74,21.75V547a21.74,21.74,0,0,0,21.74,21.74H-99.15c67.81,0,123.29-55.48,123.29-123.29s-55.48-123.3-123.29-123.3Z" fill="none"/></clipPath></defs><path d="M15.8,81.79,132.46,6.62a27.73,27.73,0,0,1,30.08,0L279.2,81.79a27.76,27.76,0,0,1,0,46.68L162.54,203.65a27.77,27.77,0,0,1-30.08,0L15.8,128.47a27.76,27.76,0,0,1,0-46.68" fill="#f0bec8"/><path d="M75.49,97.83A15,15,0,0,1,60.42,82.46q0-7,4.15-11.36a14.33,14.33,0,0,1,10.87-4.35,14.37,14.37,0,0,1,10.63,4.49,15.47,15.47,0,0,1,4.4,11.26,14.83,14.83,0,0,1-4.32,11.07A14.58,14.58,0,0,1,75.49,97.83Zm2.21-3.19A4.3,4.3,0,0,0,81.28,93a7.05,7.05,0,0,0,1.27-4.47,26.61,26.61,0,0,0-1.36-8,24.88,24.88,0,0,0-3.72-7.47Q75.1,70,72.68,70a4.22,4.22,0,0,0-3.52,1.61,7.41,7.41,0,0,0-1.25,4.6,27.26,27.26,0,0,0,1.36,8.32A22.7,22.7,0,0,0,73,91.7Q75.28,94.64,77.7,94.64Z"/><path d="M113,92.76a4,4,0,0,0,.49,1.64,1.82,1.82,0,0,0,.72.79,3.26,3.26,0,0,1,.66.43.8.8,0,0,1,.3.64c0,.93-1.61,1.4-4.81,1.4a7,7,0,0,1-2.92-.47,2.18,2.18,0,0,1-1.21-1.57q-1.62,2.2-5.41,2.21a9.48,9.48,0,0,1-5.81-1.66,5.63,5.63,0,0,1-2.24-4.81A5.73,5.73,0,0,1,95,86.57a8.58,8.58,0,0,1,5.45-1.72,8.29,8.29,0,0,1,4.3,1.06v-.13a29.24,29.24,0,0,0-1-5.7,2,2,0,0,0-2.07-1.49,1.82,1.82,0,0,0-1.57.89,6.28,6.28,0,0,0-.87,2,5,5,0,0,1-1,2,2.53,2.53,0,0,1-2,.89,3,3,0,0,1-2.15-.76,2.61,2.61,0,0,1-.83-2,4,4,0,0,1,2.47-3.73,13.16,13.16,0,0,1,6-1.25,10.64,10.64,0,0,1,7,2.32,9.35,9.35,0,0,1,3.3,6.27Zm-9.84,2.9a1.85,1.85,0,0,0,1.6-.94,3.78,3.78,0,0,0,.62-2.13l-.18-2q-.42-3.54-2.63-3.54a1.9,1.9,0,0,0-1.58.79,3.41,3.41,0,0,0-.6,2.11,9.62,9.62,0,0,0,.75,4C101.68,95.11,102.35,95.66,103.2,95.66Z"/><path d="M125.3,97.83a6.52,6.52,0,0,1-5.09-2A8.43,8.43,0,0,1,118.36,90V79.87h-1.62a1,1,0,0,1-.7-.28.94.94,0,0,1-.28-.7V78a.87.87,0,0,1,1-1h.81a5.08,5.08,0,0,0,3.36-1.17,5.39,5.39,0,0,0,1.83-3.13c.14-.74.53-1.11,1.15-1.11h1c.77,0,1.15.37,1.15,1.11V77h4.39a.94.94,0,0,1,.7.28,1,1,0,0,1,.28.7v.94a1,1,0,0,1-1,1H126V90.08a2.41,2.41,0,0,0,.55,1.68,1.75,1.75,0,0,0,1.37.62,3.13,3.13,0,0,0,2.81-1.57,1.06,1.06,0,0,1,.68-.45.84.84,0,0,1,.66.15.71.71,0,0,1,.27.59,6.69,6.69,0,0,1-7.06,6.73Z"/><path d="M177.32,92.72a5.36,5.36,0,0,0,1,2.11,3.23,3.23,0,0,1,.77,1.6v.17c0,.54-.34.81-1,.81h-8.85q-1,0-1-.81v-.17a3.28,3.28,0,0,1,.85-1.51,2.68,2.68,0,0,0,.64-2.2L167.1,77.86l-6.51,18.27a1.56,1.56,0,0,1-1.53,1.23,1.84,1.84,0,0,1-1.79-1.19l-7.45-19-2.3,15.54a2.74,2.74,0,0,0,.68,2.17,3.16,3.16,0,0,1,.85,1.54v.17q0,.81-1,.81h-5.28q-1,0-1-.81v-.17a3.13,3.13,0,0,1,.79-1.6,4.92,4.92,0,0,0,1-2.11l3.23-20.86a2.65,2.65,0,0,0-.74-2.17,3.17,3.17,0,0,1-.92-1.53V68c0-.54.33-.81,1-.81h5.62a2.22,2.22,0,0,1,2.3,1.53l6.17,18.05,6-18a2.21,2.21,0,0,1,2.21-1.62h5.79c.66,0,1,.27,1,.81v.17a3.41,3.41,0,0,1-.93,1.53A2.66,2.66,0,0,0,173.4,72Z"/><path d="M186.9,79.1a1.85,1.85,0,0,1-2.38,1.32A2.28,2.28,0,0,1,182.83,79a1.68,1.68,0,0,1,.71-2L187,74.08l-4-.17c-1.25,0-2-.56-2.13-1.58a2.14,2.14,0,0,1,.85-2.09,1.68,1.68,0,0,1,2.08-.08l3.66,2.09-1.1-3.92a2,2,0,0,1,.25-2,2.56,2.56,0,0,1,2-.79,2.07,2.07,0,0,1,1.88.66,2.23,2.23,0,0,1,.12,2.15l-1.19,3.92L193,70.16a1.59,1.59,0,0,1,2.43.38,2.3,2.3,0,0,1,.17,2.39,1.93,1.93,0,0,1-1.75,1l-3.87.17,3.45,3a1.47,1.47,0,0,1,.21,2.34,2.17,2.17,0,0,1-2.17.94A1.89,1.89,0,0,1,190,79l-1.44-3.91Z"/><path d="M199.16,97.41c-.65,0-1-.27-1-.81v-.17a3.16,3.16,0,0,1,.83-1.56,3.39,3.39,0,0,0,.83-2.11V73.31a3.43,3.43,0,0,0-.83-2.15,3.27,3.27,0,0,1-.83-1.47v-.17c0-.31.31-.64.94-1l6.42-3.15a1.52,1.52,0,0,1,1.43-.06,1,1,0,0,1,.53,1V92.76a3.19,3.19,0,0,0,.94,2.11,3.06,3.06,0,0,1,.94,1.56v.17q0,.81-1,.81Z"/><path d="M234,93.83a7.17,7.17,0,0,0,1.3,1.11c.72.54,1.08,1,1.08,1.49v.17c0,.54-.33.81-1,.81h-8.94c-.65,0-1-.29-1-.86v-.12a2.2,2.2,0,0,1,.64-1.26c.43-.5.51-.94.26-1.34l-3.75-5.58-2.13,2v2.55a3.12,3.12,0,0,0,1,2.11q1,1,1,1.56v.17q0,.81-1,.81h-9.2q-1,0-1-.81v-.17a3.08,3.08,0,0,1,.85-1.56,3.31,3.31,0,0,0,.85-2.11V73.31a3.07,3.07,0,0,0-1-2.15q-1-1.05-1-1.47v-.17c0-.31.31-.64.93-1l6.82-3.15a1.6,1.6,0,0,1,1.4,0,1,1,0,0,1,.51.93V86.51l5.75-4.94a.78.78,0,0,0,.4-.85,2.21,2.21,0,0,0-.42-.92c-.22-.27-.44-.57-.68-.91a1.58,1.58,0,0,1-.37-.9v-.17c0-.57.33-.85,1-.85h6.73c.65,0,1,.27,1,.81V78a1.45,1.45,0,0,1-.6,1,12.65,12.65,0,0,1-1.68,1.24,12.3,12.3,0,0,0-1.72,1.3L227.17,84Z"/><path d="M85.09,114.8a23.86,23.86,0,0,0,3.17-.24v4c-1,0-2.13-.09-3-.09H81.39c.09,4.44.21,9.52.27,13.62,0,2-1.1,3.07-3.41,3.07-1.85,0-3.55-.06-5.29-.18l-.33-4a26.18,26.18,0,0,0,4,.36c.76,0,1.07-.39,1.07-1.27,0-2,0-5.08-.06-8.21a42,42,0,0,1-12.41,10.27l-2.8-3.16c5.9-2.8,10.92-7.08,13.38-10.55h-8.3c-1.09,0-2.4.06-3.46.12v-4a29.43,29.43,0,0,0,3.37.21H77.52q0-1.18-.09-2.19c-.06-.88-.15-2-.3-3.07h4.32a24.45,24.45,0,0,0-.19,3.07l0,2.19Z"/><path d="M92.24,119.82c1.1.09,3.32.18,4.9.18h16.33c1.4,0,2.76-.12,3.55-.18v4.77c-.73,0-2.28-.15-3.55-.15H97.14c-1.73,0-3.77.06-4.9.15Z"/><path d="M127.58,120.61,123.66,122a77,77,0,0,0-3.5-8.61l3.89-1.33C125,114,126.88,118.54,127.58,120.61Zm18.79-8a19.71,19.71,0,0,0-.76,2.38,34.86,34.86,0,0,1-5.11,11.43,27.62,27.62,0,0,1-11.95,8.91l-3.4-3.41a24.44,24.44,0,0,0,12-7.84c2.49-3.17,4.22-8.61,4.68-12.77Zm-10.67,5.72-3.83,1.34a75.93,75.93,0,0,0-3.17-8.24l3.8-1.25A73.7,73.7,0,0,1,135.7,118.36Z"/><path d="M171.12,131.52l-1.67,3.8c-4.1-1.7-13.71-3.8-18.58-4.53l1.52-3.83A122.27,122.27,0,0,1,171.12,131.52ZM169.84,122l-1.48,3.8A105.59,105.59,0,0,0,152.55,122l1.39-3.68A124.86,124.86,0,0,1,169.84,122Zm2.07-8.3-1.55,3.8a103,103,0,0,0-16.45-3.8l1.43-3.59A111,111,0,0,1,171.91,113.68Z"/><path d="M175.93,132.77a14.28,14.28,0,0,0,5.17-7.27c.85-2.61.88-8.36.88-12a11.22,11.22,0,0,0-.27-2.76h4.47a19,19,0,0,0-.22,2.73c0,3.59-.09,10-.91,13.08a17.63,17.63,0,0,1-5.41,8.72Zm14.08.46a11.75,11.75,0,0,0,.24-2.25V113.25a13.54,13.54,0,0,0-.24-2.61h4.53a15,15,0,0,0-.22,2.64v15.9a19.1,19.1,0,0,0,7.51-6.41l2.35,3.34a33.49,33.49,0,0,1-10.31,8.3,8.53,8.53,0,0,0-1.34.91Z"/><path d="M231.27,115a12.34,12.34,0,0,0-1,2.19A31.86,31.86,0,0,1,225,127.33c-2.89,3.53-6.57,6.29-12.29,8.57l-3.58-3.22c6.23-1.85,9.6-4.5,12.25-7.51a21.63,21.63,0,0,0,4.32-8.3h-8.55a34.45,34.45,0,0,1-7.66,7.36l-3.4-2.53a26.68,26.68,0,0,0,9.48-9.79,14.13,14.13,0,0,0,1.37-3.19l4.44,1.46c-.73,1.07-1.49,2.43-1.86,3.1l-.09.15h6.11a9.87,9.87,0,0,0,2.65-.36Z"/></svg>