<svg xmlns="http://www.w3.org/2000/svg" viewBox="0 0 240 252.13" width="154" height="161"><path d="M234.73,159.09,193.46,63.63c-21.58-49.93-80.1-73.12-130-51.53s-73.12,80.1-51.53,130l41.27,95.45a17.44,17.44,0,0,0,22.93,9.09L225.65,182a17.44,17.44,0,0,0,9.08-22.93" fill="#db5b54"/><path d="M57.53,192.86c-.62.28-1,.16-1.26-.33l-.06-.16a3,3,0,0,1,.16-1.76,3.33,3.33,0,0,0,0-2.28L48,169.11a3.37,3.37,0,0,0-1.61-1.6c-.8-.41-1.27-.77-1.4-1.09l-.07-.15c-.21-.5,0-.88.62-1.15l8.59-3.72c.63-.27,1-.15,1.26.34l.07.16a2.91,2.91,0,0,1-.26,1.8,3.16,3.16,0,0,0-.05,2.32L63,184.23a3.42,3.42,0,0,0,1.26,1.58,1.74,1.74,0,0,0,1.75.13l4.06-1.76a3.15,3.15,0,0,0,1.65-1.73,6.73,6.73,0,0,0,.57-2.52,13,13,0,0,1,.29-2.4q.26-1.12.84-1.38l.55-.24c.65-.28,1-.06,1.2.64l1.6,6.5a1.43,1.43,0,0,1-.82,1.84Z"/><path d="M75.11,160.26a5.08,5.08,0,0,1-3.72.29,3.9,3.9,0,0,1-2.46-2.25A3.94,3.94,0,0,1,69,155a5.14,5.14,0,0,1,2.77-2.51,5.06,5.06,0,0,1,3.68-.27,3.87,3.87,0,0,1,2.46,2.25,3.92,3.92,0,0,1,0,3.33A5,5,0,0,1,75.11,160.26ZM80,183.13q-.95.41-1.26-.33l-.07-.16a3.21,3.21,0,0,1,.16-1.78,3.41,3.41,0,0,0-.06-2.29l-3.21-7.43A3.37,3.37,0,0,0,74,169.51a3.31,3.31,0,0,1-1.35-1l-.06-.15q-.21-.47.51-1.29l4.65-5.44A1.55,1.55,0,0,1,79,161a1.05,1.05,0,0,1,.86.7l6,13.83a3.19,3.19,0,0,0,1.72,1.57A3.12,3.12,0,0,1,89,178.18l.07.16c.21.49,0,.88-.66,1.16Z"/><path d="M88,148c-.89.38-1.15,1.14-.8,2.29a10,10,0,0,0,1.8,3.28A13.34,13.34,0,0,0,91.39,156l4.42-1.91a.93.93,0,0,1,.75,0,1,1,0,0,1,.53.53l.38.86a1,1,0,0,1-.51,1.29l-4.26,1.84,5.1,11.8a2.93,2.93,0,0,0,1.91,1.52c1,.34,1.53.66,1.67,1l.07.16c.21.49,0,.87-.58,1.13l-8.6,3.72c-.6.26-1,.14-1.22-.36l-.07-.16a3.08,3.08,0,0,1,.17-1.76,3.42,3.42,0,0,0-.07-2.31L86,161.46l-2.55,1.1a.93.93,0,0,1-.75,0,.92.92,0,0,1-.53-.53l-.37-.86a.92.92,0,0,1,0-.76.94.94,0,0,1,.54-.53l2.54-1.1-.85-2a8.75,8.75,0,0,1-.42-6.55q1.09-3.06,5.11-4.8a7.39,7.39,0,0,1,5.06-.43,4.77,4.77,0,0,1,3.34,2.69,2.54,2.54,0,0,1,0,1.9,2.66,2.66,0,0,1-1.56,1.54,3.61,3.61,0,0,1-2.28.31,3,3,0,0,1-1.59-.94,15.55,15.55,0,0,1-1.09-1.4,3.84,3.84,0,0,0-1.13-1.11A1.43,1.43,0,0,0,88,148Z"/><path d="M118.13,159.34a1,1,0,0,1,.84-.67.77.77,0,0,1,.84.59c.51,1.33.33,3-.54,5a8.74,8.74,0,0,1-4.79,4.48,10.16,10.16,0,0,1-8.14.27,10.6,10.6,0,0,1-5.79-6,10,10,0,0,1-.16-8.16,10.26,10.26,0,0,1,5.6-5.64,9,9,0,0,1,6.22-.74,5.2,5.2,0,0,1,3.56,2.86,2.81,2.81,0,0,1-.48,3.09l-5.88,7.73a5.44,5.44,0,0,0,5.55.62,6,6,0,0,0,2.08-1.48A4.41,4.41,0,0,0,118.13,159.34Zm-12-7.93a2.32,2.32,0,0,0-1.39,2,6,6,0,0,0,.54,3.24,14.19,14.19,0,0,0,2.36,3.85l2.69-3.76a2.47,2.47,0,0,0,.16-2.43,7,7,0,0,0-1.8-2.38A2.25,2.25,0,0,0,106.12,151.41Z"/><path d="M126.15,138.2a5.16,5.16,0,0,1-3.73.29A4.09,4.09,0,0,1,120,132.9a5.68,5.68,0,0,1,6.45-2.79,4.1,4.1,0,0,1,2.41,5.59A5,5,0,0,1,126.15,138.2Zm4.92,22.87c-.62.27-1,.16-1.26-.34l-.06-.16a3.08,3.08,0,0,1,.15-1.78,3.41,3.41,0,0,0-.06-2.29l-3.21-7.42a3.35,3.35,0,0,0-1.64-1.64,3.26,3.26,0,0,1-1.34-1l-.07-.16c-.13-.31,0-.74.51-1.28l4.65-5.45A1.55,1.55,0,0,1,130,139a1,1,0,0,1,.85.69l6,13.84a3.19,3.19,0,0,0,1.72,1.57c.87.4,1.37.75,1.5,1.06l.07.16c.21.5,0,.88-.65,1.17Z"/><path d="M160.73,143.19a4.28,4.28,0,0,0,1.58,1.62A3.19,3.19,0,0,1,163.6,146l.07.16c.22.5,0,.88-.61,1.15l-7.82,3.38c-.63.27-1,.16-1.26-.34l-.07-.16a3.3,3.3,0,0,1,.12-1.76,3.11,3.11,0,0,0-.18-2.24l-3.41-6.83a12.39,12.39,0,0,0-2.54-3.77,2.2,2.2,0,0,0-2.46-.38A2.31,2.31,0,0,0,144,137a5.64,5.64,0,0,0,.56,3.05l3.68,8.52a3.22,3.22,0,0,0,1.71,1.58c.85.4,1.35.76,1.48,1.08l.07.15c.21.5,0,.88-.62,1.15l-8.44,3.65c-.62.27-1,.16-1.26-.34l-.06-.15a3,3,0,0,1,.23-1.82,3.27,3.27,0,0,0,0-2.33l-3.33-7.7a2.21,2.21,0,0,0-1.11-1.16,8.64,8.64,0,0,0-1.46-.53,1.26,1.26,0,0,1-.91-.65l0-.12c-.14-.34,0-.8.52-1.38l4.3-5.06c.41-.43.78-.59,1.11-.51a1.26,1.26,0,0,1,.78.8l.8,1.84q.38-3.65,4.32-5.35a7.91,7.91,0,0,1,5.87-.26c2,.66,3.66,2.39,5.11,5.16Z"/><path d="M82.09,204.28a10,10,0,0,1,6.34.09,6.91,6.91,0,0,1,4,3.88,7,7,0,0,1-.82,7.12c-1.58,2.36-4.54,4.47-8.89,6.36L72,226.35q-.93.41-1.26-.33l-.07-.16a3.08,3.08,0,0,1,.17-1.76,3.33,3.33,0,0,0-.06-2.28L62.48,202.6a3.35,3.35,0,0,0-1.62-1.6c-.79-.41-1.26-.77-1.39-1.09l-.07-.15c-.21-.5,0-.88.62-1.15l10.82-4.68q5-2.18,8.48-1.35a6.6,6.6,0,0,1,4.8,4,6.17,6.17,0,0,1,.37,4.24A6.66,6.66,0,0,1,82.09,204.28Zm-12.36-4.21L71.86,205a2.1,2.1,0,0,0,1.23,1.23,2.31,2.31,0,0,0,1.76-.11l2-.85a3.3,3.3,0,0,0,2-2,4.18,4.18,0,0,0-.26-3.07,6.39,6.39,0,0,0-2.88-3.39,4.36,4.36,0,0,0-3.83,0l-1.1.47C69.47,197.77,69.15,198.71,69.73,200.07Zm13.56,18.16a4,4,0,0,0,2.39-2.36,4.5,4.5,0,0,0-.23-3.39,7,7,0,0,0-3.83-3.64,7.3,7.3,0,0,0-6.05.21l-1.64.71L77.05,217a3.87,3.87,0,0,0,1.83,2,2.9,2.9,0,0,0,2.54,0Z"/><path d="M113.58,203.32a4.44,4.44,0,0,0,1.1,1.32,1.91,1.91,0,0,0,1,.43,2.89,2.89,0,0,1,.78.13.81.81,0,0,1,.52.47c.37.86-.91,1.92-3.86,3.2a6.92,6.92,0,0,1-2.86.72,2.2,2.2,0,0,1-1.74-1q-.6,2.67-4.08,4.18a9.57,9.57,0,0,1-6,.78,5.62,5.62,0,0,1-4-3.53,5.69,5.69,0,0,1,.13-5.27A8.58,8.58,0,0,1,98.91,201a8.3,8.3,0,0,1,4.37-.73l0-.12a28.34,28.34,0,0,0-3.14-4.85,2,2,0,0,0-2.49-.55,1.82,1.82,0,0,0-1.09,1.45,6.15,6.15,0,0,0,0,2.14,4.93,4.93,0,0,1-.18,2.21,2.58,2.58,0,0,1-1.52,1.63,3,3,0,0,1-2.28.15A2.61,2.61,0,0,1,91,200.86a4,4,0,0,1,.79-4.39,13.19,13.19,0,0,1,5.05-3.56,10.7,10.7,0,0,1,7.39-.66,9.37,9.37,0,0,1,5.52,4.45Zm-7.87,6.57a1.85,1.85,0,0,0,1.09-1.5,3.76,3.76,0,0,0-.28-2.2l-.93-1.73c-1.2-2.05-2.47-2.78-3.83-2.19a1.89,1.89,0,0,0-1.13,1.35,3.38,3.38,0,0,0,.29,2.17,9.68,9.68,0,0,0,2.28,3.39A2.3,2.3,0,0,0,105.71,209.89Z"/><path d="M118.36,206.32c-.6.26-1,.14-1.22-.36l-.07-.15a3.07,3.07,0,0,1,.14-1.76,3.32,3.32,0,0,0-.07-2.26l-7.72-17.86a3.34,3.34,0,0,0-1.62-1.64,3.19,3.19,0,0,1-1.34-1l-.07-.16c-.12-.29,0-.71.47-1.27l4.65-5.44a1.59,1.59,0,0,1,1.29-.63,1,1,0,0,1,.86.67l10.51,24.31a3.17,3.17,0,0,0,1.7,1.56,3,3,0,0,1,1.48,1.05l.06.16c.22.5,0,.88-.61,1.15Z"/><path d="M145.43,189.56a4.52,4.52,0,0,0,1.1,1.31,1.88,1.88,0,0,0,1,.43,2.89,2.89,0,0,1,.77.13.8.8,0,0,1,.53.47c.37.86-.92,1.92-3.86,3.2a6.92,6.92,0,0,1-2.86.72,2.2,2.2,0,0,1-1.74-1c-.4,1.78-1.77,3.18-4.09,4.18a9.55,9.55,0,0,1-6,.78,5.62,5.62,0,0,1-4-3.53,5.72,5.72,0,0,1,.13-5.27,8.64,8.64,0,0,1,4.32-3.75,8.29,8.29,0,0,1,4.37-.73l0-.12a29.65,29.65,0,0,0-3.14-4.85,2,2,0,0,0-2.49-.55,1.82,1.82,0,0,0-1.09,1.45,6.4,6.4,0,0,0,0,2.14,4.65,4.65,0,0,1-.18,2.21,2.53,2.53,0,0,1-1.52,1.63,3,3,0,0,1-2.27.15,2.59,2.59,0,0,1-1.56-1.5,4,4,0,0,1,.79-4.4,13.17,13.17,0,0,1,5-3.55,10.64,10.64,0,0,1,7.39-.67,9.41,9.41,0,0,1,5.52,4.45Zm-7.88,6.56a1.86,1.86,0,0,0,1.1-1.5,3.84,3.84,0,0,0-.28-2.2l-.94-1.73c-1.19-2.05-2.47-2.78-3.82-2.19a1.86,1.86,0,0,0-1.13,1.35,3.38,3.38,0,0,0,.29,2.17,9.58,9.58,0,0,0,2.28,3.39A2.29,2.29,0,0,0,137.55,196.12Z"/><path d="M168.88,179.42a4.26,4.26,0,0,0,1.58,1.61,3.27,3.27,0,0,1,1.29,1.18l.07.16c.21.49,0,.87-.62,1.14l-7.81,3.38q-.94.41-1.26-.33l-.07-.16a3.33,3.33,0,0,1,.12-1.77,3.12,3.12,0,0,0-.18-2.24l-3.42-6.82a12.3,12.3,0,0,0-2.53-3.78,2.22,2.22,0,0,0-2.46-.37,2.31,2.31,0,0,0-1.46,1.83,5.67,5.67,0,0,0,.56,3.06l3.68,8.51a3.23,3.23,0,0,0,1.71,1.59c.85.4,1.35.76,1.48,1.07l.07.16c.21.49,0,.88-.62,1.15l-8.44,3.65c-.62.27-1,.15-1.26-.34l-.07-.16a3.16,3.16,0,0,1,.24-1.82,3.19,3.19,0,0,0,0-2.32l-3.32-7.7a2.2,2.2,0,0,0-1.11-1.17,9.61,9.61,0,0,0-1.46-.53,1.23,1.23,0,0,1-.91-.65l-.05-.11c-.14-.34,0-.8.52-1.39l4.3-5.06c.41-.42.77-.59,1.11-.5a1.24,1.24,0,0,1,.78.8l.8,1.83c.25-2.42,1.69-4.21,4.32-5.34a7.86,7.86,0,0,1,5.87-.27q2.94,1,5.11,5.17Z"/><path d="M182.92,178.86a10.62,10.62,0,0,1-8.56.25,10.38,10.38,0,0,1-5.84-5.66,9.92,9.92,0,0,1-.16-8.3,12.08,12.08,0,0,1,12.46-6.69,5.29,5.29,0,0,1,4.24,3.15,2.39,2.39,0,0,1,0,1.94,3.18,3.18,0,0,1-1.9,1.56,3.71,3.71,0,0,1-2.74-.06,6.72,6.72,0,0,1-2.3-1.51,7.91,7.91,0,0,0-2.06-1.55,2.33,2.33,0,0,0-2.08-.19,2.55,2.55,0,0,0-1.41,2.14,6.33,6.33,0,0,0,.57,3.42,10.81,10.81,0,0,0,4.39,5.38,6,6,0,0,0,5.63.3,5.72,5.72,0,0,0,3.36-4.14,1,1,0,0,1,.79-.74.77.77,0,0,1,.88.53,7,7,0,0,1-.2,5.65A9.23,9.23,0,0,1,182.92,178.86Z"/><path d="M205.29,161.4a.94.94,0,0,1,.85-.66.75.75,0,0,1,.83.58,6.56,6.56,0,0,1-.54,5,8.71,8.71,0,0,1-4.79,4.48,10.16,10.16,0,0,1-8.14.27,10.65,10.65,0,0,1-5.79-6,10,10,0,0,1-.16-8.16,10.28,10.28,0,0,1,5.6-5.65,9.11,9.11,0,0,1,6.22-.74,5.22,5.22,0,0,1,3.56,2.87,2.79,2.79,0,0,1-.47,3.08l-5.89,7.74a5.46,5.46,0,0,0,5.55.61,6,6,0,0,0,2.08-1.48A4.36,4.36,0,0,0,205.29,161.4Zm-12-7.93a2.35,2.35,0,0,0-1.39,2,6,6,0,0,0,.54,3.24,14.51,14.51,0,0,0,2.36,3.86l2.69-3.77a2.47,2.47,0,0,0,.16-2.43,6.74,6.74,0,0,0-1.8-2.37A2.27,2.27,0,0,0,193.28,153.47Z"/><path d="M217.31,162.86a4.91,4.91,0,0,1-2.54,2.24,5.05,5.05,0,0,1-3.38.34,3.64,3.64,0,0,1-2.37-2.27,3.58,3.58,0,0,1,0-3.24,5,5,0,0,1,2.57-2.22,4.92,4.92,0,0,1,3.35-.34,4.19,4.19,0,0,1,2.38,5.49Z"/><path d="M122.09,97.25a13.8,13.8,0,1,1-17.81-8A13.8,13.8,0,0,1,122.09,97.25Z" fill="none" stroke="#000" stroke-miterlimit="10" stroke-width="2.49"/><path d="M146.45,70.73a13.8,13.8,0,1,1-17.81-8A13.79,13.79,0,0,1,146.45,70.73Z" fill="none" stroke="#000" stroke-miterlimit="10" stroke-width="2.49"/><path d="M127.77,73s-26.22-11.12-52.51-.23c-.21.08-1,0-.8.11,3.28,2.07,24,15.26,30.23,24.73" fill="none" stroke="#000" stroke-miterlimit="10" stroke-width="2.49"/><path d="M75.94,72.26a1.83,1.83,0,0,1-2.72-.45,25.38,25.38,0,0,1-3-17.69c2.13-12,14.5-18.72,14.5-18.72s5.28,9.93,2.91,20c-2,8.64-8.16,13.93-11.67,16.82" fill="#76a780"/><path d="M75.94,72.26a1.82,1.82,0,0,1-2.72-.45,25.38,25.38,0,0,1-3-17.69c2.13-12,14.5-18.72,14.5-18.72s5.28,9.93,2.91,20C85.59,64.08,79.45,69.37,75.94,72.26Z" fill="none" stroke="#000" stroke-miterlimit="10" stroke-width="2.49"/></svg>