<svg xmlns="http://www.w3.org/2000/svg" xmlns:xlink="http://www.w3.org/1999/xlink" viewBox="0 0 310 158.31" width="213" height="117"><defs><clipPath id="a"><path d="M575.34-346.14A21.74,21.74,0,0,0,553.6-324.4v203.1a21.74,21.74,0,0,0,21.74,21.74H705c67.82,0,123.3-55.48,123.3-123.29S772.8-346.14,705-346.14Z" fill="none"/></clipPath></defs><ellipse cx="155" cy="79.15" rx="65.85" ry="154.95" transform="translate(35.79 205.96) rotate(-73.82)" fill="#f7df53"/><path d="M52.84,68.92c-.86-.25-1.19-.71-1-1.39l.06-.22c.13-.43.67-1,1.65-1.65a4.35,4.35,0,0,0,1.84-2.35l7.68-26.46a4.37,4.37,0,0,0-.3-3,4,4,0,0,1-.51-2.28l.06-.21c.2-.68.73-.9,1.59-.65l11.72,3.4c.86.25,1.2.72,1,1.4l-.06.21c-.13.43-.7,1-1.73,1.63a4.18,4.18,0,0,0-1.93,2.33L69.69,50.66l14.14,4.11,3.24-11a4.47,4.47,0,0,0-.28-3,4.15,4.15,0,0,1-.48-2.26l.06-.22c.2-.68.71-.9,1.54-.66l11.72,3.4c.86.25,1.19.72,1,1.39l-.07.22c-.12.43-.71,1-1.78,1.61a4.16,4.16,0,0,0-2,2.31L89.12,73.09a4.15,4.15,0,0,0,.44,3,3.87,3.87,0,0,1,.64,2.31l-.06.22c-.2.68-.73.89-1.59.64l-11.72-3.4c-.83-.24-1.14-.7-.94-1.38l.06-.21a4,4,0,0,1,1.62-1.66,4.46,4.46,0,0,0,1.82-2.36L82.61,59,68.52,54.87,65.19,66.15a4.2,4.2,0,0,0,.41,3,3.91,3.91,0,0,1,.62,2.3l-.07.22c-.19.68-.72.89-1.58.64Z"/><path d="M118.12,78.65a1.26,1.26,0,0,1,1.42,0,1,1,0,0,1,.36,1.3q-.9,2.65-4.72,4.58a11.45,11.45,0,0,1-8.61.53,13.39,13.39,0,0,1-8.48-6.54,14,14,0,0,1-.85-10.91,13.13,13.13,0,0,1,6.67-8.42,13.53,13.53,0,0,1,10.41-1c3.26,1,5.57,2.43,6.93,4.46a6.85,6.85,0,0,1,1.21,5.89,3.68,3.68,0,0,1-3.07,2.72l-12.45,2.92a7.19,7.19,0,0,0,5.12,5.28,7.89,7.89,0,0,0,3.34.24A5.67,5.67,0,0,0,118.12,78.65Zm-5.53-18.11a3.12,3.12,0,0,0-3.08.86,7.89,7.89,0,0,0-2.16,3.75,18.42,18.42,0,0,0-.83,5.88l5.87-1.56a3.31,3.31,0,0,0,2.2-2.34,8.94,8.94,0,0,0,.17-3.92A3,3,0,0,0,112.59,60.54Z"/><path d="M147.37,90a5.58,5.58,0,0,0,0,2.25A2.46,2.46,0,0,0,148,93.5a3.89,3.89,0,0,1,.68.78,1,1,0,0,1,.14.92c-.34,1.18-2.54,1.19-6.59,0a9.09,9.09,0,0,1-3.51-1.66,2.93,2.93,0,0,1-1-2.44q-2.85,2.2-7.64.82a12.42,12.42,0,0,1-6.73-4.23,7.37,7.37,0,0,1-1.06-6.89,7.53,7.53,0,0,1,4.55-5.24,11.21,11.21,0,0,1,7.52-.18,10.82,10.82,0,0,1,5,2.92l0-.16a37.54,37.54,0,0,0,.89-7.56A2.68,2.68,0,0,0,138.31,68a2.37,2.37,0,0,0-2.31.55,8.19,8.19,0,0,0-1.82,2.15,6.45,6.45,0,0,1-2,2.09,3.36,3.36,0,0,1-2.91.39,4,4,0,0,1-2.43-1.76,3.39,3.39,0,0,1-.32-2.83,5.25,5.25,0,0,1,4.48-3.8,17.25,17.25,0,0,1,8.1.63,14,14,0,0,1,8.05,5.51A12.35,12.35,0,0,1,149,80Zm-13.49.06a2.49,2.49,0,0,0,2.37-.6A5.1,5.1,0,0,0,137.81,87l.5-2.53q.75-4.62-2-5.43a2.49,2.49,0,0,0-2.28.41,4.53,4.53,0,0,0-1.53,2.45,12.72,12.72,0,0,0-.53,5.35C132.16,88.8,132.81,89.73,133.88,90.05Z"/><path d="M151,97.4c-.82-.24-1.13-.7-.94-1.38l.06-.22c.13-.43.67-1,1.62-1.66a4.39,4.39,0,0,0,1.82-2.35l7.14-24.58a4.54,4.54,0,0,0-.27-3,4.28,4.28,0,0,1-.51-2.16l.07-.22c.11-.39.62-.69,1.54-.89l9.27-1.62a2,2,0,0,1,1.83.44,1.36,1.36,0,0,1,.32,1.4l-9.71,33.45a4.15,4.15,0,0,0,.42,3,4,4,0,0,1,.61,2.31l-.06.21c-.2.68-.73.9-1.59.65Z"/><path d="M177.51,105.67a8.57,8.57,0,0,1-5.68-4.44c-1.06-2.17-1.13-4.86-.2-8l3.7-12.74-2-.6a1.23,1.23,0,0,1-.88-1.59l.34-1.19a1.14,1.14,0,0,1,1.6-.87l1,.29a6.7,6.7,0,0,0,4.68-.24A7.13,7.13,0,0,0,183.5,73a1.49,1.49,0,0,1,1.86-1l1.24.36a1.31,1.31,0,0,1,1.05,1.81l-1.58,5.44,5.54,1.61a1.25,1.25,0,0,1,.79.6,1.29,1.29,0,0,1,.09,1L192.14,84a1.25,1.25,0,0,1-.6.79,1.21,1.21,0,0,1-1,.09L185,83.24l-3.74,12.91a3.18,3.18,0,0,0,.08,2.33,2.29,2.29,0,0,0,1.49,1.28,4.1,4.1,0,0,0,4.13-1,1.44,1.44,0,0,1,1-.32,1.09,1.09,0,0,1,.78.43.93.93,0,0,1,.13.86,8.74,8.74,0,0,1-4.11,5.25A8.85,8.85,0,0,1,177.51,105.67Z"/><path d="M218.75,110.64a5.67,5.67,0,0,0,.25,3,4.21,4.21,0,0,1,.33,2.28l-.06.22c-.2.68-.73.9-1.59.65L207,113.64c-.86-.25-1.19-.71-1-1.4l.07-.21a4.17,4.17,0,0,1,1.57-1.7,4.41,4.41,0,0,0,1.72-2.42l2.36-10.16a14.15,14.15,0,0,0,.47-5.61,3.24,3.24,0,0,0-5.25-1.72,7.41,7.41,0,0,0-2,3.56l-3.4,11.72a4.14,4.14,0,0,0,.43,3,3.79,3.79,0,0,1,.64,2.31l-.06.21c-.2.69-.73.9-1.59.65l-11.67-3.38c-.82-.24-1.13-.7-.94-1.38l.07-.22c.12-.43.7-1,1.75-1.62a4.16,4.16,0,0,0,2-2.32l7.24-25a3.43,3.43,0,0,0-.58-2.91c-.66-1-.93-1.73-.8-2.16l0-.16a1.77,1.77,0,0,1,1.68-1.15l9.59-1.3a1.67,1.67,0,0,1,1.51.32,1.37,1.37,0,0,1,.2,1.41l-4.52,15.59a9,9,0,0,1,7.29-.62,10.53,10.53,0,0,1,6.15,4.55q2.16,3.41,1,9.17Z"/><path d="M256.58,100c.82.24,1.14.7.94,1.38l-.06.22c-.16.54-.78,1.16-1.85,1.85a10.55,10.55,0,0,0-2.43,2l-16.52,18.94a32.81,32.81,0,0,1-2.34,2.56,31.8,31.8,0,0,1-2.85,2.37,9.49,9.49,0,0,1-3.75,1.77,7.9,7.9,0,0,1-4-.13,10.11,10.11,0,0,1-5.62-3.67,5.71,5.71,0,0,1-1.12-5.05,3.89,3.89,0,0,1,1.81-2.45,4,4,0,0,1,3.1-.21,3.67,3.67,0,0,1,2.44,1.94,5.33,5.33,0,0,1,.53,2.8,11.81,11.81,0,0,0,0,2.66c.11.85.43,1.35,1,1.5q2.08.62,7.08-5.52l-4.66-24.73a14,14,0,0,0-1.08-3,4,4,0,0,1-.56-2.58l.06-.22q.3-1,1.53-.66l11.57,3.36c.79.22,1.08.7.87,1.41l-.06.22a2.38,2.38,0,0,1-.85,1.09,5.1,5.1,0,0,0-1,1.11,5,5,0,0,0-.27,2.37l1.74,14.5,8.42-10.56c.78-1.21,1.06-2.13.83-2.76a8.61,8.61,0,0,0-1.1-2c-.5-.73-.7-1.28-.6-1.63l.06-.22c.21-.72.73-1,1.55-.72Z"/></svg>