<svg xmlns="http://www.w3.org/2000/svg" xmlns:xlink="http://www.w3.org/1999/xlink" viewBox="0 0 290 197.69" width="189" height="139"><defs><clipPath id="a"><path d="M783.87,47.1a21.74,21.74,0,0,0-21.74,21.74v203.1a21.74,21.74,0,0,0,21.74,21.74H913.52c67.81,0,123.29-55.48,123.29-123.29S981.33,47.1,913.52,47.1Z" fill="none"/></clipPath></defs><path d="M281.62,20c17.18,29.76-30.06,89.2-105.51,132.76s-150.55,54.75-167.73,25S38.44,88.52,113.89,45,264.44-9.79,281.62,20" fill="#c97840"/><path d="M73.55,160a15,15,0,0,1-8.06,2.1,15.24,15.24,0,0,1-7.65-2.22,15.55,15.55,0,0,1-5.42-5.57,17.07,17.07,0,0,1-2.21-6.25,14.12,14.12,0,0,1,.34-5.88A15.06,15.06,0,0,1,53,137.26a13.42,13.42,0,0,1,4.08-3.61A16.17,16.17,0,0,1,66,131.17c2.83.13,4.79,1.15,5.89,3a3.4,3.4,0,0,1,.44,2.64,3.34,3.34,0,0,1-1.67,2.05,4.74,4.74,0,0,1-2.82.64,9,9,0,0,1-2.88-.72c-.92-.4-1.82-.82-2.71-1.26a8.92,8.92,0,0,0-2.74-.83,4,4,0,0,0-2.55.49,4.15,4.15,0,0,0-2.09,3.62,9.64,9.64,0,0,0,1.5,5.32,19.79,19.79,0,0,0,7.88,7.94q4.73,2.49,8.16.5A5.94,5.94,0,0,0,74.29,153l-2.78-4.83a2.89,2.89,0,0,0-2.1-1.25q-1.55-.28-1.8-.72l-.09-.15a.78.78,0,0,1,0-.7,1.29,1.29,0,0,1,.57-.59l8.24-4.71c.59-.34,1-.27,1.31.22l.09.15a2.86,2.86,0,0,1-.12,1.84,3,3,0,0,0,.18,2.35l2.47,4.28a4.06,4.06,0,0,1,0,3.66A14.93,14.93,0,0,1,73.55,160Z"/><path d="M96.7,146.62a12.14,12.14,0,0,1-8.76,1.55,9.77,9.77,0,0,1-6.79-4.9A9.66,9.66,0,0,1,80.3,135a11.8,11.8,0,0,1,5.5-6.64,12,12,0,0,1,8.66-1.51A10.33,10.33,0,0,1,102.17,140,11.56,11.56,0,0,1,96.7,146.62Zm-.27-2.25c1.58-.91,1.49-2.87-.26-5.9a23.78,23.78,0,0,0-2.73-3.68,18.57,18.57,0,0,0-4-3.42c-1.51-.93-2.7-1.14-3.59-.63A2.2,2.2,0,0,0,84.63,133a9.51,9.51,0,0,0,1.45,3.78,19,19,0,0,0,2,2.71,33.49,33.49,0,0,0,2.74,2.87,10.2,10.2,0,0,0,3.06,2A2.89,2.89,0,0,0,96.43,144.37Z"/><path d="M128.85,128.06a15,15,0,0,1-20.73-5.77q-3.53-6.09-2.09-11.92a15.28,15.28,0,0,1,18.69-10.62,15.43,15.43,0,0,1,9.45,7.55A14.82,14.82,0,0,1,136,119,14.61,14.61,0,0,1,128.85,128.06Zm.32-3.87a4.31,4.31,0,0,0,2.29-3.19,7,7,0,0,0-1.13-4.51,26.66,26.66,0,0,0-5.17-6.23,24.82,24.82,0,0,0-7-4.61c-2.42-1-4.32-1.14-5.72-.33a4.18,4.18,0,0,0-2.24,3.16,7.39,7.39,0,0,0,1.21,4.6,27.08,27.08,0,0,0,5.35,6.53,22.38,22.38,0,0,0,6.79,4.41Q127.07,125.4,129.17,124.19Z"/><path d="M158.84,104.9a4.17,4.17,0,0,0,1.24,1.17,1.79,1.79,0,0,0,1,.32,3.35,3.35,0,0,1,.78,0,.83.83,0,0,1,.58.41q.71,1.22-3.46,3.62a7,7,0,0,1-2.76,1.05,2.19,2.19,0,0,1-1.84-.76c-.19,1.82-1.39,3.36-3.57,4.63a9.48,9.48,0,0,1-5.87,1.46,5.62,5.62,0,0,1-4.34-3,5.74,5.74,0,0,1-.48-5.25,8.65,8.65,0,0,1,3.86-4.22,8.23,8.23,0,0,1,4.26-1.23l-.07-.11a28.58,28.58,0,0,0-3.68-4.46,2,2,0,0,0-2.53-.26,1.83,1.83,0,0,0-.92,1.57,6.2,6.2,0,0,0,.23,2.13,4.83,4.83,0,0,1,.07,2.21A2.51,2.51,0,0,1,140,106a3,3,0,0,1-2.25.41,2.59,2.59,0,0,1-1.72-1.32,4,4,0,0,1,.28-4.46A13.37,13.37,0,0,1,141,96.49,10.68,10.68,0,0,1,148.22,95a9.36,9.36,0,0,1,6,3.79Zm-7.07,7.42a1.83,1.83,0,0,0,.91-1.6,3.74,3.74,0,0,0-.53-2.16L151,107q-2.15-2.85-4.06-1.74a1.9,1.9,0,0,0-1,1.47,3.4,3.4,0,0,0,.54,2.12,9.75,9.75,0,0,0,2.66,3.12A2.28,2.28,0,0,0,151.77,112.32Z"/><path d="M172,103.16a6.56,6.56,0,0,1-5.43.77A8.39,8.39,0,0,1,162,99.81l-5-8.74-1.41.81a.93.93,0,0,1-.74.11,1,1,0,0,1-.59-.47l-.47-.81a.86.86,0,0,1,.36-1.34l.7-.4a5.12,5.12,0,0,0,2.32-2.7,5.44,5.44,0,0,0,0-3.63,1.13,1.13,0,0,1,.44-1.53l.85-.49A1,1,0,0,1,160,81l2.14,3.72,3.8-2.19a1,1,0,0,1,1.34.35l.47.82a.93.93,0,0,1,.11.74,1,1,0,0,1-.47.59l-3.8,2.2,5.11,8.84a2.5,2.5,0,0,0,1.32,1.19,1.77,1.77,0,0,0,1.49-.15,3.15,3.15,0,0,0,1.65-2.77,1.09,1.09,0,0,1,.36-.73.84.84,0,0,1,.65-.2.69.69,0,0,1,.53.38,6.64,6.64,0,0,1,.72,5A6.77,6.77,0,0,1,172,103.16Z"/><path d="M187.3,94.26a14.33,14.33,0,0,1-6.51,2.17q-3,.12-4.09-1.8a2.5,2.5,0,0,1-.3-2.18A3.36,3.36,0,0,1,178,90.76a3,3,0,0,1,2.45-.35,4.79,4.79,0,0,1,2,1.15,5.62,5.62,0,0,0,1.89,1.23,2.28,2.28,0,0,0,2.08-.15,2.05,2.05,0,0,0,.82-3.18A2.92,2.92,0,0,0,185,88a8.3,8.3,0,0,0-3.13.23c-1.12.29-2.25.53-3.39.73a6.46,6.46,0,0,1-3.44-.32A5.62,5.62,0,0,1,172.14,86a5.53,5.53,0,0,1-.16-5.29,10.86,10.86,0,0,1,4.7-4.8A12.47,12.47,0,0,1,183,73.93c1.94,0,3.26.66,4,1.89a2.39,2.39,0,0,1,.21,2,2.92,2.92,0,0,1-1.38,1.66,2.83,2.83,0,0,1-2.37.33,4.8,4.8,0,0,1-1.93-1.17,6.41,6.41,0,0,0-1.72-1.29,1.78,1.78,0,0,0-1.8,0,1.74,1.74,0,0,0-.91,1.36,2.86,2.86,0,0,0,.39,1.74,3.24,3.24,0,0,0,2.26,1.65,7.57,7.57,0,0,0,3.1-.07c1.09-.24,2.2-.45,3.32-.64a6.44,6.44,0,0,1,3.33.32,5.23,5.23,0,0,1,2.73,2.48,5.3,5.3,0,0,1,.09,5.13A11.49,11.49,0,0,1,187.3,94.26Z"/><path d="M190.53,65.46a5.15,5.15,0,0,1-3.66.72,4.1,4.1,0,0,1-3.05-5.28,5.72,5.72,0,0,1,6.09-3.51,4.08,4.08,0,0,1,3,5.27A5,5,0,0,1,190.53,65.46Zm7.53,22.15c-.59.34-1,.28-1.29-.19l-.08-.15a3.13,3.13,0,0,1-.05-1.79,3.39,3.39,0,0,0-.33-2.26l-4-7a3.4,3.4,0,0,0-1.82-1.44A3.27,3.27,0,0,1,189,74l-.08-.15c-.17-.3,0-.74.36-1.34l4-5.94a1.57,1.57,0,0,1,1.17-.78,1.05,1.05,0,0,1,.94.59l7.53,13.05a3.24,3.24,0,0,0,1.89,1.37,3.06,3.06,0,0,1,1.62.88l.09.15c.27.47.09.88-.52,1.23Z"/><path d="M225,66.71a3.29,3.29,0,0,0,1.79,1.4,3.09,3.09,0,0,1,1.51.92l.09.15c.27.47.12.86-.44,1.19l-5.28,3a1,1,0,0,1-1.49-.36l-.19-.34a7.28,7.28,0,0,1-3.56,4.22A9.86,9.86,0,0,1,209.86,78a10.26,10.26,0,0,1-6.47-5.28,10.38,10.38,0,0,1-1.24-8.11,9.64,9.64,0,0,1,4.65-6.15,7.65,7.65,0,0,1,4.4-1.16l-2.83-4.91a2.13,2.13,0,0,0-1.22-1,8.9,8.9,0,0,0-1.51-.36,1.25,1.25,0,0,1-1-.54l-.07-.11a1.15,1.15,0,0,1,.3-1.45l4.75-5.06c.88-1,1.59-1,2.13,0Zm-7.14,7.56a2.26,2.26,0,0,0,1.21-1.78,4.06,4.06,0,0,0-.64-2.68L214.3,62.7a6.14,6.14,0,0,0-2.85-2.6,3.27,3.27,0,0,0-3.12-.09q-2.73,1.58-.3,6.21a22.12,22.12,0,0,0,2.64,3.84,18,18,0,0,0,3.78,3.49Q216.54,75,217.84,74.27Z"/><path d="M242.26,54.33a1,1,0,0,1,.77-.77.76.76,0,0,1,.89.5c.66,1.25.67,2.92,0,5a8.74,8.74,0,0,1-4.24,5,10.19,10.19,0,0,1-8.06,1.21A10.63,10.63,0,0,1,225.22,60a10,10,0,0,1-1.1-8.08A10.25,10.25,0,0,1,229,45.64a9.07,9.07,0,0,1,6.09-1.45A5.18,5.18,0,0,1,239,46.63a2.78,2.78,0,0,1-.11,3.11l-5,8.37a5.49,5.49,0,0,0,5.59,0,6,6,0,0,0,1.89-1.71A4.34,4.34,0,0,0,242.26,54.33Zm-12.84-6.5A2.36,2.36,0,0,0,228.27,50a6,6,0,0,0,.91,3.16A14.08,14.08,0,0,0,232,56.68l2.24-4a2.5,2.5,0,0,0-.13-2.44A6.76,6.76,0,0,0,232,48.05,2.27,2.27,0,0,0,229.42,47.83Z"/></svg>